<svg width="481" height="429" viewBox="0 0 481 429" fill="none" xmlns="http://www.w3.org/2000/svg">
<mask id="mask0_216_3494" style="mask-type:alpha" maskUnits="userSpaceOnUse" x="0" y="-51" width="337" height="336">
<rect width="336" height="336" transform="translate(0.5 -51)" fill="url(#paint0_radial_216_3494)"/>
</mask>
<g mask="url(#mask0_216_3494)">
<path d="M8.5 -44.5C8.5 -43.6716 7.82843 -43 7 -43C6.17157 -43 5.5 -43.6716 5.5 -44.5C5.5 -45.3284 6.17157 -46 7 -46C7.82843 -46 8.5 -45.3284 8.5 -44.5Z" fill="#E5E7EB"/>
<path d="M27.5 -44.5C27.5 -43.6716 26.8284 -43 26 -43C25.1716 -43 24.5 -43.6716 24.5 -44.5C24.5 -45.3284 25.1716 -46 26 -46C26.8284 -46 27.5 -45.3284 27.5 -44.5Z" fill="#E5E7EB"/>
<path d="M46.5 -44.5C46.5 -43.6716 45.8284 -43 45 -43C44.1716 -43 43.5 -43.6716 43.5 -44.5C43.5 -45.3284 44.1716 -46 45 -46C45.8284 -46 46.5 -45.3284 46.5 -44.5Z" fill="#E5E7EB"/>
<path d="M65.5 -44.5C65.5 -43.6716 64.8284 -43 64 -43C63.1716 -43 62.5 -43.6716 62.5 -44.5C62.5 -45.3284 63.1716 -46 64 -46C64.8284 -46 65.5 -45.3284 65.5 -44.5Z" fill="#E5E7EB"/>
<path d="M84.5 -44.5C84.5 -43.6716 83.8284 -43 83 -43C82.1716 -43 81.5 -43.6716 81.5 -44.5C81.5 -45.3284 82.1716 -46 83 -46C83.8284 -46 84.5 -45.3284 84.5 -44.5Z" fill="#E5E7EB"/>
<path d="M103.5 -44.5C103.5 -43.6716 102.828 -43 102 -43C101.172 -43 100.5 -43.6716 100.5 -44.5C100.5 -45.3284 101.172 -46 102 -46C102.828 -46 103.5 -45.3284 103.5 -44.5Z" fill="#E5E7EB"/>
<path d="M122.5 -44.5C122.5 -43.6716 121.828 -43 121 -43C120.172 -43 119.5 -43.6716 119.5 -44.5C119.5 -45.3284 120.172 -46 121 -46C121.828 -46 122.5 -45.3284 122.5 -44.5Z" fill="#E5E7EB"/>
<path d="M141.5 -44.5C141.5 -43.6716 140.828 -43 140 -43C139.172 -43 138.5 -43.6716 138.5 -44.5C138.5 -45.3284 139.172 -46 140 -46C140.828 -46 141.5 -45.3284 141.5 -44.5Z" fill="#E5E7EB"/>
<path d="M160.5 -44.5C160.5 -43.6716 159.828 -43 159 -43C158.172 -43 157.5 -43.6716 157.5 -44.5C157.5 -45.3284 158.172 -46 159 -46C159.828 -46 160.5 -45.3284 160.5 -44.5Z" fill="#E5E7EB"/>
<path d="M179.5 -44.5C179.5 -43.6716 178.828 -43 178 -43C177.172 -43 176.5 -43.6716 176.5 -44.5C176.5 -45.3284 177.172 -46 178 -46C178.828 -46 179.5 -45.3284 179.5 -44.5Z" fill="#E5E7EB"/>
<path d="M198.5 -44.5C198.5 -43.6716 197.828 -43 197 -43C196.172 -43 195.5 -43.6716 195.5 -44.5C195.5 -45.3284 196.172 -46 197 -46C197.828 -46 198.5 -45.3284 198.5 -44.5Z" fill="#E5E7EB"/>
<path d="M217.5 -44.5C217.5 -43.6716 216.828 -43 216 -43C215.172 -43 214.5 -43.6716 214.5 -44.5C214.5 -45.3284 215.172 -46 216 -46C216.828 -46 217.5 -45.3284 217.5 -44.5Z" fill="#E5E7EB"/>
<path d="M236.5 -44.5C236.5 -43.6716 235.828 -43 235 -43C234.172 -43 233.5 -43.6716 233.5 -44.5C233.5 -45.3284 234.172 -46 235 -46C235.828 -46 236.5 -45.3284 236.5 -44.5Z" fill="#E5E7EB"/>
<path d="M255.5 -44.5C255.5 -43.6716 254.828 -43 254 -43C253.172 -43 252.5 -43.6716 252.5 -44.5C252.5 -45.3284 253.172 -46 254 -46C254.828 -46 255.5 -45.3284 255.5 -44.5Z" fill="#E5E7EB"/>
<path d="M274.5 -44.5C274.5 -43.6716 273.828 -43 273 -43C272.172 -43 271.5 -43.6716 271.5 -44.5C271.5 -45.3284 272.172 -46 273 -46C273.828 -46 274.5 -45.3284 274.5 -44.5Z" fill="#E5E7EB"/>
<path d="M293.5 -44.5C293.5 -43.6716 292.828 -43 292 -43C291.172 -43 290.5 -43.6716 290.5 -44.5C290.5 -45.3284 291.172 -46 292 -46C292.828 -46 293.5 -45.3284 293.5 -44.5Z" fill="#E5E7EB"/>
<path d="M312.5 -44.5C312.5 -43.6716 311.828 -43 311 -43C310.172 -43 309.5 -43.6716 309.5 -44.5C309.5 -45.3284 310.172 -46 311 -46C311.828 -46 312.5 -45.3284 312.5 -44.5Z" fill="#E5E7EB"/>
<path d="M331.5 -44.5C331.5 -43.6716 330.828 -43 330 -43C329.172 -43 328.5 -43.6716 328.5 -44.5C328.5 -45.3284 329.172 -46 330 -46C330.828 -46 331.5 -45.3284 331.5 -44.5Z" fill="#E5E7EB"/>
<path d="M8.5 -25.5C8.5 -24.6716 7.82843 -24 7 -24C6.17157 -24 5.5 -24.6716 5.5 -25.5C5.5 -26.3284 6.17157 -27 7 -27C7.82843 -27 8.5 -26.3284 8.5 -25.5Z" fill="#E5E7EB"/>
<path d="M27.5 -25.5C27.5 -24.6716 26.8284 -24 26 -24C25.1716 -24 24.5 -24.6716 24.5 -25.5C24.5 -26.3284 25.1716 -27 26 -27C26.8284 -27 27.5 -26.3284 27.5 -25.5Z" fill="#E5E7EB"/>
<path d="M46.5 -25.5C46.5 -24.6716 45.8284 -24 45 -24C44.1716 -24 43.5 -24.6716 43.5 -25.5C43.5 -26.3284 44.1716 -27 45 -27C45.8284 -27 46.5 -26.3284 46.5 -25.5Z" fill="#E5E7EB"/>
<path d="M65.5 -25.5C65.5 -24.6716 64.8284 -24 64 -24C63.1716 -24 62.5 -24.6716 62.5 -25.5C62.5 -26.3284 63.1716 -27 64 -27C64.8284 -27 65.5 -26.3284 65.5 -25.5Z" fill="#E5E7EB"/>
<path d="M84.5 -25.5C84.5 -24.6716 83.8284 -24 83 -24C82.1716 -24 81.5 -24.6716 81.5 -25.5C81.5 -26.3284 82.1716 -27 83 -27C83.8284 -27 84.5 -26.3284 84.5 -25.5Z" fill="#E5E7EB"/>
<path d="M103.5 -25.5C103.5 -24.6716 102.828 -24 102 -24C101.172 -24 100.5 -24.6716 100.5 -25.5C100.5 -26.3284 101.172 -27 102 -27C102.828 -27 103.5 -26.3284 103.5 -25.5Z" fill="#E5E7EB"/>
<path d="M122.5 -25.5C122.5 -24.6716 121.828 -24 121 -24C120.172 -24 119.5 -24.6716 119.5 -25.5C119.5 -26.3284 120.172 -27 121 -27C121.828 -27 122.5 -26.3284 122.5 -25.5Z" fill="#E5E7EB"/>
<path d="M141.5 -25.5C141.5 -24.6716 140.828 -24 140 -24C139.172 -24 138.5 -24.6716 138.5 -25.5C138.5 -26.3284 139.172 -27 140 -27C140.828 -27 141.5 -26.3284 141.5 -25.5Z" fill="#E5E7EB"/>
<path d="M160.5 -25.5C160.5 -24.6716 159.828 -24 159 -24C158.172 -24 157.5 -24.6716 157.5 -25.5C157.5 -26.3284 158.172 -27 159 -27C159.828 -27 160.5 -26.3284 160.5 -25.5Z" fill="#E5E7EB"/>
<path d="M179.5 -25.5C179.5 -24.6716 178.828 -24 178 -24C177.172 -24 176.5 -24.6716 176.5 -25.5C176.5 -26.3284 177.172 -27 178 -27C178.828 -27 179.5 -26.3284 179.5 -25.5Z" fill="#E5E7EB"/>
<path d="M198.5 -25.5C198.5 -24.6716 197.828 -24 197 -24C196.172 -24 195.5 -24.6716 195.5 -25.5C195.5 -26.3284 196.172 -27 197 -27C197.828 -27 198.5 -26.3284 198.5 -25.5Z" fill="#E5E7EB"/>
<path d="M217.5 -25.5C217.5 -24.6716 216.828 -24 216 -24C215.172 -24 214.5 -24.6716 214.5 -25.5C214.5 -26.3284 215.172 -27 216 -27C216.828 -27 217.5 -26.3284 217.5 -25.5Z" fill="#E5E7EB"/>
<path d="M236.5 -25.5C236.5 -24.6716 235.828 -24 235 -24C234.172 -24 233.5 -24.6716 233.5 -25.5C233.5 -26.3284 234.172 -27 235 -27C235.828 -27 236.5 -26.3284 236.5 -25.5Z" fill="#E5E7EB"/>
<path d="M255.5 -25.5C255.5 -24.6716 254.828 -24 254 -24C253.172 -24 252.5 -24.6716 252.5 -25.5C252.5 -26.3284 253.172 -27 254 -27C254.828 -27 255.5 -26.3284 255.5 -25.5Z" fill="#E5E7EB"/>
<path d="M274.5 -25.5C274.5 -24.6716 273.828 -24 273 -24C272.172 -24 271.5 -24.6716 271.5 -25.5C271.5 -26.3284 272.172 -27 273 -27C273.828 -27 274.5 -26.3284 274.5 -25.5Z" fill="#E5E7EB"/>
<path d="M293.5 -25.5C293.5 -24.6716 292.828 -24 292 -24C291.172 -24 290.5 -24.6716 290.5 -25.5C290.5 -26.3284 291.172 -27 292 -27C292.828 -27 293.5 -26.3284 293.5 -25.5Z" fill="#E5E7EB"/>
<path d="M312.5 -25.5C312.5 -24.6716 311.828 -24 311 -24C310.172 -24 309.5 -24.6716 309.5 -25.5C309.5 -26.3284 310.172 -27 311 -27C311.828 -27 312.5 -26.3284 312.5 -25.5Z" fill="#E5E7EB"/>
<path d="M331.5 -25.5C331.5 -24.6716 330.828 -24 330 -24C329.172 -24 328.5 -24.6716 328.5 -25.5C328.5 -26.3284 329.172 -27 330 -27C330.828 -27 331.5 -26.3284 331.5 -25.5Z" fill="#E5E7EB"/>
<path d="M8.5 -6.5C8.5 -5.67157 7.82843 -5 7 -5C6.17157 -5 5.5 -5.67157 5.5 -6.5C5.5 -7.32843 6.17157 -8 7 -8C7.82843 -8 8.5 -7.32843 8.5 -6.5Z" fill="#E5E7EB"/>
<path d="M27.5 -6.5C27.5 -5.67157 26.8284 -5 26 -5C25.1716 -5 24.5 -5.67157 24.5 -6.5C24.5 -7.32843 25.1716 -8 26 -8C26.8284 -8 27.5 -7.32843 27.5 -6.5Z" fill="#E5E7EB"/>
<path d="M46.5 -6.5C46.5 -5.67157 45.8284 -5 45 -5C44.1716 -5 43.5 -5.67157 43.5 -6.5C43.5 -7.32843 44.1716 -8 45 -8C45.8284 -8 46.5 -7.32843 46.5 -6.5Z" fill="#E5E7EB"/>
<path d="M65.5 -6.5C65.5 -5.67157 64.8284 -5 64 -5C63.1716 -5 62.5 -5.67157 62.5 -6.5C62.5 -7.32843 63.1716 -8 64 -8C64.8284 -8 65.5 -7.32843 65.5 -6.5Z" fill="#E5E7EB"/>
<path d="M84.5 -6.5C84.5 -5.67157 83.8284 -5 83 -5C82.1716 -5 81.5 -5.67157 81.5 -6.5C81.5 -7.32843 82.1716 -8 83 -8C83.8284 -8 84.5 -7.32843 84.5 -6.5Z" fill="#E5E7EB"/>
<path d="M103.5 -6.5C103.5 -5.67157 102.828 -5 102 -5C101.172 -5 100.5 -5.67157 100.5 -6.5C100.5 -7.32843 101.172 -8 102 -8C102.828 -8 103.5 -7.32843 103.5 -6.5Z" fill="#E5E7EB"/>
<path d="M122.5 -6.5C122.5 -5.67157 121.828 -5 121 -5C120.172 -5 119.5 -5.67157 119.5 -6.5C119.5 -7.32843 120.172 -8 121 -8C121.828 -8 122.5 -7.32843 122.5 -6.5Z" fill="#E5E7EB"/>
<path d="M141.5 -6.5C141.5 -5.67157 140.828 -5 140 -5C139.172 -5 138.5 -5.67157 138.5 -6.5C138.5 -7.32843 139.172 -8 140 -8C140.828 -8 141.5 -7.32843 141.5 -6.5Z" fill="#E5E7EB"/>
<path d="M160.5 -6.5C160.5 -5.67157 159.828 -5 159 -5C158.172 -5 157.5 -5.67157 157.5 -6.5C157.5 -7.32843 158.172 -8 159 -8C159.828 -8 160.5 -7.32843 160.5 -6.5Z" fill="#E5E7EB"/>
<path d="M179.5 -6.5C179.5 -5.67157 178.828 -5 178 -5C177.172 -5 176.5 -5.67157 176.5 -6.5C176.5 -7.32843 177.172 -8 178 -8C178.828 -8 179.5 -7.32843 179.5 -6.5Z" fill="#E5E7EB"/>
<path d="M198.5 -6.5C198.5 -5.67157 197.828 -5 197 -5C196.172 -5 195.5 -5.67157 195.5 -6.5C195.5 -7.32843 196.172 -8 197 -8C197.828 -8 198.5 -7.32843 198.5 -6.5Z" fill="#E5E7EB"/>
<path d="M217.5 -6.5C217.5 -5.67157 216.828 -5 216 -5C215.172 -5 214.5 -5.67157 214.5 -6.5C214.5 -7.32843 215.172 -8 216 -8C216.828 -8 217.5 -7.32843 217.5 -6.5Z" fill="#E5E7EB"/>
<path d="M236.5 -6.5C236.5 -5.67157 235.828 -5 235 -5C234.172 -5 233.5 -5.67157 233.5 -6.5C233.5 -7.32843 234.172 -8 235 -8C235.828 -8 236.5 -7.32843 236.5 -6.5Z" fill="#E5E7EB"/>
<path d="M255.5 -6.5C255.5 -5.67157 254.828 -5 254 -5C253.172 -5 252.5 -5.67157 252.5 -6.5C252.5 -7.32843 253.172 -8 254 -8C254.828 -8 255.5 -7.32843 255.5 -6.5Z" fill="#E5E7EB"/>
<path d="M274.5 -6.5C274.5 -5.67157 273.828 -5 273 -5C272.172 -5 271.5 -5.67157 271.5 -6.5C271.5 -7.32843 272.172 -8 273 -8C273.828 -8 274.5 -7.32843 274.5 -6.5Z" fill="#E5E7EB"/>
<path d="M293.5 -6.5C293.5 -5.67157 292.828 -5 292 -5C291.172 -5 290.5 -5.67157 290.5 -6.5C290.5 -7.32843 291.172 -8 292 -8C292.828 -8 293.5 -7.32843 293.5 -6.5Z" fill="#E5E7EB"/>
<path d="M312.5 -6.5C312.5 -5.67157 311.828 -5 311 -5C310.172 -5 309.5 -5.67157 309.5 -6.5C309.5 -7.32843 310.172 -8 311 -8C311.828 -8 312.5 -7.32843 312.5 -6.5Z" fill="#E5E7EB"/>
<path d="M331.5 -6.5C331.5 -5.67157 330.828 -5 330 -5C329.172 -5 328.5 -5.67157 328.5 -6.5C328.5 -7.32843 329.172 -8 330 -8C330.828 -8 331.5 -7.32843 331.5 -6.5Z" fill="#E5E7EB"/>
<path d="M8.5 12.5C8.5 13.3284 7.82843 14 7 14C6.17157 14 5.5 13.3284 5.5 12.5C5.5 11.6716 6.17157 11 7 11C7.82843 11 8.5 11.6716 8.5 12.5Z" fill="#E5E7EB"/>
<path d="M27.5 12.5C27.5 13.3284 26.8284 14 26 14C25.1716 14 24.5 13.3284 24.5 12.5C24.5 11.6716 25.1716 11 26 11C26.8284 11 27.5 11.6716 27.5 12.5Z" fill="#E5E7EB"/>
<path d="M46.5 12.5C46.5 13.3284 45.8284 14 45 14C44.1716 14 43.5 13.3284 43.5 12.5C43.5 11.6716 44.1716 11 45 11C45.8284 11 46.5 11.6716 46.5 12.5Z" fill="#E5E7EB"/>
<path d="M65.5 12.5C65.5 13.3284 64.8284 14 64 14C63.1716 14 62.5 13.3284 62.5 12.5C62.5 11.6716 63.1716 11 64 11C64.8284 11 65.5 11.6716 65.5 12.5Z" fill="#E5E7EB"/>
<path d="M84.5 12.5C84.5 13.3284 83.8284 14 83 14C82.1716 14 81.5 13.3284 81.5 12.5C81.5 11.6716 82.1716 11 83 11C83.8284 11 84.5 11.6716 84.5 12.5Z" fill="#E5E7EB"/>
<path d="M103.5 12.5C103.5 13.3284 102.828 14 102 14C101.172 14 100.5 13.3284 100.5 12.5C100.5 11.6716 101.172 11 102 11C102.828 11 103.5 11.6716 103.5 12.5Z" fill="#E5E7EB"/>
<path d="M122.5 12.5C122.5 13.3284 121.828 14 121 14C120.172 14 119.5 13.3284 119.5 12.5C119.5 11.6716 120.172 11 121 11C121.828 11 122.5 11.6716 122.5 12.5Z" fill="#E5E7EB"/>
<path d="M141.5 12.5C141.5 13.3284 140.828 14 140 14C139.172 14 138.5 13.3284 138.5 12.5C138.5 11.6716 139.172 11 140 11C140.828 11 141.5 11.6716 141.5 12.5Z" fill="#E5E7EB"/>
<path d="M160.5 12.5C160.5 13.3284 159.828 14 159 14C158.172 14 157.5 13.3284 157.5 12.5C157.5 11.6716 158.172 11 159 11C159.828 11 160.5 11.6716 160.5 12.5Z" fill="#E5E7EB"/>
<path d="M179.5 12.5C179.5 13.3284 178.828 14 178 14C177.172 14 176.5 13.3284 176.5 12.5C176.5 11.6716 177.172 11 178 11C178.828 11 179.5 11.6716 179.5 12.5Z" fill="#E5E7EB"/>
<path d="M198.5 12.5C198.5 13.3284 197.828 14 197 14C196.172 14 195.5 13.3284 195.5 12.5C195.5 11.6716 196.172 11 197 11C197.828 11 198.5 11.6716 198.5 12.5Z" fill="#E5E7EB"/>
<path d="M217.5 12.5C217.5 13.3284 216.828 14 216 14C215.172 14 214.5 13.3284 214.5 12.5C214.5 11.6716 215.172 11 216 11C216.828 11 217.5 11.6716 217.5 12.5Z" fill="#E5E7EB"/>
<path d="M236.5 12.5C236.5 13.3284 235.828 14 235 14C234.172 14 233.5 13.3284 233.5 12.5C233.5 11.6716 234.172 11 235 11C235.828 11 236.5 11.6716 236.5 12.5Z" fill="#E5E7EB"/>
<path d="M255.5 12.5C255.5 13.3284 254.828 14 254 14C253.172 14 252.5 13.3284 252.5 12.5C252.5 11.6716 253.172 11 254 11C254.828 11 255.5 11.6716 255.5 12.5Z" fill="#E5E7EB"/>
<path d="M274.5 12.5C274.5 13.3284 273.828 14 273 14C272.172 14 271.5 13.3284 271.5 12.5C271.5 11.6716 272.172 11 273 11C273.828 11 274.5 11.6716 274.5 12.5Z" fill="#E5E7EB"/>
<path d="M293.5 12.5C293.5 13.3284 292.828 14 292 14C291.172 14 290.5 13.3284 290.5 12.5C290.5 11.6716 291.172 11 292 11C292.828 11 293.5 11.6716 293.5 12.5Z" fill="#E5E7EB"/>
<path d="M312.5 12.5C312.5 13.3284 311.828 14 311 14C310.172 14 309.5 13.3284 309.5 12.5C309.5 11.6716 310.172 11 311 11C311.828 11 312.5 11.6716 312.5 12.5Z" fill="#E5E7EB"/>
<path d="M331.5 12.5C331.5 13.3284 330.828 14 330 14C329.172 14 328.5 13.3284 328.5 12.5C328.5 11.6716 329.172 11 330 11C330.828 11 331.5 11.6716 331.5 12.5Z" fill="#E5E7EB"/>
<path d="M8.5 31.5C8.5 32.3284 7.82843 33 7 33C6.17157 33 5.5 32.3284 5.5 31.5C5.5 30.6716 6.17157 30 7 30C7.82843 30 8.5 30.6716 8.5 31.5Z" fill="#E5E7EB"/>
<path d="M27.5 31.5C27.5 32.3284 26.8284 33 26 33C25.1716 33 24.5 32.3284 24.5 31.5C24.5 30.6716 25.1716 30 26 30C26.8284 30 27.5 30.6716 27.5 31.5Z" fill="#E5E7EB"/>
<path d="M46.5 31.5C46.5 32.3284 45.8284 33 45 33C44.1716 33 43.5 32.3284 43.5 31.5C43.5 30.6716 44.1716 30 45 30C45.8284 30 46.5 30.6716 46.5 31.5Z" fill="#E5E7EB"/>
<path d="M65.5 31.5C65.5 32.3284 64.8284 33 64 33C63.1716 33 62.5 32.3284 62.5 31.5C62.5 30.6716 63.1716 30 64 30C64.8284 30 65.5 30.6716 65.5 31.5Z" fill="#E5E7EB"/>
<path d="M84.5 31.5C84.5 32.3284 83.8284 33 83 33C82.1716 33 81.5 32.3284 81.5 31.5C81.5 30.6716 82.1716 30 83 30C83.8284 30 84.5 30.6716 84.5 31.5Z" fill="#E5E7EB"/>
<path d="M103.5 31.5C103.5 32.3284 102.828 33 102 33C101.172 33 100.5 32.3284 100.5 31.5C100.5 30.6716 101.172 30 102 30C102.828 30 103.5 30.6716 103.5 31.5Z" fill="#E5E7EB"/>
<path d="M122.5 31.5C122.5 32.3284 121.828 33 121 33C120.172 33 119.5 32.3284 119.5 31.5C119.5 30.6716 120.172 30 121 30C121.828 30 122.5 30.6716 122.5 31.5Z" fill="#E5E7EB"/>
<path d="M141.5 31.5C141.5 32.3284 140.828 33 140 33C139.172 33 138.5 32.3284 138.5 31.5C138.5 30.6716 139.172 30 140 30C140.828 30 141.5 30.6716 141.5 31.5Z" fill="#E5E7EB"/>
<path d="M160.5 31.5C160.5 32.3284 159.828 33 159 33C158.172 33 157.5 32.3284 157.5 31.5C157.5 30.6716 158.172 30 159 30C159.828 30 160.5 30.6716 160.5 31.5Z" fill="#E5E7EB"/>
<path d="M179.5 31.5C179.5 32.3284 178.828 33 178 33C177.172 33 176.5 32.3284 176.5 31.5C176.5 30.6716 177.172 30 178 30C178.828 30 179.5 30.6716 179.5 31.5Z" fill="#E5E7EB"/>
<path d="M198.5 31.5C198.5 32.3284 197.828 33 197 33C196.172 33 195.5 32.3284 195.5 31.5C195.5 30.6716 196.172 30 197 30C197.828 30 198.5 30.6716 198.5 31.5Z" fill="#E5E7EB"/>
<path d="M217.5 31.5C217.5 32.3284 216.828 33 216 33C215.172 33 214.5 32.3284 214.5 31.5C214.5 30.6716 215.172 30 216 30C216.828 30 217.5 30.6716 217.5 31.5Z" fill="#E5E7EB"/>
<path d="M236.5 31.5C236.5 32.3284 235.828 33 235 33C234.172 33 233.5 32.3284 233.5 31.5C233.5 30.6716 234.172 30 235 30C235.828 30 236.5 30.6716 236.5 31.5Z" fill="#E5E7EB"/>
<path d="M255.5 31.5C255.5 32.3284 254.828 33 254 33C253.172 33 252.5 32.3284 252.5 31.5C252.5 30.6716 253.172 30 254 30C254.828 30 255.5 30.6716 255.5 31.5Z" fill="#E5E7EB"/>
<path d="M274.5 31.5C274.5 32.3284 273.828 33 273 33C272.172 33 271.5 32.3284 271.5 31.5C271.5 30.6716 272.172 30 273 30C273.828 30 274.5 30.6716 274.5 31.5Z" fill="#E5E7EB"/>
<path d="M293.5 31.5C293.5 32.3284 292.828 33 292 33C291.172 33 290.5 32.3284 290.5 31.5C290.5 30.6716 291.172 30 292 30C292.828 30 293.5 30.6716 293.5 31.5Z" fill="#E5E7EB"/>
<path d="M312.5 31.5C312.5 32.3284 311.828 33 311 33C310.172 33 309.5 32.3284 309.5 31.5C309.5 30.6716 310.172 30 311 30C311.828 30 312.5 30.6716 312.5 31.5Z" fill="#E5E7EB"/>
<path d="M331.5 31.5C331.5 32.3284 330.828 33 330 33C329.172 33 328.5 32.3284 328.5 31.5C328.5 30.6716 329.172 30 330 30C330.828 30 331.5 30.6716 331.5 31.5Z" fill="#E5E7EB"/>
<path d="M8.5 50.5C8.5 51.3284 7.82843 52 7 52C6.17157 52 5.5 51.3284 5.5 50.5C5.5 49.6716 6.17157 49 7 49C7.82843 49 8.5 49.6716 8.5 50.5Z" fill="#E5E7EB"/>
<path d="M27.5 50.5C27.5 51.3284 26.8284 52 26 52C25.1716 52 24.5 51.3284 24.5 50.5C24.5 49.6716 25.1716 49 26 49C26.8284 49 27.5 49.6716 27.5 50.5Z" fill="#E5E7EB"/>
<path d="M46.5 50.5C46.5 51.3284 45.8284 52 45 52C44.1716 52 43.5 51.3284 43.5 50.5C43.5 49.6716 44.1716 49 45 49C45.8284 49 46.5 49.6716 46.5 50.5Z" fill="#E5E7EB"/>
<path d="M65.5 50.5C65.5 51.3284 64.8284 52 64 52C63.1716 52 62.5 51.3284 62.5 50.5C62.5 49.6716 63.1716 49 64 49C64.8284 49 65.5 49.6716 65.5 50.5Z" fill="#E5E7EB"/>
<path d="M84.5 50.5C84.5 51.3284 83.8284 52 83 52C82.1716 52 81.5 51.3284 81.5 50.5C81.5 49.6716 82.1716 49 83 49C83.8284 49 84.5 49.6716 84.5 50.5Z" fill="#E5E7EB"/>
<path d="M103.5 50.5C103.5 51.3284 102.828 52 102 52C101.172 52 100.5 51.3284 100.5 50.5C100.5 49.6716 101.172 49 102 49C102.828 49 103.5 49.6716 103.5 50.5Z" fill="#E5E7EB"/>
<path d="M122.5 50.5C122.5 51.3284 121.828 52 121 52C120.172 52 119.5 51.3284 119.5 50.5C119.5 49.6716 120.172 49 121 49C121.828 49 122.5 49.6716 122.5 50.5Z" fill="#E5E7EB"/>
<path d="M141.5 50.5C141.5 51.3284 140.828 52 140 52C139.172 52 138.5 51.3284 138.5 50.5C138.5 49.6716 139.172 49 140 49C140.828 49 141.5 49.6716 141.5 50.5Z" fill="#E5E7EB"/>
<path d="M160.5 50.5C160.5 51.3284 159.828 52 159 52C158.172 52 157.5 51.3284 157.5 50.5C157.5 49.6716 158.172 49 159 49C159.828 49 160.5 49.6716 160.5 50.5Z" fill="#E5E7EB"/>
<path d="M179.5 50.5C179.5 51.3284 178.828 52 178 52C177.172 52 176.5 51.3284 176.5 50.5C176.5 49.6716 177.172 49 178 49C178.828 49 179.5 49.6716 179.5 50.5Z" fill="#E5E7EB"/>
<path d="M198.5 50.5C198.5 51.3284 197.828 52 197 52C196.172 52 195.5 51.3284 195.5 50.5C195.5 49.6716 196.172 49 197 49C197.828 49 198.5 49.6716 198.5 50.5Z" fill="#E5E7EB"/>
<path d="M217.5 50.5C217.5 51.3284 216.828 52 216 52C215.172 52 214.5 51.3284 214.5 50.5C214.5 49.6716 215.172 49 216 49C216.828 49 217.5 49.6716 217.5 50.5Z" fill="#E5E7EB"/>
<path d="M236.5 50.5C236.5 51.3284 235.828 52 235 52C234.172 52 233.5 51.3284 233.5 50.5C233.5 49.6716 234.172 49 235 49C235.828 49 236.5 49.6716 236.5 50.5Z" fill="#E5E7EB"/>
<path d="M255.5 50.5C255.5 51.3284 254.828 52 254 52C253.172 52 252.5 51.3284 252.5 50.5C252.5 49.6716 253.172 49 254 49C254.828 49 255.5 49.6716 255.5 50.5Z" fill="#E5E7EB"/>
<path d="M274.5 50.5C274.5 51.3284 273.828 52 273 52C272.172 52 271.5 51.3284 271.5 50.5C271.5 49.6716 272.172 49 273 49C273.828 49 274.5 49.6716 274.5 50.5Z" fill="#E5E7EB"/>
<path d="M293.5 50.5C293.5 51.3284 292.828 52 292 52C291.172 52 290.5 51.3284 290.5 50.5C290.5 49.6716 291.172 49 292 49C292.828 49 293.5 49.6716 293.5 50.5Z" fill="#E5E7EB"/>
<path d="M312.5 50.5C312.5 51.3284 311.828 52 311 52C310.172 52 309.5 51.3284 309.5 50.5C309.5 49.6716 310.172 49 311 49C311.828 49 312.5 49.6716 312.5 50.5Z" fill="#E5E7EB"/>
<path d="M331.5 50.5C331.5 51.3284 330.828 52 330 52C329.172 52 328.5 51.3284 328.5 50.5C328.5 49.6716 329.172 49 330 49C330.828 49 331.5 49.6716 331.5 50.5Z" fill="#E5E7EB"/>
<path d="M8.5 69.5C8.5 70.3284 7.82843 71 7 71C6.17157 71 5.5 70.3284 5.5 69.5C5.5 68.6716 6.17157 68 7 68C7.82843 68 8.5 68.6716 8.5 69.5Z" fill="#E5E7EB"/>
<path d="M27.5 69.5C27.5 70.3284 26.8284 71 26 71C25.1716 71 24.5 70.3284 24.5 69.5C24.5 68.6716 25.1716 68 26 68C26.8284 68 27.5 68.6716 27.5 69.5Z" fill="#E5E7EB"/>
<path d="M46.5 69.5C46.5 70.3284 45.8284 71 45 71C44.1716 71 43.5 70.3284 43.5 69.5C43.5 68.6716 44.1716 68 45 68C45.8284 68 46.5 68.6716 46.5 69.5Z" fill="#E5E7EB"/>
<path d="M65.5 69.5C65.5 70.3284 64.8284 71 64 71C63.1716 71 62.5 70.3284 62.5 69.5C62.5 68.6716 63.1716 68 64 68C64.8284 68 65.5 68.6716 65.5 69.5Z" fill="#E5E7EB"/>
<path d="M84.5 69.5C84.5 70.3284 83.8284 71 83 71C82.1716 71 81.5 70.3284 81.5 69.5C81.5 68.6716 82.1716 68 83 68C83.8284 68 84.5 68.6716 84.5 69.5Z" fill="#E5E7EB"/>
<path d="M103.5 69.5C103.5 70.3284 102.828 71 102 71C101.172 71 100.5 70.3284 100.5 69.5C100.5 68.6716 101.172 68 102 68C102.828 68 103.5 68.6716 103.5 69.5Z" fill="#E5E7EB"/>
<path d="M122.5 69.5C122.5 70.3284 121.828 71 121 71C120.172 71 119.5 70.3284 119.5 69.5C119.5 68.6716 120.172 68 121 68C121.828 68 122.5 68.6716 122.5 69.5Z" fill="#E5E7EB"/>
<path d="M141.5 69.5C141.5 70.3284 140.828 71 140 71C139.172 71 138.5 70.3284 138.5 69.5C138.5 68.6716 139.172 68 140 68C140.828 68 141.5 68.6716 141.5 69.5Z" fill="#E5E7EB"/>
<path d="M160.5 69.5C160.5 70.3284 159.828 71 159 71C158.172 71 157.5 70.3284 157.5 69.5C157.5 68.6716 158.172 68 159 68C159.828 68 160.5 68.6716 160.5 69.5Z" fill="#E5E7EB"/>
<path d="M179.5 69.5C179.5 70.3284 178.828 71 178 71C177.172 71 176.5 70.3284 176.5 69.5C176.5 68.6716 177.172 68 178 68C178.828 68 179.5 68.6716 179.5 69.5Z" fill="#E5E7EB"/>
<path d="M198.5 69.5C198.5 70.3284 197.828 71 197 71C196.172 71 195.5 70.3284 195.5 69.5C195.5 68.6716 196.172 68 197 68C197.828 68 198.5 68.6716 198.5 69.5Z" fill="#E5E7EB"/>
<path d="M217.5 69.5C217.5 70.3284 216.828 71 216 71C215.172 71 214.5 70.3284 214.5 69.5C214.5 68.6716 215.172 68 216 68C216.828 68 217.5 68.6716 217.5 69.5Z" fill="#E5E7EB"/>
<path d="M236.5 69.5C236.5 70.3284 235.828 71 235 71C234.172 71 233.5 70.3284 233.5 69.5C233.5 68.6716 234.172 68 235 68C235.828 68 236.5 68.6716 236.5 69.5Z" fill="#E5E7EB"/>
<path d="M255.5 69.5C255.5 70.3284 254.828 71 254 71C253.172 71 252.5 70.3284 252.5 69.5C252.5 68.6716 253.172 68 254 68C254.828 68 255.5 68.6716 255.5 69.5Z" fill="#E5E7EB"/>
<path d="M274.5 69.5C274.5 70.3284 273.828 71 273 71C272.172 71 271.5 70.3284 271.5 69.5C271.5 68.6716 272.172 68 273 68C273.828 68 274.5 68.6716 274.5 69.5Z" fill="#E5E7EB"/>
<path d="M293.5 69.5C293.5 70.3284 292.828 71 292 71C291.172 71 290.5 70.3284 290.5 69.5C290.5 68.6716 291.172 68 292 68C292.828 68 293.5 68.6716 293.5 69.5Z" fill="#E5E7EB"/>
<path d="M312.5 69.5C312.5 70.3284 311.828 71 311 71C310.172 71 309.5 70.3284 309.5 69.5C309.5 68.6716 310.172 68 311 68C311.828 68 312.5 68.6716 312.5 69.5Z" fill="#E5E7EB"/>
<path d="M331.5 69.5C331.5 70.3284 330.828 71 330 71C329.172 71 328.5 70.3284 328.5 69.5C328.5 68.6716 329.172 68 330 68C330.828 68 331.5 68.6716 331.5 69.5Z" fill="#E5E7EB"/>
<path d="M8.5 88.5C8.5 89.3284 7.82843 90 7 90C6.17157 90 5.5 89.3284 5.5 88.5C5.5 87.6716 6.17157 87 7 87C7.82843 87 8.5 87.6716 8.5 88.5Z" fill="#E5E7EB"/>
<path d="M27.5 88.5C27.5 89.3284 26.8284 90 26 90C25.1716 90 24.5 89.3284 24.5 88.5C24.5 87.6716 25.1716 87 26 87C26.8284 87 27.5 87.6716 27.5 88.5Z" fill="#E5E7EB"/>
<path d="M46.5 88.5C46.5 89.3284 45.8284 90 45 90C44.1716 90 43.5 89.3284 43.5 88.5C43.5 87.6716 44.1716 87 45 87C45.8284 87 46.5 87.6716 46.5 88.5Z" fill="#E5E7EB"/>
<path d="M65.5 88.5C65.5 89.3284 64.8284 90 64 90C63.1716 90 62.5 89.3284 62.5 88.5C62.5 87.6716 63.1716 87 64 87C64.8284 87 65.5 87.6716 65.5 88.5Z" fill="#E5E7EB"/>
<path d="M84.5 88.5C84.5 89.3284 83.8284 90 83 90C82.1716 90 81.5 89.3284 81.5 88.5C81.5 87.6716 82.1716 87 83 87C83.8284 87 84.5 87.6716 84.5 88.5Z" fill="#E5E7EB"/>
<path d="M103.5 88.5C103.5 89.3284 102.828 90 102 90C101.172 90 100.5 89.3284 100.5 88.5C100.5 87.6716 101.172 87 102 87C102.828 87 103.5 87.6716 103.5 88.5Z" fill="#E5E7EB"/>
<path d="M122.5 88.5C122.5 89.3284 121.828 90 121 90C120.172 90 119.5 89.3284 119.5 88.5C119.5 87.6716 120.172 87 121 87C121.828 87 122.5 87.6716 122.5 88.5Z" fill="#E5E7EB"/>
<path d="M141.5 88.5C141.5 89.3284 140.828 90 140 90C139.172 90 138.5 89.3284 138.5 88.5C138.5 87.6716 139.172 87 140 87C140.828 87 141.5 87.6716 141.5 88.5Z" fill="#E5E7EB"/>
<path d="M160.5 88.5C160.5 89.3284 159.828 90 159 90C158.172 90 157.5 89.3284 157.5 88.5C157.5 87.6716 158.172 87 159 87C159.828 87 160.5 87.6716 160.5 88.5Z" fill="#E5E7EB"/>
<path d="M179.5 88.5C179.5 89.3284 178.828 90 178 90C177.172 90 176.5 89.3284 176.5 88.5C176.5 87.6716 177.172 87 178 87C178.828 87 179.5 87.6716 179.5 88.5Z" fill="#E5E7EB"/>
<path d="M198.5 88.5C198.5 89.3284 197.828 90 197 90C196.172 90 195.5 89.3284 195.5 88.5C195.5 87.6716 196.172 87 197 87C197.828 87 198.5 87.6716 198.5 88.5Z" fill="#E5E7EB"/>
<path d="M217.5 88.5C217.5 89.3284 216.828 90 216 90C215.172 90 214.5 89.3284 214.5 88.5C214.5 87.6716 215.172 87 216 87C216.828 87 217.5 87.6716 217.5 88.5Z" fill="#E5E7EB"/>
<path d="M236.5 88.5C236.5 89.3284 235.828 90 235 90C234.172 90 233.5 89.3284 233.5 88.5C233.5 87.6716 234.172 87 235 87C235.828 87 236.5 87.6716 236.5 88.5Z" fill="#E5E7EB"/>
<path d="M255.5 88.5C255.5 89.3284 254.828 90 254 90C253.172 90 252.5 89.3284 252.5 88.5C252.5 87.6716 253.172 87 254 87C254.828 87 255.5 87.6716 255.5 88.5Z" fill="#E5E7EB"/>
<path d="M274.5 88.5C274.5 89.3284 273.828 90 273 90C272.172 90 271.5 89.3284 271.5 88.5C271.5 87.6716 272.172 87 273 87C273.828 87 274.5 87.6716 274.5 88.5Z" fill="#E5E7EB"/>
<path d="M293.5 88.5C293.5 89.3284 292.828 90 292 90C291.172 90 290.5 89.3284 290.5 88.5C290.5 87.6716 291.172 87 292 87C292.828 87 293.5 87.6716 293.5 88.5Z" fill="#E5E7EB"/>
<path d="M312.5 88.5C312.5 89.3284 311.828 90 311 90C310.172 90 309.5 89.3284 309.5 88.5C309.5 87.6716 310.172 87 311 87C311.828 87 312.5 87.6716 312.5 88.5Z" fill="#E5E7EB"/>
<path d="M331.5 88.5C331.5 89.3284 330.828 90 330 90C329.172 90 328.5 89.3284 328.5 88.5C328.5 87.6716 329.172 87 330 87C330.828 87 331.5 87.6716 331.5 88.5Z" fill="#E5E7EB"/>
<path d="M8.5 107.5C8.5 108.328 7.82843 109 7 109C6.17157 109 5.5 108.328 5.5 107.5C5.5 106.672 6.17157 106 7 106C7.82843 106 8.5 106.672 8.5 107.5Z" fill="#E5E7EB"/>
<path d="M27.5 107.5C27.5 108.328 26.8284 109 26 109C25.1716 109 24.5 108.328 24.5 107.5C24.5 106.672 25.1716 106 26 106C26.8284 106 27.5 106.672 27.5 107.5Z" fill="#E5E7EB"/>
<path d="M46.5 107.5C46.5 108.328 45.8284 109 45 109C44.1716 109 43.5 108.328 43.5 107.5C43.5 106.672 44.1716 106 45 106C45.8284 106 46.5 106.672 46.5 107.5Z" fill="#E5E7EB"/>
<path d="M65.5 107.5C65.5 108.328 64.8284 109 64 109C63.1716 109 62.5 108.328 62.5 107.5C62.5 106.672 63.1716 106 64 106C64.8284 106 65.5 106.672 65.5 107.5Z" fill="#E5E7EB"/>
<path d="M84.5 107.5C84.5 108.328 83.8284 109 83 109C82.1716 109 81.5 108.328 81.5 107.5C81.5 106.672 82.1716 106 83 106C83.8284 106 84.5 106.672 84.5 107.5Z" fill="#E5E7EB"/>
<path d="M103.5 107.5C103.5 108.328 102.828 109 102 109C101.172 109 100.5 108.328 100.5 107.5C100.5 106.672 101.172 106 102 106C102.828 106 103.5 106.672 103.5 107.5Z" fill="#E5E7EB"/>
<path d="M122.5 107.5C122.5 108.328 121.828 109 121 109C120.172 109 119.5 108.328 119.5 107.5C119.5 106.672 120.172 106 121 106C121.828 106 122.5 106.672 122.5 107.5Z" fill="#E5E7EB"/>
<path d="M141.5 107.5C141.5 108.328 140.828 109 140 109C139.172 109 138.5 108.328 138.5 107.5C138.5 106.672 139.172 106 140 106C140.828 106 141.5 106.672 141.5 107.5Z" fill="#E5E7EB"/>
<path d="M160.5 107.5C160.5 108.328 159.828 109 159 109C158.172 109 157.5 108.328 157.5 107.5C157.5 106.672 158.172 106 159 106C159.828 106 160.5 106.672 160.5 107.5Z" fill="#E5E7EB"/>
<path d="M179.5 107.5C179.5 108.328 178.828 109 178 109C177.172 109 176.5 108.328 176.5 107.5C176.5 106.672 177.172 106 178 106C178.828 106 179.5 106.672 179.5 107.5Z" fill="#E5E7EB"/>
<path d="M198.5 107.5C198.5 108.328 197.828 109 197 109C196.172 109 195.5 108.328 195.5 107.5C195.5 106.672 196.172 106 197 106C197.828 106 198.5 106.672 198.5 107.5Z" fill="#E5E7EB"/>
<path d="M217.5 107.5C217.5 108.328 216.828 109 216 109C215.172 109 214.5 108.328 214.5 107.5C214.5 106.672 215.172 106 216 106C216.828 106 217.5 106.672 217.5 107.5Z" fill="#E5E7EB"/>
<path d="M236.5 107.5C236.5 108.328 235.828 109 235 109C234.172 109 233.5 108.328 233.5 107.5C233.5 106.672 234.172 106 235 106C235.828 106 236.5 106.672 236.5 107.5Z" fill="#E5E7EB"/>
<path d="M255.5 107.5C255.5 108.328 254.828 109 254 109C253.172 109 252.5 108.328 252.5 107.5C252.5 106.672 253.172 106 254 106C254.828 106 255.5 106.672 255.5 107.5Z" fill="#E5E7EB"/>
<path d="M274.5 107.5C274.5 108.328 273.828 109 273 109C272.172 109 271.5 108.328 271.5 107.5C271.5 106.672 272.172 106 273 106C273.828 106 274.5 106.672 274.5 107.5Z" fill="#E5E7EB"/>
<path d="M293.5 107.5C293.5 108.328 292.828 109 292 109C291.172 109 290.5 108.328 290.5 107.5C290.5 106.672 291.172 106 292 106C292.828 106 293.5 106.672 293.5 107.5Z" fill="#E5E7EB"/>
<path d="M312.5 107.5C312.5 108.328 311.828 109 311 109C310.172 109 309.5 108.328 309.5 107.5C309.5 106.672 310.172 106 311 106C311.828 106 312.5 106.672 312.5 107.5Z" fill="#E5E7EB"/>
<path d="M331.5 107.5C331.5 108.328 330.828 109 330 109C329.172 109 328.5 108.328 328.5 107.5C328.5 106.672 329.172 106 330 106C330.828 106 331.5 106.672 331.5 107.5Z" fill="#E5E7EB"/>
<path d="M8.5 126.5C8.5 127.328 7.82843 128 7 128C6.17157 128 5.5 127.328 5.5 126.5C5.5 125.672 6.17157 125 7 125C7.82843 125 8.5 125.672 8.5 126.5Z" fill="#E5E7EB"/>
<path d="M27.5 126.5C27.5 127.328 26.8284 128 26 128C25.1716 128 24.5 127.328 24.5 126.5C24.5 125.672 25.1716 125 26 125C26.8284 125 27.5 125.672 27.5 126.5Z" fill="#E5E7EB"/>
<path d="M46.5 126.5C46.5 127.328 45.8284 128 45 128C44.1716 128 43.5 127.328 43.5 126.5C43.5 125.672 44.1716 125 45 125C45.8284 125 46.5 125.672 46.5 126.5Z" fill="#E5E7EB"/>
<path d="M65.5 126.5C65.5 127.328 64.8284 128 64 128C63.1716 128 62.5 127.328 62.5 126.5C62.5 125.672 63.1716 125 64 125C64.8284 125 65.5 125.672 65.5 126.5Z" fill="#E5E7EB"/>
<path d="M84.5 126.5C84.5 127.328 83.8284 128 83 128C82.1716 128 81.5 127.328 81.5 126.5C81.5 125.672 82.1716 125 83 125C83.8284 125 84.5 125.672 84.5 126.5Z" fill="#E5E7EB"/>
<path d="M103.5 126.5C103.5 127.328 102.828 128 102 128C101.172 128 100.5 127.328 100.5 126.5C100.5 125.672 101.172 125 102 125C102.828 125 103.5 125.672 103.5 126.5Z" fill="#E5E7EB"/>
<path d="M122.5 126.5C122.5 127.328 121.828 128 121 128C120.172 128 119.5 127.328 119.5 126.5C119.5 125.672 120.172 125 121 125C121.828 125 122.5 125.672 122.5 126.5Z" fill="#E5E7EB"/>
<path d="M141.5 126.5C141.5 127.328 140.828 128 140 128C139.172 128 138.5 127.328 138.5 126.5C138.5 125.672 139.172 125 140 125C140.828 125 141.5 125.672 141.5 126.5Z" fill="#E5E7EB"/>
<path d="M160.5 126.5C160.5 127.328 159.828 128 159 128C158.172 128 157.5 127.328 157.5 126.5C157.5 125.672 158.172 125 159 125C159.828 125 160.5 125.672 160.5 126.5Z" fill="#E5E7EB"/>
<path d="M179.5 126.5C179.5 127.328 178.828 128 178 128C177.172 128 176.5 127.328 176.5 126.5C176.5 125.672 177.172 125 178 125C178.828 125 179.5 125.672 179.5 126.5Z" fill="#E5E7EB"/>
<path d="M198.5 126.5C198.5 127.328 197.828 128 197 128C196.172 128 195.5 127.328 195.5 126.5C195.5 125.672 196.172 125 197 125C197.828 125 198.5 125.672 198.5 126.5Z" fill="#E5E7EB"/>
<path d="M217.5 126.5C217.5 127.328 216.828 128 216 128C215.172 128 214.5 127.328 214.5 126.5C214.5 125.672 215.172 125 216 125C216.828 125 217.5 125.672 217.5 126.5Z" fill="#E5E7EB"/>
<path d="M236.5 126.5C236.5 127.328 235.828 128 235 128C234.172 128 233.5 127.328 233.5 126.5C233.5 125.672 234.172 125 235 125C235.828 125 236.5 125.672 236.5 126.5Z" fill="#E5E7EB"/>
<path d="M255.5 126.5C255.5 127.328 254.828 128 254 128C253.172 128 252.5 127.328 252.5 126.5C252.5 125.672 253.172 125 254 125C254.828 125 255.5 125.672 255.5 126.5Z" fill="#E5E7EB"/>
<path d="M274.5 126.5C274.5 127.328 273.828 128 273 128C272.172 128 271.5 127.328 271.5 126.5C271.5 125.672 272.172 125 273 125C273.828 125 274.5 125.672 274.5 126.5Z" fill="#E5E7EB"/>
<path d="M293.5 126.5C293.5 127.328 292.828 128 292 128C291.172 128 290.5 127.328 290.5 126.5C290.5 125.672 291.172 125 292 125C292.828 125 293.5 125.672 293.5 126.5Z" fill="#E5E7EB"/>
<path d="M312.5 126.5C312.5 127.328 311.828 128 311 128C310.172 128 309.5 127.328 309.5 126.5C309.5 125.672 310.172 125 311 125C311.828 125 312.5 125.672 312.5 126.5Z" fill="#E5E7EB"/>
<path d="M331.5 126.5C331.5 127.328 330.828 128 330 128C329.172 128 328.5 127.328 328.5 126.5C328.5 125.672 329.172 125 330 125C330.828 125 331.5 125.672 331.5 126.5Z" fill="#E5E7EB"/>
<path d="M8.5 145.5C8.5 146.328 7.82843 147 7 147C6.17157 147 5.5 146.328 5.5 145.5C5.5 144.672 6.17157 144 7 144C7.82843 144 8.5 144.672 8.5 145.5Z" fill="#E5E7EB"/>
<path d="M27.5 145.5C27.5 146.328 26.8284 147 26 147C25.1716 147 24.5 146.328 24.5 145.5C24.5 144.672 25.1716 144 26 144C26.8284 144 27.5 144.672 27.5 145.5Z" fill="#E5E7EB"/>
<path d="M46.5 145.5C46.5 146.328 45.8284 147 45 147C44.1716 147 43.5 146.328 43.5 145.5C43.5 144.672 44.1716 144 45 144C45.8284 144 46.5 144.672 46.5 145.5Z" fill="#E5E7EB"/>
<path d="M65.5 145.5C65.5 146.328 64.8284 147 64 147C63.1716 147 62.5 146.328 62.5 145.5C62.5 144.672 63.1716 144 64 144C64.8284 144 65.5 144.672 65.5 145.5Z" fill="#E5E7EB"/>
<path d="M84.5 145.5C84.5 146.328 83.8284 147 83 147C82.1716 147 81.5 146.328 81.5 145.5C81.5 144.672 82.1716 144 83 144C83.8284 144 84.5 144.672 84.5 145.5Z" fill="#E5E7EB"/>
<path d="M103.5 145.5C103.5 146.328 102.828 147 102 147C101.172 147 100.5 146.328 100.5 145.5C100.5 144.672 101.172 144 102 144C102.828 144 103.5 144.672 103.5 145.5Z" fill="#E5E7EB"/>
<path d="M122.5 145.5C122.5 146.328 121.828 147 121 147C120.172 147 119.5 146.328 119.5 145.5C119.5 144.672 120.172 144 121 144C121.828 144 122.5 144.672 122.5 145.5Z" fill="#E5E7EB"/>
<path d="M141.5 145.5C141.5 146.328 140.828 147 140 147C139.172 147 138.5 146.328 138.5 145.5C138.5 144.672 139.172 144 140 144C140.828 144 141.5 144.672 141.5 145.5Z" fill="#E5E7EB"/>
<path d="M160.5 145.5C160.5 146.328 159.828 147 159 147C158.172 147 157.5 146.328 157.5 145.5C157.5 144.672 158.172 144 159 144C159.828 144 160.5 144.672 160.5 145.5Z" fill="#E5E7EB"/>
<path d="M179.5 145.5C179.5 146.328 178.828 147 178 147C177.172 147 176.5 146.328 176.5 145.5C176.5 144.672 177.172 144 178 144C178.828 144 179.5 144.672 179.5 145.5Z" fill="#E5E7EB"/>
<path d="M198.5 145.5C198.5 146.328 197.828 147 197 147C196.172 147 195.5 146.328 195.5 145.5C195.5 144.672 196.172 144 197 144C197.828 144 198.5 144.672 198.5 145.5Z" fill="#E5E7EB"/>
<path d="M217.5 145.5C217.5 146.328 216.828 147 216 147C215.172 147 214.5 146.328 214.5 145.5C214.5 144.672 215.172 144 216 144C216.828 144 217.5 144.672 217.5 145.5Z" fill="#E5E7EB"/>
<path d="M236.5 145.5C236.5 146.328 235.828 147 235 147C234.172 147 233.5 146.328 233.5 145.5C233.5 144.672 234.172 144 235 144C235.828 144 236.5 144.672 236.5 145.5Z" fill="#E5E7EB"/>
<path d="M255.5 145.5C255.5 146.328 254.828 147 254 147C253.172 147 252.5 146.328 252.5 145.5C252.5 144.672 253.172 144 254 144C254.828 144 255.5 144.672 255.5 145.5Z" fill="#E5E7EB"/>
<path d="M274.5 145.5C274.5 146.328 273.828 147 273 147C272.172 147 271.5 146.328 271.5 145.5C271.5 144.672 272.172 144 273 144C273.828 144 274.5 144.672 274.5 145.5Z" fill="#E5E7EB"/>
<path d="M293.5 145.5C293.5 146.328 292.828 147 292 147C291.172 147 290.5 146.328 290.5 145.5C290.5 144.672 291.172 144 292 144C292.828 144 293.5 144.672 293.5 145.5Z" fill="#E5E7EB"/>
<path d="M312.5 145.5C312.5 146.328 311.828 147 311 147C310.172 147 309.5 146.328 309.5 145.5C309.5 144.672 310.172 144 311 144C311.828 144 312.5 144.672 312.5 145.5Z" fill="#E5E7EB"/>
<path d="M331.5 145.5C331.5 146.328 330.828 147 330 147C329.172 147 328.5 146.328 328.5 145.5C328.5 144.672 329.172 144 330 144C330.828 144 331.5 144.672 331.5 145.5Z" fill="#E5E7EB"/>
<path d="M8.5 164.5C8.5 165.328 7.82843 166 7 166C6.17157 166 5.5 165.328 5.5 164.5C5.5 163.672 6.17157 163 7 163C7.82843 163 8.5 163.672 8.5 164.5Z" fill="#E5E7EB"/>
<path d="M27.5 164.5C27.5 165.328 26.8284 166 26 166C25.1716 166 24.5 165.328 24.5 164.5C24.5 163.672 25.1716 163 26 163C26.8284 163 27.5 163.672 27.5 164.5Z" fill="#E5E7EB"/>
<path d="M46.5 164.5C46.5 165.328 45.8284 166 45 166C44.1716 166 43.5 165.328 43.5 164.5C43.5 163.672 44.1716 163 45 163C45.8284 163 46.5 163.672 46.5 164.5Z" fill="#E5E7EB"/>
<path d="M65.5 164.5C65.5 165.328 64.8284 166 64 166C63.1716 166 62.5 165.328 62.5 164.5C62.5 163.672 63.1716 163 64 163C64.8284 163 65.5 163.672 65.5 164.5Z" fill="#E5E7EB"/>
<path d="M84.5 164.5C84.5 165.328 83.8284 166 83 166C82.1716 166 81.5 165.328 81.5 164.5C81.5 163.672 82.1716 163 83 163C83.8284 163 84.5 163.672 84.5 164.5Z" fill="#E5E7EB"/>
<path d="M103.5 164.5C103.5 165.328 102.828 166 102 166C101.172 166 100.5 165.328 100.5 164.5C100.5 163.672 101.172 163 102 163C102.828 163 103.5 163.672 103.5 164.5Z" fill="#E5E7EB"/>
<path d="M122.5 164.5C122.5 165.328 121.828 166 121 166C120.172 166 119.5 165.328 119.5 164.5C119.5 163.672 120.172 163 121 163C121.828 163 122.5 163.672 122.5 164.5Z" fill="#E5E7EB"/>
<path d="M141.5 164.5C141.5 165.328 140.828 166 140 166C139.172 166 138.5 165.328 138.5 164.5C138.5 163.672 139.172 163 140 163C140.828 163 141.5 163.672 141.5 164.5Z" fill="#E5E7EB"/>
<path d="M160.5 164.5C160.5 165.328 159.828 166 159 166C158.172 166 157.5 165.328 157.5 164.5C157.5 163.672 158.172 163 159 163C159.828 163 160.5 163.672 160.5 164.5Z" fill="#E5E7EB"/>
<path d="M179.5 164.5C179.5 165.328 178.828 166 178 166C177.172 166 176.5 165.328 176.5 164.5C176.5 163.672 177.172 163 178 163C178.828 163 179.5 163.672 179.5 164.5Z" fill="#E5E7EB"/>
<path d="M198.5 164.5C198.5 165.328 197.828 166 197 166C196.172 166 195.5 165.328 195.5 164.5C195.5 163.672 196.172 163 197 163C197.828 163 198.5 163.672 198.5 164.5Z" fill="#E5E7EB"/>
<path d="M217.5 164.5C217.5 165.328 216.828 166 216 166C215.172 166 214.5 165.328 214.5 164.5C214.5 163.672 215.172 163 216 163C216.828 163 217.5 163.672 217.5 164.5Z" fill="#E5E7EB"/>
<path d="M236.5 164.5C236.5 165.328 235.828 166 235 166C234.172 166 233.5 165.328 233.5 164.5C233.5 163.672 234.172 163 235 163C235.828 163 236.5 163.672 236.5 164.5Z" fill="#E5E7EB"/>
<path d="M255.5 164.5C255.5 165.328 254.828 166 254 166C253.172 166 252.5 165.328 252.5 164.5C252.5 163.672 253.172 163 254 163C254.828 163 255.5 163.672 255.5 164.5Z" fill="#E5E7EB"/>
<path d="M274.5 164.5C274.5 165.328 273.828 166 273 166C272.172 166 271.5 165.328 271.5 164.5C271.5 163.672 272.172 163 273 163C273.828 163 274.5 163.672 274.5 164.5Z" fill="#E5E7EB"/>
<path d="M293.5 164.5C293.5 165.328 292.828 166 292 166C291.172 166 290.5 165.328 290.5 164.5C290.5 163.672 291.172 163 292 163C292.828 163 293.5 163.672 293.5 164.5Z" fill="#E5E7EB"/>
<path d="M312.5 164.5C312.5 165.328 311.828 166 311 166C310.172 166 309.5 165.328 309.5 164.5C309.5 163.672 310.172 163 311 163C311.828 163 312.5 163.672 312.5 164.5Z" fill="#E5E7EB"/>
<path d="M331.5 164.5C331.5 165.328 330.828 166 330 166C329.172 166 328.5 165.328 328.5 164.5C328.5 163.672 329.172 163 330 163C330.828 163 331.5 163.672 331.5 164.5Z" fill="#E5E7EB"/>
<path d="M8.5 183.5C8.5 184.328 7.82843 185 7 185C6.17157 185 5.5 184.328 5.5 183.5C5.5 182.672 6.17157 182 7 182C7.82843 182 8.5 182.672 8.5 183.5Z" fill="#E5E7EB"/>
<path d="M27.5 183.5C27.5 184.328 26.8284 185 26 185C25.1716 185 24.5 184.328 24.5 183.5C24.5 182.672 25.1716 182 26 182C26.8284 182 27.5 182.672 27.5 183.5Z" fill="#E5E7EB"/>
<path d="M46.5 183.5C46.5 184.328 45.8284 185 45 185C44.1716 185 43.5 184.328 43.5 183.5C43.5 182.672 44.1716 182 45 182C45.8284 182 46.5 182.672 46.5 183.5Z" fill="#E5E7EB"/>
<path d="M65.5 183.5C65.5 184.328 64.8284 185 64 185C63.1716 185 62.5 184.328 62.5 183.5C62.5 182.672 63.1716 182 64 182C64.8284 182 65.5 182.672 65.5 183.5Z" fill="#E5E7EB"/>
<path d="M84.5 183.5C84.5 184.328 83.8284 185 83 185C82.1716 185 81.5 184.328 81.5 183.5C81.5 182.672 82.1716 182 83 182C83.8284 182 84.5 182.672 84.5 183.5Z" fill="#E5E7EB"/>
<path d="M103.5 183.5C103.5 184.328 102.828 185 102 185C101.172 185 100.5 184.328 100.5 183.5C100.5 182.672 101.172 182 102 182C102.828 182 103.5 182.672 103.5 183.5Z" fill="#E5E7EB"/>
<path d="M122.5 183.5C122.5 184.328 121.828 185 121 185C120.172 185 119.5 184.328 119.5 183.5C119.5 182.672 120.172 182 121 182C121.828 182 122.5 182.672 122.5 183.5Z" fill="#E5E7EB"/>
<path d="M141.5 183.5C141.5 184.328 140.828 185 140 185C139.172 185 138.5 184.328 138.5 183.5C138.5 182.672 139.172 182 140 182C140.828 182 141.5 182.672 141.5 183.5Z" fill="#E5E7EB"/>
<path d="M160.5 183.5C160.5 184.328 159.828 185 159 185C158.172 185 157.5 184.328 157.5 183.5C157.5 182.672 158.172 182 159 182C159.828 182 160.5 182.672 160.5 183.5Z" fill="#E5E7EB"/>
<path d="M179.5 183.5C179.5 184.328 178.828 185 178 185C177.172 185 176.5 184.328 176.5 183.5C176.5 182.672 177.172 182 178 182C178.828 182 179.5 182.672 179.5 183.5Z" fill="#E5E7EB"/>
<path d="M198.5 183.5C198.5 184.328 197.828 185 197 185C196.172 185 195.5 184.328 195.5 183.5C195.5 182.672 196.172 182 197 182C197.828 182 198.5 182.672 198.5 183.5Z" fill="#E5E7EB"/>
<path d="M217.5 183.5C217.5 184.328 216.828 185 216 185C215.172 185 214.5 184.328 214.5 183.5C214.5 182.672 215.172 182 216 182C216.828 182 217.5 182.672 217.5 183.5Z" fill="#E5E7EB"/>
<path d="M236.5 183.5C236.5 184.328 235.828 185 235 185C234.172 185 233.5 184.328 233.5 183.5C233.5 182.672 234.172 182 235 182C235.828 182 236.5 182.672 236.5 183.5Z" fill="#E5E7EB"/>
<path d="M255.5 183.5C255.5 184.328 254.828 185 254 185C253.172 185 252.5 184.328 252.5 183.5C252.5 182.672 253.172 182 254 182C254.828 182 255.5 182.672 255.5 183.5Z" fill="#E5E7EB"/>
<path d="M274.5 183.5C274.5 184.328 273.828 185 273 185C272.172 185 271.5 184.328 271.5 183.5C271.5 182.672 272.172 182 273 182C273.828 182 274.5 182.672 274.5 183.5Z" fill="#E5E7EB"/>
<path d="M293.5 183.5C293.5 184.328 292.828 185 292 185C291.172 185 290.5 184.328 290.5 183.5C290.5 182.672 291.172 182 292 182C292.828 182 293.5 182.672 293.5 183.5Z" fill="#E5E7EB"/>
<path d="M312.5 183.5C312.5 184.328 311.828 185 311 185C310.172 185 309.5 184.328 309.5 183.5C309.5 182.672 310.172 182 311 182C311.828 182 312.5 182.672 312.5 183.5Z" fill="#E5E7EB"/>
<path d="M331.5 183.5C331.5 184.328 330.828 185 330 185C329.172 185 328.5 184.328 328.5 183.5C328.5 182.672 329.172 182 330 182C330.828 182 331.5 182.672 331.5 183.5Z" fill="#E5E7EB"/>
<path d="M8.5 202.5C8.5 203.328 7.82843 204 7 204C6.17157 204 5.5 203.328 5.5 202.5C5.5 201.672 6.17157 201 7 201C7.82843 201 8.5 201.672 8.5 202.5Z" fill="#E5E7EB"/>
<path d="M27.5 202.5C27.5 203.328 26.8284 204 26 204C25.1716 204 24.5 203.328 24.5 202.5C24.5 201.672 25.1716 201 26 201C26.8284 201 27.5 201.672 27.5 202.5Z" fill="#E5E7EB"/>
<path d="M46.5 202.5C46.5 203.328 45.8284 204 45 204C44.1716 204 43.5 203.328 43.5 202.5C43.5 201.672 44.1716 201 45 201C45.8284 201 46.5 201.672 46.5 202.5Z" fill="#E5E7EB"/>
<path d="M65.5 202.5C65.5 203.328 64.8284 204 64 204C63.1716 204 62.5 203.328 62.5 202.5C62.5 201.672 63.1716 201 64 201C64.8284 201 65.5 201.672 65.5 202.5Z" fill="#E5E7EB"/>
<path d="M84.5 202.5C84.5 203.328 83.8284 204 83 204C82.1716 204 81.5 203.328 81.5 202.5C81.5 201.672 82.1716 201 83 201C83.8284 201 84.5 201.672 84.5 202.5Z" fill="#E5E7EB"/>
<path d="M103.5 202.5C103.5 203.328 102.828 204 102 204C101.172 204 100.5 203.328 100.5 202.5C100.5 201.672 101.172 201 102 201C102.828 201 103.5 201.672 103.5 202.5Z" fill="#E5E7EB"/>
<path d="M122.5 202.5C122.5 203.328 121.828 204 121 204C120.172 204 119.5 203.328 119.5 202.5C119.5 201.672 120.172 201 121 201C121.828 201 122.5 201.672 122.5 202.5Z" fill="#E5E7EB"/>
<path d="M141.5 202.5C141.5 203.328 140.828 204 140 204C139.172 204 138.5 203.328 138.5 202.5C138.5 201.672 139.172 201 140 201C140.828 201 141.5 201.672 141.5 202.5Z" fill="#E5E7EB"/>
<path d="M160.5 202.5C160.5 203.328 159.828 204 159 204C158.172 204 157.5 203.328 157.5 202.5C157.5 201.672 158.172 201 159 201C159.828 201 160.5 201.672 160.5 202.5Z" fill="#E5E7EB"/>
<path d="M179.5 202.5C179.5 203.328 178.828 204 178 204C177.172 204 176.5 203.328 176.5 202.5C176.5 201.672 177.172 201 178 201C178.828 201 179.5 201.672 179.5 202.5Z" fill="#E5E7EB"/>
<path d="M198.5 202.5C198.5 203.328 197.828 204 197 204C196.172 204 195.5 203.328 195.5 202.5C195.5 201.672 196.172 201 197 201C197.828 201 198.5 201.672 198.5 202.5Z" fill="#E5E7EB"/>
<path d="M217.5 202.5C217.5 203.328 216.828 204 216 204C215.172 204 214.5 203.328 214.5 202.5C214.5 201.672 215.172 201 216 201C216.828 201 217.5 201.672 217.5 202.5Z" fill="#E5E7EB"/>
<path d="M236.5 202.5C236.5 203.328 235.828 204 235 204C234.172 204 233.5 203.328 233.5 202.5C233.5 201.672 234.172 201 235 201C235.828 201 236.5 201.672 236.5 202.5Z" fill="#E5E7EB"/>
<path d="M255.5 202.5C255.5 203.328 254.828 204 254 204C253.172 204 252.5 203.328 252.5 202.5C252.5 201.672 253.172 201 254 201C254.828 201 255.5 201.672 255.5 202.5Z" fill="#E5E7EB"/>
<path d="M274.5 202.5C274.5 203.328 273.828 204 273 204C272.172 204 271.5 203.328 271.5 202.5C271.5 201.672 272.172 201 273 201C273.828 201 274.5 201.672 274.5 202.5Z" fill="#E5E7EB"/>
<path d="M293.5 202.5C293.5 203.328 292.828 204 292 204C291.172 204 290.5 203.328 290.5 202.5C290.5 201.672 291.172 201 292 201C292.828 201 293.5 201.672 293.5 202.5Z" fill="#E5E7EB"/>
<path d="M312.5 202.5C312.5 203.328 311.828 204 311 204C310.172 204 309.5 203.328 309.5 202.5C309.5 201.672 310.172 201 311 201C311.828 201 312.5 201.672 312.5 202.5Z" fill="#E5E7EB"/>
<path d="M331.5 202.5C331.5 203.328 330.828 204 330 204C329.172 204 328.5 203.328 328.5 202.5C328.5 201.672 329.172 201 330 201C330.828 201 331.5 201.672 331.5 202.5Z" fill="#E5E7EB"/>
<path d="M8.5 221.5C8.5 222.328 7.82843 223 7 223C6.17157 223 5.5 222.328 5.5 221.5C5.5 220.672 6.17157 220 7 220C7.82843 220 8.5 220.672 8.5 221.5Z" fill="#E5E7EB"/>
<path d="M27.5 221.5C27.5 222.328 26.8284 223 26 223C25.1716 223 24.5 222.328 24.5 221.5C24.5 220.672 25.1716 220 26 220C26.8284 220 27.5 220.672 27.5 221.5Z" fill="#E5E7EB"/>
<path d="M46.5 221.5C46.5 222.328 45.8284 223 45 223C44.1716 223 43.5 222.328 43.5 221.5C43.5 220.672 44.1716 220 45 220C45.8284 220 46.5 220.672 46.5 221.5Z" fill="#E5E7EB"/>
<path d="M65.5 221.5C65.5 222.328 64.8284 223 64 223C63.1716 223 62.5 222.328 62.5 221.5C62.5 220.672 63.1716 220 64 220C64.8284 220 65.5 220.672 65.5 221.5Z" fill="#E5E7EB"/>
<path d="M84.5 221.5C84.5 222.328 83.8284 223 83 223C82.1716 223 81.5 222.328 81.5 221.5C81.5 220.672 82.1716 220 83 220C83.8284 220 84.5 220.672 84.5 221.5Z" fill="#E5E7EB"/>
<path d="M103.5 221.5C103.5 222.328 102.828 223 102 223C101.172 223 100.5 222.328 100.5 221.5C100.5 220.672 101.172 220 102 220C102.828 220 103.5 220.672 103.5 221.5Z" fill="#E5E7EB"/>
<path d="M122.5 221.5C122.5 222.328 121.828 223 121 223C120.172 223 119.5 222.328 119.5 221.5C119.5 220.672 120.172 220 121 220C121.828 220 122.5 220.672 122.5 221.5Z" fill="#E5E7EB"/>
<path d="M141.5 221.5C141.5 222.328 140.828 223 140 223C139.172 223 138.5 222.328 138.5 221.5C138.5 220.672 139.172 220 140 220C140.828 220 141.5 220.672 141.5 221.5Z" fill="#E5E7EB"/>
<path d="M160.5 221.5C160.5 222.328 159.828 223 159 223C158.172 223 157.5 222.328 157.5 221.5C157.5 220.672 158.172 220 159 220C159.828 220 160.5 220.672 160.5 221.5Z" fill="#E5E7EB"/>
<path d="M179.5 221.5C179.5 222.328 178.828 223 178 223C177.172 223 176.5 222.328 176.5 221.5C176.5 220.672 177.172 220 178 220C178.828 220 179.5 220.672 179.5 221.5Z" fill="#E5E7EB"/>
<path d="M198.5 221.5C198.5 222.328 197.828 223 197 223C196.172 223 195.5 222.328 195.5 221.5C195.5 220.672 196.172 220 197 220C197.828 220 198.5 220.672 198.5 221.5Z" fill="#E5E7EB"/>
<path d="M217.5 221.5C217.5 222.328 216.828 223 216 223C215.172 223 214.5 222.328 214.5 221.5C214.5 220.672 215.172 220 216 220C216.828 220 217.5 220.672 217.5 221.5Z" fill="#E5E7EB"/>
<path d="M236.5 221.5C236.5 222.328 235.828 223 235 223C234.172 223 233.5 222.328 233.5 221.5C233.5 220.672 234.172 220 235 220C235.828 220 236.5 220.672 236.5 221.5Z" fill="#E5E7EB"/>
<path d="M255.5 221.5C255.5 222.328 254.828 223 254 223C253.172 223 252.5 222.328 252.5 221.5C252.5 220.672 253.172 220 254 220C254.828 220 255.5 220.672 255.5 221.5Z" fill="#E5E7EB"/>
<path d="M274.5 221.5C274.5 222.328 273.828 223 273 223C272.172 223 271.5 222.328 271.5 221.5C271.5 220.672 272.172 220 273 220C273.828 220 274.5 220.672 274.5 221.5Z" fill="#E5E7EB"/>
<path d="M293.5 221.5C293.5 222.328 292.828 223 292 223C291.172 223 290.5 222.328 290.5 221.5C290.5 220.672 291.172 220 292 220C292.828 220 293.5 220.672 293.5 221.5Z" fill="#E5E7EB"/>
<path d="M312.5 221.5C312.5 222.328 311.828 223 311 223C310.172 223 309.5 222.328 309.5 221.5C309.5 220.672 310.172 220 311 220C311.828 220 312.5 220.672 312.5 221.5Z" fill="#E5E7EB"/>
<path d="M331.5 221.5C331.5 222.328 330.828 223 330 223C329.172 223 328.5 222.328 328.5 221.5C328.5 220.672 329.172 220 330 220C330.828 220 331.5 220.672 331.5 221.5Z" fill="#E5E7EB"/>
<path d="M8.5 240.5C8.5 241.328 7.82843 242 7 242C6.17157 242 5.5 241.328 5.5 240.5C5.5 239.672 6.17157 239 7 239C7.82843 239 8.5 239.672 8.5 240.5Z" fill="#E5E7EB"/>
<path d="M27.5 240.5C27.5 241.328 26.8284 242 26 242C25.1716 242 24.5 241.328 24.5 240.5C24.5 239.672 25.1716 239 26 239C26.8284 239 27.5 239.672 27.5 240.5Z" fill="#E5E7EB"/>
<path d="M46.5 240.5C46.5 241.328 45.8284 242 45 242C44.1716 242 43.5 241.328 43.5 240.5C43.5 239.672 44.1716 239 45 239C45.8284 239 46.5 239.672 46.5 240.5Z" fill="#E5E7EB"/>
<path d="M65.5 240.5C65.5 241.328 64.8284 242 64 242C63.1716 242 62.5 241.328 62.5 240.5C62.5 239.672 63.1716 239 64 239C64.8284 239 65.5 239.672 65.5 240.5Z" fill="#E5E7EB"/>
<path d="M84.5 240.5C84.5 241.328 83.8284 242 83 242C82.1716 242 81.5 241.328 81.5 240.5C81.5 239.672 82.1716 239 83 239C83.8284 239 84.5 239.672 84.5 240.5Z" fill="#E5E7EB"/>
<path d="M103.5 240.5C103.5 241.328 102.828 242 102 242C101.172 242 100.5 241.328 100.5 240.5C100.5 239.672 101.172 239 102 239C102.828 239 103.5 239.672 103.5 240.5Z" fill="#E5E7EB"/>
<path d="M122.5 240.5C122.5 241.328 121.828 242 121 242C120.172 242 119.5 241.328 119.5 240.5C119.5 239.672 120.172 239 121 239C121.828 239 122.5 239.672 122.5 240.5Z" fill="#E5E7EB"/>
<path d="M141.5 240.5C141.5 241.328 140.828 242 140 242C139.172 242 138.5 241.328 138.5 240.5C138.5 239.672 139.172 239 140 239C140.828 239 141.5 239.672 141.5 240.5Z" fill="#E5E7EB"/>
<path d="M160.5 240.5C160.5 241.328 159.828 242 159 242C158.172 242 157.5 241.328 157.5 240.5C157.5 239.672 158.172 239 159 239C159.828 239 160.5 239.672 160.5 240.5Z" fill="#E5E7EB"/>
<path d="M179.5 240.5C179.5 241.328 178.828 242 178 242C177.172 242 176.5 241.328 176.5 240.5C176.5 239.672 177.172 239 178 239C178.828 239 179.5 239.672 179.5 240.5Z" fill="#E5E7EB"/>
<path d="M198.5 240.5C198.5 241.328 197.828 242 197 242C196.172 242 195.5 241.328 195.5 240.5C195.5 239.672 196.172 239 197 239C197.828 239 198.5 239.672 198.5 240.5Z" fill="#E5E7EB"/>
<path d="M217.5 240.5C217.5 241.328 216.828 242 216 242C215.172 242 214.5 241.328 214.5 240.5C214.5 239.672 215.172 239 216 239C216.828 239 217.5 239.672 217.5 240.5Z" fill="#E5E7EB"/>
<path d="M236.5 240.5C236.5 241.328 235.828 242 235 242C234.172 242 233.5 241.328 233.5 240.5C233.5 239.672 234.172 239 235 239C235.828 239 236.5 239.672 236.5 240.5Z" fill="#E5E7EB"/>
<path d="M255.5 240.5C255.5 241.328 254.828 242 254 242C253.172 242 252.5 241.328 252.5 240.5C252.5 239.672 253.172 239 254 239C254.828 239 255.5 239.672 255.5 240.5Z" fill="#E5E7EB"/>
<path d="M274.5 240.5C274.5 241.328 273.828 242 273 242C272.172 242 271.5 241.328 271.5 240.5C271.5 239.672 272.172 239 273 239C273.828 239 274.5 239.672 274.5 240.5Z" fill="#E5E7EB"/>
<path d="M293.5 240.5C293.5 241.328 292.828 242 292 242C291.172 242 290.5 241.328 290.5 240.5C290.5 239.672 291.172 239 292 239C292.828 239 293.5 239.672 293.5 240.5Z" fill="#E5E7EB"/>
<path d="M312.5 240.5C312.5 241.328 311.828 242 311 242C310.172 242 309.5 241.328 309.5 240.5C309.5 239.672 310.172 239 311 239C311.828 239 312.5 239.672 312.5 240.5Z" fill="#E5E7EB"/>
<path d="M331.5 240.5C331.5 241.328 330.828 242 330 242C329.172 242 328.5 241.328 328.5 240.5C328.5 239.672 329.172 239 330 239C330.828 239 331.5 239.672 331.5 240.5Z" fill="#E5E7EB"/>
<path d="M8.5 259.5C8.5 260.328 7.82843 261 7 261C6.17157 261 5.5 260.328 5.5 259.5C5.5 258.672 6.17157 258 7 258C7.82843 258 8.5 258.672 8.5 259.5Z" fill="#E5E7EB"/>
<path d="M27.5 259.5C27.5 260.328 26.8284 261 26 261C25.1716 261 24.5 260.328 24.5 259.5C24.5 258.672 25.1716 258 26 258C26.8284 258 27.5 258.672 27.5 259.5Z" fill="#E5E7EB"/>
<path d="M46.5 259.5C46.5 260.328 45.8284 261 45 261C44.1716 261 43.5 260.328 43.5 259.5C43.5 258.672 44.1716 258 45 258C45.8284 258 46.5 258.672 46.5 259.5Z" fill="#E5E7EB"/>
<path d="M65.5 259.5C65.5 260.328 64.8284 261 64 261C63.1716 261 62.5 260.328 62.5 259.5C62.5 258.672 63.1716 258 64 258C64.8284 258 65.5 258.672 65.5 259.5Z" fill="#E5E7EB"/>
<path d="M84.5 259.5C84.5 260.328 83.8284 261 83 261C82.1716 261 81.5 260.328 81.5 259.5C81.5 258.672 82.1716 258 83 258C83.8284 258 84.5 258.672 84.5 259.5Z" fill="#E5E7EB"/>
<path d="M103.5 259.5C103.5 260.328 102.828 261 102 261C101.172 261 100.5 260.328 100.5 259.5C100.5 258.672 101.172 258 102 258C102.828 258 103.5 258.672 103.5 259.5Z" fill="#E5E7EB"/>
<path d="M122.5 259.5C122.5 260.328 121.828 261 121 261C120.172 261 119.5 260.328 119.5 259.5C119.5 258.672 120.172 258 121 258C121.828 258 122.5 258.672 122.5 259.5Z" fill="#E5E7EB"/>
<path d="M141.5 259.5C141.5 260.328 140.828 261 140 261C139.172 261 138.5 260.328 138.5 259.5C138.5 258.672 139.172 258 140 258C140.828 258 141.5 258.672 141.5 259.5Z" fill="#E5E7EB"/>
<path d="M160.5 259.5C160.5 260.328 159.828 261 159 261C158.172 261 157.5 260.328 157.5 259.5C157.5 258.672 158.172 258 159 258C159.828 258 160.5 258.672 160.5 259.5Z" fill="#E5E7EB"/>
<path d="M179.5 259.5C179.5 260.328 178.828 261 178 261C177.172 261 176.5 260.328 176.5 259.5C176.5 258.672 177.172 258 178 258C178.828 258 179.5 258.672 179.5 259.5Z" fill="#E5E7EB"/>
<path d="M198.5 259.5C198.5 260.328 197.828 261 197 261C196.172 261 195.5 260.328 195.5 259.5C195.5 258.672 196.172 258 197 258C197.828 258 198.5 258.672 198.5 259.5Z" fill="#E5E7EB"/>
<path d="M217.5 259.5C217.5 260.328 216.828 261 216 261C215.172 261 214.5 260.328 214.5 259.5C214.5 258.672 215.172 258 216 258C216.828 258 217.5 258.672 217.5 259.5Z" fill="#E5E7EB"/>
<path d="M236.5 259.5C236.5 260.328 235.828 261 235 261C234.172 261 233.5 260.328 233.5 259.5C233.5 258.672 234.172 258 235 258C235.828 258 236.5 258.672 236.5 259.5Z" fill="#E5E7EB"/>
<path d="M255.5 259.5C255.5 260.328 254.828 261 254 261C253.172 261 252.5 260.328 252.5 259.5C252.5 258.672 253.172 258 254 258C254.828 258 255.5 258.672 255.5 259.5Z" fill="#E5E7EB"/>
<path d="M274.5 259.5C274.5 260.328 273.828 261 273 261C272.172 261 271.5 260.328 271.5 259.5C271.5 258.672 272.172 258 273 258C273.828 258 274.5 258.672 274.5 259.5Z" fill="#E5E7EB"/>
<path d="M293.5 259.5C293.5 260.328 292.828 261 292 261C291.172 261 290.5 260.328 290.5 259.5C290.5 258.672 291.172 258 292 258C292.828 258 293.5 258.672 293.5 259.5Z" fill="#E5E7EB"/>
<path d="M312.5 259.5C312.5 260.328 311.828 261 311 261C310.172 261 309.5 260.328 309.5 259.5C309.5 258.672 310.172 258 311 258C311.828 258 312.5 258.672 312.5 259.5Z" fill="#E5E7EB"/>
<path d="M331.5 259.5C331.5 260.328 330.828 261 330 261C329.172 261 328.5 260.328 328.5 259.5C328.5 258.672 329.172 258 330 258C330.828 258 331.5 258.672 331.5 259.5Z" fill="#E5E7EB"/>
<path d="M8.5 278.5C8.5 279.328 7.82843 280 7 280C6.17157 280 5.5 279.328 5.5 278.5C5.5 277.672 6.17157 277 7 277C7.82843 277 8.5 277.672 8.5 278.5Z" fill="#E5E7EB"/>
<path d="M27.5 278.5C27.5 279.328 26.8284 280 26 280C25.1716 280 24.5 279.328 24.5 278.5C24.5 277.672 25.1716 277 26 277C26.8284 277 27.5 277.672 27.5 278.5Z" fill="#E5E7EB"/>
<path d="M46.5 278.5C46.5 279.328 45.8284 280 45 280C44.1716 280 43.5 279.328 43.5 278.5C43.5 277.672 44.1716 277 45 277C45.8284 277 46.5 277.672 46.5 278.5Z" fill="#E5E7EB"/>
<path d="M65.5 278.5C65.5 279.328 64.8284 280 64 280C63.1716 280 62.5 279.328 62.5 278.5C62.5 277.672 63.1716 277 64 277C64.8284 277 65.5 277.672 65.5 278.5Z" fill="#E5E7EB"/>
<path d="M84.5 278.5C84.5 279.328 83.8284 280 83 280C82.1716 280 81.5 279.328 81.5 278.5C81.5 277.672 82.1716 277 83 277C83.8284 277 84.5 277.672 84.5 278.5Z" fill="#E5E7EB"/>
<path d="M103.5 278.5C103.5 279.328 102.828 280 102 280C101.172 280 100.5 279.328 100.5 278.5C100.5 277.672 101.172 277 102 277C102.828 277 103.5 277.672 103.5 278.5Z" fill="#E5E7EB"/>
<path d="M122.5 278.5C122.5 279.328 121.828 280 121 280C120.172 280 119.5 279.328 119.5 278.5C119.5 277.672 120.172 277 121 277C121.828 277 122.5 277.672 122.5 278.5Z" fill="#E5E7EB"/>
<path d="M141.5 278.5C141.5 279.328 140.828 280 140 280C139.172 280 138.5 279.328 138.5 278.5C138.5 277.672 139.172 277 140 277C140.828 277 141.5 277.672 141.5 278.5Z" fill="#E5E7EB"/>
<path d="M160.5 278.5C160.5 279.328 159.828 280 159 280C158.172 280 157.5 279.328 157.5 278.5C157.5 277.672 158.172 277 159 277C159.828 277 160.5 277.672 160.5 278.5Z" fill="#E5E7EB"/>
<path d="M179.5 278.5C179.5 279.328 178.828 280 178 280C177.172 280 176.5 279.328 176.5 278.5C176.5 277.672 177.172 277 178 277C178.828 277 179.5 277.672 179.5 278.5Z" fill="#E5E7EB"/>
<path d="M198.5 278.5C198.5 279.328 197.828 280 197 280C196.172 280 195.5 279.328 195.5 278.5C195.5 277.672 196.172 277 197 277C197.828 277 198.5 277.672 198.5 278.5Z" fill="#E5E7EB"/>
<path d="M217.5 278.5C217.5 279.328 216.828 280 216 280C215.172 280 214.5 279.328 214.5 278.5C214.5 277.672 215.172 277 216 277C216.828 277 217.5 277.672 217.5 278.5Z" fill="#E5E7EB"/>
<path d="M236.5 278.5C236.5 279.328 235.828 280 235 280C234.172 280 233.5 279.328 233.5 278.5C233.5 277.672 234.172 277 235 277C235.828 277 236.5 277.672 236.5 278.5Z" fill="#E5E7EB"/>
<path d="M255.5 278.5C255.5 279.328 254.828 280 254 280C253.172 280 252.5 279.328 252.5 278.5C252.5 277.672 253.172 277 254 277C254.828 277 255.5 277.672 255.5 278.5Z" fill="#E5E7EB"/>
<path d="M274.5 278.5C274.5 279.328 273.828 280 273 280C272.172 280 271.5 279.328 271.5 278.5C271.5 277.672 272.172 277 273 277C273.828 277 274.5 277.672 274.5 278.5Z" fill="#E5E7EB"/>
<path d="M293.5 278.5C293.5 279.328 292.828 280 292 280C291.172 280 290.5 279.328 290.5 278.5C290.5 277.672 291.172 277 292 277C292.828 277 293.5 277.672 293.5 278.5Z" fill="#E5E7EB"/>
<path d="M312.5 278.5C312.5 279.328 311.828 280 311 280C310.172 280 309.5 279.328 309.5 278.5C309.5 277.672 310.172 277 311 277C311.828 277 312.5 277.672 312.5 278.5Z" fill="#E5E7EB"/>
<path d="M331.5 278.5C331.5 279.328 330.828 280 330 280C329.172 280 328.5 279.328 328.5 278.5C328.5 277.672 329.172 277 330 277C330.828 277 331.5 277.672 331.5 278.5Z" fill="#E5E7EB"/>
</g>
<defs>
<radialGradient id="paint0_radial_216_3494" cx="0" cy="0" r="1" gradientUnits="userSpaceOnUse" gradientTransform="translate(168 336) rotate(-90) scale(336 175.34)">
<stop/>
<stop offset="0.958333" stop-opacity="0"/>
</radialGradient>
</defs>
</svg>
