<svg width="61" height="60" viewBox="0 0 61 60" fill="none" xmlns="http://www.w3.org/2000/svg">
<g filter="url(#filter0_d_216_3501)">
<rect x="2.5" y="1" width="56" height="56" rx="12" fill="white" shape-rendering="crispEdges"/>
<rect x="3" y="1.5" width="55" height="55" rx="11.5" stroke="#E5E7EB" shape-rendering="crispEdges"/>
<path d="M41.5 31C41.5011 33.0413 40.8052 35.0218 39.5275 36.6138L26.8863 23.9725C28.2094 22.9135 29.8049 22.2498 31.4888 22.0581C33.1727 21.8664 34.8766 22.1543 36.4039 22.8888C37.9313 23.6233 39.2201 24.7744 40.1217 26.2095C41.0233 27.6446 41.5011 29.3052 41.5 31ZM23.5 31C23.4989 32.6948 23.9767 34.3554 24.8783 35.7905C25.7799 37.2256 27.0687 38.3767 28.5961 39.1112C30.1234 39.8457 31.8273 40.1336 33.5112 39.9419C35.1951 39.7502 36.7906 39.0865 38.1138 38.0275L25.4725 25.3862C24.1948 26.9782 23.4989 28.9587 23.5 31ZM46 31C46 33.67 45.2082 36.2801 43.7248 38.5002C42.2414 40.7203 40.133 42.4506 37.6662 43.4724C35.1994 44.4942 32.485 44.7615 29.8663 44.2406C27.2475 43.7197 24.8421 42.434 22.9541 40.5459C21.0661 38.6579 19.7803 36.2525 19.2594 33.6337C18.7385 31.015 19.0058 28.3006 20.0276 25.8338C21.0494 23.367 22.7797 21.2586 24.9998 19.7752C27.2199 18.2918 29.83 17.5 32.5 17.5C36.0792 17.504 39.5107 18.9276 42.0416 21.4584C44.5724 23.9893 45.996 27.4208 46 31ZM43.5 31C43.5 28.8244 42.8549 26.6977 41.6462 24.8887C40.4375 23.0798 38.7195 21.6699 36.7095 20.8373C34.6995 20.0048 32.4878 19.7869 30.354 20.2114C28.2202 20.6358 26.2602 21.6834 24.7218 23.2218C23.1835 24.7602 22.1358 26.7202 21.7114 28.854C21.2869 30.9878 21.5048 33.1995 22.3373 35.2095C23.1699 37.2195 24.5798 38.9375 26.3887 40.1462C28.1977 41.3549 30.3244 42 32.5 42C35.4164 41.9967 38.2123 40.8367 40.2745 38.7745C42.3367 36.7123 43.4967 33.9164 43.5 31Z" fill="#9CA3AF"/>
</g>
<defs>
<filter id="filter0_d_216_3501" x="0.5" y="0" width="60" height="60" filterUnits="userSpaceOnUse" color-interpolation-filters="sRGB">
<feFlood flood-opacity="0" result="BackgroundImageFix"/>
<feColorMatrix in="SourceAlpha" type="matrix" values="0 0 0 0 0 0 0 0 0 0 0 0 0 0 0 0 0 0 127 0" result="hardAlpha"/>
<feOffset dy="1"/>
<feGaussianBlur stdDeviation="1"/>
<feComposite in2="hardAlpha" operator="out"/>
<feColorMatrix type="matrix" values="0 0 0 0 0.0627451 0 0 0 0 0.0941176 0 0 0 0 0.156863 0 0 0 0.05 0"/>
<feBlend mode="normal" in2="BackgroundImageFix" result="effect1_dropShadow_216_3501"/>
<feBlend mode="normal" in="SourceGraphic" in2="effect1_dropShadow_216_3501" result="shape"/>
</filter>
</defs>
</svg>
