<svg width="13" height="16" viewBox="0 0 13 16" fill="none" xmlns="http://www.w3.org/2000/svg">
<path d="M11.9965 2.1069L3.34713 0.57956C3.06966 0.530732 2.78416 0.594106 2.5534 0.755746C2.32265 0.917386 2.16554 1.16406 2.11662 1.44151L0.141039 12.6642C0.116876 12.8017 0.120041 12.9426 0.150355 13.0788C0.180668 13.2151 0.237535 13.344 0.317706 13.4583C0.397877 13.5726 0.499781 13.6699 0.617593 13.7448C0.735406 13.8197 0.866818 13.8706 1.00432 13.8947L9.65373 15.422C9.79127 15.4463 9.93224 15.4432 10.0686 15.4129C10.2049 15.3827 10.3339 15.3258 10.4483 15.2456C10.5626 15.1654 10.6601 15.0635 10.735 14.9456C10.8099 14.8278 10.8608 14.6963 10.8849 14.5587L12.8605 3.33608C12.9089 3.05852 12.8451 2.7731 12.683 2.54259C12.521 2.31209 12.2741 2.15537 11.9965 2.1069ZM9.83702 14.3755L1.18694 12.8481L3.16252 1.62546L11.8119 3.1528L9.83702 14.3755ZM3.93217 3.37991C3.95678 3.24124 4.03545 3.11801 4.15088 3.03732C4.26632 2.95663 4.40907 2.92507 4.54776 2.9496L10.0595 3.92245C10.1905 3.9454 10.3081 4.01664 10.3891 4.1221C10.4701 4.22756 10.5086 4.35958 10.497 4.49206C10.4854 4.62454 10.4246 4.74785 10.3265 4.83763C10.2284 4.92742 10.1002 4.97714 9.96717 4.97698C9.93601 4.97694 9.90491 4.97427 9.8742 4.96901L4.36248 3.9955C4.22381 3.97089 4.10058 3.89222 4.01989 3.77679C3.9392 3.66135 3.90765 3.5186 3.93217 3.37991ZM3.56428 5.47304C3.57639 5.40431 3.60192 5.33865 3.63941 5.27979C3.6769 5.22093 3.72562 5.17004 3.78279 5.13002C3.83996 5.09 3.90445 5.06163 3.97258 5.04654C4.04071 5.03144 4.11115 5.02992 4.17987 5.04206L9.69159 6.01558C9.8235 6.03764 9.94224 6.10864 10.0241 6.21442C10.1059 6.32019 10.1449 6.45294 10.1332 6.58617C10.1214 6.7194 10.0599 6.8433 9.96077 6.93313C9.86168 7.02296 9.73236 7.07211 9.59862 7.07077C9.5672 7.07083 9.53586 7.06794 9.50498 7.06214L3.99327 6.08929C3.8547 6.06438 3.73169 5.98548 3.65125 5.86993C3.57081 5.75438 3.53953 5.61163 3.56428 5.47304ZM3.19573 7.5655C3.2208 7.42719 3.29966 7.30445 3.41504 7.22417C3.53042 7.14389 3.67291 7.11261 3.81131 7.13718L6.56584 7.62128C6.69678 7.64422 6.81436 7.71541 6.89537 7.8208C6.97638 7.92619 7.01494 8.05812 7.00343 8.19055C6.99192 8.32298 6.93118 8.44629 6.83321 8.53612C6.73523 8.62596 6.60713 8.6758 6.4742 8.67581C6.44304 8.6758 6.41194 8.67313 6.38123 8.66784L3.62538 8.18108C3.48682 8.15632 3.36376 8.07759 3.2832 7.96217C3.20265 7.84676 3.17119 7.70409 3.19573 7.5655Z" fill="#6B7280"/>
</svg>
