<svg width="1441" height="79" viewBox="0 0 1441 79" fill="none" xmlns="http://www.w3.org/2000/svg">
<path d="M451.84 41.2266H954.48" stroke="#D1D5DB" stroke-dasharray="2 2"/>
<path d="M881.84 41.2266H1463.34" stroke="url(#paint0_linear_1748_43850)"/>
<rect width="53" height="52" transform="translate(909.66 12.5)" fill="white"/>
<g filter="url(#filter0_d_1748_43850)">
<rect x="910.16" y="12.5" width="52" height="52" rx="26" fill="white"/>
<rect x="910.66" y="13" width="51" height="51" rx="25.5" stroke="#D1D5DB"/>
<path opacity="0.2" d="M944.41 33.25V46C944.41 46.1989 944.331 46.3897 944.19 46.5303C944.05 46.671 943.859 46.75 943.66 46.75H928.66C928.461 46.75 928.27 46.671 928.13 46.5303C927.989 46.3897 927.91 46.1989 927.91 46V33.25H944.41Z" fill="#0CAE5C"/>
<path d="M945.081 32.9144L943.581 29.9144C943.519 29.7898 943.423 29.685 943.305 29.6118C943.186 29.5386 943.049 29.4999 942.91 29.5H929.41C929.271 29.4999 929.134 29.5386 929.016 29.6118C928.897 29.685 928.801 29.7898 928.739 29.9144L927.239 32.9144C927.187 33.0187 927.16 33.1336 927.16 33.25V46C927.16 46.3978 927.318 46.7794 927.599 47.0607C927.881 47.342 928.262 47.5 928.66 47.5H943.66C944.058 47.5 944.44 47.342 944.721 47.0607C945.002 46.7794 945.16 46.3978 945.16 46V33.25C945.16 33.1336 945.133 33.0187 945.081 32.9144ZM929.873 31H942.447L943.197 32.5H929.123L929.873 31ZM943.66 46H928.66V34H943.66V46ZM939.691 40.2194C939.761 40.289 939.816 40.3717 939.854 40.4628C939.891 40.5538 939.911 40.6514 939.911 40.75C939.911 40.8486 939.891 40.9462 939.854 41.0372C939.816 41.1283 939.761 41.211 939.691 41.2806L936.691 44.2806C936.621 44.3504 936.538 44.4057 936.447 44.4434C936.356 44.4812 936.259 44.5006 936.16 44.5006C936.062 44.5006 935.964 44.4812 935.873 44.4434C935.782 44.4057 935.699 44.3504 935.63 44.2806L932.63 41.2806C932.489 41.1399 932.41 40.949 932.41 40.75C932.41 40.551 932.489 40.3601 932.63 40.2194C932.77 40.0786 932.961 39.9996 933.16 39.9996C933.359 39.9996 933.55 40.0786 933.691 40.2194L935.41 41.9397V36.25C935.41 36.0511 935.489 35.8603 935.63 35.7197C935.77 35.579 935.961 35.5 936.16 35.5C936.359 35.5 936.55 35.579 936.69 35.7197C936.831 35.8603 936.91 36.0511 936.91 36.25V41.9397L938.63 40.2194C938.699 40.1496 938.782 40.0943 938.873 40.0566C938.964 40.0188 939.062 39.9994 939.16 39.9994C939.259 39.9994 939.356 40.0188 939.447 40.0566C939.538 40.0943 939.621 40.1496 939.691 40.2194Z" fill="#0C3932"/>
</g>
<g filter="url(#filter1_d_1748_43850)">
<rect x="1051.66" y="27.5" width="22" height="22" rx="11" fill="white"/>
<rect x="1052.16" y="28" width="21" height="21" rx="10.5" stroke="#D1D5DB"/>
<path fillRule="evenodd" clip-rule="evenodd" d="M1062.66 46.5C1067.08 46.5 1070.66 42.9183 1070.66 38.5C1070.66 34.0817 1067.08 30.5 1062.66 30.5C1058.24 30.5 1054.66 34.0817 1054.66 38.5C1054.66 42.9183 1058.24 46.5 1062.66 46.5ZM1066.52 36.6911C1066.76 36.3561 1066.69 35.8871 1066.35 35.6434C1066.02 35.3998 1065.55 35.4739 1065.3 35.8089L1061.82 40.599L1059.94 38.7197C1059.65 38.4268 1059.17 38.4268 1058.88 38.7197C1058.59 39.0126 1058.59 39.4874 1058.88 39.7803L1061.38 42.2803C1061.53 42.4354 1061.75 42.5149 1061.97 42.4977C1062.19 42.4805 1062.39 42.3685 1062.52 42.1911L1066.52 36.6911Z" fill="#0CAE5C"/>
</g>
<g filter="url(#filter2_d_1748_43850)">
<rect x="1162.66" y="17.5" width="42" height="42" rx="21" fill="white"/>
<rect x="1163.16" y="18" width="41" height="41" rx="20.5" stroke="#D1D5DB"/>
<path fillRule="evenodd" clip-rule="evenodd" d="M1183.66 46.5C1188.08 46.5 1191.66 42.9183 1191.66 38.5C1191.66 34.0817 1188.08 30.5 1183.66 30.5C1179.24 30.5 1175.66 34.0817 1175.66 38.5C1175.66 42.9183 1179.24 46.5 1183.66 46.5ZM1187.52 36.6911C1187.76 36.3561 1187.69 35.8871 1187.35 35.6434C1187.02 35.3998 1186.55 35.4739 1186.3 35.8089L1182.82 40.599L1180.94 38.7197C1180.65 38.4268 1180.17 38.4268 1179.88 38.7197C1179.59 39.0126 1179.59 39.4874 1179.88 39.7803L1182.38 42.2803C1182.53 42.4354 1182.75 42.5149 1182.97 42.4977C1183.19 42.4805 1183.39 42.3685 1183.52 42.1911L1187.52 36.6911Z" fill="#0CAE5C"/>
</g>
<g filter="url(#filter3_d_1748_43850)">
<rect x="1293.66" y="27.5" width="22" height="22" rx="11" fill="white"/>
<rect x="1294.16" y="28" width="21" height="21" rx="10.5" stroke="#D1D5DB"/>
<path fillRule="evenodd" clip-rule="evenodd" d="M1304.66 46.5C1309.08 46.5 1312.66 42.9183 1312.66 38.5C1312.66 34.0817 1309.08 30.5 1304.66 30.5C1300.24 30.5 1296.66 34.0817 1296.66 38.5C1296.66 42.9183 1300.24 46.5 1304.66 46.5ZM1308.52 36.6911C1308.76 36.3561 1308.69 35.8871 1308.35 35.6434C1308.02 35.3998 1307.55 35.4739 1307.3 35.8089L1303.82 40.599L1301.94 38.7197C1301.65 38.4268 1301.17 38.4268 1300.88 38.7197C1300.59 39.0126 1300.59 39.4874 1300.88 39.7803L1303.38 42.2803C1303.53 42.4354 1303.75 42.5149 1303.97 42.4977C1304.19 42.4805 1304.39 42.3685 1304.52 42.1911L1308.52 36.6911Z" fill="#0CAE5C"/>
</g>
<g filter="url(#filter4_d_1748_43850)">
<rect x="1404.66" y="27.5" width="22" height="22" rx="11" fill="white"/>
<rect x="1405.16" y="28" width="21" height="21" rx="10.5" stroke="#D1D5DB"/>
<path fillRule="evenodd" clip-rule="evenodd" d="M1415.66 46.5C1420.08 46.5 1423.66 42.9183 1423.66 38.5C1423.66 34.0817 1420.08 30.5 1415.66 30.5C1411.24 30.5 1407.66 34.0817 1407.66 38.5C1407.66 42.9183 1411.24 46.5 1415.66 46.5ZM1419.52 36.6911C1419.76 36.3561 1419.69 35.8871 1419.35 35.6434C1419.02 35.3998 1418.55 35.4739 1418.3 35.8089L1414.82 40.599L1412.94 38.7197C1412.65 38.4268 1412.17 38.4268 1411.88 38.7197C1411.59 39.0126 1411.59 39.4874 1411.88 39.7803L1414.38 42.2803C1414.53 42.4354 1414.75 42.5149 1414.97 42.4977C1415.19 42.4805 1415.39 42.3685 1415.52 42.1911L1419.52 36.6911Z" fill="#0CAE5C"/>
</g>
<path d="M-16.8398 41.2266H564.66" stroke="url(#paint1_linear_1748_43850)"/>
<path d="M451.84 41.2266H954.48" stroke="url(#paint2_linear_1748_43850)" stroke-dasharray="2 2"/>
<rect width="53" height="52" transform="translate(393.16 12.5)" fill="white"/>
<g filter="url(#filter5_d_1748_43850)">
<rect x="393.66" y="12.5" width="52" height="52" rx="26" fill="white"/>
<rect x="394.16" y="13" width="51" height="51" rx="25.5" stroke="#D1D5DB"/>
<path opacity="0.2" d="M421.91 34V43C421.91 43.1989 421.831 43.3897 421.69 43.5303C421.55 43.671 421.359 43.75 421.16 43.75H411.41C411.211 43.75 411.02 43.671 410.88 43.5303C410.739 43.3897 410.66 43.1989 410.66 43V34C410.66 33.8011 410.739 33.6103 410.88 33.4697C411.02 33.329 411.211 33.25 411.41 33.25H421.16C421.359 33.25 421.55 33.329 421.69 33.4697C421.831 33.6103 421.91 33.8011 421.91 34Z" fill="#0CAE5C"/>
<path d="M426.41 28.75H414.41C414.012 28.75 413.631 28.908 413.349 29.1893C413.068 29.4706 412.91 29.8522 412.91 30.25V32.5H411.41C411.012 32.5 410.631 32.658 410.349 32.9393C410.068 33.2206 409.91 33.6022 409.91 34V43C409.91 43.3978 410.068 43.7794 410.349 44.0607C410.631 44.342 411.012 44.5 411.41 44.5H412.91V46.75C412.91 47.1478 413.068 47.5294 413.349 47.8107C413.631 48.092 414.012 48.25 414.41 48.25H426.41C426.808 48.25 427.19 48.092 427.471 47.8107C427.752 47.5294 427.91 47.1478 427.91 46.75V30.25C427.91 29.8522 427.752 29.4706 427.471 29.1893C427.19 28.908 426.808 28.75 426.41 28.75ZM422.66 36.25H426.41V40.75H422.66V36.25ZM426.41 34.75H422.66V34C422.66 33.6022 422.502 33.2206 422.221 32.9393C421.94 32.658 421.558 32.5 421.16 32.5V30.25H426.41V34.75ZM414.41 30.25H419.66V32.5H414.41V30.25ZM411.41 34H421.16V41.4841C421.16 41.4897 421.16 41.4944 421.16 41.5C421.16 41.5056 421.16 41.5103 421.16 41.5159V43H411.41V34ZM414.41 44.5H419.66V46.75H414.41V44.5ZM421.16 46.75V44.5C421.558 44.5 421.94 44.342 422.221 44.0607C422.502 43.7794 422.66 43.3978 422.66 43V42.25H426.41V46.75H421.16ZM413.834 40.27L415.309 38.5L413.834 36.73C413.706 36.5771 413.645 36.3799 413.663 36.1817C413.681 35.9836 413.777 35.8007 413.93 35.6734C414.083 35.5461 414.28 35.4848 414.478 35.5029C414.677 35.521 414.859 35.6171 414.987 35.77L416.285 37.3281L417.584 35.77C417.647 35.6943 417.724 35.6317 417.811 35.5859C417.898 35.5401 417.994 35.5119 418.092 35.5029C418.19 35.4939 418.289 35.5044 418.383 35.5336C418.477 35.5629 418.564 35.6104 418.64 35.6734C418.716 35.7365 418.778 35.8138 418.824 35.901C418.87 35.9882 418.898 36.0836 418.907 36.1817C418.916 36.2798 418.906 36.3787 418.877 36.4728C418.847 36.5669 418.8 36.6543 418.737 36.73L417.261 38.5L418.737 40.27C418.864 40.4229 418.925 40.6201 418.907 40.8183C418.889 41.0164 418.793 41.1993 418.64 41.3266C418.487 41.4539 418.29 41.5152 418.092 41.4971C417.894 41.479 417.711 41.3829 417.584 41.23L416.285 39.6719L414.987 41.23C414.859 41.3829 414.677 41.479 414.478 41.4971C414.28 41.5152 414.083 41.4539 413.93 41.3266C413.777 41.1993 413.681 41.0164 413.663 40.8183C413.645 40.6201 413.706 40.4229 413.834 40.27Z" fill="#1F2937"/>
</g>
<g filter="url(#filter6_d_1748_43850)">
<rect x="684.16" y="2.5" width="72" height="72" rx="36" fill="white"/>
<rect x="683.66" y="2" width="73" height="73" rx="36.5" stroke="url(#paint3_linear_1748_43850)"/>
<path opacity="0.2" d="M720.16 21.5099L735.786 30.625L720.16 39.7401L704.534 30.625L720.16 21.5099Z" fill="#0CAE5C" stroke="#1F2937" stroke-width="0.125"/>
<path d="M737.044 45.7186C737.217 46.0194 737.264 46.3767 737.175 46.7122C737.085 47.0477 736.867 47.334 736.566 47.5085L720.816 56.696C720.616 56.8131 720.388 56.8747 720.155 56.8747C719.923 56.8747 719.695 56.8131 719.494 56.696L703.744 47.5085C703.448 47.3308 703.234 47.0437 703.149 46.7093C703.063 46.375 703.112 46.0204 703.286 45.7223C703.46 45.4242 703.744 45.2065 704.078 45.1165C704.411 45.0265 704.766 45.0713 705.066 45.2412L720.16 54.0432L735.254 45.2412C735.555 45.0678 735.912 45.0208 736.247 45.1102C736.583 45.1997 736.869 45.4185 737.044 45.7186ZM735.254 37.3662L720.16 46.1682L705.066 37.3662C704.768 37.2174 704.423 37.1881 704.104 37.2842C703.784 37.3803 703.513 37.5947 703.346 37.8836C703.178 38.1725 703.127 38.5143 703.203 38.8394C703.279 39.1645 703.476 39.4485 703.754 39.6335L719.504 48.821C719.705 48.9381 719.933 48.9997 720.165 48.9997C720.397 48.9997 720.626 48.9381 720.826 48.821L736.576 39.6335C736.728 39.548 736.86 39.4332 736.967 39.2959C737.073 39.1585 737.152 39.0014 737.197 38.8337C737.242 38.6659 737.254 38.4907 737.231 38.3184C737.208 38.1461 737.151 37.9801 737.064 37.83C736.976 37.6798 736.86 37.5486 736.721 37.4438C736.582 37.3391 736.424 37.2629 736.256 37.2198C736.087 37.1766 735.912 37.1674 735.74 37.1925C735.568 37.2176 735.403 37.2767 735.254 37.3662ZM703.098 30.6249C703.098 30.395 703.159 30.1693 703.274 29.9703C703.389 29.7714 703.555 29.6061 703.754 29.4912L719.504 20.3037C719.705 20.1867 719.933 20.125 720.165 20.125C720.397 20.125 720.626 20.1867 720.826 20.3037L736.576 29.4912C736.774 29.6068 736.939 29.7723 737.053 29.9712C737.167 30.1701 737.227 30.3955 737.227 30.6249C737.227 30.8543 737.167 31.0796 737.053 31.2785C736.939 31.4775 736.774 31.643 736.576 31.7585L720.826 40.946C720.626 41.0631 720.397 41.1247 720.165 41.1247C719.933 41.1247 719.705 41.0631 719.504 40.946L703.754 31.7585C703.555 31.6436 703.389 31.4784 703.274 31.2794C703.159 31.0805 703.098 30.8548 703.098 30.6249ZM707.015 30.6249L720.16 38.2931L733.305 30.6249L720.16 22.9566L707.015 30.6249Z" fill="#1F2937"/>
</g>
<rect width="53" height="52" transform="translate(169.16 12.5)" fill="white"/>
<g filter="url(#filter7_d_1748_43850)">
<rect x="169.66" y="12.5" width="52" height="52" rx="26" fill="white"/>
<rect x="170.16" y="13" width="51" height="51" rx="25.5" stroke="#D1D5DB"/>
<path d="M201.285 30.375H191.285C190.954 30.375 190.636 30.5067 190.401 30.7411C190.167 30.9755 190.035 31.2935 190.035 31.625V33.5H188.785C188.454 33.5 188.136 33.6317 187.901 33.8661C187.667 34.1005 187.535 34.4185 187.535 34.75V42.25C187.535 42.5815 187.667 42.8995 187.901 43.1339C188.136 43.3683 188.454 43.5 188.785 43.5H190.035V45.375C190.035 45.7065 190.167 46.0245 190.401 46.2589C190.636 46.4933 190.954 46.625 191.285 46.625H201.285C201.617 46.625 201.935 46.4933 202.169 46.2589C202.403 46.0245 202.535 45.7065 202.535 45.375V31.625C202.535 31.2935 202.403 30.9755 202.169 30.7411C201.935 30.5067 201.617 30.375 201.285 30.375ZM198.16 36.625H201.285V40.375H198.16V36.625ZM191.285 31.625H201.285V35.375H198.16V34.75C198.16 34.4185 198.028 34.1005 197.794 33.8661C197.56 33.6317 197.242 33.5 196.91 33.5H191.285V31.625ZM188.785 34.75H196.91V40.9867C196.91 40.9914 196.91 40.9953 196.91 41C196.91 41.0047 196.91 41.0086 196.91 41.0133V42.25H188.785V34.75ZM191.285 45.375V43.5H196.91C197.242 43.5 197.56 43.3683 197.794 43.1339C198.028 42.8995 198.16 42.5815 198.16 42.25V41.625H201.285V45.375H191.285ZM190.991 40.5266L190.054 36.7766C190.032 36.6964 190.027 36.6128 190.038 36.5306C190.049 36.4483 190.077 36.3692 190.119 36.2977C190.161 36.2261 190.217 36.1637 190.283 36.114C190.35 36.0643 190.425 36.0284 190.506 36.0083C190.586 35.9881 190.67 35.9843 190.752 35.9968C190.834 36.0094 190.913 36.0382 190.984 36.0815C191.054 36.1248 191.116 36.1817 191.164 36.249C191.213 36.3163 191.248 36.3926 191.266 36.4734L191.795 38.5828L192.288 37.5938C192.34 37.4897 192.42 37.4023 192.519 37.3411C192.618 37.2799 192.731 37.2475 192.848 37.2475C192.964 37.2475 193.078 37.2799 193.177 37.3411C193.275 37.4023 193.355 37.4897 193.407 37.5938L193.901 38.5828L194.429 36.4734C194.471 36.3151 194.574 36.1798 194.716 36.0967C194.857 36.0136 195.025 35.9893 195.184 36.0291C195.343 36.0688 195.48 36.1694 195.566 36.3093C195.651 36.4491 195.678 36.6169 195.641 36.7766L194.704 40.5266C194.673 40.6503 194.604 40.7615 194.508 40.8453C194.412 40.9291 194.292 40.9815 194.166 40.9953C194.143 40.9978 194.12 40.9991 194.098 40.9992C193.982 40.9993 193.868 40.967 193.769 40.906C193.67 40.8451 193.59 40.7577 193.538 40.6539L192.848 39.2727L192.157 40.6547C192.1 40.769 192.009 40.8631 191.897 40.9242C191.785 40.9854 191.657 41.0107 191.53 40.9967C191.403 40.9828 191.283 40.9302 191.187 40.8461C191.09 40.7621 191.022 40.6505 190.991 40.5266Z" fill="#1F2937"/>
</g>
<rect width="53" height="52" transform="translate(-22.8398 12.5)" fill="white"/>
<g filter="url(#filter8_d_1748_43850)">
<rect x="-22.3398" y="12.5" width="52" height="52" rx="26" fill="white"/>
<rect x="-21.8398" y="13" width="51" height="51" rx="25.5" stroke="#D1D5DB"/>
<path d="M3.66016 31V32.875M8.96346 33.1967L7.63763 34.5225M11.1602 38.5H9.28516M8.96346 43.8033L7.63763 42.4775M3.66016 44.125V46M-0.31732 42.4775L-1.64314 43.8033M-1.96484 38.5H-3.83984M-0.31732 34.5225L-1.64314 33.1967M6.78516 38.5C6.78516 40.2259 5.38605 41.625 3.66016 41.625C1.93427 41.625 0.535156 40.2259 0.535156 38.5C0.535156 36.7741 1.93427 35.375 3.66016 35.375C5.38605 35.375 6.78516 36.7741 6.78516 38.5Z" stroke="#1F2937" stroke-width="1.5" stroke-linecap="round" stroke-linejoin="round"/>
</g>
<defs>
<filter id="filter0_d_1748_43850" x="908.16" y="11.5" width="56" height="56" filterUnits="userSpaceOnUse" color-interpolation-filters="sRGB">
<feFlood flood-opacity="0" result="BackgroundImageFix"/>
<feColorMatrix in="SourceAlpha" type="matrix" values="0 0 0 0 0 0 0 0 0 0 0 0 0 0 0 0 0 0 127 0" result="hardAlpha"/>
<feOffset dy="1"/>
<feGaussianBlur stdDeviation="1"/>
<feColorMatrix type="matrix" values="0 0 0 0 0 0 0 0 0 0 0 0 0 0 0 0 0 0 0.05 0"/>
<feBlend mode="normal" in2="BackgroundImageFix" result="effect1_dropShadow_1748_43850"/>
<feBlend mode="normal" in="SourceGraphic" in2="effect1_dropShadow_1748_43850" result="shape"/>
</filter>
<filter id="filter1_d_1748_43850" x="1049.66" y="26.5" width="26" height="26" filterUnits="userSpaceOnUse" color-interpolation-filters="sRGB">
<feFlood flood-opacity="0" result="BackgroundImageFix"/>
<feColorMatrix in="SourceAlpha" type="matrix" values="0 0 0 0 0 0 0 0 0 0 0 0 0 0 0 0 0 0 127 0" result="hardAlpha"/>
<feOffset dy="1"/>
<feGaussianBlur stdDeviation="1"/>
<feColorMatrix type="matrix" values="0 0 0 0 0 0 0 0 0 0 0 0 0 0 0 0 0 0 0.05 0"/>
<feBlend mode="normal" in2="BackgroundImageFix" result="effect1_dropShadow_1748_43850"/>
<feBlend mode="normal" in="SourceGraphic" in2="effect1_dropShadow_1748_43850" result="shape"/>
</filter>
<filter id="filter2_d_1748_43850" x="1160.66" y="16.5" width="46" height="46" filterUnits="userSpaceOnUse" color-interpolation-filters="sRGB">
<feFlood flood-opacity="0" result="BackgroundImageFix"/>
<feColorMatrix in="SourceAlpha" type="matrix" values="0 0 0 0 0 0 0 0 0 0 0 0 0 0 0 0 0 0 127 0" result="hardAlpha"/>
<feOffset dy="1"/>
<feGaussianBlur stdDeviation="1"/>
<feColorMatrix type="matrix" values="0 0 0 0 0 0 0 0 0 0 0 0 0 0 0 0 0 0 0.05 0"/>
<feBlend mode="normal" in2="BackgroundImageFix" result="effect1_dropShadow_1748_43850"/>
<feBlend mode="normal" in="SourceGraphic" in2="effect1_dropShadow_1748_43850" result="shape"/>
</filter>
<filter id="filter3_d_1748_43850" x="1291.66" y="26.5" width="26" height="26" filterUnits="userSpaceOnUse" color-interpolation-filters="sRGB">
<feFlood flood-opacity="0" result="BackgroundImageFix"/>
<feColorMatrix in="SourceAlpha" type="matrix" values="0 0 0 0 0 0 0 0 0 0 0 0 0 0 0 0 0 0 127 0" result="hardAlpha"/>
<feOffset dy="1"/>
<feGaussianBlur stdDeviation="1"/>
<feColorMatrix type="matrix" values="0 0 0 0 0 0 0 0 0 0 0 0 0 0 0 0 0 0 0.05 0"/>
<feBlend mode="normal" in2="BackgroundImageFix" result="effect1_dropShadow_1748_43850"/>
<feBlend mode="normal" in="SourceGraphic" in2="effect1_dropShadow_1748_43850" result="shape"/>
</filter>
<filter id="filter4_d_1748_43850" x="1402.66" y="26.5" width="26" height="26" filterUnits="userSpaceOnUse" color-interpolation-filters="sRGB">
<feFlood flood-opacity="0" result="BackgroundImageFix"/>
<feColorMatrix in="SourceAlpha" type="matrix" values="0 0 0 0 0 0 0 0 0 0 0 0 0 0 0 0 0 0 127 0" result="hardAlpha"/>
<feOffset dy="1"/>
<feGaussianBlur stdDeviation="1"/>
<feColorMatrix type="matrix" values="0 0 0 0 0 0 0 0 0 0 0 0 0 0 0 0 0 0 0.05 0"/>
<feBlend mode="normal" in2="BackgroundImageFix" result="effect1_dropShadow_1748_43850"/>
<feBlend mode="normal" in="SourceGraphic" in2="effect1_dropShadow_1748_43850" result="shape"/>
</filter>
<filter id="filter5_d_1748_43850" x="391.66" y="11.5" width="56" height="56" filterUnits="userSpaceOnUse" color-interpolation-filters="sRGB">
<feFlood flood-opacity="0" result="BackgroundImageFix"/>
<feColorMatrix in="SourceAlpha" type="matrix" values="0 0 0 0 0 0 0 0 0 0 0 0 0 0 0 0 0 0 127 0" result="hardAlpha"/>
<feOffset dy="1"/>
<feGaussianBlur stdDeviation="1"/>
<feColorMatrix type="matrix" values="0 0 0 0 0 0 0 0 0 0 0 0 0 0 0 0 0 0 0.05 0"/>
<feBlend mode="normal" in2="BackgroundImageFix" result="effect1_dropShadow_1748_43850"/>
<feBlend mode="normal" in="SourceGraphic" in2="effect1_dropShadow_1748_43850" result="shape"/>
</filter>
<filter id="filter6_d_1748_43850" x="681.16" y="0.5" width="78" height="78" filterUnits="userSpaceOnUse" color-interpolation-filters="sRGB">
<feFlood flood-opacity="0" result="BackgroundImageFix"/>
<feColorMatrix in="SourceAlpha" type="matrix" values="0 0 0 0 0 0 0 0 0 0 0 0 0 0 0 0 0 0 127 0" result="hardAlpha"/>
<feOffset dy="1"/>
<feGaussianBlur stdDeviation="1"/>
<feColorMatrix type="matrix" values="0 0 0 0 0 0 0 0 0 0 0 0 0 0 0 0 0 0 0.05 0"/>
<feBlend mode="normal" in2="BackgroundImageFix" result="effect1_dropShadow_1748_43850"/>
<feBlend mode="normal" in="SourceGraphic" in2="effect1_dropShadow_1748_43850" result="shape"/>
</filter>
<filter id="filter7_d_1748_43850" x="167.66" y="11.5" width="56" height="56" filterUnits="userSpaceOnUse" color-interpolation-filters="sRGB">
<feFlood flood-opacity="0" result="BackgroundImageFix"/>
<feColorMatrix in="SourceAlpha" type="matrix" values="0 0 0 0 0 0 0 0 0 0 0 0 0 0 0 0 0 0 127 0" result="hardAlpha"/>
<feOffset dy="1"/>
<feGaussianBlur stdDeviation="1"/>
<feColorMatrix type="matrix" values="0 0 0 0 0 0 0 0 0 0 0 0 0 0 0 0 0 0 0.05 0"/>
<feBlend mode="normal" in2="BackgroundImageFix" result="effect1_dropShadow_1748_43850"/>
<feBlend mode="normal" in="SourceGraphic" in2="effect1_dropShadow_1748_43850" result="shape"/>
</filter>
<filter id="filter8_d_1748_43850" x="-24.3398" y="11.5" width="56" height="56" filterUnits="userSpaceOnUse" color-interpolation-filters="sRGB">
<feFlood flood-opacity="0" result="BackgroundImageFix"/>
<feColorMatrix in="SourceAlpha" type="matrix" values="0 0 0 0 0 0 0 0 0 0 0 0 0 0 0 0 0 0 127 0" result="hardAlpha"/>
<feOffset dy="1"/>
<feGaussianBlur stdDeviation="1"/>
<feColorMatrix type="matrix" values="0 0 0 0 0 0 0 0 0 0 0 0 0 0 0 0 0 0 0.05 0"/>
<feBlend mode="normal" in2="BackgroundImageFix" result="effect1_dropShadow_1748_43850"/>
<feBlend mode="normal" in="SourceGraphic" in2="effect1_dropShadow_1748_43850" result="shape"/>
</filter>
<linearGradient id="paint0_linear_1748_43850" x1="964.59" y1="41.2266" x2="1437.69" y2="41.2266" gradientUnits="userSpaceOnUse">
<stop stop-color="#D1D5DB" stop-opacity="0"/>
<stop offset="0.333333" stop-color="#08A935"/>
<stop offset="0.666667" stop-color="#6ABF86" stop-opacity="0.8113"/>
<stop offset="1" stop-color="#D1D5DB" stop-opacity="0"/>
</linearGradient>
<linearGradient id="paint1_linear_1748_43850" x1="65.9102" y1="41.2266" x2="539.007" y2="41.2266" gradientUnits="userSpaceOnUse">
<stop stop-color="#D1D5DB" stop-opacity="0"/>
<stop offset="0.333333" stop-color="#C9C9C9"/>
<stop offset="0.666667" stop-color="#CDCDCD" stop-opacity="0.8113"/>
<stop offset="1" stop-color="#D1D5DB" stop-opacity="0"/>
</linearGradient>
<linearGradient id="paint2_linear_1748_43850" x1="523.368" y1="41.2266" x2="932.306" y2="41.2266" gradientUnits="userSpaceOnUse">
<stop stop-color="#D1D5DB" stop-opacity="0"/>
<stop offset="0.333333" stop-color="#08A935"/>
<stop offset="0.666667" stop-color="#6ABF86" stop-opacity="0.8113"/>
<stop offset="1" stop-color="#D1D5DB" stop-opacity="0"/>
</linearGradient>
<linearGradient id="paint3_linear_1748_43850" x1="720.16" y1="2.5" x2="720.16" y2="74.5" gradientUnits="userSpaceOnUse">
<stop stop-color="#1BEC55"/>
<stop offset="1" stop-color="#E0E0E0"/>
</linearGradient>
</defs>
</svg>
