<svg xmlns="http://www.w3.org/2000/svg" width="17" height="16" viewBox="0 0 17 16" fill="none">
  <path opacity="0.2" d="M8.1543 8.06859V14.5005C8.07032 14.5001 7.98778 14.4786 7.9143 14.438L2.4143 11.4267C2.33576 11.3837 2.2702 11.3205 2.22447 11.2435C2.17873 11.1666 2.1545 11.0787 2.1543 10.9892V5.01172C2.1545 4.94169 2.1694 4.87249 2.19805 4.80859L8.1543 8.06859Z" fill="#6B7280"/>
  <path d="M14.1343 4.13512L8.6343 1.12574C8.48734 1.04455 8.32219 1.00195 8.1543 1.00195C7.9864 1.00195 7.82125 1.04455 7.6743 1.12574L2.1743 4.13637C2.01723 4.22231 1.88611 4.34884 1.79464 4.50276C1.70317 4.65667 1.6547 4.83233 1.6543 5.01137V10.9889C1.6547 11.1679 1.70317 11.3436 1.79464 11.4975C1.88611 11.6514 2.01723 11.7779 2.1743 11.8639L7.6743 14.8745C7.82125 14.9557 7.9864 14.9983 8.1543 14.9983C8.32219 14.9983 8.48734 14.9557 8.6343 14.8745L14.1343 11.8639C14.2914 11.7779 14.4225 11.6514 14.514 11.4975C14.6054 11.3436 14.6539 11.1679 14.6543 10.9889V5.01199C14.6542 4.83263 14.6059 4.65659 14.5144 4.50232C14.4229 4.34804 14.2916 4.22121 14.1343 4.13512ZM8.1543 2.00074L13.1755 4.75074L11.3149 5.76949L6.29305 3.01949L8.1543 2.00074ZM8.1543 7.50074L3.13305 4.75074L5.2518 3.59074L10.273 6.34074L8.1543 7.50074ZM2.6543 5.62574L7.6543 8.36199V13.7239L2.6543 10.9895V5.62574ZM13.6543 10.987L8.6543 13.7239V8.36449L10.6543 7.27012V9.50074C10.6543 9.63335 10.707 9.76053 10.8007 9.8543C10.8945 9.94807 11.0217 10.0007 11.1543 10.0007C11.2869 10.0007 11.4141 9.94807 11.5079 9.8543C11.6016 9.76053 11.6543 9.63335 11.6543 9.50074V6.72262L13.6543 5.62574V10.9864V10.987Z" fill="#6B7280"/>
</svg>