<svg width="1440" height="1024" viewBox="0 0 1440 1024" fill="none" xmlns="http://www.w3.org/2000/svg">
<g opacity="0.1">
<path d="M2300 842.336C2242.25 899 2180.49 950.228 2112.87 972.795C2045.38 995.196 1970.95 985.643 1916.67 928.979C1851.84 861.279 1821.43 735.104 1747.67 688.488C1699.92 658.344 1644.17 668.227 1591.22 673.334C1538.13 678.44 1480.25 675.805 1441.03 627.212C1370.74 540.075 1395.82 351.307 1319.66 274.547C1269.37 223.978 1199.48 247.039 1137.06 241.109C1058.1 233.532 983.94 173.08 940.591 80.8364C897.243 -11.4067 885.639 -133.629 909.647 -243.003" stroke="#D9DFE3" stroke-width="0.5" stroke-miterlimit="10"/>
<path d="M2292.8 856.339C2235.31 912.179 2173.56 962.089 2106.33 983.502C2065.78 996.515 2022.7 997.998 1983.09 984.82C1957.21 976.255 1932.8 961.265 1911.46 939.357C1846.77 872.646 1815.16 749.271 1743.14 701.008C1717.53 683.877 1689.92 677.782 1661.24 676.629C1636.97 675.641 1612.03 678.112 1587.48 679.924C1553.07 682.559 1516.39 682.724 1484.11 670.205C1466.24 663.287 1449.7 652.58 1435.56 636.438C1407.69 604.811 1393.42 558.855 1381.94 509.768C1365.27 439.103 1354.07 361.685 1317.52 311.445C1313.65 306.01 1309.39 301.068 1304.85 296.291C1254.97 244.569 1188.01 262.688 1129.19 253.464C1071.57 244.24 1017.42 204.377 976.336 142.937C964.465 125.147 953.795 105.546 944.325 84.4614C927.386 46.4111 914.981 3.74872 907.379 -40.5609C895.908 -106.449 894.974 -175.796 906.045 -239.543" stroke="#D1D7DC" stroke-width="0.5" stroke-miterlimit="10"/>
<path d="M2285.73 870.504C2228.38 925.355 2166.76 973.948 2099.8 994.538C2059.38 1007.06 2016.7 1008.21 1977.36 995.032C1951.61 986.466 1927.34 971.806 1906 950.063C1841.44 884.505 1808.9 763.765 1738.47 714.02C1713.13 696.23 1686.19 688.488 1657.78 686.017C1633.64 683.876 1608.56 685.523 1583.88 687.006C1549.21 688.982 1512.26 689.147 1479.58 677.617C1461.58 671.192 1444.9 661.309 1430.23 645.99C1401.69 616.341 1385.95 573.184 1373.01 526.568C1354.2 459.527 1340.07 384.745 1302.99 333.846C1298.99 328.41 1294.85 323.304 1290.32 318.527C1240.7 265.817 1176.94 278.994 1121.72 266.146C1067.7 253.628 1017.69 211.624 979.14 148.536C967.936 130.253 957.666 110.157 948.596 88.5783C932.19 49.7045 919.652 6.38313 911.249 -38.256C898.712 -104.638 895.11 -173.491 902.846 -235.59" stroke="#C8CDD5" stroke-width="0.5" stroke-miterlimit="10"/>
<path d="M2278.66 884.505C2221.57 938.534 2159.95 985.808 2093.26 1005.41C2053.11 1017.27 2010.83 1018.26 1971.75 1005.08C1946.28 996.515 1922.13 982.02 1900.79 960.606C1836.24 896.036 1802.62 777.932 1733.8 726.869C1708.86 708.255 1682.45 699.031 1654.17 695.407C1630.16 692.113 1605.09 693.101 1580.15 693.925C1545.2 695.242 1507.86 695.407 1474.91 684.865C1456.64 678.935 1439.7 669.711 1424.76 655.545C1395.42 627.872 1378.48 587.68 1363.94 543.371C1342.86 479.789 1325.79 407.971 1288.31 356.249C1284.31 350.813 1280.18 345.542 1275.64 340.6C1226.29 286.737 1165.6 294.973 1114.12 278.831C1063.57 263.017 1017.95 218.873 981.671 153.973C971.134 135.195 961.397 114.44 952.594 92.5324C936.722 52.6702 924.051 8.85465 914.981 -36.1139C901.243 -102.99 895.108 -171.349 899.509 -231.636" stroke="#31363F" stroke-width="0.5" stroke-miterlimit="10"/>
<path d="M2271.59 898.507C2214.63 951.547 2153.15 997.504 2086.86 1016.28C2046.98 1027.65 2004.96 1028.31 1966.15 1015.13C1940.81 1006.56 1916.8 992.233 1895.59 971.314C1831.03 907.732 1796.49 792.263 1729.26 739.717C1704.59 720.445 1678.85 709.738 1650.84 704.632C1626.96 700.349 1601.75 700.349 1576.54 700.679C1541.33 701.338 1503.72 701.667 1470.24 691.949C1451.83 686.678 1434.63 677.947 1419.29 664.935C1389.15 639.238 1371.01 601.682 1354.87 560.173C1331.66 500.215 1311.65 431.032 1273.51 378.651C1269.5 373.051 1265.24 367.78 1260.83 362.838C1211.88 307.987 1154.13 311.281 1106.25 291.679C1059.3 272.572 1017.95 226.286 984.071 159.574C974.2 140.137 964.997 119.053 956.461 96.6511C941.122 55.9653 928.318 11.3262 918.448 -33.8071C903.509 -101.178 894.973 -169.042 895.906 -227.682" stroke="#383C47" stroke-width="0.5" stroke-miterlimit="10"/>
<path d="M2264.52 912.672C2207.7 964.888 2146.35 1009.53 2080.32 1027.32C2040.71 1038.19 1999.1 1038.35 1960.42 1025.34C1935.21 1016.77 1911.33 1002.61 1890.26 982.019C1825.83 919.425 1790.09 806.592 1724.6 752.729C1700.19 732.633 1675.12 720.444 1647.24 714.184C1623.5 708.748 1598.15 707.925 1572.81 707.925C1537.47 707.925 1499.32 708.254 1465.58 699.524C1446.9 694.747 1429.56 686.841 1413.96 674.816C1383.01 651.097 1363.54 616.341 1345.93 577.302C1320.59 520.803 1297.52 454.421 1258.97 401.381C1254.83 395.781 1250.7 390.345 1246.3 385.239C1197.61 329.399 1142.93 327.587 1098.78 304.691C1055.3 282.124 1018.35 233.861 986.741 165.502C977.538 145.571 968.868 123.828 960.599 101.097C945.793 59.5876 932.856 14.2896 922.319 -31.0084C906.313 -98.7082 895.109 -166.243 892.708 -223.236" stroke="#3F4350" stroke-width="0.5" stroke-miterlimit="10"/>
<path d="M2257.45 926.673C2200.9 978.065 2139.54 1021.22 2073.79 1038.19C2034.44 1048.57 1993.09 1048.4 1954.81 1035.39C1929.87 1026.82 1906.13 1012.82 1885.05 992.561C1820.63 930.956 1783.95 820.758 1720.06 765.577C1695.92 744.657 1671.51 730.986 1643.77 723.573C1620.16 717.149 1594.82 715.337 1569.21 714.843C1533.6 714.184 1495.18 714.514 1461.04 706.607C1442.23 702.324 1424.63 695.077 1408.62 684.205C1377.01 662.462 1356.07 630.507 1337 593.939C1309.39 541.064 1283.51 477.317 1244.43 423.618C1240.3 418.018 1236.03 412.582 1231.63 407.311C1183.21 350.318 1131.59 343.565 1091.04 317.209C1051.16 291.348 1018.35 240.779 989.274 170.773C980.738 150.348 972.468 128.111 964.599 104.886C950.327 62.3878 937.256 16.5957 925.919 -29.0317C908.713 -97.2257 894.974 -164.267 889.239 -219.613" stroke="#464958" stroke-width="0.5" stroke-miterlimit="10"/>
<path d="M2250.25 940.839C2193.83 991.244 2132.61 1033.08 2067.25 1049.22C2028.17 1058.94 1987.22 1058.61 1949.08 1045.6C1924.27 1037.04 1900.66 1023.2 1879.72 1003.43C1815.43 942.981 1777.68 835.089 1715.53 778.59C1691.65 756.847 1667.91 741.858 1640.43 732.963C1616.96 725.386 1591.48 722.915 1565.74 721.927C1529.86 720.609 1491.05 721.103 1456.64 714.02C1437.56 710.232 1419.69 703.807 1403.42 693.76C1371.01 673.993 1348.87 645.002 1328.19 610.741C1298.45 561.325 1269.64 500.378 1229.89 446.021C1225.76 440.256 1221.49 434.82 1217.09 429.549C1168.94 371.567 1120.39 359.708 1083.57 330.058C1047.16 300.738 1018.75 248.192 991.941 176.374C984.072 155.29 976.336 132.724 968.733 108.839C954.995 65.518 941.924 18.9023 929.786 -26.8898C911.513 -95.5779 895.107 -162.289 886.038 -215.823" stroke="#4D5060" stroke-width="0.5" stroke-miterlimit="10"/>
<path d="M2243.18 954.84C2186.89 1004.42 2125.81 1044.94 2060.72 1060.1C2021.77 1069.32 1981.22 1068.66 1943.47 1055.65C1918.8 1047.25 1895.46 1033.41 1874.38 1013.97C1810.09 954.51 1771.41 849.09 1710.86 791.438C1687.25 769.036 1664.04 752.399 1636.83 742.351C1613.49 733.786 1587.88 730.327 1561.87 728.844C1525.73 726.867 1486.65 727.362 1451.7 721.267C1432.5 717.973 1414.36 712.207 1397.68 703.313C1364.47 685.523 1341 659.332 1318.86 627.541C1286.85 581.749 1255.1 523.439 1214.95 468.422C1210.82 462.657 1206.55 457.056 1202.15 451.621C1154.4 392.486 1108.65 375.52 1075.7 342.741C1042.63 309.962 1018.75 255.439 994.209 181.974C987.007 160.396 979.804 137.17 972.468 112.957C959.264 68.8117 946.059 21.5371 933.121 -24.5845C913.648 -93.7668 894.708 -159.984 882.304 -211.871" stroke="#545669" stroke-width="0.5" stroke-miterlimit="10"/>
<path d="M2236.11 968.842C2180.09 1017.43 2118.87 1056.64 2054.18 1070.97C2015.5 1079.7 1975.22 1078.71 1937.74 1065.7C1913.33 1057.3 1889.99 1043.79 1869.05 1024.52C1804.76 966.042 1765.15 863.257 1706.19 804.122C1682.85 780.897 1660.31 762.778 1633.23 751.412C1610.03 741.693 1584.42 737.411 1558.14 735.434C1521.73 732.798 1482.38 733.293 1447.04 728.186C1427.56 725.386 1409.16 720.445 1392.35 712.538C1358.34 696.725 1333.53 673.335 1309.92 644.014C1275.78 601.681 1241.1 546.171 1200.42 490.496C1196.15 484.73 1191.88 478.965 1187.61 473.529C1140.13 413.407 1097.45 391.17 1068.1 355.261C1038.49 318.858 1019.02 262.359 996.878 187.246C990.342 165.174 983.54 141.454 976.604 116.746C963.933 71.7777 950.595 23.8442 936.99 -22.6068C916.316 -92.2833 894.842 -158.007 879.103 -208.246" stroke="#5B5D71" stroke-width="0.5" stroke-miterlimit="10"/>
<path d="M2229.04 983.008C2173.16 1030.78 2112.07 1068.66 2047.78 1082C2009.37 1090.08 1969.49 1088.76 1932.14 1075.91C1907.86 1067.51 1884.66 1054.17 1863.85 1035.39C1799.69 977.902 1759.15 877.587 1701.66 817.3C1678.72 793.251 1656.71 773.649 1629.9 761.13C1606.83 750.259 1581.08 745.317 1554.67 742.846C1517.99 739.552 1478.25 740.046 1442.63 735.928C1423.03 733.622 1404.35 729.504 1387.15 722.586C1352.34 708.749 1326.33 688.159 1301.12 661.31C1264.71 622.601 1227.09 569.726 1185.88 513.556C1181.61 507.627 1177.34 501.861 1172.94 496.261C1125.72 434.985 1085.98 407.642 1060.5 368.438C1034.36 328.576 1019.29 270.101 999.413 193.176C993.544 170.445 987.275 146.231 980.606 121.194C968.469 75.237 954.997 26.6447 940.592 -19.971C918.851 -90.1417 894.709 -155.371 875.636 -203.963" stroke="#626379" stroke-width="0.5" stroke-miterlimit="10"/>
<path d="M2221.97 997.009C2166.22 1043.79 2105.27 1080.36 2041.24 1092.88C2003.1 1100.45 1963.48 1098.81 1926.54 1085.96C1902.39 1077.56 1879.45 1064.38 1858.65 1045.93C1794.49 989.432 1753.01 891.423 1697.12 830.147C1674.45 805.275 1653.11 784.191 1626.43 770.354C1603.49 758.494 1577.61 752.564 1551.07 749.599C1514.26 745.646 1474.11 746.305 1438.1 743.011C1418.22 741.199 1399.42 737.74 1381.81 731.974C1346.2 720.115 1318.86 702.325 1292.18 677.946C1253.5 642.696 1213.09 592.786 1171.34 535.793C1167.07 529.863 1162.67 524.098 1158.4 518.333C1111.45 456.069 1074.77 423.289 1052.9 381.121C1030.36 337.47 1019.55 277.183 1002.08 198.776C996.877 175.551 991.142 150.843 984.74 125.311C973.136 78.5307 959.531 29.2795 944.459 -17.6657C921.518 -88.3305 894.842 -153.065 872.434 -200.011" stroke="#696A82" stroke-width="0.5" stroke-miterlimit="10"/>
<path d="M2214.9 1011.17C2159.42 1057.13 2098.46 1092.38 2034.71 1103.91C1996.83 1110.99 1957.61 1109.02 1920.8 1096.17C1896.79 1087.77 1873.98 1074.76 1853.31 1056.64C1789.29 1001.29 1746.74 905.589 1692.45 842.996C1670.05 817.3 1649.37 794.733 1622.83 779.743C1600.02 766.731 1574.14 759.977 1547.2 756.683C1510.12 752.07 1469.57 752.729 1433.16 750.423C1413.02 749.106 1393.95 746.47 1376.08 741.693C1339.53 731.81 1310.99 716.82 1282.84 694.913C1241.9 663.286 1198.55 616.012 1156.4 558.36C1152 552.43 1147.73 546.5 1143.46 540.57C1096.91 477.318 1063.3 439.103 1045.03 393.97C1025.95 346.695 1019.55 284.595 1004.35 204.377C999.81 180.493 994.475 155.29 988.473 129.429C977.403 81.8254 963.664 31.9153 947.792 -15.3593C923.65 -86.5183 894.44 -150.759 868.698 -196.057" stroke="#70708A" stroke-width="0.5" stroke-miterlimit="10"/>
<path d="M2207.7 1025.18C2152.35 1070.15 2091.53 1104.08 2028.17 1114.78C1990.56 1121.21 1951.61 1119.07 1915.2 1106.22C1891.46 1097.82 1868.78 1084.97 1848.11 1067.34C1784.09 1012.99 1740.74 919.756 1687.92 856.009C1665.78 829.325 1645.77 805.605 1619.5 789.133C1596.82 774.967 1570.81 767.39 1543.74 763.601C1506.39 758.33 1465.58 758.989 1428.76 757.671C1408.49 756.848 1389.15 754.871 1371.01 751.083C1333.66 743.341 1303.79 730.987 1274.18 711.55C1231.09 683.383 1184.81 638.908 1142 580.598C1137.6 574.503 1133.33 568.573 1129.06 562.643C1082.78 498.238 1052.23 454.752 1037.69 406.654C1022.22 355.59 1020.09 291.679 1007.15 209.813C1003.28 185.435 998.48 159.738 992.745 133.383C982.208 84.7909 968.336 34.2219 951.797 -13.0527C926.588 -84.7059 894.71 -148.452 865.634 -191.938" stroke="#777792" stroke-width="0.5" stroke-miterlimit="10"/>
<path d="M2200.63 1039.18C2145.41 1083.32 2084.73 1115.77 2021.64 1125.65C1984.16 1131.58 1945.61 1128.95 1909.46 1116.27C1885.86 1107.86 1863.31 1095.18 1842.64 1077.89C1778.75 1024.52 1734.47 933.591 1683.12 868.856C1661.38 841.348 1641.9 816.146 1615.76 798.521C1593.22 783.367 1567.08 774.966 1539.87 770.519C1502.26 764.589 1461.04 765.412 1423.96 764.918C1403.42 764.589 1383.81 763.436 1365.41 760.636C1327.26 754.87 1296.05 745.317 1264.97 728.515C1219.62 703.972 1170.54 662.133 1127.19 603.163C1122.79 597.069 1118.39 590.974 1114.25 584.879C1068.24 519.486 1040.89 470.564 1029.82 419.336C1017.95 364.649 1020.09 298.926 1009.55 215.413C1006.35 190.54 1002.08 164.185 996.612 137.5C986.608 88.0844 972.603 36.8566 955.264 -10.7475C928.855 -82.8948 894.442 -146.147 862.031 -187.986" stroke="#7E7E9B" stroke-width="0.5" stroke-miterlimit="10"/>
<path d="M2193.56 1053.34C2138.61 1096.5 2077.92 1127.8 2015.1 1136.69C1977.89 1142.13 1939.74 1139.16 1903.73 1126.31C1880.25 1117.91 1857.85 1105.39 1837.3 1088.43C1773.42 1036.05 1728.2 947.427 1678.45 881.54C1656.97 853.208 1638.03 826.523 1612.16 807.745C1589.75 791.438 1563.61 782.213 1536.13 777.437C1498.25 770.848 1456.77 771.671 1419.29 772.166C1398.62 772.495 1378.74 772.001 1359.94 770.189C1320.99 766.4 1288.58 759.647 1255.9 745.316C1208.28 724.397 1156.27 685.193 1112.52 625.565C1107.98 619.47 1103.71 613.211 1099.45 607.116C1053.83 540.569 1029.56 486.377 1022.09 432.184C1013.95 373.708 1020.22 306.173 1011.95 221.013C1009.41 195.481 1005.68 168.797 1000.48 141.453C991.008 91.0491 976.87 39.327 958.864 -8.60645C931.254 -81.2479 894.308 -144.006 858.429 -184.198" stroke="#8584A3" stroke-width="0.5" stroke-miterlimit="10"/>
<path d="M2186.49 1067.35C2131.67 1109.68 2071.12 1139.49 2008.57 1147.56C1971.62 1152.51 1933.74 1149.21 1898.13 1136.36C1874.92 1127.96 1852.64 1115.61 1832.1 1099.14C1768.35 1047.74 1722.2 961.43 1673.91 894.554C1652.84 865.398 1634.43 837.231 1608.83 817.136C1586.55 799.675 1560.28 789.627 1532.67 784.356C1494.52 777.109 1452.64 777.932 1414.76 779.25C1393.82 780.074 1373.81 780.403 1354.6 779.579C1314.86 777.932 1281.11 773.814 1246.97 761.954C1197.08 744.494 1142.26 708.091 1097.85 647.804C1093.31 641.709 1088.91 635.45 1084.78 629.19C1039.43 561.655 1018.49 502.191 1014.35 444.869C1009.95 382.769 1020.49 313.422 1014.48 226.45C1012.62 200.424 1009.42 173.081 1004.48 145.408C995.544 94.1801 981.406 41.6345 962.599 -6.46373C933.923 -79.5994 894.309 -141.863 855.095 -180.408" stroke="#8C8BAC" stroke-width="0.5" stroke-miterlimit="10"/>
<path d="M2179.42 1081.35C2124.74 1122.69 2064.32 1151.35 2002.16 1158.43C1965.48 1162.72 1928 1159.26 1892.52 1146.41C1869.45 1138.17 1847.31 1125.98 1826.9 1109.68C1763.14 1059.44 1716.2 975.266 1669.38 907.236C1648.57 877.093 1630.83 847.608 1605.36 826.359C1583.22 807.746 1556.81 797.039 1528.93 791.109C1490.65 783.202 1448.37 784.026 1410.09 786.332C1389.01 787.65 1368.61 788.144 1349.27 788.968C1308.72 790.45 1273.64 787.979 1238.03 778.59C1186.01 764.754 1128.12 730.986 1083.31 670.04C1078.77 663.781 1074.37 657.521 1070.24 651.097C1025.15 582.409 1007.41 517.674 1006.88 457.387C1006.21 391.663 1020.89 320.34 1017.15 231.885C1016.08 205.365 1013.28 177.528 1008.61 149.36C1000.21 97.309 985.94 44.1045 966.333 -4.3231C936.456 -77.9529 894.308 -139.723 851.759 -176.62" stroke="#9391B4" stroke-width="0.5" stroke-miterlimit="10"/>
<path d="M2172.36 1095.51C2117.94 1136.03 2057.52 1163.21 1995.63 1169.47C1959.22 1173.26 1922 1169.3 1886.92 1156.62C1863.98 1148.39 1841.98 1136.36 1821.7 1120.55C1757.95 1071.3 1710.33 989.431 1664.85 920.413C1644.44 889.446 1627.23 858.478 1601.89 835.912C1579.88 816.31 1553.47 804.615 1525.33 798.356C1486.78 789.79 1444.1 790.778 1405.56 793.908C1384.21 795.72 1363.67 797.532 1343.93 798.685C1302.59 801.156 1266.17 802.638 1229.09 795.555C1174.81 785.343 1114.12 754.211 1068.77 692.605C1064.1 686.346 1059.83 679.922 1055.7 673.498C1010.88 603.821 996.479 533.815 999.414 470.234C1002.48 400.887 1021.29 327.751 1019.82 237.484C1019.42 210.306 1017.02 181.974 1012.75 153.477C1004.88 100.438 990.477 46.7388 970.203 -2.01828C939.126 -75.9775 894.577 -137.418 848.561 -172.668" stroke="#9A98BC" stroke-width="0.5" stroke-miterlimit="10"/>
<path d="M2165.15 1109.51C2110.87 1149.05 2050.58 1175.07 1988.96 1180.34C1952.81 1183.64 1915.87 1179.35 1881.05 1166.67C1858.38 1158.43 1836.5 1146.57 1816.23 1131.09C1752.61 1082.83 1704.06 1003.27 1660.04 933.263C1640.04 901.307 1623.36 869.022 1598.29 845.302C1576.41 824.547 1549.87 812.029 1521.59 805.275C1482.78 796.051 1439.83 797.039 1400.88 801.157C1379.41 803.463 1358.47 806.099 1338.46 808.24C1296.31 812.852 1258.57 816.97 1220.02 812.358C1163.47 805.605 1099.98 777.438 1053.96 715.009C1049.3 708.749 1044.89 702.161 1040.76 695.572C996.343 624.907 985.139 549.63 991.408 482.919C998.344 409.948 1021.29 334.835 1022.09 242.922C1022.35 215.249 1020.49 186.423 1016.48 157.432C1009.15 103.569 994.609 49.0464 973.535 0.124613C941.391 -74.3288 894.174 -135.275 844.824 -168.878" stroke="#A19EC5" stroke-width="0.5" stroke-miterlimit="10"/>
<path d="M2158.08 1123.68C2103.93 1162.39 2043.78 1186.93 1982.55 1191.38C1946.54 1194.01 1910.13 1189.57 1875.45 1176.88C1852.91 1168.65 1831.17 1156.95 1810.89 1141.8C1747.27 1094.52 1698.05 1017.27 1655.37 946.11C1635.77 913.331 1619.63 879.564 1594.68 854.526C1572.94 832.618 1546.27 819.276 1517.86 812.193C1478.78 802.475 1435.43 803.298 1396.22 808.405C1374.47 811.205 1353.4 814.664 1332.99 817.794C1290.05 824.382 1251.1 831.301 1210.95 829.159C1152.26 826.03 1085.71 800.498 1039.29 737.41C1034.62 730.986 1030.22 724.397 1026.09 717.809C981.937 645.991 974.068 565.608 983.805 495.766C994.475 419.336 1021.55 342.247 1024.62 248.687C1025.55 220.355 1024.22 191.199 1020.48 161.714C1013.68 107.027 999.01 51.8463 977.269 2.59502C943.924 -72.3525 894.173 -132.805 841.488 -164.76" stroke="#A8A5CD" stroke-width="0.5" stroke-miterlimit="10"/>
<path d="M2151.02 1137.68C2097.13 1175.57 2036.98 1198.63 1976.02 1202.25C1940.28 1204.39 1904.13 1199.61 1869.85 1186.93C1847.44 1178.69 1825.97 1167.16 1805.69 1152.5C1742.21 1106.38 1692.06 1031.27 1650.84 959.123C1631.63 925.356 1616.03 890.27 1591.22 864.08C1569.61 841.019 1542.94 827.018 1514.13 819.276C1474.78 808.899 1431.16 809.887 1391.42 815.817C1369.41 819.111 1348.2 823.394 1327.53 827.512C1283.78 836.242 1243.5 845.961 1201.88 846.125C1140.93 846.784 1071.57 823.723 1024.62 759.977C1019.82 753.553 1015.55 746.964 1011.42 740.046C967.535 667.24 963 581.585 976.071 508.614C990.476 428.561 1021.69 349.495 1027.16 254.287C1028.76 225.461 1027.96 195.647 1024.49 165.832C1018.22 110.157 1003.41 54.4818 980.873 4.90114C946.327 -70.5405 894.042 -130.499 838.023 -160.807" stroke="#AFABD5" stroke-width="0.5" stroke-miterlimit="10"/>
<path d="M2143.95 1151.68C2090.19 1188.58 2030.17 1210.48 1969.48 1213.12C1934.01 1214.77 1898.26 1209.5 1864.11 1196.98C1841.97 1188.74 1820.5 1177.38 1800.36 1163.05C1736.87 1117.91 1686.05 1045.11 1646.17 971.971C1627.23 937.379 1612.29 900.812 1587.75 873.303C1566.28 849.09 1539.47 834.265 1510.52 826.029C1470.91 814.993 1426.89 815.981 1386.88 822.899C1364.74 826.688 1343.13 831.794 1322.19 836.9C1277.64 847.772 1236.03 860.126 1192.95 862.761C1129.72 867.044 1057.43 846.619 1009.95 782.213C1005.15 775.789 1000.75 769.036 996.744 762.118C953.129 688.158 951.795 597.398 968.468 521.132C986.741 437.62 1022.09 356.577 1029.69 259.557C1031.96 230.237 1031.56 199.929 1028.49 169.62C1022.75 113.121 1007.81 56.6225 984.606 7.04178C948.994 -68.8941 894.041 -128.358 834.687 -157.019" stroke="#B6B2DE" stroke-width="0.5" stroke-miterlimit="10"/>
<path d="M2136.88 1165.85C2083.39 1201.92 2023.37 1222.35 1963.08 1224.16C1927.87 1225.31 1892.39 1219.71 1858.64 1207.19C1836.64 1198.96 1815.3 1187.75 1795.29 1173.75C1731.93 1129.61 1680.32 1059.11 1641.77 984.819C1623.36 949.24 1608.82 911.354 1584.42 882.693C1563.07 857.491 1536.26 841.678 1507.05 833.112C1467.31 821.417 1422.89 822.405 1382.48 830.312C1360.07 834.595 1338.33 840.525 1316.99 846.455C1271.64 859.467 1228.82 874.457 1184.14 879.563C1118.79 887.305 1043.56 869.68 995.542 804.616C990.741 798.027 986.339 791.273 982.204 784.19C938.989 709.243 940.857 613.211 960.997 533.816C983.005 446.679 1022.62 363.825 1032.36 265.158C1035.42 235.179 1035.42 204.377 1032.62 173.574C1027.42 116.251 1012.35 59.0936 988.34 9.18348C951.527 -67.2465 894.04 -126.216 831.351 -153.066" stroke="#26205A" stroke-width="0.5" stroke-miterlimit="10"/>
<path d="M2129.81 1179.85C2076.46 1214.93 2016.57 1234.2 1956.55 1235.03C1921.6 1235.52 1886.39 1229.76 1852.91 1217.24C1831.04 1209 1809.96 1198.13 1789.96 1184.46C1726.6 1141.3 1674.32 1072.94 1637.1 997.832C1619.1 961.429 1605.09 922.061 1580.95 892.246C1559.74 865.891 1532.8 849.419 1503.46 840.195C1463.44 827.841 1418.63 828.994 1377.95 837.724C1355.4 842.501 1333.4 849.09 1311.66 856.173C1265.51 871.162 1221.36 888.952 1175.21 896.694C1107.58 908.059 1029.56 893.07 981.007 827.347C976.205 820.758 971.67 813.84 967.669 806.757C924.72 730.656 929.922 629.683 953.397 546.993C979.139 456.398 1022.89 371.402 1035.03 271.088C1038.76 240.614 1039.29 209.318 1036.76 178.021C1032.09 119.71 1016.89 62.0582 992.211 11.8187C954.197 -65.1055 894.176 -123.581 828.153 -148.783" stroke="#1D1654" stroke-width="0.5" stroke-miterlimit="10"/>
<path d="M2122.6 1194.01C2069.38 1228.28 2009.63 1246.07 1949.88 1246.07C1915.2 1246.07 1880.39 1239.97 1847.04 1227.45C1825.3 1219.38 1804.36 1208.51 1784.49 1195.17C1721.26 1153 1668.31 1086.95 1632.3 1010.68C1614.69 973.289 1601.22 932.768 1577.21 901.472C1556.14 873.963 1529.06 856.668 1499.45 846.949C1459.17 833.936 1414.09 835.089 1372.87 844.643C1350.07 849.914 1327.93 857.327 1305.92 865.398C1259.1 882.693 1213.49 902.954 1165.87 913.167C1095.98 927.991 1015.02 915.802 965.932 849.42C960.997 842.831 956.596 835.748 952.594 828.665C909.913 751.577 918.449 645.332 945.392 559.513C975.002 465.623 1022.89 378.486 1037.16 276.36C1041.56 245.392 1042.49 213.437 1040.36 181.811C1036.22 122.676 1020.88 64.3654 995.409 13.7964C956.329 -63.6219 893.64 -121.603 824.283 -145.158" stroke="#130B50" stroke-width="0.5" stroke-miterlimit="10"/>
<path d="M2115.54 1208.01C2031.77 1260.56 1931.34 1271.43 1841.44 1237.5C1751.54 1203.57 1673.38 1125 1627.9 1023.53C1610.69 985.149 1597.75 943.31 1573.88 910.86C1524.53 843.49 1440.63 833.771 1368.47 852.055C1296.45 870.339 1229.23 911.684 1157.07 930.133C1085.04 948.581 1001.15 939.027 951.528 871.986C893.774 793.745 904.711 669.711 937.923 572.361C971.268 474.847 1023.29 385.898 1039.96 282.125C1054.5 191.529 1039.69 94.1794 999.411 16.2669C959.13 -61.6456 893.908 -119.133 821.216 -141.041" stroke="#09004C" stroke-width="0.5" stroke-miterlimit="10"/>
<path d="M2093.26 1214.27C2010.03 1265.34 1910.8 1274.89 1822.23 1240.3C1733.67 1205.71 1656.44 1127.8 1612.29 1026.82C1595.09 987.455 1583.08 943.804 1560.01 910.201C1513.19 842.007 1432.1 830.477 1362.2 845.466C1292.45 860.456 1226.56 897.847 1155.2 913.99C1082.91 930.462 998.61 922.72 947.659 857.491C888.705 781.555 896.308 658.345 928.319 560.172C960.33 461.999 1013.68 372.556 1032.22 271.418C1048.23 183.952 1034.76 90.3906 997.41 14.9489C960.063 -60.4928 898.575 -117.321 828.551 -140.052" stroke="#08014F" stroke-width="0.5" stroke-miterlimit="10"/>
<path d="M2070.85 1220.37C1988.29 1269.78 1890.12 1278.18 1802.76 1243.1C1715.39 1208.01 1639.23 1130.43 1596.55 1029.95C1579.35 989.431 1568.41 944.298 1546.13 909.542C1501.99 840.689 1423.56 827.182 1356.07 838.877C1288.44 850.407 1223.89 884.01 1153.33 898.011C1080.77 912.342 995.942 906.742 943.657 843.16C883.369 769.695 887.904 646.978 918.448 548.311C948.992 449.644 1003.68 359.542 1024.22 261.204C1041.82 177.033 1029.55 86.9308 995.142 13.9599C960.596 -59.011 902.976 -115.18 835.619 -138.735" stroke="#0C3932" stroke-width="0.5" stroke-miterlimit="10"/>
<path d="M2048.58 1226.63C1966.55 1274.4 1869.58 1281.48 1783.42 1246.06C1697.26 1210.65 1622.3 1133.23 1580.95 1033.25C1563.74 991.572 1553.87 944.956 1532.26 908.882C1490.65 839.371 1415.16 824.052 1349.8 832.288C1284.44 840.524 1221.22 870.338 1151.33 882.033C1078.64 894.222 993.142 890.763 939.657 828.829C878.035 757.67 879.502 635.612 908.579 536.451C937.656 437.29 993.809 346.694 1016.35 250.827C1035.29 170.114 1024.62 83.4713 993.009 12.8065C961.398 -57.6936 907.512 -113.039 842.823 -137.583" stroke="#030456" stroke-width="0.5" stroke-miterlimit="10"/>
<path d="M2026.17 1232.89C1944.81 1279.17 1848.77 1284.94 1763.94 1248.87C1679.12 1212.79 1605.22 1135.7 1565.21 1036.38C1548 993.549 1539.2 945.616 1518.26 908.06C1479.18 838.054 1406.49 820.593 1343.4 825.37C1280.31 830.147 1218.42 856.173 1149.2 865.727C1076.1 875.939 990.341 874.292 935.388 814.169C872.433 745.316 870.832 624.083 898.442 524.262C926.185 424.442 983.538 333.682 1008.08 240.285C1028.49 162.867 1019.15 79.6836 990.474 11.4896C961.797 -56.7044 911.647 -111.227 849.625 -136.758" stroke="#03075B" stroke-width="0.5" stroke-miterlimit="10"/>
<path d="M2003.9 1238.98C1923.07 1283.62 1828.24 1288.23 1744.74 1251.67C1661.24 1215.1 1588.42 1138.34 1549.74 1039.67C1532.53 995.691 1524.66 946.275 1504.52 907.566C1467.98 837.066 1398.08 817.465 1337.26 818.947C1276.44 820.43 1215.75 842.337 1147.33 849.914C1073.97 857.986 987.808 858.315 931.521 800.004C867.365 733.457 862.43 612.883 888.84 512.568C915.115 412.254 973.803 320.999 1000.48 230.074C1022.22 155.95 1014.35 76.3899 988.608 10.6667C962.866 -55.0565 916.449 -108.92 857.229 -135.275" stroke="#040A5F" stroke-width="0.5" stroke-miterlimit="10"/>
<path d="M1981.49 1245.24C1901.33 1288.23 1807.56 1291.69 1725.27 1254.47C1642.97 1217.24 1571.48 1140.81 1534 1042.8C1516.79 997.668 1509.99 946.934 1490.65 906.743C1456.5 835.913 1389.68 814.17 1330.99 812.193C1272.44 810.217 1213.09 828.336 1145.33 833.772C1071.7 839.537 985.14 842.172 927.386 785.509C861.896 721.268 853.894 601.352 878.836 500.379C903.778 399.405 963.532 307.986 992.342 219.531C1015.28 148.867 1009.15 72.6014 986.207 9.34894C963.265 -53.9035 920.717 -106.943 864.164 -134.287" stroke="#040E66" stroke-width="0.5" stroke-miterlimit="10"/>
<path d="M1959.21 1251.5C1879.59 1292.85 1787.02 1295.15 1705.92 1257.43C1624.83 1219.71 1554.67 1143.44 1518.39 1046.09C1501.19 999.808 1495.32 947.757 1476.78 906.248C1445.03 835.253 1381.14 811.04 1324.86 805.769C1268.44 800.497 1210.42 814.499 1143.46 817.793C1069.57 821.417 982.471 826.029 923.517 771.177C856.827 709.243 845.623 590.15 869.098 488.518C892.573 386.886 953.528 295.466 984.472 209.153C1008.61 141.948 1004.08 69.1414 984.072 8.19501C964.065 -52.5866 925.385 -104.967 871.366 -133.135" stroke="#05116A" stroke-width="0.5" stroke-miterlimit="10"/>
<path d="M1936.8 1257.59C1857.84 1297.46 1766.35 1298.45 1686.58 1260.23C1606.82 1222.02 1537.87 1145.91 1502.79 1049.22C1485.58 1001.78 1480.78 948.58 1462.91 905.424C1433.43 834.265 1372.61 807.58 1318.59 799.014C1264.44 790.284 1207.62 804.944 1141.46 801.65C1067.3 798.026 979.803 809.721 919.382 756.681C851.492 697.053 837.087 578.619 859.228 476.493C881.369 374.367 943.257 282.618 976.602 198.775C1001.94 134.864 999.01 65.517 981.937 7.20613C964.865 -51.2694 929.919 -102.662 878.568 -131.817" stroke="#05136F" stroke-width="0.5" stroke-miterlimit="10"/>
<path d="M1914.53 1263.85C1836.1 1302.07 1745.67 1301.91 1667.24 1263.03C1588.68 1224.32 1521.06 1148.39 1487.18 1052.52C1469.98 1003.93 1466.11 949.405 1449.04 904.93C1421.83 833.607 1364.21 804.616 1312.32 792.427C1260.44 780.402 1204.68 791.274 1139.46 785.673C1065.03 779.414 977.137 793.58 915.382 742.352C846.157 685.029 828.685 567.254 849.358 464.634C870.032 362.014 932.988 270.1 968.6 188.564C995.009 128.111 993.942 62.2235 979.671 6.21872C965.399 -49.786 934.322 -100.52 885.638 -130.499" stroke="#061774" stroke-width="0.5" stroke-miterlimit="10"/>
<path d="M1892.12 1270.11C1814.23 1306.68 1725 1305.36 1647.77 1266C1570.54 1226.63 1504.25 1151.02 1471.44 1055.81C1454.37 1006.07 1451.3 950.393 1435.16 904.271C1410.22 832.947 1355.67 801.321 1306.05 785.838C1256.43 770.354 1202.01 772.331 1137.46 769.695C1062.5 766.565 974.469 777.602 911.246 728.021C840.822 673.005 820.014 555.889 839.355 452.774C858.695 349.659 922.45 257.581 960.597 178.186C987.94 121.193 988.74 58.5994 977.403 5.06548C966.066 -48.4685 938.723 -98.5433 892.707 -129.346" stroke="#9DADFA" stroke-width="0.5" stroke-miterlimit="10"/>
<path d="M1869.85 1276.21C1792.62 1311.13 1704.46 1308.49 1628.43 1268.8C1552.41 1229.1 1487.45 1153.49 1455.84 1058.94C1438.77 1008.05 1436.5 951.217 1421.29 903.448C1398.48 831.96 1347.27 797.863 1299.78 779.084C1252.43 760.306 1199.35 758.165 1135.59 753.553C1060.37 748.117 971.935 761.295 907.38 713.691C835.754 660.816 811.746 544.688 829.619 440.915C847.492 337.141 912.181 245.063 952.729 167.974C981.005 114.275 983.673 55.3055 975.27 4.24232C966.867 -46.8208 943.259 -96.072 899.91 -127.863" stroke="#98AAF9" stroke-width="0.5" stroke-miterlimit="10"/>
<path d="M1847.44 1282.47C1770.75 1315.91 1683.78 1311.95 1609.09 1271.6C1534.4 1231.24 1470.77 1155.8 1440.23 1062.07C1423.29 1010.02 1421.82 952.04 1407.42 902.789C1386.61 831.465 1338.73 794.733 1293.65 772.495C1248.56 750.258 1196.68 743.999 1133.72 737.41C1058.1 729.503 969.399 744.987 903.509 699.195C830.684 648.626 803.474 533.157 820.013 428.725C836.552 324.293 901.775 232.214 945.124 157.267C974.067 107.027 979.002 51.3518 973.4 2.75942C967.798 -45.8329 948.058 -94.4253 907.377 -127.04" stroke="#93A7F9" stroke-width="0.5" stroke-miterlimit="10"/>
<path d="M1825.17 1288.56C1749.14 1320.35 1663.24 1315.25 1589.75 1274.4C1516.26 1233.55 1454.1 1158.27 1424.76 1065.2C1407.82 1011.83 1407.16 952.864 1393.68 901.965C1374.88 830.641 1330.33 791.273 1287.51 765.742C1244.56 740.21 1194.01 729.668 1131.86 721.267C1055.97 711.055 967.001 728.68 899.511 684.7C825.485 636.437 795.074 521.627 810.146 416.701C825.218 311.774 891.108 219.531 937.124 146.889C966.868 99.9443 973.803 47.8928 971.136 1.60656C968.468 -44.6797 952.463 -92.4485 914.449 -125.887" stroke="#8EA3F9" stroke-width="0.5" stroke-miterlimit="10"/>
<path d="M1802.76 1294.82C1727.26 1324.97 1642.44 1318.71 1570.28 1277.36C1498.12 1236.02 1437.3 1160.74 1409.02 1068.66C1392.21 1014.14 1392.08 954.017 1379.81 901.636C1363 830.313 1321.92 788.309 1281.24 759.318C1240.56 730.328 1191.21 715.668 1129.86 705.455C1053.56 692.772 964.331 712.703 895.507 670.534C820.281 624.413 786.536 510.592 800.274 405.006C814.012 299.421 880.302 207.013 929.119 136.677C959.396 93.0267 968.599 44.4344 968.866 0.783637C969.133 -43.0318 956.862 -89.977 921.516 -124.568" stroke="#88A0F8" stroke-width="0.5" stroke-miterlimit="10"/>
<path d="M1780.48 1301.08C1705.66 1329.74 1621.9 1322.17 1550.94 1280.16C1479.98 1238.16 1420.76 1163.21 1393.42 1071.79C1376.74 1016.12 1377.28 955.005 1365.94 900.812C1351 829.653 1313.39 785.014 1274.97 752.564C1236.56 720.114 1188.41 701.336 1127.86 689.312C1051.16 674.157 961.665 696.23 891.373 656.038C814.947 612.223 778 499.06 790.405 392.981C802.676 286.901 869.366 194.164 921.25 126.299C952.195 85.7782 963.532 40.9743 966.733 -0.370372C969.934 -41.7151 961.398 -88.0014 928.72 -123.416" stroke="#839EF8" stroke-width="0.5" stroke-miterlimit="10"/>
<path d="M1758.08 1307.18C1683.78 1334.19 1601.22 1325.46 1531.6 1282.96C1461.97 1240.46 1404.09 1165.52 1377.81 1074.92C1361.27 1017.93 1362.34 955.828 1352.07 899.988C1339 828.829 1304.85 781.554 1268.71 745.81C1232.56 710.066 1185.61 686.84 1125.86 673.169C1048.89 655.379 958.997 679.922 887.372 641.542C809.744 599.868 769.597 487.529 780.534 380.956C791.471 274.217 858.428 181.15 913.247 115.757C944.592 78.3653 958.463 37.3501 964.465 -1.68851C970.467 -40.5624 965.799 -86.025 935.922 -122.428" stroke="#0CAE5C" stroke-width="0.5" stroke-miterlimit="10"/>
<path d="M1735.8 1313.44C1662.18 1338.8 1580.68 1328.92 1512.26 1285.93C1443.83 1242.94 1387.55 1168.15 1362.21 1078.22C1345.8 1020.07 1347.4 956.818 1338.2 899.495C1326.99 828.336 1296.45 778.426 1262.57 739.387C1228.69 700.184 1183.08 672.841 1123.99 657.357C1046.76 637.096 956.463 663.946 883.371 627.378C804.544 588.01 761.195 476.494 770.665 369.097C780.135 261.7 847.359 168.139 905.379 105.545C937.257 71.2836 953.396 33.8922 962.332 -2.51086C971.269 -38.914 970.335 -83.7179 943.125 -120.945" stroke="#7898F7" stroke-width="0.5" stroke-miterlimit="10"/>
<path d="M1713.53 1319.7C1640.44 1343.42 1560.14 1332.38 1492.92 1288.73C1425.7 1245.08 1370.88 1170.46 1346.6 1081.51C1330.33 1022.05 1332.33 957.971 1324.46 898.836C1314.99 827.842 1288.05 775.296 1256.44 732.799C1224.82 690.301 1180.41 658.51 1122.12 641.214C1044.5 618.318 953.93 647.639 879.504 612.883C799.476 575.656 752.793 464.964 760.929 357.073C769.066 249.181 836.289 154.797 897.51 95.1682C929.655 63.8714 948.328 30.4333 960.199 -3.66373C971.936 -37.7607 974.871 -81.7409 950.329 -119.791" stroke="#7396F6" stroke-width="0.5" stroke-miterlimit="10"/>
<path d="M1691.12 1325.79C1618.56 1348.03 1539.47 1335.51 1473.44 1291.53C1407.55 1247.55 1354.2 1172.77 1330.86 1084.64C1314.72 1024.02 1317.12 958.794 1310.45 898.177C1302.72 827.183 1279.51 772.002 1250.03 726.045C1220.55 680.088 1177.47 644.015 1119.99 625.072C1042.09 599.54 951.26 631.167 875.234 598.387C794.005 563.302 744.121 453.434 750.924 345.048C757.593 236.663 824.816 141.29 889.372 84.6263C921.917 56.1297 943.124 26.6449 957.796 -4.98136C972.468 -36.6076 979.137 -79.7641 957.262 -118.803" stroke="#86A4F7" stroke-width="0.5" stroke-miterlimit="10"/>
<path d="M1668.85 1332.05C1596.82 1352.64 1518.8 1338.97 1454.11 1294.49C1389.42 1249.85 1337.67 1175.24 1315.26 1087.93C1299.39 1026 1301.92 959.782 1296.58 897.517C1290.45 826.523 1270.98 768.707 1243.77 719.455C1216.56 670.204 1174.81 629.683 1118.12 609.093C1039.96 580.761 948.729 615.023 871.369 584.056C788.94 551.112 735.855 442.067 741.19 333.187C746.525 224.308 813.615 127.617 881.639 74.4125C914.584 48.7162 938.192 23.3493 955.798 -5.80607C973.404 -34.9615 983.808 -77.4592 964.601 -117.321" stroke="#81A0F7" stroke-width="0.5" stroke-miterlimit="10"/>
<path d="M1646.44 1338.31C1575.08 1357.25 1498.12 1342.43 1434.76 1297.29C1371.41 1252.16 1321.12 1177.71 1299.65 1091.06C1283.91 1027.98 1286.84 960.606 1282.71 896.859C1278.18 825.865 1262.44 765.578 1237.49 712.867C1212.55 660.157 1172.14 615.189 1116.12 593.116C1037.69 562.149 946.059 598.717 867.231 569.726C783.602 538.923 727.316 430.867 731.184 321.328C735.052 211.79 802.009 113.617 873.5 64.036C906.845 40.9752 932.854 19.7263 953.395 -6.95833C973.802 -33.6429 988.074 -75.4818 971.535 -116.168" stroke="#7B9CF7" stroke-width="0.5" stroke-miterlimit="10"/>
<path d="M1624.16 1344.4C1553.47 1361.7 1477.58 1345.72 1415.42 1300.09C1353.27 1254.47 1304.72 1180.01 1284.05 1094.36C1268.57 1029.95 1271.51 961.594 1268.97 896.201C1266.04 825.206 1254.03 762.283 1231.36 706.279C1208.69 650.274 1169.47 600.858 1114.25 577.138C1035.69 543.371 943.526 582.574 863.364 555.395C778.535 526.734 719.047 419.501 721.582 309.469C724.116 199.271 790.939 99.4508 865.899 53.8234C899.644 33.2334 928.187 16.432 951.529 -7.94655C974.87 -32.3251 993.01 -73.1756 979.005 -114.85" stroke="#769AF6" stroke-width="0.5" stroke-miterlimit="10"/>
<path d="M1601.76 1350.66C1531.6 1366.47 1456.91 1349.18 1396.08 1303.06C1335.26 1256.94 1288.18 1182.48 1268.44 1097.65C1253.23 1032.09 1256.3 962.582 1255.1 895.541C1253.77 824.382 1245.63 758.988 1225.22 699.689C1204.82 640.225 1166.94 586.362 1112.38 560.995C1033.56 524.427 941.125 566.101 859.496 540.899C773.466 514.379 710.644 407.97 711.844 297.278C713.045 186.587 779.735 84.625 858.029 43.1156C892.174 24.9964 923.118 12.4777 949.394 -9.26532C975.67 -31.1731 997.544 -71.3647 986.207 -113.862" stroke="#7197F6" stroke-width="0.5" stroke-miterlimit="10"/>
<path d="M1579.48 1356.92C1509.99 1371.09 1436.37 1352.64 1376.74 1305.86C1317.12 1259.24 1271.64 1184.96 1252.83 1100.78C1237.9 1033.91 1240.96 963.407 1241.23 894.883C1241.5 823.724 1237.1 755.86 1218.96 692.937C1200.82 630.179 1164.27 571.868 1110.38 544.854C1031.42 505.321 938.458 549.631 855.362 526.405C768.132 502.026 702.109 396.606 701.842 285.255C701.575 173.905 768.132 69.9663 849.894 32.9044C884.439 17.256 917.784 9.18468 946.994 -10.2523C976.205 -29.6892 1001.81 -69.0573 993.144 -112.708" stroke="#6C93F5" stroke-width="0.5" stroke-miterlimit="10"/>
<path d="M1557.07 1363.02C1488.12 1375.53 1415.56 1355.93 1357.27 1308.66C1298.98 1261.38 1255.1 1187.26 1237.1 1103.91C1222.42 1035.88 1225.49 964.064 1227.23 894.058C1228.96 822.734 1228.56 752.399 1212.55 686.181C1196.55 619.964 1161.47 557.206 1108.25 528.709C1029.16 486.376 935.657 533.156 851.227 511.908C762.796 489.506 693.572 385.073 691.838 273.229C690.104 161.384 756.794 54.6454 841.891 22.1956C876.97 8.85325 912.715 5.22945 944.727 -11.7367C976.738 -28.7028 1006.21 -67.4121 1000.21 -111.886" stroke="#6691F5" stroke-width="0.5" stroke-miterlimit="10"/>
<path d="M1534.8 1369.28C1466.51 1380.31 1395.02 1359.23 1337.93 1311.62C1280.85 1263.85 1238.7 1189.73 1221.49 1107.37C1207.09 1038.02 1210.15 965.218 1213.49 893.729C1216.82 822.241 1220.16 749.435 1206.42 679.923C1192.68 610.411 1159.07 543.041 1106.38 513.062C1027.16 467.764 933.124 517.344 847.227 497.907C757.595 477.812 685.17 374.038 682.102 261.699C679.035 149.36 745.725 39.8216 834.022 12.3133C869.768 1.11239 907.648 2.26539 942.594 -12.23C977.539 -26.7253 1010.75 -64.7755 1007.42 -110.073" stroke="#618DF4" stroke-width="0.5" stroke-miterlimit="10"/>
</g>
<g opacity="0.05">
<path d="M-1184 451.812C-1126.25 395.148 -1064.49 343.921 -996.868 321.354C-929.378 298.952 -854.952 308.506 -800.666 365.169C-735.843 432.869 -705.433 559.045 -631.673 605.66C-583.923 635.804 -528.171 625.921 -475.219 620.815C-422.133 615.708 -364.247 618.344 -325.033 666.936C-254.742 754.073 -279.817 942.842 -203.657 1019.6C-153.373 1070.17 -83.4816 1047.11 -21.0598 1053.04C57.9012 1060.62 132.06 1121.07 175.409 1213.31C218.757 1305.56 230.361 1427.78 206.353 1537.15" stroke="#D9DFE3" stroke-width="0.5" stroke-miterlimit="10"/>
<path d="M-1176.8 437.81C-1119.31 381.97 -1057.56 332.06 -990.332 310.646C-949.784 297.633 -906.702 296.151 -867.089 309.328C-841.213 317.894 -816.804 332.883 -795.463 354.791C-730.774 421.502 -699.163 544.878 -627.138 593.141C-601.529 610.271 -573.919 616.366 -545.243 617.519C-520.967 618.507 -496.025 616.037 -471.483 614.225C-437.071 611.589 -400.392 611.425 -368.114 623.943C-350.241 630.861 -333.702 641.568 -319.564 657.711C-291.687 689.337 -277.416 735.294 -265.945 784.38C-249.272 855.045 -238.068 932.464 -201.522 982.703C-197.654 988.139 -193.386 993.08 -188.851 997.857C-138.967 1049.58 -72.0103 1031.46 -13.1897 1040.68C44.4304 1049.91 98.5827 1089.77 139.664 1151.21C151.535 1169 162.205 1188.6 171.675 1209.69C188.614 1247.74 201.019 1290.4 208.621 1334.71C220.092 1400.6 221.026 1469.94 209.955 1533.69" stroke="#D1D7DC" stroke-width="0.5" stroke-miterlimit="10"/>
<path d="M-1169.73 423.645C-1112.38 368.793 -1050.76 320.201 -983.799 299.611C-943.385 287.092 -900.703 285.939 -861.356 299.117C-835.614 307.682 -811.338 322.342 -789.998 344.085C-725.442 409.644 -692.897 530.383 -622.472 580.129C-597.13 597.919 -570.187 605.66 -541.777 608.131C-517.636 610.273 -492.56 608.625 -467.885 607.143C-433.206 605.166 -396.26 605.001 -363.582 616.532C-345.575 622.956 -328.903 632.839 -314.231 648.158C-285.688 677.808 -269.949 720.964 -257.011 767.58C-238.205 834.621 -224.066 909.404 -186.987 960.302C-182.985 965.738 -178.85 970.844 -174.315 975.621C-124.698 1028.33 -60.9425 1015.15 -5.72312 1028C48.2958 1040.52 98.3132 1082.52 136.86 1145.61C148.064 1163.9 158.334 1183.99 167.404 1205.57C183.81 1244.44 196.348 1287.77 204.751 1332.4C217.288 1398.79 220.89 1467.64 213.154 1529.74" stroke="#C8CDD5" stroke-width="0.5" stroke-miterlimit="10"/>
<path d="M-1162.66 409.643C-1105.57 355.615 -1043.95 308.34 -977.26 288.739C-937.113 276.879 -894.831 275.89 -855.751 289.068C-830.275 297.633 -806.133 312.129 -784.793 333.542C-720.237 398.113 -686.625 516.217 -617.801 567.28C-592.859 585.893 -566.45 595.118 -538.173 598.741C-514.165 602.036 -489.089 601.048 -464.147 600.224C-429.202 598.906 -391.855 598.741 -358.91 609.284C-340.637 615.213 -323.698 624.438 -308.759 638.604C-279.416 666.277 -262.477 706.468 -247.938 750.778C-226.864 814.36 -209.792 886.178 -172.312 937.9C-168.31 943.335 -164.176 948.606 -159.641 953.548C-110.29 1007.41 -49.6021 999.175 1.88259 1015.32C52.4336 1031.13 98.0495 1075.28 134.329 1140.18C144.866 1158.95 154.603 1179.71 163.406 1201.62C179.278 1241.48 191.949 1285.29 201.019 1330.26C214.757 1397.14 220.892 1465.5 216.491 1525.78" stroke="#31363F" stroke-width="0.5" stroke-miterlimit="10"/>
<path d="M-1155.59 395.641C-1098.63 342.601 -1037.15 296.644 -970.857 277.866C-930.976 266.501 -888.961 265.842 -850.148 279.019C-824.805 287.585 -800.797 301.915 -779.59 322.835C-715.034 386.417 -680.488 501.885 -613.265 554.431C-588.589 573.703 -562.847 584.41 -534.837 589.516C-510.962 593.799 -485.753 593.799 -460.545 593.47C-425.332 592.811 -387.719 592.481 -354.241 602.2C-335.834 607.471 -318.628 616.201 -303.29 629.214C-273.146 654.91 -255.006 692.466 -238.867 733.976C-215.659 793.934 -195.652 863.116 -157.505 915.497C-153.504 921.097 -149.236 926.369 -144.834 931.31C-95.8837 986.162 -38.1302 982.867 9.75325 1002.47C56.703 1021.58 98.0509 1067.86 131.929 1134.57C141.8 1154.01 151.003 1175.1 159.539 1197.5C174.878 1238.18 187.682 1282.82 197.552 1327.96C212.491 1395.33 221.027 1463.19 220.094 1521.83" stroke="#383C47" stroke-width="0.5" stroke-miterlimit="10"/>
<path d="M-1148.52 381.477C-1091.7 329.261 -1030.35 284.622 -964.324 266.832C-924.71 255.96 -883.095 255.796 -844.415 268.808C-819.206 277.374 -795.331 291.54 -774.257 312.13C-709.835 374.723 -674.089 487.556 -608.599 541.42C-584.191 561.516 -559.115 573.705 -531.239 579.964C-507.497 585.4 -482.155 586.224 -456.813 586.224C-421.467 586.224 -383.32 585.894 -349.575 594.624C-330.902 599.401 -313.563 607.308 -297.957 619.332C-267.013 643.052 -247.54 677.808 -229.933 716.846C-204.591 773.345 -181.516 839.727 -142.97 892.767C-138.835 898.368 -134.7 903.803 -130.299 908.91C-81.6149 964.75 -26.929 966.562 17.2198 989.458C60.7017 1012.02 97.6479 1060.29 129.259 1128.65C138.462 1148.58 147.132 1170.32 155.401 1193.05C170.207 1234.56 183.144 1279.86 193.681 1325.16C209.687 1392.86 220.891 1460.39 223.292 1517.38" stroke="#3F4350" stroke-width="0.5" stroke-miterlimit="10"/>
<path d="M-1141.45 367.476C-1084.9 316.083 -1023.54 272.926 -957.787 255.96C-918.44 245.583 -877.092 245.748 -838.812 258.76C-813.87 267.326 -790.128 281.327 -769.054 301.588C-704.632 363.193 -667.952 473.39 -604.063 528.572C-579.921 549.491 -555.513 563.163 -527.77 570.575C-504.162 576.999 -478.819 578.811 -453.21 579.305C-417.598 579.964 -379.184 579.635 -345.039 587.541C-326.233 591.824 -308.626 599.072 -292.621 609.943C-261.01 631.686 -240.069 663.642 -220.996 700.21C-193.386 753.085 -167.51 816.831 -128.43 870.53C-124.295 876.13 -120.027 881.566 -115.626 886.837C-67.2086 943.83 -15.5905 950.584 24.957 976.939C64.8376 1002.8 97.6491 1053.37 126.726 1123.37C135.262 1143.8 143.532 1166.04 151.401 1189.26C165.673 1231.76 178.744 1277.55 190.081 1323.18C207.287 1391.37 221.026 1458.42 226.761 1513.76" stroke="#464958" stroke-width="0.5" stroke-miterlimit="10"/>
<path d="M-1134.25 353.309C-1077.83 302.905 -1016.61 261.066 -951.251 244.923C-912.17 235.205 -871.223 235.534 -833.076 248.547C-808.267 257.113 -784.659 270.949 -763.718 290.716C-699.429 351.168 -661.683 459.059 -599.528 515.558C-575.653 537.301 -551.911 552.291 -524.435 561.186C-500.96 568.763 -475.484 571.234 -449.742 572.222C-413.863 573.54 -375.049 573.045 -340.637 580.128C-321.564 583.917 -303.691 590.341 -287.418 600.389C-255.007 620.155 -232.866 649.146 -212.192 683.408C-182.448 732.824 -153.638 793.77 -113.891 848.128C-109.756 853.893 -105.488 859.329 -101.087 864.6C-52.9365 922.581 -4.38619 934.441 32.4267 964.09C68.8394 993.41 97.2494 1045.96 124.059 1117.77C131.928 1138.86 139.664 1161.42 147.267 1185.31C161.005 1228.63 174.076 1275.25 186.214 1321.04C204.487 1389.73 220.893 1456.44 229.962 1509.97" stroke="#4D5060" stroke-width="0.5" stroke-miterlimit="10"/>
<path d="M-1127.18 339.309C-1070.89 289.728 -1009.81 249.207 -944.716 234.053C-905.769 224.828 -865.221 225.487 -827.475 238.5C-802.799 246.901 -779.458 260.737 -758.384 280.174C-694.095 339.638 -655.415 445.059 -594.86 502.711C-571.252 525.113 -548.044 541.749 -520.834 551.797C-497.493 560.363 -471.884 563.822 -445.875 565.304C-409.729 567.281 -370.648 566.787 -335.703 572.881C-316.496 576.176 -298.356 581.941 -281.684 590.836C-248.472 608.626 -224.997 634.816 -202.856 666.607C-170.845 712.399 -139.101 770.71 -98.9533 825.726C-94.8185 831.492 -90.5503 837.092 -86.1487 842.528C-38.3987 901.662 7.35064 918.628 40.2955 951.408C73.3737 984.187 97.2487 1038.71 121.791 1112.17C128.993 1133.75 136.196 1156.98 143.532 1181.19C156.736 1225.34 169.941 1272.61 182.879 1318.73C202.352 1387.92 221.292 1454.13 233.696 1506.02" stroke="#545669" stroke-width="0.5" stroke-miterlimit="10"/>
<path d="M-1120.11 325.306C-1064.09 276.714 -1002.87 237.511 -938.181 223.18C-899.501 214.45 -859.22 215.438 -821.74 228.451C-797.332 236.852 -773.99 250.359 -753.05 269.631C-688.76 328.107 -649.147 430.892 -590.193 490.026C-566.851 513.252 -544.31 531.371 -517.234 542.737C-494.026 552.455 -468.417 556.738 -442.141 558.714C-405.728 561.35 -366.381 560.856 -331.035 565.962C-311.562 568.762 -293.155 573.704 -276.349 581.61C-242.338 597.424 -217.529 620.814 -193.921 650.134C-159.775 692.467 -125.096 747.978 -84.4156 803.653C-80.1474 809.418 -75.8793 815.183 -71.6111 820.619C-24.1278 880.742 18.5538 902.979 47.8974 938.888C77.5078 975.291 96.9812 1031.79 119.122 1106.9C125.658 1128.97 132.46 1152.69 139.396 1177.4C152.067 1222.37 165.405 1270.3 179.01 1316.76C199.684 1386.43 221.158 1452.15 236.897 1502.39" stroke="#5B5D71" stroke-width="0.5" stroke-miterlimit="10"/>
<path d="M-1113.04 311.14C-1057.16 263.372 -996.069 225.486 -931.78 212.144C-893.366 204.073 -853.485 205.39 -816.139 218.238C-791.864 226.639 -768.656 239.981 -747.849 258.76C-683.693 316.247 -643.145 416.561 -585.658 476.849C-562.717 500.898 -540.709 520.499 -513.9 533.018C-490.825 543.89 -465.083 548.831 -438.674 551.302C-401.994 554.596 -362.247 554.102 -326.634 558.22C-307.028 560.526 -288.354 564.644 -271.148 571.562C-236.336 585.399 -210.327 605.989 -185.118 632.838C-148.705 671.547 -111.092 724.423 -69.878 780.592C-65.6098 786.522 -61.3416 792.287 -56.9401 797.888C-9.72356 859.163 30.0237 886.507 55.4992 925.71C81.6417 965.572 96.7137 1024.05 116.587 1100.97C122.456 1123.7 128.725 1147.92 135.394 1172.95C147.531 1218.91 161.003 1267.5 175.408 1314.12C197.149 1384.29 221.291 1449.52 240.364 1498.11" stroke="#626379" stroke-width="0.5" stroke-miterlimit="10"/>
<path d="M-1105.97 297.14C-1050.22 250.359 -989.265 213.792 -925.243 201.273C-887.096 193.696 -847.482 195.343 -810.536 208.191C-786.394 216.592 -763.453 229.769 -742.645 248.218C-678.49 304.717 -637.009 402.725 -581.122 464.001C-558.448 488.874 -537.107 509.958 -510.431 523.794C-487.49 535.654 -461.614 541.584 -435.071 544.549C-398.258 548.502 -358.111 547.843 -322.098 551.138C-302.225 552.95 -283.418 556.409 -265.812 562.174C-230.199 574.034 -202.857 591.824 -176.181 616.202C-137.5 651.452 -97.0863 701.362 -55.3383 758.355C-51.0702 764.285 -46.6686 770.05 -42.4004 775.816C4.54932 838.08 41.2288 870.859 63.1031 913.027C85.6443 956.678 96.4482 1016.97 113.921 1095.37C119.123 1118.6 124.858 1143.31 131.26 1168.84C142.864 1215.62 156.469 1264.87 171.541 1311.81C194.482 1382.48 221.158 1447.21 243.566 1494.16" stroke="#696A82" stroke-width="0.5" stroke-miterlimit="10"/>
<path d="M-1098.9 282.974C-1043.42 237.017 -982.462 201.767 -918.706 190.236C-880.826 183.153 -841.612 185.13 -804.799 197.978C-780.791 206.379 -757.983 219.392 -737.309 237.511C-673.287 292.857 -630.739 388.559 -576.453 451.153C-554.045 476.849 -533.371 499.416 -506.828 514.405C-484.021 527.418 -458.145 534.171 -431.202 537.466C-394.122 542.078 -353.575 541.419 -317.162 543.725C-297.022 545.043 -277.948 547.678 -260.075 552.455C-223.529 562.339 -194.986 577.328 -166.843 599.236C-125.895 630.862 -82.5466 678.137 -40.3986 735.789C-35.997 741.718 -31.7288 747.648 -27.4607 753.578C19.0889 816.831 52.7007 855.046 70.9738 900.179C90.0471 947.454 96.4493 1009.55 111.655 1089.77C116.19 1113.66 121.525 1138.86 127.527 1164.72C138.597 1212.32 152.336 1262.23 168.208 1309.51C192.35 1380.67 221.56 1444.91 247.302 1490.21" stroke="#70708A" stroke-width="0.5" stroke-miterlimit="10"/>
<path d="M-1091.7 268.972C-1036.35 224.003 -975.529 190.071 -912.174 179.364C-874.56 172.94 -835.614 175.082 -799.201 187.93C-775.459 196.33 -752.785 209.179 -732.111 226.804C-668.088 281.161 -624.74 374.393 -571.921 438.139C-549.78 464.824 -529.773 488.543 -503.497 505.015C-480.823 519.181 -454.814 526.758 -427.737 530.547C-390.391 535.818 -349.577 535.159 -312.764 536.477C-292.49 537.301 -273.15 539.277 -255.01 543.066C-217.664 550.808 -187.787 563.162 -158.176 582.599C-115.095 610.766 -68.8118 655.24 -25.9969 713.551C-21.5953 719.645 -17.3271 725.575 -13.059 731.505C33.2239 795.911 63.7679 839.397 78.3063 887.495C93.7784 938.558 95.9124 1002.47 108.85 1084.34C112.718 1108.71 117.52 1134.41 123.255 1160.77C133.792 1209.36 147.664 1259.93 164.203 1307.2C189.412 1378.85 221.29 1442.6 250.366 1486.09" stroke="#777792" stroke-width="0.5" stroke-miterlimit="10"/>
<path d="M-1084.63 254.972C-1029.41 210.827 -968.726 178.377 -905.637 168.494C-868.157 162.564 -829.61 165.199 -793.464 177.883C-769.856 186.283 -747.315 198.967 -726.641 216.263C-662.752 269.632 -618.47 360.557 -567.118 425.292C-545.377 452.8 -525.904 478.002 -499.762 495.627C-477.22 510.782 -451.078 519.182 -423.868 523.63C-386.255 529.56 -345.041 528.736 -307.961 529.23C-287.421 529.56 -267.814 530.713 -249.407 533.513C-211.261 539.278 -180.05 548.832 -148.972 565.633C-103.623 590.177 -54.5391 632.015 -11.1906 690.985C-6.78908 697.08 -2.38753 703.174 1.74725 709.269C47.7634 774.663 75.1062 823.585 86.1768 874.812C98.0476 929.499 95.9135 995.223 106.451 1078.74C109.652 1103.61 113.92 1129.96 119.388 1156.65C129.392 1206.06 143.397 1257.29 160.736 1304.9C187.145 1377.04 221.558 1440.3 253.969 1482.13" stroke="#7E7E9B" stroke-width="0.5" stroke-miterlimit="10"/>
<path d="M-1077.56 240.806C-1022.61 197.65 -961.922 166.353 -899.1 157.458C-861.887 152.022 -823.74 154.987 -787.728 167.835C-764.253 176.236 -741.845 188.755 -721.305 205.721C-657.416 258.102 -612.2 346.721 -562.449 412.609C-540.975 440.941 -522.035 467.625 -496.159 486.403C-473.751 502.711 -447.609 511.935 -420.133 516.712C-382.253 523.301 -340.771 522.477 -303.292 521.983C-282.618 521.653 -262.744 522.148 -243.938 523.96C-204.991 527.748 -172.579 534.502 -139.901 548.832C-92.2845 569.752 -40.2663 608.955 3.48237 668.584C8.01729 674.678 12.2855 680.938 16.5537 687.032C62.1696 753.579 86.4448 807.772 93.9141 861.965C102.05 920.44 95.7814 987.975 104.051 1073.14C106.585 1098.67 110.32 1125.35 115.522 1152.7C124.992 1203.1 139.13 1254.82 157.136 1302.75C184.746 1375.4 221.692 1438.15 257.571 1478.35" stroke="#8584A3" stroke-width="0.5" stroke-miterlimit="10"/>
<path d="M-1070.49 226.803C-1015.67 184.47 -955.12 154.656 -892.565 146.585C-855.619 141.643 -817.739 144.938 -782.127 157.786C-758.918 166.187 -736.644 178.541 -716.103 195.012C-652.348 246.405 -606.198 332.718 -557.915 399.595C-536.841 428.75 -518.434 456.917 -492.825 477.013C-470.551 494.473 -444.275 504.521 -416.665 509.792C-378.519 517.04 -336.637 516.216 -298.757 514.898C-277.817 514.075 -257.81 513.745 -238.603 514.569C-198.856 516.216 -165.111 520.334 -130.965 532.194C-81.0812 549.654 -26.2621 586.057 18.1534 646.345C22.6883 652.44 27.0899 658.699 31.2247 664.958C76.5739 732.493 97.5147 791.957 101.649 849.28C106.051 911.379 95.5138 980.726 101.516 1067.7C103.383 1093.72 106.584 1121.07 111.519 1148.74C120.456 1199.97 134.594 1252.51 153.401 1300.61C182.077 1373.75 221.691 1436.01 260.905 1474.56" stroke="#8C8BAC" stroke-width="0.5" stroke-miterlimit="10"/>
<path d="M-1063.42 212.803C-1008.74 171.458 -948.317 142.797 -886.162 135.714C-849.482 131.431 -812.003 134.891 -776.523 147.739C-753.449 155.975 -731.308 168.164 -710.901 184.471C-647.145 234.711 -600.195 318.883 -553.379 386.912C-532.571 417.056 -514.832 446.54 -489.356 467.789C-467.215 486.403 -440.806 497.11 -412.93 503.039C-374.65 510.946 -332.368 510.122 -294.088 507.816C-273.014 506.499 -252.607 506.004 -233.267 505.181C-192.719 503.698 -157.64 506.169 -122.028 515.558C-70.0096 529.395 -12.1227 563.162 32.693 624.109C37.2279 630.368 41.6294 636.627 45.7642 643.051C90.8466 711.74 108.586 776.474 109.12 836.762C109.787 902.485 95.1148 973.809 98.8494 1062.26C99.9164 1088.78 102.717 1116.62 107.386 1144.79C115.789 1196.84 130.06 1250.04 149.667 1298.47C179.544 1372.1 221.692 1433.87 264.241 1470.77" stroke="#9391B4" stroke-width="0.5" stroke-miterlimit="10"/>
<path d="M-1056.36 198.638C-1001.94 158.117 -941.517 130.938 -879.629 124.679C-843.216 120.891 -806.003 124.844 -770.924 137.527C-747.983 145.763 -725.975 157.788 -705.701 173.601C-641.946 222.852 -594.329 304.718 -548.847 373.736C-528.439 404.703 -511.233 435.67 -485.891 458.237C-463.883 477.838 -437.474 489.534 -409.331 495.793C-370.784 504.358 -328.103 503.37 -289.556 500.24C-268.215 498.428 -247.675 496.617 -227.934 495.463C-186.587 492.993 -150.174 491.51 -113.094 498.593C-58.8084 508.806 1.8795 539.938 47.2287 601.543C51.897 607.802 56.1651 614.227 60.2999 620.651C105.116 690.327 119.521 760.333 116.586 823.915C113.519 893.262 94.7119 966.398 96.1791 1056.66C96.5792 1083.84 98.9801 1112.17 103.248 1140.67C111.118 1193.71 125.523 1247.41 145.797 1296.17C176.874 1370.13 221.423 1431.57 267.439 1466.82" stroke="#9A98BC" stroke-width="0.5" stroke-miterlimit="10"/>
<path d="M-1049.15 184.636C-994.867 145.103 -934.579 119.077 -872.957 113.806C-836.811 110.512 -799.865 114.795 -765.053 127.478C-742.378 135.714 -720.504 147.574 -700.23 163.057C-636.608 211.32 -588.058 290.88 -544.042 360.886C-524.035 392.842 -507.363 425.127 -482.287 448.846C-460.413 469.601 -433.87 482.12 -405.594 488.873C-366.78 498.098 -323.832 497.109 -284.885 492.991C-263.411 490.685 -242.47 488.05 -222.463 485.908C-180.315 481.296 -142.568 477.178 -104.022 481.79C-47.4685 488.544 16.0204 516.711 62.0365 579.14C66.7048 585.399 71.1063 591.988 75.2411 598.577C119.657 669.241 130.861 744.518 124.592 811.23C117.656 884.201 94.7146 959.313 93.9143 1051.23C93.6476 1078.9 95.5148 1107.73 99.5162 1136.72C106.852 1190.58 121.391 1245.1 142.465 1294.02C174.609 1368.48 221.826 1429.42 271.176 1463.03" stroke="#A19EC5" stroke-width="0.5" stroke-miterlimit="10"/>
<path d="M-1042.08 170.47C-987.93 131.761 -927.775 107.218 -866.554 102.77C-830.541 100.135 -794.129 104.582 -759.45 117.266C-736.909 125.502 -715.168 137.197 -694.894 152.351C-631.272 199.626 -582.054 276.879 -539.373 348.038C-519.766 380.817 -503.627 414.585 -478.685 439.622C-456.944 461.53 -430.268 474.872 -401.858 481.955C-362.778 491.674 -319.429 490.85 -280.215 485.744C-258.475 482.944 -237.401 479.485 -216.993 476.355C-174.045 469.766 -135.098 462.848 -94.9507 464.989C-36.2635 468.119 30.2931 493.65 76.7094 556.738C81.3777 563.162 85.7792 569.751 89.914 576.34C134.063 648.158 141.932 728.541 132.195 798.382C121.525 874.812 94.4489 951.901 91.3812 1045.46C90.4475 1073.79 91.7813 1102.95 95.5159 1132.43C102.318 1187.12 116.99 1242.3 138.731 1291.55C172.076 1366.5 221.827 1426.95 274.512 1458.91" stroke="#A8A5CD" stroke-width="0.5" stroke-miterlimit="10"/>
<path d="M-1035.02 156.469C-981.13 118.583 -920.976 95.5226 -860.021 91.8988C-824.275 89.7574 -788.129 94.5343 -753.851 107.218C-731.443 115.454 -709.969 126.984 -689.695 141.644C-626.206 187.766 -576.055 262.878 -534.841 335.025C-515.634 368.793 -500.028 403.878 -475.22 430.069C-453.612 453.129 -426.936 467.131 -398.126 474.872C-358.779 485.25 -315.164 484.261 -275.416 478.332C-253.409 475.037 -232.201 470.754 -211.527 466.636C-167.779 457.906 -127.498 448.188 -85.8835 448.023C-24.9289 447.364 44.4288 470.425 91.3785 534.172C96.1802 540.596 100.448 547.184 104.583 554.103C148.465 626.909 153 712.563 139.929 785.534C125.524 865.588 94.3129 944.653 88.8443 1039.86C87.2437 1068.69 88.044 1098.5 91.5119 1128.32C97.7807 1183.99 112.586 1239.67 135.127 1289.25C169.673 1364.69 221.958 1424.65 277.977 1454.96" stroke="#AFABD5" stroke-width="0.5" stroke-miterlimit="10"/>
<path d="M-1027.95 142.468C-974.193 105.571 -914.172 83.6635 -853.484 81.028C-818.005 79.3808 -782.259 84.6518 -748.114 97.1705C-725.973 105.407 -704.499 116.772 -684.359 131.103C-620.87 176.236 -570.052 249.042 -530.171 322.178C-511.231 356.769 -496.293 393.337 -471.751 420.845C-450.277 445.059 -423.467 459.884 -394.524 468.12C-354.91 479.156 -310.894 478.168 -270.88 471.249C-248.739 467.461 -227.132 462.354 -206.191 457.248C-161.642 446.377 -120.028 434.023 -76.946 431.387C-13.7239 427.104 58.5681 447.53 106.051 511.935C110.853 518.359 115.255 525.113 119.256 532.031C162.871 605.99 164.205 696.751 147.532 773.016C129.259 856.529 93.9138 937.571 86.3111 1034.59C84.0436 1063.91 84.4437 1094.22 87.5115 1124.53C93.2468 1181.03 108.185 1237.53 131.394 1287.11C167.006 1363.04 221.959 1422.51 281.313 1451.17" stroke="#B6B2DE" stroke-width="0.5" stroke-miterlimit="10"/>
<path d="M-1020.88 128.302C-967.39 92.2285 -907.369 71.8032 -847.081 69.9913C-811.869 68.8383 -776.389 74.4387 -742.644 86.9574C-720.637 95.1934 -699.296 106.394 -679.289 120.396C-615.933 164.54 -564.315 235.041 -525.768 309.329C-507.362 344.909 -492.824 382.794 -468.415 411.456C-447.074 436.658 -420.265 452.471 -391.055 461.036C-351.307 472.731 -306.892 471.743 -266.478 463.836C-244.07 459.554 -222.329 453.624 -200.988 447.694C-155.639 434.681 -112.824 419.692 -68.1415 414.585C-2.78534 406.843 72.4409 424.468 120.458 489.533C125.259 496.122 129.661 502.875 133.796 509.958C177.011 584.906 175.143 680.937 155.003 760.332C132.995 847.469 93.3816 930.323 83.6448 1028.99C80.5771 1058.97 80.5771 1089.77 83.3781 1120.57C88.5799 1177.9 103.652 1235.05 127.66 1284.96C164.473 1361.39 221.96 1420.36 284.649 1447.21" stroke="#26205A" stroke-width="0.5" stroke-miterlimit="10"/>
<path d="M-1013.81 114.301C-960.457 79.2159 -900.569 59.9436 -840.548 59.12C-805.602 58.6259 -770.39 64.3911 -736.912 76.9098C-715.037 85.1458 -693.963 96.0173 -673.956 109.689C-610.601 152.846 -558.316 221.204 -521.103 296.317C-503.097 332.72 -489.092 372.088 -464.95 401.902C-443.742 428.257 -416.8 444.729 -387.456 453.954C-347.442 466.308 -302.627 465.155 -261.946 456.424C-239.404 451.647 -217.397 445.059 -195.656 437.976C-149.506 422.986 -105.358 405.197 -59.208 397.455C8.41563 386.089 86.4429 401.079 134.993 466.802C139.795 473.391 144.33 480.309 148.331 487.392C191.28 563.492 186.078 664.466 162.603 747.155C136.861 837.751 93.1121 922.746 80.9745 1023.06C77.2398 1053.53 76.7063 1084.83 79.2405 1116.13C83.9088 1174.44 99.1141 1232.09 123.789 1282.33C161.803 1359.25 221.824 1417.73 287.847 1442.93" stroke="#1D1654" stroke-width="0.5" stroke-miterlimit="10"/>
<path d="M-1006.6 100.134C-953.385 65.8728 -893.631 48.083 -833.876 48.083C-799.198 48.083 -764.385 54.1776 -731.04 66.6964C-709.3 74.7676 -688.359 85.6391 -668.485 98.9814C-605.263 141.15 -552.311 207.202 -516.299 283.468C-498.692 320.859 -485.221 361.38 -461.213 392.677C-440.139 420.185 -413.063 437.481 -383.452 447.199C-343.171 460.212 -298.089 459.059 -256.875 449.505C-234.067 444.234 -211.926 436.822 -189.918 428.751C-143.101 411.455 -97.4855 391.194 -49.8688 380.982C20.0223 366.157 100.984 378.346 150.068 444.728C155.003 451.317 159.404 458.4 163.406 465.483C206.087 542.572 197.551 648.816 170.608 734.635C140.998 828.526 93.1145 915.662 78.8429 1017.79C74.4413 1048.76 73.5077 1080.71 75.6418 1112.34C79.7766 1171.47 95.1153 1229.78 120.591 1280.35C159.671 1357.77 222.36 1415.75 291.717 1439.31" stroke="#130B50" stroke-width="0.5" stroke-miterlimit="10"/>
<path d="M-999.535 86.1335C-915.773 33.5878 -815.337 22.7163 -725.439 56.6486C-635.541 90.5809 -557.38 169.152 -511.898 270.62C-494.692 308.999 -481.754 350.838 -457.879 383.288C-408.528 450.658 -324.632 460.377 -252.474 442.093C-180.449 423.809 -113.225 382.464 -41.0665 364.016C30.9588 345.567 114.855 355.121 164.472 422.162C222.226 500.404 211.289 624.438 178.077 721.787C144.732 819.302 92.7138 908.25 76.0413 1012.02C61.5028 1102.62 76.3081 1199.97 116.589 1277.88C156.87 1355.79 222.092 1413.28 294.784 1435.19" stroke="#09004C" stroke-width="0.5" stroke-miterlimit="10"/>
<path d="M-977.26 79.8742C-894.031 28.8111 -794.796 19.2573 -706.232 53.8485C-617.667 88.4397 -540.44 166.352 -496.291 267.325C-479.085 306.693 -467.081 350.344 -444.007 383.947C-397.19 452.141 -316.095 463.672 -246.204 448.682C-176.446 433.692 -110.557 396.301 -39.1983 380.159C33.0937 363.687 117.39 371.428 168.341 436.657C227.295 512.593 219.692 635.804 187.681 733.977C155.67 832.15 102.318 921.593 83.7781 1022.73C67.7725 1110.2 81.2439 1203.76 118.59 1279.2C155.937 1354.64 217.425 1411.47 287.449 1434.2" stroke="#08014F" stroke-width="0.5" stroke-miterlimit="10"/>
<path d="M-954.852 73.7803C-872.289 24.3644 -774.122 15.9637 -686.758 51.049C-599.394 86.1343 -523.234 163.717 -480.552 264.196C-463.346 304.718 -452.409 349.851 -430.135 384.607C-385.986 453.46 -307.558 466.967 -240.068 455.271C-172.444 443.741 -107.888 410.138 -37.3305 396.137C35.2283 381.806 120.058 387.407 172.343 450.989C232.631 524.454 228.096 647.17 197.552 745.837C167.008 844.504 112.322 934.606 91.7813 1032.94C74.1751 1117.12 86.4462 1207.22 120.858 1280.19C155.404 1353.16 213.024 1409.33 280.381 1432.88" stroke="#0C3932" stroke-width="0.5" stroke-miterlimit="10"/>
<path d="M-932.578 67.5214C-850.549 19.7527 -753.582 12.6697 -667.419 48.0845C-581.255 83.4992 -506.296 160.918 -464.948 260.903C-447.742 302.577 -437.872 349.192 -416.264 385.266C-374.65 454.778 -299.156 470.097 -233.8 461.861C-168.444 453.625 -105.222 423.81 -35.3309 412.115C37.3612 399.926 122.858 403.385 176.343 465.32C237.965 536.479 236.498 658.536 207.421 757.698C178.344 856.859 122.191 947.455 99.6497 1043.32C80.7097 1124.03 91.3801 1210.68 122.991 1281.34C154.602 1351.84 208.488 1407.19 273.177 1431.73" stroke="#030456" stroke-width="0.5" stroke-miterlimit="10"/>
<path d="M-910.17 61.2612C-828.808 14.975 -732.775 9.20979 -647.945 45.2834C-563.115 81.3571 -489.223 158.446 -449.209 257.772C-432.003 300.599 -423.199 348.533 -402.259 386.089C-363.178 456.095 -290.486 473.555 -227.398 468.778C-164.309 464.001 -102.421 437.976 -33.1964 428.422C39.8959 418.209 125.659 419.856 180.612 479.979C243.567 548.832 245.168 670.066 217.558 769.886C189.815 869.706 132.462 960.467 107.92 1053.86C87.5126 1131.28 96.8491 1214.46 125.526 1282.66C154.203 1350.85 204.353 1405.38 266.375 1430.91" stroke="#03075B" stroke-width="0.5" stroke-miterlimit="10"/>
<path d="M-887.896 55.1658C-807.068 10.5267 -712.235 5.9146 -628.739 42.4824C-545.243 79.0502 -472.418 155.81 -433.738 254.477C-416.532 298.457 -408.662 347.873 -388.522 386.582C-351.976 457.082 -282.085 476.684 -221.263 475.201C-160.442 473.719 -99.7541 451.811 -31.3301 444.234C42.0289 436.163 128.192 435.833 184.479 494.144C248.635 560.691 253.57 681.266 227.16 781.58C200.885 881.895 142.197 973.15 115.521 1064.07C93.7803 1138.2 101.65 1217.76 127.392 1283.48C153.134 1349.2 199.551 1403.07 258.771 1429.42" stroke="#040A5F" stroke-width="0.5" stroke-miterlimit="10"/>
<path d="M-865.488 48.9065C-785.327 5.91459 -691.561 2.45546 -609.265 39.6822C-526.97 76.9088 -455.478 153.339 -417.998 251.347C-400.792 296.48 -393.99 347.214 -374.65 387.406C-340.505 458.235 -273.681 479.978 -214.994 481.955C-156.44 483.932 -97.086 465.812 -29.329 460.377C44.2968 454.611 130.86 451.976 188.614 508.64C254.104 572.88 262.106 692.796 237.164 793.77C212.222 894.743 152.468 986.162 123.658 1074.62C100.716 1145.28 106.852 1221.55 129.793 1284.8C152.735 1348.05 195.283 1401.09 251.836 1428.44" stroke="#040E66" stroke-width="0.5" stroke-miterlimit="10"/>
<path d="M-843.213 42.6481C-763.585 1.30338 -671.019 -1.00269 -589.924 36.7182C-508.829 74.439 -438.671 150.704 -402.392 248.054C-385.186 294.34 -379.317 346.391 -360.777 387.901C-329.033 458.895 -265.144 483.109 -208.858 488.38C-152.438 493.651 -94.4176 479.65 -27.4609 476.355C46.4317 472.732 133.529 468.119 192.483 522.971C259.173 584.906 270.377 703.998 246.902 805.63C223.427 907.263 162.472 998.682 131.528 1085C107.386 1152.2 111.921 1225.01 131.928 1285.95C151.935 1346.74 190.615 1399.12 244.634 1427.28" stroke="#05116A" stroke-width="0.5" stroke-miterlimit="10"/>
<path d="M-820.805 36.5539C-741.844 -3.30831 -650.345 -4.29664 -570.584 33.9184C-490.823 72.1334 -421.865 148.234 -386.786 244.925C-369.58 292.364 -364.778 345.568 -346.906 388.725C-317.429 459.884 -256.607 486.569 -202.588 495.134C-148.436 503.864 -91.6162 489.204 -25.4597 492.498C48.6996 496.122 136.197 484.427 196.618 537.467C264.508 597.096 278.913 715.529 256.772 817.655C234.631 919.782 172.743 1011.53 139.398 1095.37C114.056 1159.28 116.99 1228.63 134.063 1286.94C151.135 1345.42 186.081 1396.81 237.432 1425.97" stroke="#05136F" stroke-width="0.5" stroke-miterlimit="10"/>
<path d="M-798.531 30.2936C-720.104 -7.92138 -629.672 -7.75666 -551.245 31.1172C-472.684 69.8264 -405.06 145.762 -371.182 241.629C-353.976 290.222 -350.108 344.744 -333.035 389.218C-305.826 460.542 -248.205 489.533 -196.321 501.722C-144.436 513.746 -88.6828 502.875 -23.46 508.475C50.9661 514.735 138.863 500.569 200.618 551.797C269.843 609.119 287.315 726.894 266.642 829.514C245.968 932.135 183.012 1024.05 147.4 1105.58C120.991 1166.04 122.058 1231.92 136.329 1287.93C150.601 1343.93 181.678 1394.67 230.362 1424.65" stroke="#061774" stroke-width="0.5" stroke-miterlimit="10"/>
<path d="M-776.123 24.0345C-698.229 -12.5333 -608.998 -11.2156 -531.771 28.1525C-454.544 67.5205 -388.254 143.127 -355.443 238.335C-338.37 288.08 -335.302 343.756 -319.163 389.877C-294.221 461.201 -239.669 492.827 -190.051 508.311C-140.434 523.794 -86.0148 521.818 -21.4589 524.453C53.5007 527.583 141.531 516.547 204.754 566.127C275.178 621.144 295.986 738.26 276.645 841.374C257.305 944.489 193.55 1036.57 155.403 1115.96C128.06 1172.96 127.26 1235.55 138.597 1289.08C149.934 1342.62 177.277 1392.69 223.293 1423.49" stroke="#9DADFA" stroke-width="0.5" stroke-miterlimit="10"/>
<path d="M-753.85 17.9395C-676.623 -16.9811 -588.458 -14.3456 -512.432 25.3519C-436.405 65.0494 -371.449 140.656 -339.838 235.205C-322.765 286.103 -320.498 342.932 -305.293 390.701C-282.485 462.189 -231.267 496.286 -183.783 515.064C-136.434 533.842 -83.3484 535.983 -19.5927 540.596C55.6336 546.031 144.065 532.854 208.62 580.458C280.246 633.333 304.254 749.46 286.381 853.234C268.508 957.007 203.819 1049.09 163.271 1126.17C134.995 1179.87 132.327 1238.84 140.73 1289.91C149.133 1340.97 172.741 1390.22 216.09 1422.01" stroke="#98AAF9" stroke-width="0.5" stroke-miterlimit="10"/>
<path d="M-731.439 11.6803C-654.746 -21.7578 -567.782 -17.8045 -493.089 22.5518C-418.397 62.9082 -354.774 138.35 -324.23 232.076C-307.291 284.127 -305.824 342.108 -291.419 391.36C-270.612 462.683 -222.728 499.416 -177.646 521.653C-132.563 543.89 -80.6784 550.15 -17.7231 556.738C57.9034 564.645 146.601 549.161 212.491 594.953C285.316 645.522 312.526 760.991 295.987 865.423C279.448 969.856 214.225 1061.93 170.876 1136.88C141.933 1187.12 136.998 1242.8 142.6 1291.39C148.202 1339.98 167.942 1388.57 208.623 1421.19" stroke="#93A7F9" stroke-width="0.5" stroke-miterlimit="10"/>
<path d="M-709.168 5.58581C-633.141 -26.2051 -547.245 -21.0988 -473.752 19.7517C-400.26 60.6022 -338.105 135.879 -308.761 228.946C-291.822 282.315 -291.155 341.285 -277.684 392.183C-258.877 463.507 -214.328 502.875 -171.513 528.407C-128.565 553.938 -78.0138 564.48 -15.8588 572.881C60.0345 583.094 148.999 565.469 216.489 609.449C290.515 657.712 320.926 772.521 305.854 877.448C290.782 982.374 224.892 1074.62 178.876 1147.26C149.132 1194.2 142.197 1246.26 144.864 1292.54C147.532 1338.83 163.537 1386.6 201.551 1420.04" stroke="#8EA3F9" stroke-width="0.5" stroke-miterlimit="10"/>
<path d="M-686.758 -0.674183C-611.265 -30.8179 -526.435 -24.5586 -454.276 16.7861C-382.118 58.1308 -321.297 133.408 -293.02 225.486C-276.214 280.008 -276.081 340.131 -263.81 392.512C-247.004 463.836 -205.923 505.839 -165.242 534.83C-124.561 563.821 -75.2106 578.481 -13.8558 588.693C62.4375 601.377 151.669 581.446 220.493 623.614C295.719 669.736 329.464 783.557 315.726 889.142C301.988 994.728 235.698 1087.14 186.881 1157.47C156.604 1201.12 147.401 1249.71 147.134 1293.36C146.867 1337.18 159.138 1384.13 194.484 1418.72" stroke="#88A0F8" stroke-width="0.5" stroke-miterlimit="10"/>
<path d="M-664.484 -6.93277C-589.658 -35.594 -505.896 -28.0169 -434.937 13.9867C-363.979 55.9902 -304.759 130.938 -277.416 222.357C-260.743 278.033 -261.277 339.144 -249.939 393.336C-235.001 464.495 -197.388 509.135 -158.974 541.584C-120.561 574.034 -72.4106 592.812 -11.8561 604.837C64.8374 619.991 154.335 597.919 224.627 638.11C301.053 681.926 338 795.088 325.595 901.168C313.324 1007.25 246.634 1099.98 194.75 1167.85C163.805 1208.37 152.468 1253.17 149.267 1294.52C146.066 1335.86 154.602 1382.15 187.28 1417.56" stroke="#839EF8" stroke-width="0.5" stroke-miterlimit="10"/>
<path d="M-642.076 -13.0268C-567.784 -40.0408 -485.221 -31.3107 -415.597 11.187C-345.973 53.6847 -288.086 128.632 -261.81 219.228C-245.271 276.221 -246.338 338.321 -236.068 394.161C-222.996 465.32 -188.851 512.594 -152.705 548.338C-116.559 584.083 -69.6093 607.308 -9.85509 620.98C67.1052 638.77 157.003 614.226 228.628 652.606C306.256 694.28 346.403 806.619 335.466 913.193C324.529 1019.93 257.572 1113 202.753 1178.39C171.408 1215.78 157.537 1256.8 151.535 1295.84C145.533 1334.71 150.201 1380.17 180.078 1416.58" stroke="#0CAE5C" stroke-width="0.5" stroke-miterlimit="10"/>
<path d="M-619.803 -19.2877C-546.177 -44.6545 -464.682 -34.7713 -396.258 8.22056C-327.834 51.2124 -271.548 125.995 -246.205 215.932C-229.8 274.078 -231.4 337.331 -222.197 394.653C-210.993 465.812 -180.449 515.722 -146.571 554.761C-112.692 593.964 -67.076 621.308 -7.98865 636.792C69.2384 657.052 159.537 630.203 232.629 666.771C311.456 706.139 354.805 817.654 345.335 925.051C335.865 1032.45 268.641 1126.01 210.621 1188.6C178.743 1222.86 162.604 1260.26 153.668 1296.66C144.731 1333.06 145.665 1377.87 172.875 1415.09" stroke="#7898F7" stroke-width="0.5" stroke-miterlimit="10"/>
<path d="M-597.529 -25.5471C-524.437 -49.2667 -444.142 -38.2305 -376.919 5.42023C-309.695 49.071 -254.876 123.689 -230.601 212.638C-214.329 272.102 -216.329 336.178 -208.46 395.312C-198.99 466.306 -172.047 518.852 -140.436 561.35C-108.825 603.847 -64.4094 635.638 -6.12236 652.934C71.5048 675.83 162.07 646.51 236.496 681.266C316.524 718.492 363.207 829.184 355.071 937.076C346.934 1044.97 279.711 1139.35 218.49 1198.98C186.345 1230.28 167.672 1263.72 155.801 1297.81C144.064 1331.91 141.129 1375.89 165.671 1413.94" stroke="#7396F6" stroke-width="0.5" stroke-miterlimit="10"/>
<path d="M-575.119 -31.6418C-502.56 -53.879 -423.466 -41.3603 -357.443 2.61995C-291.553 46.6001 -238.201 121.383 -214.86 209.508C-198.721 270.125 -201.122 335.354 -194.453 395.971C-186.717 466.965 -163.508 522.146 -134.031 568.103C-104.554 614.06 -61.4728 650.134 -3.98598 669.076C73.9079 694.608 164.74 662.982 240.766 695.761C321.995 730.846 371.879 840.714 365.076 949.1C358.407 1057.49 291.184 1152.86 226.628 1209.52C194.083 1238.02 172.876 1267.5 158.204 1299.13C143.532 1330.76 136.863 1373.91 158.738 1412.95" stroke="#86A4F7" stroke-width="0.5" stroke-miterlimit="10"/>
<path d="M-552.848 -37.9C-480.822 -58.49 -402.795 -44.8182 -338.106 -0.343864C-273.417 44.2952 -221.665 118.913 -199.257 206.215C-183.385 268.149 -185.919 334.367 -180.584 396.631C-174.449 467.625 -154.975 525.442 -127.766 574.693C-100.556 623.944 -58.8081 664.465 -2.12162 685.055C76.0391 713.387 167.271 679.126 244.631 710.093C327.06 743.037 380.145 852.081 374.81 960.961C369.475 1069.84 302.385 1166.53 234.361 1219.74C201.416 1245.43 177.808 1270.8 160.202 1299.95C142.596 1329.11 132.192 1371.61 151.399 1411.47" stroke="#81A0F7" stroke-width="0.5" stroke-miterlimit="10"/>
<path d="M-530.438 -44.1602C-459.079 -63.1029 -382.119 -48.2781 -318.763 -3.14491C-255.408 41.9883 -205.124 116.442 -183.649 203.084C-167.911 266.172 -170.845 333.542 -166.71 397.289C-162.175 468.283 -146.436 528.571 -121.494 581.281C-96.5523 633.991 -56.1381 678.96 -0.11854 701.032C78.3089 732 169.941 695.432 248.769 724.423C332.398 755.225 388.684 863.281 384.816 972.82C380.948 1082.36 313.991 1180.53 242.5 1230.11C209.155 1253.17 183.146 1274.42 162.605 1301.11C142.198 1327.79 127.926 1369.63 144.465 1410.32" stroke="#7B9CF7" stroke-width="0.5" stroke-miterlimit="10"/>
<path d="M-508.164 -50.2548C-437.473 -67.5504 -361.579 -51.5726 -299.424 -5.94516C-237.269 39.6822 -188.719 114.136 -168.045 199.79C-152.573 264.195 -155.507 332.554 -152.973 397.948C-150.039 468.942 -138.035 531.865 -115.36 587.87C-92.6853 643.875 -53.4716 693.291 1.74769 717.01C80.3085 750.778 172.474 711.574 252.636 738.753C337.465 767.414 396.953 874.647 394.418 984.68C391.884 1094.88 325.061 1194.7 250.101 1240.33C216.356 1260.92 187.813 1277.72 164.471 1302.09C141.13 1326.47 122.99 1367.32 136.995 1409" stroke="#769AF6" stroke-width="0.5" stroke-miterlimit="10"/>
<path d="M-485.756 -56.5132C-415.598 -72.3263 -340.905 -55.0307 -280.084 -8.90915C-219.263 37.2124 -172.179 111.666 -152.439 196.497C-137.234 262.055 -140.302 331.567 -139.101 398.608C-137.767 469.767 -129.631 535.161 -109.224 594.46C-88.8169 653.924 -50.937 707.787 3.61547 733.154C82.4431 769.722 174.875 728.047 256.504 753.25C342.534 779.769 405.356 886.178 404.156 996.87C402.955 1107.56 336.265 1209.52 257.971 1251.03C223.826 1269.15 192.882 1281.67 166.606 1303.41C140.33 1325.32 118.456 1365.51 129.793 1408.01" stroke="#7197F6" stroke-width="0.5" stroke-miterlimit="10"/>
<path d="M-463.482 -62.7741C-393.991 -76.94 -320.366 -58.4914 -260.745 -11.711C-201.124 34.9048 -155.641 109.193 -136.835 193.365C-121.896 260.242 -124.964 330.742 -125.231 399.265C-125.498 470.424 -121.096 538.289 -102.956 601.212C-84.8166 663.97 -48.2704 722.281 5.61508 749.295C84.576 788.828 177.542 744.518 260.638 767.743C347.868 792.122 413.891 897.543 414.158 1008.89C414.425 1120.24 347.868 1224.18 266.106 1261.24C231.561 1276.89 198.216 1284.96 169.006 1304.4C139.795 1323.84 114.186 1363.21 122.856 1406.86" stroke="#6C93F5" stroke-width="0.5" stroke-miterlimit="10"/>
<path d="M-441.074 -68.8667C-372.117 -81.3854 -299.558 -61.7837 -241.271 -14.5091C-182.984 32.7655 -139.102 106.889 -121.096 190.238C-106.424 258.267 -109.492 330.085 -111.226 400.091C-112.959 471.414 -112.559 541.75 -96.5537 607.967C-80.5481 674.185 -45.4692 736.943 7.74947 765.439C86.8438 807.772 180.343 760.992 264.773 782.241C353.204 804.643 422.428 909.075 424.162 1020.92C425.896 1132.76 359.206 1239.5 274.109 1271.95C239.03 1285.3 203.285 1288.92 171.273 1305.89C139.262 1322.85 109.785 1361.56 115.787 1406.03" stroke="#6691F5" stroke-width="0.5" stroke-miterlimit="10"/>
<path d="M-418.801 -75.127C-350.51 -86.1632 -279.019 -65.0791 -221.932 -17.4751C-164.845 30.2937 -122.697 104.418 -105.491 186.778C-91.0861 256.125 -94.1538 328.931 -97.4883 400.419C-100.823 471.908 -104.157 544.714 -90.4192 614.226C-76.681 683.737 -43.0693 751.108 9.61582 781.087C88.8435 826.385 182.876 776.804 268.773 796.241C358.405 816.337 430.83 920.11 433.898 1032.45C436.965 1144.79 370.275 1254.33 281.978 1281.84C246.232 1293.04 208.352 1291.88 173.406 1306.38C138.461 1320.87 105.249 1358.92 108.584 1404.22" stroke="#618DF4" stroke-width="0.5" stroke-miterlimit="10"/>
</g>
</svg>
