<svg xmlns="http://www.w3.org/2000/svg" width="15" height="14" viewBox="0 0 15 14" fill="none">
  <path opacity="0.2" d="M10.6543 3.0625V12.25C10.6543 12.4821 10.5621 12.7046 10.398 12.8687C10.2339 13.0328 10.0114 13.125 9.7793 13.125H4.5293C4.29723 13.125 4.07467 13.0328 3.91058 12.8687C3.74648 12.7046 3.6543 12.4821 3.6543 12.25V3.0625C3.6543 2.83044 3.74648 2.60788 3.91058 2.44378C4.07467 2.27969 4.29723 2.1875 4.5293 2.1875H9.7793C10.0114 2.1875 10.2339 2.27969 10.398 2.44378C10.5621 2.60788 10.6543 2.83044 10.6543 3.0625Z" fill="#6B7280"/>
  <path d="M8.40172 7.20727C8.44099 7.27074 8.46336 7.34322 8.46671 7.41778C8.47006 7.49235 8.45428 7.56654 8.42086 7.63328L7.54586 9.38328C7.49394 9.48713 7.40288 9.5661 7.29274 9.60281C7.18259 9.63953 7.06236 9.63099 6.95852 9.57906C6.85467 9.52714 6.7757 9.43609 6.73898 9.32594C6.70227 9.21579 6.71081 9.09557 6.76273 8.99172L7.32164 7.875H6.2793C6.20468 7.87505 6.1313 7.85602 6.06611 7.81972C6.00093 7.78341 5.94611 7.73104 5.90687 7.66758C5.86763 7.60412 5.84527 7.53168 5.84192 7.45714C5.83858 7.3826 5.85434 7.30844 5.88773 7.24172L6.76273 5.49172C6.81466 5.38787 6.90571 5.3089 7.01586 5.27219C7.12601 5.23547 7.24623 5.24401 7.35008 5.29594C7.45393 5.34786 7.5329 5.43891 7.56961 5.54906C7.60633 5.65921 7.59778 5.77943 7.54586 5.88328L6.98695 7H8.0293C8.10389 6.99993 8.17727 7.01894 8.24245 7.05521C8.30764 7.09149 8.36246 7.14383 8.40172 7.20727ZM5.4043 0.875H8.9043C9.02033 0.875 9.13161 0.828906 9.21366 0.746859C9.2957 0.664812 9.3418 0.553532 9.3418 0.4375C9.3418 0.321468 9.2957 0.210188 9.21366 0.128141C9.13161 0.0460936 9.02033 0 8.9043 0L5.4043 0C5.28826 0 5.17698 0.0460936 5.09494 0.128141C5.01289 0.210188 4.9668 0.321468 4.9668 0.4375C4.9668 0.553532 5.01289 0.664812 5.09494 0.746859C5.17698 0.828906 5.28826 0.875 5.4043 0.875ZM11.0918 3.0625V12.25C11.0918 12.5981 10.9535 12.9319 10.7074 13.1781C10.4612 13.4242 10.1274 13.5625 9.7793 13.5625H4.5293C4.1812 13.5625 3.84736 13.4242 3.60122 13.1781C3.35508 12.9319 3.2168 12.5981 3.2168 12.25V3.0625C3.2168 2.7144 3.35508 2.38056 3.60122 2.13442C3.84736 1.88828 4.1812 1.75 4.5293 1.75H9.7793C10.1274 1.75 10.4612 1.88828 10.7074 2.13442C10.9535 2.38056 11.0918 2.7144 11.0918 3.0625ZM10.2168 3.0625C10.2168 2.94647 10.1707 2.83519 10.0887 2.75314C10.0066 2.67109 9.89533 2.625 9.7793 2.625H4.5293C4.41326 2.625 4.30198 2.67109 4.21994 2.75314C4.13789 2.83519 4.0918 2.94647 4.0918 3.0625V12.25C4.0918 12.366 4.13789 12.4773 4.21994 12.5594C4.30198 12.6414 4.41326 12.6875 4.5293 12.6875H9.7793C9.89533 12.6875 10.0066 12.6414 10.0887 12.5594C10.1707 12.4773 10.2168 12.366 10.2168 12.25V3.0625Z" fill="#6B7280"/>
</svg>