<svg xmlns="http://www.w3.org/2000/svg" width="17" height="16" viewBox="0 0 17 16" fill="none">
  <path opacity="0.2" d="M13.6543 3V5.5H2.6543V3C2.6543 2.86739 2.70698 2.74021 2.80074 2.64645C2.89451 2.55268 3.02169 2.5 3.1543 2.5H13.1543C13.2869 2.5 13.4141 2.55268 13.5079 2.64645C13.6016 2.74021 13.6543 2.86739 13.6543 3Z" fill="#6B7280"/>
  <path d="M13.1543 2H11.6543V1.5C11.6543 1.36739 11.6016 1.24021 11.5079 1.14645C11.4141 1.05268 11.2869 1 11.1543 1C11.0217 1 10.8945 1.05268 10.8007 1.14645C10.707 1.24021 10.6543 1.36739 10.6543 1.5V2H5.6543V1.5C5.6543 1.36739 5.60162 1.24021 5.50785 1.14645C5.41408 1.05268 5.28691 1 5.1543 1C5.02169 1 4.89451 1.05268 4.80074 1.14645C4.70698 1.24021 4.6543 1.36739 4.6543 1.5V2H3.1543C2.88908 2 2.63473 2.10536 2.44719 2.29289C2.25965 2.48043 2.1543 2.73478 2.1543 3V13C2.1543 13.2652 2.25965 13.5196 2.44719 13.7071C2.63473 13.8946 2.88908 14 3.1543 14H13.1543C13.4195 14 13.6739 13.8946 13.8614 13.7071C14.0489 13.5196 14.1543 13.2652 14.1543 13V3C14.1543 2.73478 14.0489 2.48043 13.8614 2.29289C13.6739 2.10536 13.4195 2 13.1543 2ZM4.6543 3V3.5C4.6543 3.63261 4.70698 3.75979 4.80074 3.85355C4.89451 3.94732 5.02169 4 5.1543 4C5.28691 4 5.41408 3.94732 5.50785 3.85355C5.60162 3.75979 5.6543 3.63261 5.6543 3.5V3H10.6543V3.5C10.6543 3.63261 10.707 3.75979 10.8007 3.85355C10.8945 3.94732 11.0217 4 11.1543 4C11.2869 4 11.4141 3.94732 11.5079 3.85355C11.6016 3.75979 11.6543 3.63261 11.6543 3.5V3H13.1543V5H3.1543V3H4.6543ZM13.1543 13H3.1543V6H13.1543V13Z" fill="#6B7280"/>
</svg>