<svg xmlns="http://www.w3.org/2000/svg" width="17" height="17" viewBox="0 0 17 17" fill="none">
  <path opacity="0.2" d="M2 8.79883H5V12.7988H2V8.79883ZM7 12.7988H10V10.7988H7V12.7988ZM12 6.79883V12.7988H15V6.79883H12Z" fill="#6B7280"/>
  <path d="M5.5 6.79883C5.5 6.93144 5.44732 7.05861 5.35355 7.15238C5.25979 7.24615 5.13261 7.29883 5 7.29883H2C1.86739 7.29883 1.74021 7.24615 1.64645 7.15238C1.55268 7.05861 1.5 6.93144 1.5 6.79883C1.5 6.66622 1.55268 6.53904 1.64645 6.44527C1.74021 6.35151 1.86739 6.29883 2 6.29883H5C5.13261 6.29883 5.25979 6.35151 5.35355 6.44527C5.44732 6.53904 5.5 6.66622 5.5 6.79883ZM10 8.29883H7C6.86739 8.29883 6.74021 8.35151 6.64645 8.44527C6.55268 8.53904 6.5 8.66622 6.5 8.79883C6.5 8.93144 6.55268 9.05861 6.64645 9.15238C6.74021 9.24615 6.86739 9.29883 7 9.29883H10C10.1326 9.29883 10.2598 9.24615 10.3536 9.15238C10.4473 9.05861 10.5 8.93144 10.5 8.79883C10.5 8.66622 10.4473 8.53904 10.3536 8.44527C10.2598 8.35151 10.1326 8.29883 10 8.29883ZM12 5.29883H15C15.1326 5.29883 15.2598 5.24615 15.3536 5.15238C15.4473 5.05861 15.5 4.93144 15.5 4.79883C15.5 4.66622 15.4473 4.53904 15.3536 4.44527C15.2598 4.35151 15.1326 4.29883 15 4.29883H12C11.8674 4.29883 11.7402 4.35151 11.6464 4.44527C11.5527 4.53904 11.5 4.66622 11.5 4.79883C11.5 4.93144 11.5527 5.05861 11.6464 5.15238C11.7402 5.24615 11.8674 5.29883 12 5.29883ZM5.5 8.79883V12.7988C5.5 12.9314 5.44732 13.0586 5.35355 13.1524C5.25979 13.2462 5.13261 13.2988 5 13.2988H2C1.86739 13.2988 1.74021 13.2462 1.64645 13.1524C1.55268 13.0586 1.5 12.9314 1.5 12.7988V8.79883C1.5 8.66622 1.55268 8.53904 1.64645 8.44527C1.74021 8.35151 1.86739 8.29883 2 8.29883H5C5.13261 8.29883 5.25979 8.35151 5.35355 8.44527C5.44732 8.53904 5.5 8.66622 5.5 8.79883ZM4.5 9.29883H2.5V12.2988H4.5V9.29883ZM10.5 10.7988V12.7988C10.5 12.9314 10.4473 13.0586 10.3536 13.1524C10.2598 13.2462 10.1326 13.2988 10 13.2988H7C6.86739 13.2988 6.74021 13.2462 6.64645 13.1524C6.55268 13.0586 6.5 12.9314 6.5 12.7988V10.7988C6.5 10.6662 6.55268 10.539 6.64645 10.4453C6.74021 10.3515 6.86739 10.2988 7 10.2988H10C10.1326 10.2988 10.2598 10.3515 10.3536 10.4453C10.4473 10.539 10.5 10.6662 10.5 10.7988ZM9.5 11.2988H7.5V12.2988H9.5V11.2988ZM15.5 6.79883V12.7988C15.5 12.9314 15.4473 13.0586 15.3536 13.1524C15.2598 13.2462 15.1326 13.2988 15 13.2988H12C11.8674 13.2988 11.7402 13.2462 11.6464 13.1524C11.5527 13.0586 11.5 12.9314 11.5 12.7988V6.79883C11.5 6.66622 11.5527 6.53904 11.6464 6.44527C11.7402 6.35151 11.8674 6.29883 12 6.29883H15C15.1326 6.29883 15.2598 6.35151 15.3536 6.44527C15.4473 6.53904 15.5 6.66622 15.5 6.79883ZM14.5 7.29883H12.5V12.2988H14.5V7.29883Z" fill="#6B7280"/>
</svg>