<svg width="141" height="207" viewBox="0 0 141 207" fill="none" xmlns="http://www.w3.org/2000/svg">
<g clip-path="url(#clip0_3591_6188)">
<mask id="mask0_3591_6188" style="mask-type:alpha" maskUnits="userSpaceOnUse" x="-69" y="-10" width="216" height="216">
<path d="M-68 -9.07812H146V205.281H-68V-9.07812Z" fill="url(#paint0_radial_3591_6188)" stroke="#F3F4F6"/>
</mask>
<g mask="url(#mask0_3591_6188)">
<path d="M38.9998 128.546C55.7861 128.546 69.3942 114.916 69.3942 98.1014C69.3942 81.287 55.7861 67.6562 38.9998 67.6562C22.2135 67.6562 8.60547 81.287 8.60547 98.1014C8.60547 114.916 22.2135 128.546 38.9998 128.546Z" stroke="#E5E7EB"/>
<path d="M38.9998 128.546C55.7861 128.546 69.3942 114.916 69.3942 98.1014C69.3942 81.287 55.7861 67.6562 38.9998 67.6562C22.2135 67.6562 8.60547 81.287 8.60547 98.1014C8.60547 114.916 22.2135 128.546 38.9998 128.546Z" stroke="#E5E7EB"/>
<path d="M38.9995 143.929C64.2674 143.929 84.751 123.411 84.751 98.1013C84.751 72.7913 64.2674 52.2734 38.9995 52.2734C13.7317 52.2734 -6.75195 72.7913 -6.75195 98.1013C-6.75195 123.411 13.7317 143.929 38.9995 143.929Z" stroke="#E5E7EB"/>
<path d="M39.0012 159.312C72.7506 159.312 100.11 131.907 100.11 98.1013C100.11 64.2956 72.7506 36.8906 39.0012 36.8906C5.25184 36.8906 -22.1074 64.2956 -22.1074 98.1013C-22.1074 131.907 5.25184 159.312 39.0012 159.312Z" stroke="#E5E7EB"/>
<path d="M39.0009 174.695C81.2318 174.695 115.467 140.403 115.467 98.1013C115.467 55.7999 81.2318 21.5078 39.0009 21.5078C-3.22995 21.5078 -37.4648 55.7999 -37.4648 98.1013C-37.4648 140.403 -3.22995 174.695 39.0009 174.695Z" stroke="#E5E7EB"/>
<path d="M39.0006 190.078C89.713 190.078 130.824 148.898 130.824 98.1013C130.824 47.3042 89.713 6.125 39.0006 6.125C-11.7117 6.125 -52.8223 47.3042 -52.8223 98.1013C-52.8223 148.898 -11.7117 190.078 39.0006 190.078Z" stroke="#E5E7EB"/>
<path d="M39.0004 205.46C98.1943 205.46 146.18 157.394 146.18 98.1012C146.18 38.8085 98.1943 -9.25781 39.0004 -9.25781C-20.1935 -9.25781 -68.1797 38.8085 -68.1797 98.1012C-68.1797 157.394 -20.1935 205.46 39.0004 205.46Z" stroke="#E5E7EB"/>
</g>
</g>
<g filter="url(#filter0_d_3591_6188)">
<rect x="25" y="83.6914" width="28" height="28" rx="6" fill="#E2F0D9"/>
<rect x="25.5" y="84.1914" width="27" height="27" rx="5.5" stroke="#D1D5DB"/>
<path d="M44.3218 97.6913C46.2475 94.9874 47.2296 92.1929 45.8639 90.8272C44.4983 89.4616 41.7038 90.4436 38.9999 92.3694C36.296 90.4436 33.5014 89.4616 32.1358 90.8272C30.7702 92.1929 31.7522 94.9874 33.678 97.6913C31.7522 100.395 30.7702 103.19 32.1358 104.555C32.5757 104.995 33.1632 105.191 33.8475 105.191C35.2913 105.191 37.1663 104.319 39.0038 103.013C40.8335 104.319 42.7085 105.191 44.1561 105.191C44.8405 105.191 45.4288 104.994 45.8679 104.555C47.2296 103.19 46.2475 100.395 44.3218 97.6913ZM44.9804 91.7108C45.5772 92.3077 45.1741 94.2421 43.5335 96.6546C43.0145 96.0121 42.4619 95.3974 41.878 94.8132C41.2937 94.2301 40.6791 93.6783 40.0366 93.16C42.4491 91.5194 44.3835 91.1132 44.9804 91.7108ZM42.7725 97.6913C42.2197 98.3906 41.626 99.0566 40.9944 99.6858C40.3652 100.317 39.6992 100.911 38.9999 101.464C38.3005 100.911 37.6345 100.317 37.0054 99.6858C36.3738 99.0566 35.7801 98.3906 35.2272 97.6913C36.3364 96.2936 37.6022 95.0278 38.9999 93.9186C39.6992 94.4715 40.3652 95.0652 40.9944 95.6968C41.626 96.3259 42.2197 96.9919 42.7725 97.6913ZM33.0194 91.7108C33.1913 91.5382 33.4749 91.4491 33.8491 91.4491C34.7725 91.4491 36.2468 91.9882 37.9624 93.16C37.3205 93.6787 36.7062 94.2305 36.1218 94.8132C35.5387 95.3975 34.9869 96.0121 34.4686 96.6546C32.828 94.2421 32.4225 92.3077 33.0194 91.7108ZM33.0194 103.672C32.4225 103.075 32.828 101.141 34.4686 98.728C34.9877 99.3705 35.5403 99.9852 36.1241 100.569C36.708 101.152 37.3219 101.704 37.9632 102.223C35.5507 103.863 33.6163 104.269 33.0194 103.672ZM44.9804 103.672C44.3835 104.269 42.4491 103.866 40.0366 102.225C40.6788 101.705 41.2934 101.153 41.878 100.569C42.4611 99.9851 43.0129 99.3705 43.5311 98.728C45.1718 101.141 45.5772 103.075 44.9804 103.672ZM39.9374 97.6913C39.9374 97.8767 39.8824 98.058 39.7794 98.2121C39.6764 98.3663 39.53 98.4865 39.3586 98.5574C39.1873 98.6284 38.9988 98.647 38.817 98.6108C38.6351 98.5746 38.4681 98.4853 38.337 98.3542C38.2059 98.2231 38.1166 98.056 38.0804 97.8742C38.0442 97.6923 38.0628 97.5038 38.1337 97.3325C38.2047 97.1612 38.3249 97.0148 38.479 96.9118C38.6332 96.8088 38.8145 96.7538 38.9999 96.7538C39.2485 96.7538 39.487 96.8526 39.6628 97.0284C39.8386 97.2042 39.9374 97.4427 39.9374 97.6913Z" fill="#027139"/>
<g opacity="0.4">
<path d="M42.7621 93.9283C42.2119 90.6546 40.9303 87.9842 38.999 87.9842C37.0677 87.9842 35.7861 90.6546 35.2359 93.9283C31.9622 94.4785 29.2918 95.7601 29.2918 97.6914C29.2918 99.6227 31.9622 100.904 35.2359 101.455C35.7861 104.728 37.0677 107.399 38.999 107.399C39.621 107.399 40.1751 107.122 40.6591 106.638C41.6799 105.617 42.3887 103.674 42.7649 101.452C44.9818 101.081 46.9247 100.372 47.9483 99.3487C48.4323 98.8648 48.709 98.3096 48.709 97.6886C48.7063 95.7601 46.0358 94.4785 42.7621 93.9283ZM38.999 89.2337C39.8431 89.2337 40.9259 90.8866 41.4717 93.7526C40.6503 93.6653 39.825 93.6214 38.999 93.6211C38.1736 93.622 37.3488 93.6664 36.528 93.7543C37.0738 90.8883 38.1544 89.2332 38.999 89.2337ZM41.6667 95.0237C41.7703 95.9092 41.8214 96.7999 41.8197 97.6914C41.8214 98.5829 41.7703 99.4737 41.6667 100.359C40.7813 100.463 39.8905 100.514 38.999 100.512C38.1076 100.514 37.2168 100.463 36.3313 100.359C36.1273 98.5865 36.1273 96.7963 36.3313 95.0237C37.2168 94.9201 38.1076 94.869 38.999 94.8707C39.8905 94.869 40.7813 94.9201 41.6667 95.0237ZM30.5414 97.6914C30.5408 97.4478 30.6784 97.1843 30.943 96.9197C31.5959 96.2667 33.0195 95.6054 35.0613 95.221C34.9742 96.0416 34.93 96.8662 34.9287 97.6914C34.9296 98.5168 34.9741 99.3417 35.0619 100.162C32.1959 99.6166 30.5414 98.5355 30.5414 97.6914ZM38.999 106.149C38.1549 106.149 37.0738 104.495 36.528 101.629C37.3493 101.716 38.1747 101.76 39.0007 101.76C39.8255 101.759 40.6497 101.715 41.47 101.629C40.9242 104.495 39.8437 106.15 38.999 106.149ZM47.4567 97.6914C47.4572 98.5361 45.8038 99.6183 42.9378 100.164C43.0246 99.3427 43.0685 98.5174 43.0693 97.6914C43.0684 96.866 43.024 96.0412 42.9362 95.2204C45.8022 95.7662 47.4567 96.8473 47.4567 97.6914ZM39.6619 97.0285C39.793 97.1596 39.8823 97.3267 39.9185 97.5085C39.9547 97.6904 39.9361 97.8789 39.8652 98.0502C39.7942 98.2215 39.674 98.3679 39.5199 98.4709C39.3657 98.5739 39.1844 98.6289 38.999 98.6289C38.8136 98.6289 38.6323 98.5739 38.4782 98.4709C38.324 98.3679 38.2038 98.2215 38.1329 98.0502C38.0619 97.8789 38.0434 97.6904 38.0795 97.5085C38.1157 97.3267 38.205 97.1596 38.3361 97.0285C38.5119 96.8527 38.7504 96.7539 38.999 96.7539C39.2477 96.7539 39.4861 96.8527 39.6619 97.0285Z" fill="#027139"/>
</g>
</g>
<defs>
<filter id="filter0_d_3591_6188" x="22.8574" y="82.5508" width="32.2852" height="32.2812" filterUnits="userSpaceOnUse" color-interpolation-filters="sRGB">
<feFlood flood-opacity="0" result="BackgroundImageFix"/>
<feColorMatrix in="SourceAlpha" type="matrix" values="0 0 0 0 0 0 0 0 0 0 0 0 0 0 0 0 0 0 127 0" result="hardAlpha"/>
<feOffset dy="1"/>
<feGaussianBlur stdDeviation="1"/>
<feColorMatrix type="matrix" values="0 0 0 0 0 0 0 0 0 0 0 0 0 0 0 0 0 0 0.05 0"/>
<feBlend mode="normal" in2="BackgroundImageFix" result="effect1_dropShadow_3591_6188"/>
<feBlend mode="normal" in="SourceGraphic" in2="effect1_dropShadow_3591_6188" result="shape"/>
</filter>
<radialGradient id="paint0_radial_3591_6188" cx="0" cy="0" r="1" gradientUnits="userSpaceOnUse" gradientTransform="translate(39 -9.57815) rotate(90) scale(215.359 112.217)">
<stop/>
<stop offset="0.953125" stop-opacity="0"/>
</radialGradient>
<clipPath id="clip0_3591_6188">
<rect width="209" height="216" fill="white" transform="translate(-68 -9.89844)"/>
</clipPath>
</defs>
</svg>
