<svg width="1440" height="1024" viewBox="0 0 1440 1024" fill="none" xmlns="http://www.w3.org/2000/svg">
<rect width="1440" height="1025" fill="url(#paint0_linear_59_2280)"/>
<mask id="mask0_59_2280" style="mask-type:alpha" maskUnits="userSpaceOnUse" x="0" y="0" width="1440" height="1025">
<rect width="1440" height="1025" fill="#D9D9D9"/>
</mask>
<g mask="url(#mask0_59_2280)">
<g opacity="0.2">
<path d="M-936 412.812C-878.246 356.148 -816.492 304.921 -748.868 282.354C-681.378 259.952 -606.952 269.506 -552.666 326.169C-487.843 393.869 -457.433 520.045 -383.673 566.66C-335.923 596.804 -280.171 586.921 -227.219 581.815C-174.133 576.708 -116.247 579.344 -77.0328 627.936C-6.74157 715.073 -31.817 903.842 44.343 980.601C94.6272 1031.17 164.518 1008.11 226.94 1014.04C305.901 1021.62 380.06 1082.07 423.409 1174.31C466.757 1266.56 478.361 1388.78 454.353 1498.15" stroke="#D9DFE3" strokeWidth="0.5" stroke-miterlimit="10"/>
<path d="M-928.797 398.81C-871.31 342.97 -809.555 293.06 -742.332 271.646C-701.784 258.634 -658.703 257.151 -619.089 270.329C-593.213 278.894 -568.804 293.884 -547.464 315.791C-482.774 382.503 -451.163 505.878 -379.138 554.141C-353.529 571.272 -325.919 577.367 -297.243 578.52C-272.968 579.508 -248.026 577.037 -223.484 575.225C-189.072 572.59 -152.392 572.425 -120.114 584.944C-102.241 591.862 -85.7021 602.569 -71.5638 618.711C-43.6874 650.337 -29.4158 696.294 -17.9451 745.381C-1.27259 816.046 9.93139 893.464 46.4775 943.704C50.3455 949.139 54.6137 954.081 59.1486 958.858C109.033 1010.58 175.989 992.461 234.81 1001.68C292.43 1010.91 346.582 1050.77 387.663 1112.21C399.534 1130 410.205 1149.6 419.675 1170.69C436.614 1208.74 449.018 1251.4 456.621 1295.71C468.092 1361.6 469.025 1430.94 457.955 1494.69" stroke="#D1D7DC" strokeWidth="0.5" stroke-miterlimit="10"/>
<path d="M-921.729 384.645C-864.376 329.793 -802.755 281.201 -735.798 260.611C-695.384 248.092 -652.702 246.939 -613.355 260.117C-587.613 268.682 -563.337 283.342 -541.997 305.085C-477.441 370.644 -444.896 491.384 -374.471 541.129C-349.129 558.919 -322.186 566.66 -293.776 569.131C-269.635 571.273 -244.559 569.625 -219.884 568.143C-185.205 566.166 -148.259 566.002 -115.581 577.532C-97.5744 583.956 -80.9019 593.839 -66.2301 609.158C-37.6868 638.808 -21.948 681.964 -9.01012 728.58C9.79647 795.621 23.9347 870.404 61.0144 921.302C65.0158 926.738 69.1506 931.844 73.6855 936.621C123.303 989.332 187.059 976.154 242.278 989.002C296.297 1001.52 346.314 1043.52 384.861 1106.61C396.065 1124.9 406.335 1144.99 415.405 1166.57C431.811 1205.44 444.349 1248.77 452.751 1293.4C465.289 1359.79 468.891 1428.64 461.154 1490.74" stroke="#C8CDD5" strokeWidth="0.5" stroke-miterlimit="10"/>
<path d="M-914.659 370.643C-857.572 316.615 -795.951 269.34 -729.261 249.739C-689.113 237.879 -646.832 236.89 -607.752 250.068C-582.276 258.633 -558.134 273.129 -536.793 294.542C-472.237 359.113 -438.626 477.217 -369.802 528.28C-344.86 546.893 -318.45 556.118 -290.174 559.741C-266.165 563.036 -241.09 562.048 -216.148 561.224C-181.202 559.906 -143.856 559.741 -110.911 570.284C-92.638 576.213 -75.6987 585.438 -60.7602 599.604C-31.4166 627.277 -14.4774 667.468 0.0610595 711.778C21.1351 775.36 38.2078 847.178 75.6875 898.9C79.6889 904.335 83.8237 909.606 88.3586 914.548C137.709 968.411 198.397 960.175 249.882 976.318C300.433 992.131 346.049 1036.28 382.328 1101.18C392.865 1119.95 402.602 1140.71 411.405 1162.62C427.277 1202.48 439.948 1246.29 449.018 1291.26C462.756 1358.14 468.892 1426.5 464.49 1486.78" stroke="#31363F" strokeWidth="0.5" stroke-miterlimit="10"/>
<path d="M-907.588 356.641C-850.635 303.602 -789.147 257.645 -722.857 238.867C-682.976 227.501 -640.962 226.842 -602.148 240.02C-576.806 248.585 -552.798 262.916 -531.59 283.835C-467.034 347.417 -432.489 462.886 -365.265 515.431C-340.59 534.704 -314.848 545.41 -286.838 550.517C-262.963 554.8 -237.754 554.8 -212.545 554.47C-177.333 553.811 -139.72 553.482 -106.241 563.2C-87.8348 568.471 -70.6288 577.201 -55.2901 590.214C-25.1462 615.911 -7.0065 653.467 9.13248 694.976C32.3406 754.934 52.3476 824.116 90.4943 876.497C94.4957 882.098 98.7638 887.369 103.165 892.311C152.116 947.162 209.869 943.868 257.753 963.47C304.703 982.577 346.05 1028.86 379.929 1095.57C389.799 1115.01 399.002 1136.1 407.538 1158.5C422.877 1199.18 435.682 1243.82 445.552 1288.96C460.49 1356.33 469.027 1424.19 468.093 1482.83" stroke="#383C47" strokeWidth="0.5" stroke-miterlimit="10"/>
<path d="M-900.521 342.477C-843.701 290.261 -782.346 245.622 -716.323 227.832C-676.709 216.96 -635.095 216.796 -596.414 229.808C-571.206 238.374 -547.331 252.54 -526.257 273.13C-461.834 335.723 -426.088 448.556 -360.599 502.42C-336.19 522.516 -311.115 534.705 -283.238 540.964C-259.497 546.4 -234.154 547.224 -208.812 547.224C-173.466 547.224 -135.32 546.894 -101.575 555.624C-82.9014 560.401 -65.5621 568.308 -49.9566 580.332C-19.0125 604.052 0.461013 638.808 18.0672 677.846C43.4094 734.345 66.4841 800.727 105.031 853.767C109.166 859.368 113.301 864.803 117.702 869.91C166.386 925.75 221.072 927.562 265.22 950.458C308.702 973.024 345.649 1021.29 377.26 1089.65C386.463 1109.58 395.132 1131.32 403.402 1154.05C418.207 1195.56 431.145 1240.86 441.682 1286.16C457.688 1353.86 468.892 1421.39 471.293 1478.38" stroke="#3F4350" strokeWidth="0.5" stroke-miterlimit="10"/>
<path d="M-893.451 328.476C-836.898 277.083 -775.543 233.926 -709.787 216.96C-670.44 206.583 -629.092 206.748 -590.812 219.76C-565.87 228.326 -542.128 242.327 -521.054 262.588C-456.632 324.193 -419.952 434.39 -356.063 489.572C-331.922 510.491 -307.513 524.163 -279.77 531.575C-256.162 537.999 -230.82 539.811 -205.211 540.305C-169.598 540.964 -131.185 540.635 -97.0394 548.541C-78.2328 552.824 -60.6267 560.072 -44.6211 570.943C-13.01 592.686 7.93064 624.642 27.004 661.21C54.6136 714.085 80.4894 777.831 119.57 831.53C123.705 837.13 127.973 842.566 132.374 847.837C180.791 904.83 232.409 911.584 272.957 937.939C312.837 963.8 345.649 1014.37 374.726 1084.37C383.262 1104.8 391.532 1127.04 399.401 1150.26C413.673 1192.76 426.744 1238.55 438.081 1284.18C455.287 1352.37 469.025 1419.42 474.761 1474.76" stroke="#464958" strokeWidth="0.5" stroke-miterlimit="10"/>
<path d="M-886.249 314.309C-829.829 263.905 -768.607 222.066 -703.251 205.923C-664.171 196.205 -623.223 196.534 -585.077 209.547C-560.268 218.113 -536.66 231.949 -515.719 251.715C-451.43 312.168 -413.683 420.059 -351.528 476.558C-327.653 498.301 -303.912 513.291 -276.435 522.185C-252.96 529.763 -227.485 532.233 -201.742 533.222C-165.863 534.539 -127.05 534.045 -92.6376 541.128C-73.5643 544.917 -55.6913 551.341 -39.419 561.389C-7.00765 581.155 15.1335 610.146 35.8074 644.408C65.5511 693.824 94.3611 754.77 134.108 809.127C138.243 814.893 142.511 820.328 146.913 825.599C195.063 883.581 243.613 895.441 280.426 925.09C316.839 954.41 345.249 1006.96 372.058 1078.77C379.928 1099.86 387.664 1122.42 395.266 1146.31C409.005 1189.63 422.076 1236.25 434.213 1282.04C452.486 1350.73 468.892 1417.44 477.962 1470.97" stroke="#4D5060" strokeWidth="0.5" stroke-miterlimit="10"/>
<path d="M-879.18 300.309C-822.894 250.728 -761.806 210.207 -696.717 195.053C-657.77 185.828 -617.222 186.487 -579.476 199.5C-554.8 207.901 -531.459 221.737 -510.385 241.174C-446.096 300.638 -407.415 406.059 -346.861 463.711C-323.253 486.113 -300.044 502.749 -272.835 512.797C-249.493 521.363 -223.884 524.822 -197.875 526.304C-161.729 528.281 -122.649 527.787 -87.7035 533.881C-68.4968 537.176 -50.3571 542.941 -33.6846 551.836C-0.472978 569.626 23.002 595.816 45.143 627.607C77.1542 673.399 108.899 731.71 149.046 786.726C153.181 792.492 157.449 798.092 161.851 803.528C209.601 862.662 255.35 879.628 288.295 912.408C321.373 945.187 345.248 999.709 369.79 1073.17C376.992 1094.75 384.195 1117.98 391.531 1142.19C404.735 1186.34 417.94 1233.61 430.878 1279.73C450.351 1348.92 469.291 1415.13 481.696 1467.02" stroke="#545669" strokeWidth="0.5" stroke-miterlimit="10"/>
<path d="M-872.11 286.306C-816.091 237.714 -754.869 198.511 -690.18 184.18C-651.5 175.45 -611.219 176.438 -573.739 189.451C-549.331 197.852 -525.989 211.359 -505.049 230.631C-440.76 289.107 -401.146 391.892 -342.192 451.026C-318.85 474.252 -296.309 492.371 -269.233 503.736C-246.025 513.455 -220.416 517.738 -194.14 519.714C-157.727 522.35 -118.38 521.856 -83.0344 526.962C-63.5609 529.762 -45.1545 534.704 -28.3486 542.61C5.66332 558.423 30.472 581.814 54.0803 611.134C88.2255 653.467 122.904 708.977 163.585 764.653C167.853 770.418 172.122 776.183 176.39 781.619C223.873 841.742 266.555 863.979 295.898 899.888C325.509 936.291 344.982 992.79 367.123 1067.9C373.659 1089.97 380.461 1113.69 387.397 1138.4C400.068 1183.37 413.406 1231.3 427.011 1277.76C447.685 1347.43 469.159 1413.15 484.898 1463.39" stroke="#5B5D71" strokeWidth="0.5" stroke-miterlimit="10"/>
<path d="M-865.043 272.14C-809.157 224.372 -748.069 186.486 -683.78 173.144C-645.366 165.073 -605.485 166.39 -568.139 179.238C-543.864 187.639 -520.656 200.981 -499.849 219.76C-435.693 277.247 -395.145 377.561 -337.658 437.849C-314.717 461.898 -292.709 481.499 -265.9 494.018C-242.825 504.89 -217.083 509.831 -190.674 512.302C-153.994 515.596 -114.247 515.102 -78.6345 519.22C-59.0276 521.526 -40.3544 525.644 -23.1483 532.562C11.6638 546.399 37.6729 566.989 62.8818 593.838C99.2945 632.547 136.908 685.423 178.122 741.592C182.39 747.522 186.658 753.287 191.06 758.888C238.276 820.163 278.024 847.507 303.499 886.71C329.642 926.572 344.714 985.048 364.587 1061.97C370.456 1084.7 376.725 1108.92 383.394 1133.95C395.531 1179.91 409.003 1228.5 423.408 1275.12C445.149 1345.29 469.291 1410.52 488.364 1459.11" stroke="#626379" strokeWidth="0.5" stroke-miterlimit="10"/>
<path d="M-857.972 258.14C-802.22 211.359 -741.265 174.791 -677.243 162.273C-639.096 154.695 -599.482 156.343 -562.536 169.191C-538.394 177.592 -515.453 190.769 -494.645 209.218C-430.489 265.717 -389.008 363.725 -333.122 425.001C-310.447 449.873 -289.107 470.958 -262.431 484.794C-239.489 496.654 -213.614 502.584 -187.071 505.549C-150.258 509.502 -110.111 508.843 -74.0981 512.138C-54.2245 513.949 -35.4179 517.409 -17.8117 523.174C17.8008 535.034 45.1437 552.823 71.8197 577.202C110.5 612.452 150.914 662.362 192.662 719.355C196.93 725.285 201.332 731.05 205.6 736.815C252.55 799.079 289.229 831.859 311.103 874.027C333.645 917.678 344.448 977.965 361.921 1056.37C367.123 1079.6 372.858 1104.31 379.261 1129.84C390.865 1176.62 404.469 1225.87 419.541 1272.81C442.483 1343.48 469.159 1408.21 491.566 1455.16" stroke="#696A82" strokeWidth="0.5" stroke-miterlimit="10"/>
<path d="M-850.903 243.974C-795.417 198.017 -734.462 162.767 -670.707 151.236C-632.827 144.153 -593.613 146.13 -556.8 158.978C-532.792 167.379 -509.984 180.392 -489.31 198.511C-425.287 253.857 -382.739 349.559 -328.454 412.153C-306.046 437.849 -285.372 460.416 -258.829 475.405C-236.021 488.418 -210.146 495.171 -183.203 498.466C-146.123 503.078 -105.576 502.419 -69.1628 504.725C-49.0224 506.043 -29.9491 508.678 -12.0762 513.455C24.4699 523.339 53.0133 538.328 81.1565 560.236C122.104 591.862 165.453 639.137 207.601 696.789C212.002 702.718 216.27 708.648 220.539 714.578C267.088 777.831 300.7 816.046 318.973 861.179C338.046 908.454 344.449 970.553 359.654 1050.77C364.189 1074.66 369.524 1099.86 375.526 1125.72C386.597 1173.32 400.335 1223.23 416.207 1270.51C440.349 1341.67 469.559 1405.91 495.301 1451.21" stroke="#70708A" strokeWidth="0.5" stroke-miterlimit="10"/>
<path d="M-843.703 229.972C-788.35 185.004 -727.529 151.071 -664.173 140.365C-626.56 133.941 -587.613 136.082 -551.2 148.93C-527.459 157.331 -504.784 170.179 -484.11 187.804C-420.088 242.162 -376.739 335.393 -323.921 399.14C-301.78 425.824 -281.773 449.544 -255.497 466.016C-232.822 480.182 -206.813 487.759 -179.737 491.547C-142.39 496.818 -101.576 496.16 -64.7633 497.477C-44.4895 498.301 -25.1494 500.278 -7.00974 504.066C30.3367 511.808 60.2138 524.162 89.8242 543.599C132.906 571.766 179.189 616.24 222.004 674.551C226.405 680.646 230.673 686.576 234.942 692.506C281.224 756.911 311.769 800.397 326.307 848.495C341.779 899.558 343.913 963.47 356.851 1045.34C360.719 1069.71 365.521 1095.41 371.256 1121.77C381.793 1170.36 395.664 1220.93 412.204 1268.2C437.412 1339.85 469.29 1403.6 498.367 1447.09" stroke="#777792" strokeWidth="0.5" stroke-miterlimit="10"/>
<path d="M-836.632 215.971C-781.413 171.826 -720.725 139.377 -657.636 129.493C-620.156 123.563 -581.609 126.199 -545.463 138.882C-521.855 147.283 -499.314 159.967 -478.64 177.262C-414.751 230.631 -370.469 321.557 -319.118 386.292C-297.377 413.8 -277.903 439.002 -251.761 456.627C-229.219 471.781 -203.077 480.182 -175.867 484.629C-138.254 490.559 -97.0399 489.736 -59.9603 490.23C-39.4197 490.559 -19.8128 491.712 -1.40641 494.513C36.7403 500.278 67.9512 509.832 99.0287 526.633C144.378 551.176 193.462 593.015 236.81 651.985C241.212 658.079 245.613 664.174 249.748 670.269C295.764 735.662 323.107 784.584 334.178 835.812C346.048 890.499 343.914 956.222 354.451 1039.74C357.653 1064.61 361.921 1090.96 367.389 1117.65C377.393 1167.06 391.398 1218.29 408.737 1265.9C435.146 1338.04 469.558 1401.3 501.97 1443.13" stroke="#7E7E9B" strokeWidth="0.5" stroke-miterlimit="10"/>
<path d="M-829.562 201.806C-774.609 158.649 -713.922 127.353 -651.1 118.458C-613.887 113.022 -575.74 115.987 -539.727 128.835C-516.252 137.236 -493.845 149.755 -473.304 166.721C-409.415 219.102 -364.199 307.721 -314.448 373.609C-292.974 401.941 -274.034 428.625 -248.159 447.403C-225.751 463.711 -199.608 472.935 -172.132 477.712C-134.252 484.301 -92.7709 483.477 -55.2911 482.983C-34.6172 482.653 -14.7436 483.147 4.06296 484.959C43.0099 488.748 75.4213 495.501 108.099 509.832C155.716 530.752 207.734 569.955 251.483 629.583C256.018 635.678 260.286 641.937 264.554 648.032C310.17 714.579 334.445 768.772 341.915 822.964C350.051 881.44 343.782 948.975 352.051 1034.14C354.586 1059.67 358.32 1086.35 363.522 1113.69C372.992 1164.1 387.13 1215.82 405.137 1263.75C432.746 1336.4 469.693 1399.15 505.572 1439.35" stroke="#8584A3" strokeWidth="0.5" stroke-miterlimit="10"/>
<path d="M-822.494 187.804C-767.675 145.471 -707.121 115.657 -644.565 107.585C-607.619 102.644 -569.739 105.938 -534.127 118.786C-510.919 127.187 -488.644 139.541 -468.104 156.013C-404.348 207.406 -358.199 293.719 -309.915 360.595C-288.841 389.75 -270.435 417.918 -244.826 438.013C-222.551 455.474 -196.275 465.522 -168.666 470.793C-130.519 478.04 -88.6376 477.217 -50.7577 475.899C-29.817 475.075 -9.81006 474.746 9.39666 475.57C49.1439 477.217 82.8891 481.335 117.034 493.195C166.919 510.655 221.738 547.058 266.153 607.345C270.688 613.44 275.09 619.699 279.224 625.959C324.574 693.494 345.514 752.958 349.649 810.28C354.051 872.38 343.514 941.727 349.516 1028.7C351.383 1054.72 354.584 1082.07 359.519 1109.74C368.456 1160.97 382.594 1213.51 401.401 1261.61C430.077 1334.75 469.691 1397.01 508.905 1435.56" stroke="#8C8BAC" strokeWidth="0.5" stroke-miterlimit="10"/>
<path d="M-815.424 173.803C-760.738 132.458 -700.317 103.797 -638.162 96.714C-601.482 92.4313 -564.003 95.8905 -528.523 108.739C-505.449 116.975 -483.308 129.164 -462.901 145.471C-399.145 195.711 -352.195 279.883 -305.379 347.912C-284.571 378.056 -266.832 407.54 -241.356 428.789C-219.215 447.403 -192.806 458.109 -164.93 464.039C-126.65 471.946 -84.3681 471.122 -46.088 468.816C-25.014 467.498 -4.60688 467.004 14.7332 466.181C55.2807 464.698 90.3597 467.169 125.972 476.558C177.99 490.394 235.877 524.162 280.693 585.108C285.228 591.368 289.629 597.627 293.764 604.051C338.847 672.739 356.586 737.474 357.12 797.762C357.787 863.485 343.115 934.809 346.849 1023.26C347.916 1049.78 350.717 1077.62 355.386 1105.79C363.789 1157.84 378.06 1211.04 397.667 1259.47C427.544 1333.1 469.692 1394.87 512.241 1431.77" stroke="#9391B4" strokeWidth="0.5" stroke-miterlimit="10"/>
<path d="M-808.357 159.638C-753.938 119.117 -693.517 91.9381 -631.628 85.6787C-595.216 81.8901 -558.003 85.8434 -522.924 98.5269C-499.982 106.763 -477.975 118.787 -457.701 134.6C-393.945 183.852 -346.329 265.718 -300.846 334.735C-280.439 365.702 -263.233 396.67 -237.891 419.236C-215.883 438.838 -189.474 450.533 -161.331 456.793C-122.784 465.358 -80.1021 464.37 -41.5553 461.24C-20.2145 459.428 0.325948 457.616 20.0662 456.463C61.414 453.992 97.8268 452.51 134.906 459.593C189.192 469.805 249.88 500.937 295.229 562.543C299.897 568.802 304.166 575.226 308.3 581.65C353.116 651.327 367.521 721.333 364.587 784.915C361.519 854.262 342.712 927.397 344.18 1017.66C344.58 1044.84 346.981 1073.17 351.249 1101.67C359.118 1154.71 373.523 1208.41 393.797 1257.17C424.875 1331.13 469.423 1392.57 515.44 1427.82" stroke="#9A98BC" strokeWidth="0.5" stroke-miterlimit="10"/>
<path d="M-801.153 145.636C-746.867 106.103 -686.579 80.0772 -624.958 74.8062C-588.812 71.5118 -551.866 75.7945 -517.053 88.4779C-494.379 96.7139 -472.504 108.574 -452.231 124.057C-388.608 172.32 -340.058 251.88 -296.043 321.886C-276.036 353.842 -259.363 386.127 -234.288 409.846C-212.413 430.601 -185.871 443.12 -157.594 449.873C-118.781 459.098 -75.8324 458.109 -36.8854 453.991C-15.4112 451.685 5.52952 449.05 25.5365 446.908C67.6846 442.296 105.431 438.178 143.978 442.79C200.531 449.544 264.02 477.711 310.036 540.14C314.704 546.399 319.106 552.988 323.241 559.577C367.656 630.241 378.86 705.518 372.591 772.23C365.655 845.201 342.714 920.313 341.914 1012.23C341.647 1039.9 343.514 1068.73 347.516 1097.72C354.852 1151.58 369.39 1206.1 390.464 1255.02C422.609 1329.48 469.825 1390.42 519.176 1424.03" stroke="#A19EC5" strokeWidth="0.5" stroke-miterlimit="10"/>
<path d="M-794.083 131.47C-739.931 92.7604 -679.776 68.2172 -618.555 63.7697C-582.542 61.1342 -546.129 65.5817 -511.451 78.2651C-488.909 86.5011 -467.169 98.1962 -446.895 113.35C-383.273 160.625 -334.055 237.879 -291.374 309.038C-271.767 341.817 -255.628 375.584 -230.686 400.622C-208.945 422.53 -182.269 435.872 -153.859 442.955C-114.779 452.673 -71.4301 451.85 -32.2163 446.743C-10.4754 443.943 10.5986 440.484 31.0057 437.354C73.9541 430.766 112.901 423.847 153.048 425.989C211.736 429.118 278.292 454.65 324.709 517.738C329.377 524.162 333.778 530.751 337.913 537.339C382.062 609.157 389.931 689.54 380.195 759.382C369.524 835.812 342.448 912.901 339.38 1006.46C338.447 1034.79 339.78 1063.95 343.515 1093.43C350.317 1148.12 364.989 1203.3 386.73 1252.55C420.075 1327.5 469.826 1387.95 522.511 1419.91" stroke="#A8A5CD" strokeWidth="0.5" stroke-miterlimit="10"/>
<path d="M-787.015 117.469C-733.13 79.5837 -672.975 56.523 -612.021 52.8991C-576.275 50.7578 -540.129 55.5346 -505.85 68.2181C-483.442 76.4541 -461.968 87.9845 -441.694 102.645C-378.206 148.766 -328.055 223.878 -286.84 296.026C-267.634 329.793 -252.028 364.878 -227.219 391.069C-205.612 414.13 -178.936 428.131 -150.126 435.873C-110.779 446.25 -67.1634 445.262 -27.4161 439.332C-5.40841 436.037 15.799 431.755 36.4729 427.637C80.2216 418.907 120.502 409.188 162.117 409.023C223.072 408.365 292.429 431.425 339.379 495.172C344.181 501.596 348.449 508.185 352.584 515.103C396.466 587.909 401.001 673.564 387.929 746.534C373.524 826.588 342.313 905.654 336.845 1000.86C335.244 1029.69 336.044 1059.5 339.512 1089.32C345.781 1144.99 360.586 1200.67 383.128 1250.25C417.673 1325.69 469.958 1385.65 525.978 1415.96" stroke="#AFABD5" strokeWidth="0.5" stroke-miterlimit="10"/>
<path d="M-779.945 103.468C-726.193 66.5711 -666.172 44.6634 -605.484 42.0278C-570.005 40.3806 -534.259 45.6517 -500.114 58.1704C-477.973 66.4064 -456.499 77.772 -436.359 92.1027C-372.87 137.236 -322.052 210.042 -282.171 283.178C-263.231 317.769 -248.293 354.337 -223.751 381.845C-202.277 406.059 -175.467 420.883 -146.524 429.119C-106.91 440.156 -62.8945 439.167 -22.8805 432.249C-0.739397 428.461 20.8682 423.354 41.8088 418.248C86.3577 407.376 127.972 395.022 171.054 392.387C234.276 388.104 306.568 408.529 354.051 472.935C358.853 479.359 363.255 486.113 367.256 493.031C410.871 566.99 412.205 657.751 395.532 734.016C377.259 817.529 341.914 898.571 334.311 995.591C332.044 1024.91 332.444 1055.22 335.511 1085.53C341.247 1142.03 356.185 1198.53 379.394 1248.11C415.006 1324.04 469.959 1383.51 529.313 1412.17" stroke="#B6B2DE" strokeWidth="0.5" stroke-miterlimit="10"/>
<path d="M-772.875 89.3022C-719.39 53.2286 -659.369 32.8033 -599.081 30.9914C-563.869 29.8384 -528.39 35.4389 -494.645 47.9576C-472.637 56.1936 -451.296 67.3945 -431.289 81.3957C-367.934 125.541 -316.316 196.041 -277.769 270.329C-259.362 305.909 -244.824 343.794 -220.415 372.456C-199.075 397.658 -172.265 413.471 -143.055 422.036C-103.308 433.731 -58.8922 432.743 -18.4781 424.837C3.92977 420.554 25.6707 414.624 47.0115 408.694C92.3607 395.681 135.176 380.692 179.858 375.585C245.214 367.844 320.44 385.469 368.457 450.533C373.259 457.122 377.661 463.875 381.795 470.958C425.011 545.906 423.143 641.937 403.003 721.332C380.995 808.469 341.381 891.323 331.644 989.99C328.577 1019.97 328.577 1050.77 331.378 1081.57C336.58 1138.9 351.651 1196.05 375.66 1245.97C412.473 1322.4 469.96 1381.36 532.648 1408.21" stroke="#26205A" strokeWidth="0.5" stroke-miterlimit="10"/>
<path d="M-765.808 75.3011C-712.456 40.2158 -652.568 20.9435 -592.547 20.1199C-557.602 19.6258 -522.389 25.391 -488.911 37.9097C-467.037 46.1457 -445.963 57.0172 -425.956 70.6889C-362.6 113.846 -310.315 182.204 -273.102 257.317C-255.096 293.72 -241.091 333.088 -216.949 362.902C-195.742 389.257 -168.799 405.729 -139.455 414.953C-99.4414 427.307 -54.6258 426.154 -13.9449 417.424C8.59633 412.647 30.6041 406.059 52.3451 398.976C98.4945 383.986 142.643 366.196 188.793 358.455C256.416 347.089 334.444 362.078 382.994 427.802C387.796 434.39 392.331 441.309 396.332 448.392C439.28 524.492 434.079 625.465 410.604 708.155C384.861 798.751 341.113 883.746 328.975 984.061C325.241 1014.53 324.707 1045.83 327.241 1077.13C331.91 1135.44 347.115 1193.09 371.79 1243.33C409.803 1320.25 469.824 1378.73 535.848 1403.93" stroke="#1D1654" strokeWidth="0.5" stroke-miterlimit="10"/>
<path d="M-758.604 61.1344C-705.386 26.8726 -645.631 9.08289 -585.877 9.08289C-551.198 9.08289 -516.386 15.1775 -483.041 27.6962C-461.3 35.7675 -440.36 46.639 -420.486 59.9813C-357.264 102.15 -304.312 168.202 -268.299 244.468C-250.693 281.859 -237.222 322.38 -213.213 353.677C-192.139 381.185 -165.063 398.481 -135.453 408.199C-95.1721 421.212 -50.0897 420.059 -8.87524 410.505C13.9327 405.234 36.0738 397.822 58.0815 389.75C104.898 372.455 150.514 352.194 198.13 341.982C268.022 327.157 348.983 339.346 398.067 405.728C403.002 412.317 407.404 419.4 411.405 426.483C454.087 503.572 445.55 609.816 418.608 695.635C388.997 789.525 341.114 876.662 326.842 978.789C322.441 1009.76 321.507 1041.71 323.641 1073.34C327.776 1132.47 343.115 1190.78 368.59 1241.35C407.67 1318.77 470.359 1376.75 539.717 1400.31" stroke="#130B50" strokeWidth="0.5" stroke-miterlimit="10"/>
<path d="M-751.534 47.1331C-667.772 -5.41252 -567.337 -16.284 -477.438 17.6482C-387.54 51.5805 -309.38 130.152 -263.897 231.619C-246.691 269.999 -233.753 311.838 -209.878 344.288C-160.527 411.658 -76.6315 421.377 -4.47291 403.093C67.5523 384.809 134.776 343.464 206.934 325.015C278.96 306.567 362.856 316.121 412.473 383.162C470.227 461.404 459.289 585.438 426.078 682.787C392.733 780.301 340.715 869.25 324.042 973.023C309.504 1063.62 324.309 1160.97 364.59 1238.88C404.87 1316.79 470.093 1374.28 542.785 1396.19" stroke="#09004C" strokeWidth="0.5" stroke-miterlimit="10"/>
<path d="M-729.261 40.8739C-646.032 -10.1893 -546.797 -19.743 -458.232 14.8481C-369.668 49.4393 -292.441 127.352 -248.292 228.325C-231.086 267.693 -219.082 311.344 -196.007 344.947C-149.191 413.141 -68.0959 424.671 1.79519 409.682C71.5529 394.692 137.443 357.301 208.801 341.158C281.093 324.686 365.389 332.428 416.34 397.657C475.294 473.593 467.691 596.803 435.68 694.976C403.669 793.149 350.317 882.592 331.777 983.73C315.772 1071.2 329.243 1164.76 366.589 1240.2C403.936 1315.64 465.424 1372.47 535.449 1395.2" stroke="#08014F" strokeWidth="0.5" stroke-miterlimit="10"/>
<path d="M-706.852 34.7805C-624.29 -14.6355 -526.122 -23.0362 -438.758 12.0491C-351.394 47.1344 -275.234 124.717 -232.553 225.197C-215.347 265.718 -204.41 310.851 -182.135 345.607C-137.986 414.46 -59.5588 427.967 7.93144 416.272C75.5551 404.741 140.111 371.138 210.669 357.137C283.228 342.807 368.057 348.407 420.342 411.989C480.63 485.454 476.095 608.17 445.551 706.837C415.007 805.505 360.321 895.606 339.781 993.944C322.175 1078.12 334.446 1168.22 368.858 1241.19C403.403 1314.16 461.023 1370.33 528.38 1393.88" stroke="#030152" strokeWidth="0.5" stroke-miterlimit="10"/>
<path d="M-684.579 28.521C-602.55 -19.2477 -505.583 -26.3307 -419.42 9.08409C-333.256 44.4989 -258.296 121.917 -216.949 221.902C-199.743 263.576 -189.873 310.192 -168.265 346.266C-126.65 415.777 -51.1573 431.096 14.1989 422.86C79.555 414.624 142.777 384.81 212.668 373.115C285.36 360.926 370.857 364.385 424.342 426.319C485.964 497.478 484.497 619.536 455.42 718.697C426.343 817.859 370.19 908.454 347.649 1004.32C328.709 1085.03 339.379 1171.68 370.99 1242.34C402.601 1312.84 456.487 1368.19 521.176 1392.73" stroke="#030456" strokeWidth="0.5" stroke-miterlimit="10"/>
<path d="M-662.17 22.2616C-580.808 -24.0247 -484.774 -29.7898 -399.945 6.2838C-315.115 42.3574 -241.223 119.446 -201.209 218.772C-184.003 261.6 -175.199 309.533 -154.259 347.089C-115.178 417.095 -42.4864 434.555 20.6024 429.779C83.6911 425.002 145.579 398.976 214.804 389.422C287.896 379.21 373.659 380.857 428.612 440.98C491.567 509.832 493.168 631.066 465.558 730.886C437.815 830.707 380.462 921.467 355.92 1014.86C335.513 1092.28 344.849 1175.47 373.526 1243.66C402.203 1311.85 452.353 1366.38 514.375 1391.91" stroke="#03075B" strokeWidth="0.5" stroke-miterlimit="10"/>
<path d="M-639.897 16.1659C-559.068 -28.4731 -464.235 -33.0853 -380.739 3.48253C-297.243 40.0503 -224.418 116.81 -185.738 215.477C-168.532 259.457 -160.662 308.873 -140.522 347.582C-103.976 418.082 -34.0848 437.684 26.7365 436.202C87.5578 434.719 148.246 412.811 216.67 405.234C290.029 397.163 376.192 396.833 432.479 455.144C496.634 521.691 501.569 642.266 475.16 742.58C448.884 842.895 390.197 934.15 363.521 1025.08C341.78 1099.2 349.649 1178.76 375.392 1244.48C401.134 1310.21 447.55 1364.07 506.771 1390.42" stroke="#040A5F" strokeWidth="0.5" stroke-miterlimit="10"/>
<path d="M-617.488 9.90648C-537.326 -33.0854 -443.56 -36.5445 -361.265 0.682152C-278.969 37.9088 -207.478 114.339 -169.998 212.347C-152.792 257.48 -145.989 308.214 -126.649 348.406C-92.5039 419.235 -25.6805 440.978 33.0067 442.955C91.5605 444.932 150.915 426.812 218.672 421.377C292.297 415.611 378.861 412.976 436.615 469.64C502.104 533.88 510.107 653.796 485.165 754.77C460.223 855.743 400.469 947.162 371.658 1035.62C348.717 1106.28 354.853 1182.55 377.794 1245.8C400.735 1309.05 443.284 1362.09 499.837 1389.44" stroke="#040E66" strokeWidth="0.5" stroke-miterlimit="10"/>
<path d="M-595.213 3.64781C-515.585 -37.6969 -423.02 -40.0029 -341.925 -2.28209C-260.83 35.4388 -190.672 111.704 -154.392 209.053C-137.186 255.34 -131.318 307.391 -112.778 348.901C-81.0334 419.895 -17.1444 444.109 39.142 449.38C95.5617 454.651 153.582 440.65 220.539 437.355C294.431 433.731 381.528 429.119 440.482 483.971C507.172 545.906 518.376 664.998 494.901 766.63C471.426 868.262 410.472 959.682 379.528 1045.99C355.386 1113.2 359.921 1186.01 379.928 1246.95C399.935 1307.73 438.615 1360.12 492.634 1388.28" stroke="#05116A" strokeWidth="0.5" stroke-miterlimit="10"/>
<path d="M-572.805 -2.44635C-493.844 -42.3086 -402.345 -43.2969 -322.584 -5.08188C-242.823 33.1331 -173.865 109.234 -138.786 205.924C-121.58 253.364 -116.779 306.568 -98.9057 349.725C-69.4287 420.884 -8.60747 447.568 45.4114 456.134C99.5637 464.864 156.384 450.204 222.54 453.498C296.699 457.122 384.197 445.427 444.618 498.467C512.508 558.095 526.913 676.529 504.772 778.655C482.631 880.782 420.743 972.53 387.398 1056.37C362.056 1120.28 364.99 1189.63 382.063 1247.94C399.135 1306.42 434.081 1357.81 485.432 1386.97" stroke="#05136F" strokeWidth="0.5" stroke-miterlimit="10"/>
<path d="M-550.532 -8.7065C-472.105 -46.9215 -381.673 -46.7568 -303.246 -7.8829C-224.685 30.8263 -157.061 106.762 -123.183 202.629C-105.977 251.221 -102.109 305.744 -85.036 350.218C-57.8265 421.542 -0.206317 450.532 51.6785 462.722C103.563 474.746 159.316 463.875 224.539 469.475C298.965 475.735 386.863 461.569 448.617 512.797C517.842 570.119 535.314 687.894 514.641 790.514C493.967 893.135 431.011 985.048 395.399 1066.58C368.99 1127.04 370.057 1192.92 384.328 1248.93C398.6 1304.93 429.677 1355.67 478.361 1385.65" stroke="#061774" strokeWidth="0.5" stroke-miterlimit="10"/>
<path d="M-528.124 -14.9653C-450.23 -51.5331 -360.999 -50.2153 -283.772 -10.8473C-206.545 28.5208 -140.255 104.127 -107.443 199.335C-90.3706 249.081 -87.3028 304.756 -71.1639 350.878C-46.2218 422.201 8.3306 453.827 57.948 469.311C107.565 484.795 161.984 482.818 226.54 485.454C301.5 488.583 389.531 477.547 452.753 527.128C523.177 582.144 543.985 699.26 524.645 802.375C505.305 905.489 441.549 997.568 403.402 1076.96C376.059 1133.96 375.259 1196.55 386.596 1250.08C397.934 1303.62 425.277 1353.69 471.293 1384.49" stroke="#9DADFA" strokeWidth="0.5" stroke-miterlimit="10"/>
<path d="M-505.849 -21.0604C-428.622 -55.981 -340.458 -53.3454 -264.432 -13.648C-188.405 26.0495 -123.449 101.656 -91.8379 196.205C-74.7652 247.104 -72.4978 303.932 -57.2925 351.701C-34.4845 423.189 16.7334 457.286 64.2167 476.064C111.567 494.842 164.652 496.984 228.407 501.596C303.634 507.031 392.065 493.854 456.621 541.458C528.246 594.333 552.254 710.46 534.381 814.234C516.508 918.007 451.819 1010.09 411.271 1087.17C382.995 1140.87 380.327 1199.84 388.73 1250.91C397.133 1301.97 420.741 1351.22 464.09 1383.01" stroke="#98AAF9" strokeWidth="0.5" stroke-miterlimit="10"/>
<path d="M-483.44 -27.32C-406.747 -60.7582 -319.783 -56.8049 -245.09 -16.4485C-170.397 23.9078 -106.775 99.3495 -76.2311 193.075C-59.2919 245.127 -57.8247 303.108 -43.4197 352.359C-22.6124 423.683 25.271 460.416 70.3535 482.653C115.436 504.89 167.321 511.149 230.276 517.738C305.903 525.645 394.6 510.161 460.49 555.953C533.316 606.522 560.525 721.991 543.986 826.423C527.447 930.855 462.224 1022.93 418.875 1097.88C389.932 1148.12 384.997 1203.8 390.599 1252.39C396.201 1300.98 415.941 1349.57 456.622 1382.19" stroke="#93A7F9" strokeWidth="0.5" stroke-miterlimit="10"/>
<path d="M-461.167 -33.4144C-385.141 -65.2054 -299.244 -60.099 -225.751 -19.2485C-152.259 21.602 -90.1039 96.879 -60.7604 189.946C-43.8211 243.315 -43.1542 302.285 -29.6828 353.183C-10.8762 424.507 33.6727 463.875 76.4877 489.406C119.436 514.938 169.987 525.48 232.142 533.881C308.035 544.093 397 526.468 464.49 570.448C538.516 618.711 568.927 733.521 553.855 838.448C538.783 943.374 472.893 1035.62 426.877 1108.26C397.133 1155.2 390.197 1207.26 392.865 1253.54C395.533 1299.83 411.538 1347.6 449.551 1381.03" stroke="#8EA3F9" strokeWidth="0.5" stroke-miterlimit="10"/>
<path d="M-438.759 -39.6741C-363.266 -69.8178 -278.436 -63.5584 -206.277 -22.2138C-134.119 19.1309 -73.2975 94.4079 -45.021 186.486C-28.2151 241.009 -28.0817 301.131 -15.8107 353.512C0.995149 424.836 42.0761 466.839 82.757 495.83C123.438 524.821 172.789 539.481 234.143 549.694C310.437 562.377 399.668 542.446 468.492 584.614C543.718 630.736 577.463 744.557 563.725 850.142C549.987 955.728 483.697 1048.14 434.88 1118.47C404.603 1162.12 395.4 1210.71 395.133 1254.36C394.866 1298.18 407.137 1345.13 442.483 1379.72" stroke="#88A0F8" strokeWidth="0.5" stroke-miterlimit="10"/>
<path d="M-416.485 -45.9329C-341.659 -74.5941 -257.896 -67.017 -186.938 -25.0135C-115.98 16.9901 -56.7591 91.9376 -29.4162 183.357C-12.7437 239.032 -13.2772 300.144 -1.93991 354.336C12.9986 425.495 50.6118 470.134 89.0253 502.584C127.439 535.034 175.589 553.812 236.143 565.837C312.837 580.991 402.335 558.918 472.626 599.11C549.053 642.926 585.999 756.088 573.595 862.168C561.324 968.247 494.634 1060.98 442.749 1128.85C411.805 1169.37 400.468 1214.17 397.266 1255.52C394.065 1296.86 402.602 1343.15 435.28 1378.56" stroke="#839EF8" strokeWidth="0.5" stroke-miterlimit="10"/>
<path d="M-394.076 -52.0269C-319.784 -79.041 -237.222 -70.3108 -167.597 -27.8131C-97.9728 14.6846 -40.0859 89.6321 -13.8101 180.228C2.72904 237.221 1.66199 299.32 11.9322 355.161C25.0035 426.319 59.1488 473.594 95.2947 509.338C131.441 545.083 178.39 568.308 238.145 581.98C315.105 599.769 405.003 575.226 476.628 613.606C554.255 655.28 594.403 767.619 583.466 874.193C572.528 980.931 505.572 1074 450.752 1139.39C419.408 1176.78 405.537 1217.8 399.534 1256.84C393.532 1295.71 398.201 1341.17 428.078 1377.58" stroke="#0CAE5C" strokeWidth="0.5" stroke-miterlimit="10"/>
<path d="M-371.802 -58.2877C-298.176 -83.6545 -216.681 -73.7713 -148.257 -30.7794C-79.8332 12.2124 -23.5469 86.9953 1.79535 176.932C18.2011 235.078 16.6005 298.331 25.8037 355.653C37.0077 426.812 67.5516 476.722 101.43 515.761C135.309 554.964 180.925 582.308 240.012 597.792C317.239 618.052 407.537 591.203 480.63 627.771C559.457 667.139 602.806 778.654 593.336 886.051C583.866 993.449 516.642 1087.01 458.622 1149.6C426.744 1183.86 410.605 1221.26 401.668 1257.66C392.732 1294.06 393.666 1338.87 420.875 1376.09" stroke="#7898F7" strokeWidth="0.5" stroke-miterlimit="10"/>
<path d="M-349.529 -64.5466C-276.437 -88.2663 -196.142 -77.23 -128.919 -33.5793C-61.6954 10.0715 -6.87624 84.6895 17.3989 173.638C33.6713 233.102 31.6706 297.178 39.54 356.313C49.01 427.307 75.9528 479.853 107.564 522.35C139.175 564.848 183.59 596.639 241.878 613.934C319.505 636.831 410.07 607.51 484.496 642.266C564.524 679.493 611.207 790.185 603.07 898.076C594.934 1005.97 527.711 1100.35 466.489 1159.98C434.345 1191.28 415.672 1224.72 403.801 1258.81C392.063 1292.91 389.129 1336.89 413.671 1374.94" stroke="#7396F6" strokeWidth="0.5" stroke-miterlimit="10"/>
<path d="M-327.12 -70.6418C-254.561 -92.879 -175.467 -80.3603 -109.444 -36.3801C-43.554 7.60015 9.79805 82.383 33.1395 170.508C49.2785 231.125 46.8777 296.354 53.5467 356.971C61.2827 427.965 84.4908 483.146 113.968 529.103C143.445 575.06 186.527 611.134 244.013 630.076C321.907 655.608 412.739 623.982 488.766 656.761C569.994 691.846 619.878 801.714 613.076 910.1C606.407 1018.49 539.183 1113.86 474.627 1170.52C442.083 1199.02 420.875 1228.5 406.203 1260.13C391.532 1291.76 384.863 1334.91 406.737 1373.95" stroke="#86A4F7" strokeWidth="0.5" stroke-miterlimit="10"/>
<path d="M-304.847 -76.8995C-232.821 -97.4895 -154.794 -83.8177 -90.1049 -39.3434C-25.4156 5.2957 26.3358 79.9138 48.7437 167.215C64.6159 229.15 62.0817 295.367 67.4169 357.631C73.5523 428.626 93.0259 486.442 120.235 535.694C147.445 584.945 189.193 625.466 245.879 646.056C324.04 674.388 415.272 640.126 492.632 671.093C575.061 704.037 628.146 813.082 622.811 921.962C617.476 1030.84 550.386 1127.53 482.362 1180.74C449.417 1206.43 425.809 1231.8 408.203 1260.95C390.597 1290.11 380.193 1332.61 399.4 1372.47" stroke="#81A0F7" strokeWidth="0.5" stroke-miterlimit="10"/>
<path d="M-282.438 -83.1602C-211.08 -102.103 -134.12 -87.2781 -70.764 -42.1449C-7.40852 2.98832 42.8757 77.4417 64.3499 164.084C80.0888 227.172 77.1544 294.542 81.2892 358.289C85.8241 429.283 101.563 489.571 126.505 542.281C151.447 594.991 191.861 639.96 247.881 662.032C326.308 693 417.94 656.432 496.768 685.423C580.397 716.225 636.684 824.281 632.816 933.82C628.947 1043.36 561.991 1141.53 490.499 1191.11C457.154 1214.17 431.145 1235.42 410.604 1262.11C390.197 1288.79 375.926 1330.63 392.465 1371.32" stroke="#7B9CF7" strokeWidth="0.5" stroke-miterlimit="10"/>
<path d="M-260.164 -89.2549C-189.473 -106.55 -113.579 -90.5727 -51.4242 -44.9453C10.7309 0.682116 59.2812 75.1355 79.9551 160.79C95.4272 225.195 92.4928 293.554 95.027 358.948C97.9614 429.942 109.966 492.865 132.64 548.87C155.315 604.875 194.528 654.29 249.748 678.01C328.309 711.778 420.474 672.574 500.636 699.753C585.465 728.414 644.953 835.647 642.419 945.68C639.884 1055.88 573.061 1155.7 498.101 1201.32C464.356 1221.91 435.813 1238.72 412.472 1263.09C389.13 1287.47 370.99 1328.32 384.995 1370" stroke="#769AF6" strokeWidth="0.5" stroke-miterlimit="10"/>
<path d="M-237.755 -95.5134C-167.597 -111.327 -92.9045 -94.031 -32.0832 -47.9094C28.738 -1.78784 75.8212 72.6655 95.5615 157.496C110.767 223.055 107.699 292.567 108.899 359.607C110.233 430.766 118.369 496.16 138.777 555.459C159.184 614.923 197.064 668.787 251.616 694.154C330.444 730.721 422.876 689.047 504.505 714.249C590.535 740.769 653.357 847.178 652.156 957.87C650.956 1068.56 584.266 1170.52 505.972 1212.03C471.827 1230.15 440.882 1242.67 414.606 1264.41C388.331 1286.32 366.456 1326.51 377.794 1369.01" stroke="#7197F6" strokeWidth="0.5" stroke-miterlimit="10"/>
<path d="M-215.482 -101.774C-145.991 -115.94 -72.3654 -97.4909 -12.7446 -50.7105C46.8763 -4.09475 92.3589 70.1939 111.165 154.366C126.104 221.242 123.036 291.742 122.769 360.266C122.503 431.425 126.904 499.289 145.044 562.212C163.184 624.97 199.73 683.281 253.615 710.295C332.576 749.828 425.542 705.518 508.638 728.744C595.868 753.122 661.892 858.543 662.158 969.894C662.425 1081.24 595.868 1185.18 514.106 1222.24C479.561 1237.89 446.216 1245.96 417.006 1265.4C387.796 1284.84 362.187 1324.21 370.856 1367.86" stroke="#6C93F5" strokeWidth="0.5" stroke-miterlimit="10"/>
<path d="M-193.074 -107.867C-124.116 -120.386 -51.5576 -100.784 6.72943 -53.5094C65.0165 -6.23476 108.899 67.8892 126.905 151.237C141.577 219.267 138.509 291.085 136.775 361.091C135.041 432.414 135.441 502.75 151.447 568.967C167.452 635.184 202.531 697.943 255.75 726.439C334.844 768.772 428.344 721.992 512.773 743.241C601.204 765.642 670.428 870.075 672.162 981.92C673.896 1093.76 607.206 1200.5 522.11 1232.95C487.031 1246.29 451.285 1249.92 419.274 1266.88C387.263 1283.85 357.786 1322.56 363.788 1367.03" stroke="#6691F5" strokeWidth="0.5" stroke-miterlimit="10"/>
<path d="M-170.8 -114.127C-102.51 -125.163 -31.0182 -104.079 26.0684 -56.4751C83.1551 -8.7063 125.303 65.4176 142.509 147.778C156.914 217.125 153.847 289.931 150.512 361.419C147.178 432.908 143.843 505.714 157.581 575.226C171.319 644.737 204.931 712.108 257.616 742.087C336.844 787.385 430.877 737.804 516.774 757.241C606.405 777.337 678.83 881.11 681.898 993.449C684.966 1105.79 618.276 1215.33 529.978 1242.84C494.232 1254.04 456.352 1252.88 421.407 1267.38C386.461 1281.87 353.25 1319.92 356.584 1365.22" stroke="#618DF4" strokeWidth="0.5" stroke-miterlimit="10"/>
</g>
<g opacity="0.2">
<path d="M2300 842.339C2242.25 899.002 2180.49 950.23 2112.87 972.797C2045.38 995.199 1970.95 985.645 1916.67 928.981C1851.84 861.282 1821.43 735.106 1747.67 688.49C1699.92 658.347 1644.17 668.23 1591.22 673.336C1538.13 678.443 1480.25 675.807 1441.03 627.215C1370.74 540.078 1395.82 351.309 1319.66 274.55C1269.37 223.981 1199.48 247.041 1137.06 241.111C1058.1 233.534 983.94 173.082 940.591 80.8389C897.243 -11.4043 885.639 -133.626 909.647 -243" stroke="#D9DFE3" strokeWidth="0.5" stroke-miterlimit="10"/>
<path d="M2292.8 856.341C2235.31 912.181 2173.56 962.091 2106.33 983.504C2065.78 996.517 2022.7 998 1983.09 984.822C1957.21 976.257 1932.8 961.267 1911.46 939.359C1846.77 872.648 1815.16 749.273 1743.14 701.01C1717.53 683.879 1689.92 677.784 1661.24 676.631C1636.97 675.643 1612.03 678.114 1587.48 679.926C1553.07 682.561 1516.39 682.726 1484.11 670.207C1466.24 663.289 1449.7 652.582 1435.56 636.44C1407.69 604.813 1393.42 558.857 1381.95 509.77C1365.27 439.105 1354.07 361.687 1317.52 311.447C1313.65 306.012 1309.39 301.07 1304.85 296.293C1254.97 244.571 1188.01 262.69 1129.19 253.466C1071.57 244.242 1017.42 204.379 976.337 142.939C964.466 125.149 953.795 105.547 944.325 84.4633C927.386 46.4131 914.982 3.75067 907.379 -40.559C895.908 -106.447 894.975 -175.794 906.045 -239.541" stroke="#D1D7DC" strokeWidth="0.5" stroke-miterlimit="10"/>
<path d="M2285.73 870.506C2228.38 925.358 2166.75 973.95 2099.8 994.54C2059.38 1007.06 2016.7 1008.21 1977.35 995.034C1951.61 986.469 1927.34 971.809 1906 950.066C1841.44 884.507 1808.9 763.767 1738.47 714.022C1713.13 696.232 1686.19 688.491 1657.78 686.02C1633.63 683.878 1608.56 685.526 1583.88 687.008C1549.21 688.985 1512.26 689.149 1479.58 677.619C1461.57 671.195 1444.9 661.312 1430.23 645.993C1401.69 616.343 1385.95 573.187 1373.01 526.571C1354.2 459.53 1340.07 384.747 1302.99 333.849C1298.98 328.413 1294.85 323.307 1290.31 318.53C1240.7 265.819 1176.94 278.997 1121.72 266.149C1067.7 253.63 1017.69 211.627 979.139 148.539C967.935 130.255 957.665 110.159 948.595 88.5808C932.189 49.7069 919.651 6.38558 911.249 -38.2535C898.711 -104.636 895.109 -173.488 902.846 -235.588" stroke="#C8CDD5" strokeWidth="0.5" stroke-miterlimit="10"/>
<path d="M2278.66 884.508C2221.57 938.536 2159.95 985.811 2093.26 1005.41C2053.11 1017.27 2010.83 1018.26 1971.75 1005.08C1946.28 996.517 1922.13 982.022 1900.79 960.608C1836.24 896.038 1802.63 777.934 1733.8 726.871C1708.86 708.258 1682.45 699.033 1654.17 695.409C1630.17 692.115 1605.09 693.103 1580.15 693.927C1545.2 695.245 1507.86 695.409 1474.91 684.867C1456.64 678.937 1439.7 669.713 1424.76 655.547C1395.42 627.874 1378.48 587.683 1363.94 543.373C1342.86 479.791 1325.79 407.973 1288.31 356.251C1284.31 350.816 1280.18 345.545 1275.64 340.603C1226.29 286.74 1165.6 294.976 1114.12 278.833C1063.57 263.02 1017.95 218.875 981.672 153.975C971.135 135.197 961.398 114.443 952.595 92.5348C936.723 52.6726 924.052 8.85709 914.982 -36.1114C901.244 -102.988 895.108 -171.346 899.51 -231.634" stroke="#31363F" strokeWidth="0.5" stroke-miterlimit="10"/>
<path d="M2271.59 898.509C2214.64 951.549 2153.15 997.506 2086.86 1016.28C2046.98 1027.65 2004.96 1028.31 1966.15 1015.13C1940.81 1006.57 1916.8 992.235 1895.59 971.315C1831.03 907.734 1796.49 792.265 1729.27 739.719C1704.59 720.447 1678.85 709.74 1650.84 704.634C1626.96 700.351 1601.75 700.351 1576.55 700.681C1541.33 701.34 1503.72 701.669 1470.24 691.951C1451.83 686.68 1434.63 677.949 1419.29 664.937C1389.15 639.24 1371.01 601.684 1354.87 560.175C1331.66 500.217 1311.65 431.034 1273.51 378.653C1269.5 373.053 1265.24 367.782 1260.83 362.84C1211.88 307.989 1154.13 311.283 1106.25 291.681C1059.3 272.574 1017.95 226.288 984.071 159.576C974.201 140.139 964.998 119.055 956.462 96.653C941.123 55.9672 928.318 11.3281 918.448 -33.8051C903.51 -101.176 894.973 -169.04 895.907 -227.68" stroke="#383C47" strokeWidth="0.5" stroke-miterlimit="10"/>
<path d="M2264.52 912.674C2207.7 964.89 2146.35 1009.53 2080.32 1027.32C2040.71 1038.19 1999.09 1038.36 1960.41 1025.34C1935.21 1016.78 1911.33 1002.61 1890.26 982.021C1825.83 919.428 1790.09 806.594 1724.6 752.731C1700.19 732.635 1675.11 720.446 1647.24 714.187C1623.5 708.751 1598.15 707.927 1572.81 707.927C1537.47 707.927 1499.32 708.257 1465.57 699.527C1446.9 694.75 1429.56 686.843 1413.96 674.819C1383.01 651.099 1363.54 616.343 1345.93 577.304C1320.59 520.806 1297.52 454.423 1258.97 401.384C1254.83 395.783 1250.7 390.347 1246.3 385.241C1197.61 329.401 1142.93 327.589 1098.78 304.693C1055.3 282.126 1018.35 233.864 986.74 165.505C977.537 145.574 968.868 123.831 960.598 101.099C945.793 59.59 932.855 14.292 922.318 -31.0059C906.312 -98.7058 895.108 -166.241 892.707 -223.234" stroke="#3F4350" strokeWidth="0.5" stroke-miterlimit="10"/>
<path d="M2257.45 926.675C2200.9 978.068 2139.54 1021.22 2073.79 1038.19C2034.44 1048.57 1993.09 1048.4 1954.81 1035.39C1929.87 1026.82 1906.13 1012.82 1885.05 992.563C1820.63 930.958 1783.95 820.76 1720.06 765.579C1695.92 744.66 1671.51 730.988 1643.77 723.576C1620.16 717.152 1594.82 715.34 1569.21 714.846C1533.6 714.187 1495.18 714.516 1461.04 706.61C1442.23 702.327 1424.63 695.079 1408.62 684.208C1377.01 662.465 1356.07 630.509 1337 593.941C1309.39 541.066 1283.51 477.32 1244.43 423.621C1240.3 418.02 1236.03 412.585 1231.63 407.314C1183.21 350.321 1131.59 343.567 1091.04 317.212C1051.16 291.351 1018.35 240.782 989.274 170.776C980.738 150.351 972.468 128.113 964.599 104.888C950.327 62.3902 937.256 16.5981 925.919 -29.0293C908.713 -97.2233 894.975 -164.264 889.239 -219.61" stroke="#464958" strokeWidth="0.5" stroke-miterlimit="10"/>
<path d="M2250.25 940.842C2193.83 991.246 2132.61 1033.09 2067.25 1049.23C2028.17 1058.95 1987.22 1058.62 1949.08 1045.6C1924.27 1037.04 1900.66 1023.2 1879.72 1003.44C1815.43 942.983 1777.68 835.092 1715.53 778.593C1691.65 756.85 1667.91 741.86 1640.44 732.966C1616.96 725.388 1591.48 722.918 1565.74 721.929C1529.86 720.612 1491.05 721.106 1456.64 714.023C1437.56 710.234 1419.69 703.81 1403.42 693.762C1371.01 673.996 1348.87 645.005 1328.19 610.743C1298.45 561.327 1269.64 500.381 1229.89 446.024C1225.76 440.258 1221.49 434.823 1217.09 429.552C1168.94 371.57 1120.39 359.71 1083.57 330.061C1047.16 300.741 1018.75 248.195 991.942 176.377C984.072 155.293 976.336 132.726 968.734 108.842C954.995 65.5207 941.924 18.905 929.787 -26.8871C911.514 -95.5753 895.108 -162.287 886.038 -215.821" stroke="#4D5060" strokeWidth="0.5" stroke-miterlimit="10"/>
<path d="M2243.18 954.842C2186.89 1004.42 2125.81 1044.94 2060.72 1060.1C2021.77 1069.32 1981.22 1068.66 1943.48 1055.65C1918.8 1047.25 1895.46 1033.41 1874.38 1013.98C1810.1 954.513 1771.42 849.092 1710.86 791.44C1687.25 769.038 1664.04 752.401 1636.83 742.354C1613.49 733.788 1587.88 730.329 1561.88 728.847C1525.73 726.87 1486.65 727.364 1451.7 721.269C1432.5 717.975 1414.36 712.21 1397.68 703.315C1364.47 685.525 1341 659.335 1318.86 627.544C1286.85 581.752 1255.1 523.441 1214.95 468.425C1210.82 462.659 1206.55 457.059 1202.15 451.623C1154.4 392.489 1108.65 375.522 1075.71 342.743C1042.63 309.964 1018.75 255.442 994.21 181.977C987.008 160.398 979.805 137.173 972.469 112.959C959.265 68.8141 946.06 21.5395 933.122 -24.582C913.649 -93.7643 894.709 -159.982 882.304 -211.868" stroke="#545669" strokeWidth="0.5" stroke-miterlimit="10"/>
<path d="M2236.11 968.845C2180.09 1017.44 2118.87 1056.64 2054.18 1070.97C2015.5 1079.7 1975.22 1078.71 1937.74 1065.7C1913.33 1057.3 1889.99 1043.79 1869.05 1024.52C1804.76 966.044 1765.15 863.259 1706.19 804.125C1682.85 780.899 1660.31 762.78 1633.23 751.415C1610.02 741.696 1584.42 737.413 1558.14 735.437C1521.73 732.801 1482.38 733.295 1447.03 728.189C1427.56 725.389 1409.15 720.447 1392.35 712.541C1358.34 696.728 1333.53 673.337 1309.92 644.017C1275.77 601.684 1241.1 546.174 1200.41 490.498C1196.15 484.733 1191.88 478.968 1187.61 473.532C1140.13 413.409 1097.45 391.172 1068.1 355.263C1038.49 318.86 1019.02 262.361 996.877 187.249C990.341 165.177 983.539 141.457 976.603 116.749C963.932 71.7804 950.594 23.8469 936.989 -22.6041C916.315 -92.2806 894.841 -158.004 879.102 -208.243" stroke="#5B5D71" strokeWidth="0.5" stroke-miterlimit="10"/>
<path d="M2229.04 983.01C2173.16 1030.78 2112.07 1068.66 2047.78 1082.01C2009.37 1090.08 1969.49 1088.76 1932.14 1075.91C1907.86 1067.51 1884.66 1054.17 1863.85 1035.39C1799.69 977.904 1759.15 877.59 1701.66 817.302C1678.72 793.253 1656.71 773.652 1629.9 761.133C1606.83 750.261 1581.08 745.32 1554.67 742.849C1517.99 739.555 1478.25 740.049 1442.63 735.931C1423.03 733.625 1404.35 729.507 1387.15 722.588C1352.34 708.752 1326.33 688.162 1301.12 661.313C1264.71 622.603 1227.09 569.728 1185.88 513.559C1181.61 507.629 1177.34 501.864 1172.94 496.263C1125.72 434.988 1085.98 407.644 1060.5 368.441C1034.36 328.579 1019.29 270.103 999.413 193.179C993.544 170.447 987.275 146.234 980.606 121.196C968.469 75.2394 954.997 26.6471 940.592 -19.9686C918.851 -90.1392 894.709 -155.368 875.636 -203.961" stroke="#626379" strokeWidth="0.5" stroke-miterlimit="10"/>
<path d="M2221.97 997.011C2166.22 1043.79 2105.26 1080.36 2041.24 1092.88C2003.1 1100.46 1963.48 1098.81 1926.54 1085.96C1902.39 1077.56 1879.45 1064.38 1858.65 1045.93C1794.49 989.434 1753.01 891.426 1697.12 830.15C1674.45 805.277 1653.11 784.193 1626.43 770.357C1603.49 758.497 1577.61 752.567 1551.07 749.602C1514.26 745.649 1474.11 746.308 1438.1 743.013C1418.22 741.201 1399.42 737.742 1381.81 731.977C1346.2 720.117 1318.86 702.328 1292.18 677.949C1253.5 642.699 1213.09 592.789 1171.34 535.796C1167.07 529.866 1162.67 524.101 1158.4 518.335C1111.45 456.071 1074.77 423.292 1052.9 381.124C1030.36 337.473 1019.55 277.186 1002.08 198.779C996.877 175.553 991.142 150.845 984.739 125.314C973.135 78.5334 959.531 29.2821 944.459 -17.663C921.517 -88.3278 894.841 -153.063 872.434 -200.008" stroke="#696A82" strokeWidth="0.5" stroke-miterlimit="10"/>
<path d="M2214.9 1011.18C2159.42 1057.13 2098.46 1092.38 2034.71 1103.91C1996.83 1111 1957.61 1109.02 1920.8 1096.17C1896.79 1087.77 1873.98 1074.76 1853.31 1056.64C1789.29 1001.29 1746.74 905.592 1692.45 842.998C1670.05 817.302 1649.37 794.735 1622.83 779.746C1600.02 766.733 1574.15 759.979 1547.2 756.685C1510.12 752.073 1469.58 752.732 1433.16 750.426C1413.02 749.108 1393.95 746.472 1376.08 741.696C1339.53 731.812 1310.99 716.823 1282.84 694.915C1241.9 663.289 1198.55 616.014 1156.4 558.362C1152 552.432 1147.73 546.503 1143.46 540.573C1096.91 477.32 1063.3 439.105 1045.03 393.972C1025.95 346.697 1019.55 284.598 1004.35 204.379C999.811 180.495 994.476 155.293 988.474 129.432C977.403 81.8278 963.665 31.9178 947.793 -15.3568C923.651 -86.5158 894.441 -150.757 868.699 -196.055" stroke="#70708A" strokeWidth="0.5" stroke-miterlimit="10"/>
<path d="M2207.7 1025.18C2152.35 1070.15 2091.53 1104.08 2028.17 1114.79C1990.56 1121.21 1951.61 1119.07 1915.2 1106.22C1891.46 1097.82 1868.78 1084.97 1848.11 1067.35C1784.09 1012.99 1740.74 919.758 1687.92 856.011C1665.78 829.327 1645.77 805.607 1619.5 789.135C1596.82 774.969 1570.81 767.392 1543.74 763.603C1506.39 758.332 1465.58 758.991 1428.76 757.673C1408.49 756.85 1389.15 754.873 1371.01 751.085C1333.66 743.343 1303.79 730.989 1274.18 711.552C1231.09 683.385 1184.81 638.91 1142 580.6C1137.59 574.505 1133.33 568.575 1129.06 562.645C1082.78 498.24 1052.23 454.754 1037.69 406.655C1022.22 355.592 1020.09 291.681 1007.15 209.815C1003.28 185.437 998.479 159.74 992.744 133.385C982.207 84.7928 968.336 34.2238 951.796 -13.0508C926.588 -84.7039 894.71 -148.45 865.633 -191.936" stroke="#777792" strokeWidth="0.5" stroke-miterlimit="10"/>
<path d="M2200.63 1039.18C2145.41 1083.32 2084.72 1115.77 2021.64 1125.66C1984.16 1131.59 1945.61 1128.95 1909.46 1116.27C1885.86 1107.87 1863.31 1095.18 1842.64 1077.89C1778.75 1024.52 1734.47 933.594 1683.12 868.859C1661.38 841.351 1641.9 816.149 1615.76 798.524C1593.22 783.37 1567.08 774.969 1539.87 770.521C1502.25 764.591 1461.04 765.415 1423.96 764.921C1403.42 764.591 1383.81 763.438 1365.41 760.638C1327.26 754.873 1296.05 745.319 1264.97 728.518C1219.62 703.975 1170.54 662.136 1127.19 603.166C1122.79 597.071 1118.39 590.977 1114.25 584.882C1068.24 519.488 1040.89 470.567 1029.82 419.339C1017.95 364.652 1020.09 298.929 1009.55 215.416C1006.35 190.543 1002.08 164.188 996.611 137.503C986.607 88.0871 972.602 36.8593 955.263 -10.7448C928.854 -82.8921 894.442 -146.144 862.03 -187.983" stroke="#7E7E9B" strokeWidth="0.5" stroke-miterlimit="10"/>
<path d="M2193.56 1053.34C2138.61 1096.5 2077.92 1127.8 2015.1 1136.69C1977.89 1142.13 1939.74 1139.16 1903.73 1126.32C1880.25 1117.92 1857.84 1105.4 1837.3 1088.43C1773.42 1036.05 1728.2 947.43 1678.45 881.542C1656.97 853.21 1638.03 826.526 1612.16 807.748C1589.75 791.44 1563.61 782.216 1536.13 777.439C1498.25 770.85 1456.77 771.674 1419.29 772.168C1398.62 772.498 1378.74 772.004 1359.94 770.192C1320.99 766.403 1288.58 759.65 1255.9 745.319C1208.28 724.399 1156.27 685.196 1112.52 625.568C1107.98 619.473 1103.71 613.214 1099.45 607.119C1053.83 540.572 1029.55 486.379 1022.09 432.187C1013.95 373.711 1020.22 306.176 1011.95 221.016C1009.41 195.484 1005.68 168.8 1000.48 141.456C991.008 91.0518 976.87 39.3297 958.863 -8.60376C931.254 -81.2452 894.307 -144.003 858.428 -184.195" stroke="#8584A3" strokeWidth="0.5" stroke-miterlimit="10"/>
<path d="M2186.49 1067.35C2131.68 1109.68 2071.12 1139.49 2008.57 1147.57C1971.62 1152.51 1933.74 1149.21 1898.13 1136.36C1874.92 1127.96 1852.64 1115.61 1832.1 1099.14C1768.35 1047.75 1722.2 961.432 1673.91 894.556C1652.84 865.4 1634.43 837.233 1608.83 817.137C1586.55 799.677 1560.28 789.629 1532.67 784.358C1494.52 777.111 1452.64 777.934 1414.76 779.252C1393.82 780.076 1373.81 780.405 1354.6 779.581C1314.86 777.934 1281.11 773.816 1246.97 761.956C1197.08 744.496 1142.26 708.093 1097.85 647.805C1093.31 641.711 1088.91 635.451 1084.78 629.192C1039.43 561.657 1018.49 502.193 1014.35 444.871C1009.95 382.771 1020.49 313.424 1014.48 226.452C1012.62 200.426 1009.42 173.083 1004.48 145.41C995.544 94.1821 981.406 41.6364 962.599 -6.46178C933.923 -79.5974 894.309 -141.861 855.095 -180.406" stroke="#8C8BAC" strokeWidth="0.5" stroke-miterlimit="10"/>
<path d="M2179.42 1081.35C2124.74 1122.69 2064.32 1151.35 2002.16 1158.44C1965.48 1162.72 1928 1159.26 1892.52 1146.41C1869.45 1138.18 1847.31 1125.99 1826.9 1109.68C1763.14 1059.44 1716.2 975.268 1669.38 907.239C1648.57 877.095 1630.83 847.611 1605.36 826.362C1583.22 807.748 1556.81 797.042 1528.93 791.112C1490.65 783.205 1448.37 784.029 1410.09 786.335C1389.01 787.653 1368.61 788.147 1349.27 788.97C1308.72 790.453 1273.64 787.982 1238.03 778.593C1186.01 764.757 1128.12 730.989 1083.31 670.043C1078.77 663.783 1074.37 657.524 1070.24 651.1C1025.15 582.412 1007.41 517.677 1006.88 457.389C1006.21 391.666 1020.89 320.342 1017.15 231.888C1016.08 205.368 1013.28 177.53 1008.61 149.363C1000.21 97.3117 985.94 44.1072 966.333 -4.32041C936.456 -77.9502 894.308 -139.72 851.759 -176.617" stroke="#9391B4" strokeWidth="0.5" stroke-miterlimit="10"/>
<path d="M2172.36 1095.51C2117.94 1136.03 2057.52 1163.21 1995.63 1169.47C1959.22 1173.26 1922 1169.31 1886.92 1156.62C1863.98 1148.39 1841.97 1136.36 1821.7 1120.55C1757.95 1071.3 1710.33 989.433 1664.85 920.416C1644.44 889.449 1627.23 858.481 1601.89 835.915C1579.88 816.313 1553.47 804.618 1525.33 798.358C1486.78 789.793 1444.1 790.781 1405.56 793.911C1384.21 795.723 1363.67 797.535 1343.93 798.688C1302.59 801.159 1266.17 802.641 1229.09 795.558C1174.81 785.346 1114.12 754.214 1068.77 692.608C1064.1 686.349 1059.83 679.925 1055.7 673.501C1010.88 603.824 996.479 533.818 999.413 470.236C1002.48 400.889 1021.29 327.754 1019.82 237.487C1019.42 210.309 1017.02 181.977 1012.75 153.48C1004.88 100.44 990.477 46.7417 970.203 -2.01535C939.125 -75.9746 894.577 -137.415 848.56 -172.665" stroke="#9A98BC" strokeWidth="0.5" stroke-miterlimit="10"/>
<path d="M2165.15 1109.52C2110.87 1149.05 2050.58 1175.07 1988.96 1180.34C1952.81 1183.64 1915.87 1179.36 1881.05 1166.67C1858.38 1158.44 1836.5 1146.58 1816.23 1131.09C1752.61 1082.83 1704.06 1003.27 1660.04 933.265C1640.04 901.309 1623.36 869.024 1598.29 845.305C1576.41 824.55 1549.87 812.031 1521.59 805.278C1482.78 796.053 1439.83 797.042 1400.89 801.16C1379.41 803.466 1358.47 806.101 1338.46 808.243C1296.32 812.855 1258.57 816.973 1220.02 812.361C1163.47 805.607 1099.98 777.44 1053.96 715.011C1049.3 708.752 1044.89 702.163 1040.76 695.574C996.344 624.909 985.14 549.632 991.409 482.921C998.345 409.95 1021.29 334.838 1022.09 242.924C1022.35 215.251 1020.49 186.425 1016.48 157.434C1009.15 103.571 994.61 49.0488 973.536 0.127055C941.391 -74.3263 894.175 -135.273 844.824 -168.875" stroke="#A19EC5" strokeWidth="0.5" stroke-miterlimit="10"/>
<path d="M2158.08 1123.68C2103.93 1162.39 2043.78 1186.93 1982.55 1191.38C1946.54 1194.02 1910.13 1189.57 1875.45 1176.89C1852.91 1168.65 1831.17 1156.95 1810.89 1141.8C1747.27 1094.53 1698.06 1017.27 1655.37 946.113C1635.77 913.334 1619.63 879.566 1594.69 854.529C1572.94 832.621 1546.27 819.279 1517.86 812.196C1478.78 802.478 1435.43 803.301 1396.22 808.407C1374.48 811.208 1353.4 814.667 1332.99 817.797C1290.05 824.385 1251.1 831.304 1210.95 829.162C1152.26 826.033 1085.71 800.501 1039.29 737.413C1034.62 730.989 1030.22 724.4 1026.09 717.812C981.938 645.994 974.069 565.61 983.805 495.769C994.476 419.339 1021.55 342.25 1024.62 248.689C1025.55 220.358 1024.22 191.202 1020.48 161.717C1013.68 107.03 999.011 51.8492 977.27 2.59795C943.925 -72.3496 894.174 -132.802 841.489 -164.757" stroke="#A8A5CD" strokeWidth="0.5" stroke-miterlimit="10"/>
<path d="M2151.02 1137.68C2097.13 1175.57 2036.98 1198.63 1976.02 1202.25C1940.27 1204.39 1904.13 1199.62 1869.85 1186.93C1847.44 1178.7 1825.97 1167.17 1805.69 1152.51C1742.21 1106.38 1692.05 1031.27 1650.84 959.125C1631.63 925.358 1616.03 890.273 1591.22 864.082C1569.61 841.021 1542.94 827.02 1514.13 819.278C1474.78 808.901 1431.16 809.889 1391.42 815.819C1369.41 819.114 1348.2 823.396 1327.53 827.514C1283.78 836.244 1243.5 845.963 1201.88 846.128C1140.93 846.786 1071.57 823.726 1024.62 759.979C1019.82 753.555 1015.55 746.966 1011.42 740.048C967.534 667.242 962.999 581.587 976.071 508.617C990.476 428.563 1021.69 349.497 1027.16 254.289C1028.76 225.463 1027.96 195.649 1024.49 165.835C1018.22 110.159 1003.41 54.484 980.872 4.90334C946.327 -70.5383 894.042 -130.496 838.022 -160.805" stroke="#AFABD5" strokeWidth="0.5" stroke-miterlimit="10"/>
<path d="M2143.95 1151.68C2090.19 1188.58 2030.17 1210.49 1969.48 1213.12C1934.01 1214.77 1898.26 1209.5 1864.11 1196.98C1841.97 1188.74 1820.5 1177.38 1800.36 1163.05C1736.87 1117.92 1686.05 1045.11 1646.17 971.973C1627.23 937.382 1612.29 900.814 1587.75 873.306C1566.28 849.092 1539.47 834.268 1510.52 826.032C1470.91 814.995 1426.89 815.984 1386.88 822.902C1364.74 826.69 1343.13 831.797 1322.19 836.903C1277.64 847.775 1236.03 860.129 1192.95 862.764C1129.72 867.047 1057.43 846.622 1009.95 782.216C1005.15 775.792 1000.75 769.039 996.744 762.12C953.129 688.161 951.795 597.4 968.468 521.135C986.741 437.622 1022.09 356.58 1029.69 259.56C1031.96 230.24 1031.56 199.931 1028.49 169.623C1022.75 113.124 1007.81 56.6251 984.606 7.04446C948.994 -68.8914 894.041 -128.355 834.687 -157.016" stroke="#B6B2DE" strokeWidth="0.5" stroke-miterlimit="10"/>
<path d="M2136.88 1165.85C2083.39 1201.92 2023.37 1222.35 1963.08 1224.16C1927.87 1225.31 1892.39 1219.71 1858.64 1207.19C1836.64 1198.96 1815.3 1187.76 1795.29 1173.76C1731.93 1129.61 1680.32 1059.11 1641.77 984.821C1623.36 949.242 1608.82 911.356 1584.42 882.695C1563.07 857.493 1536.27 841.68 1507.05 833.114C1467.31 821.419 1422.89 822.408 1382.48 830.314C1360.07 834.597 1338.33 840.527 1316.99 846.457C1271.64 859.47 1228.82 874.459 1184.14 879.565C1118.79 887.307 1043.56 869.682 995.543 804.618C990.741 798.029 986.339 791.276 982.205 784.193C938.989 709.245 940.857 613.213 960.997 533.818C983.005 446.682 1022.62 363.828 1032.36 265.16C1035.42 235.181 1035.42 204.379 1032.62 173.576C1027.42 116.254 1012.35 59.0958 988.34 9.18568C951.527 -67.2443 894.04 -126.214 831.352 -153.063" stroke="#26205A" strokeWidth="0.5" stroke-miterlimit="10"/>
<path d="M2129.81 1179.85C2076.46 1214.94 2016.57 1234.21 1956.55 1235.03C1921.6 1235.52 1886.39 1229.76 1852.91 1217.24C1831.04 1209.01 1809.96 1198.13 1789.96 1184.46C1726.6 1141.31 1674.32 1072.95 1637.1 997.834C1619.1 961.431 1605.09 922.063 1580.95 892.249C1559.74 865.894 1532.8 849.422 1503.46 840.197C1463.44 827.843 1418.63 828.996 1377.94 837.727C1355.4 842.503 1333.4 849.092 1311.65 856.175C1265.51 871.165 1221.36 888.954 1175.21 896.696C1107.58 908.062 1029.56 893.072 981.006 827.349C976.204 820.76 971.669 813.842 967.668 806.759C924.72 730.659 929.921 629.685 953.396 546.996C979.139 456.4 1022.89 371.405 1035.02 271.09C1038.76 240.617 1039.29 209.32 1036.76 178.023C1032.09 119.713 1016.89 62.0607 992.21 11.8211C954.197 -65.1031 894.176 -123.579 828.152 -148.781" stroke="#1D1654" strokeWidth="0.5" stroke-miterlimit="10"/>
<path d="M2122.6 1194.02C2069.39 1228.28 2009.63 1246.07 1949.88 1246.07C1915.2 1246.07 1880.39 1239.97 1847.04 1227.45C1825.3 1219.38 1804.36 1208.51 1784.49 1195.17C1721.26 1153 1668.31 1086.95 1632.3 1010.68C1614.69 973.292 1601.22 932.771 1577.21 901.474C1556.14 873.966 1529.06 856.67 1499.45 846.952C1459.17 833.939 1414.09 835.092 1372.88 844.646C1350.07 849.917 1327.93 857.329 1305.92 865.4C1259.1 882.696 1213.49 902.956 1165.87 913.169C1095.98 927.994 1015.02 915.805 965.933 849.423C960.998 842.834 956.596 835.751 952.595 828.668C909.913 751.579 918.45 645.335 945.392 559.516C975.003 465.625 1022.89 378.488 1037.16 276.362C1041.56 245.395 1042.49 213.439 1040.36 181.813C1036.22 122.679 1020.89 64.3678 995.41 13.7988C956.33 -63.6195 893.641 -121.601 824.283 -145.156" stroke="#130B50" strokeWidth="0.5" stroke-miterlimit="10"/>
<path d="M2115.53 1208.02C2031.77 1260.56 1931.34 1271.43 1841.44 1237.5C1751.54 1203.57 1673.38 1125 1627.9 1023.53C1610.69 985.152 1597.75 943.313 1573.88 910.863C1524.53 843.493 1440.63 833.774 1368.47 852.058C1296.45 870.342 1229.22 911.687 1157.07 930.135C1085.04 948.584 1001.14 939.03 951.527 871.989C893.773 793.747 904.711 669.713 937.922 572.364C971.267 474.85 1023.29 385.901 1039.96 282.127C1054.5 191.531 1039.69 94.1821 999.41 16.2696C959.13 -61.6429 893.907 -119.13 821.215 -141.038" stroke="#09004C" strokeWidth="0.5" stroke-miterlimit="10"/>
<path d="M2093.26 1214.28C2010.03 1265.34 1910.8 1274.89 1822.23 1240.3C1733.67 1205.71 1656.44 1127.8 1612.29 1026.83C1595.09 987.458 1583.08 943.807 1560.01 910.204C1513.19 842.01 1432.1 830.48 1362.2 845.469C1292.45 860.459 1226.56 897.85 1155.2 913.993C1082.91 930.465 998.611 922.723 947.66 857.494C888.706 781.558 896.309 658.347 928.32 560.174C960.331 462.001 1013.68 372.558 1032.22 271.42C1048.23 183.954 1034.76 90.3933 997.411 14.9516C960.064 -60.4901 898.576 -117.318 828.551 -140.05" stroke="#08014F" strokeWidth="0.5" stroke-miterlimit="10"/>
<path d="M2070.85 1220.37C1988.29 1269.79 1890.12 1278.19 1802.76 1243.1C1715.39 1208.02 1639.23 1130.43 1596.55 1029.95C1579.35 989.433 1568.41 944.3 1546.14 909.544C1501.99 840.691 1423.56 827.184 1356.07 838.879C1288.44 850.41 1223.89 884.012 1153.33 898.014C1080.77 912.344 995.943 906.744 943.658 843.162C883.37 769.697 887.905 646.981 918.449 548.313C948.993 449.646 1003.68 359.544 1024.22 261.207C1041.83 177.035 1029.55 86.933 995.142 13.9621C960.597 -59.0088 902.977 -115.178 835.62 -138.733" stroke="#030152" strokeWidth="0.5" stroke-miterlimit="10"/>
<path d="M2048.58 1226.63C1966.55 1274.4 1869.58 1281.48 1783.42 1246.07C1697.26 1210.65 1622.3 1133.23 1580.95 1033.25C1563.74 991.575 1553.87 944.959 1532.26 908.885C1490.65 839.374 1415.16 824.055 1349.8 832.291C1284.44 840.527 1221.22 870.341 1151.33 882.036C1078.64 894.225 993.143 890.766 939.658 828.832C878.036 757.673 879.503 635.615 908.58 536.454C937.657 437.292 993.81 346.697 1016.35 250.83C1035.29 170.117 1024.62 83.4743 993.01 12.8095C961.399 -57.6906 907.513 -113.036 842.824 -137.58" stroke="#030456" strokeWidth="0.5" stroke-miterlimit="10"/>
<path d="M2026.17 1232.89C1944.81 1279.18 1848.77 1284.94 1763.94 1248.87C1679.12 1212.79 1605.22 1135.7 1565.21 1036.38C1548 993.551 1539.2 945.618 1518.26 908.062C1479.18 838.056 1406.49 820.596 1343.4 825.372C1280.31 830.149 1218.42 856.175 1149.2 865.729C1076.1 875.941 990.341 874.294 935.388 814.171C872.433 745.319 870.832 624.085 898.442 524.265C926.185 424.444 983.538 333.684 1008.08 240.288C1028.49 162.869 1019.15 79.6858 990.474 11.4918C961.797 -56.7023 911.647 -111.225 849.625 -136.756" stroke="#03075B" strokeWidth="0.5" stroke-miterlimit="10"/>
<path d="M2003.9 1238.98C1923.07 1283.62 1828.24 1288.24 1744.74 1251.67C1661.24 1215.1 1588.42 1138.34 1549.74 1039.67C1532.53 995.694 1524.66 946.278 1504.52 907.568C1467.98 837.068 1398.08 817.467 1337.26 818.949C1276.44 820.432 1215.75 842.339 1147.33 849.917C1073.97 857.988 987.808 858.317 931.521 800.006C867.366 733.46 862.431 612.885 888.84 512.57C915.116 412.256 973.803 321.001 1000.48 230.076C1022.22 155.952 1014.35 76.3921 988.608 10.6689C962.866 -55.0543 916.45 -108.918 857.229 -135.273" stroke="#040A5F" strokeWidth="0.5" stroke-miterlimit="10"/>
<path d="M1981.49 1245.24C1901.33 1288.24 1807.56 1291.7 1725.26 1254.47C1642.97 1217.24 1571.48 1140.81 1534 1042.8C1516.79 997.67 1509.99 946.937 1490.65 906.745C1456.5 835.916 1389.68 814.173 1330.99 812.196C1272.44 810.219 1213.09 828.338 1145.33 833.774C1071.7 839.539 985.139 842.175 927.385 785.511C861.896 721.271 853.893 601.354 878.835 500.381C903.777 399.408 963.531 307.988 992.341 219.534C1015.28 148.869 1009.15 72.6038 986.206 9.35138C963.264 -53.901 920.716 -106.941 864.163 -134.284" stroke="#040E66" strokeWidth="0.5" stroke-miterlimit="10"/>
<path d="M1959.21 1251.5C1879.59 1292.85 1787.02 1295.15 1705.92 1257.43C1624.83 1219.71 1554.67 1143.45 1518.39 1046.1C1501.19 999.811 1495.32 947.76 1476.78 906.25C1445.03 835.256 1381.14 811.042 1324.86 805.771C1268.44 800.5 1210.42 814.501 1143.46 817.796C1069.57 821.42 982.472 826.032 923.518 771.18C856.828 709.245 845.624 590.153 869.099 488.521C892.574 386.889 953.528 295.469 984.472 209.156C1008.61 141.95 1004.08 69.144 984.072 8.1977C964.065 -52.5839 925.385 -104.965 871.366 -133.132" stroke="#05116A" strokeWidth="0.5" stroke-miterlimit="10"/>
<path d="M1936.8 1257.6C1857.84 1297.46 1766.35 1298.45 1686.58 1260.23C1606.82 1222.02 1537.87 1145.92 1502.79 1049.23C1485.58 1001.79 1480.78 948.583 1462.91 905.426C1433.43 834.267 1372.61 807.583 1318.59 799.017C1264.44 790.287 1207.62 804.947 1141.46 801.653C1067.3 798.029 979.803 809.724 919.382 756.684C851.492 697.056 837.087 578.622 859.228 476.496C881.369 374.369 943.257 282.62 976.602 198.778C1001.94 134.867 999.01 65.5196 981.937 7.20881C964.865 -51.2667 929.919 -102.659 878.568 -131.815" stroke="#05136F" strokeWidth="0.5" stroke-miterlimit="10"/>
<path d="M1914.53 1263.86C1836.1 1302.07 1745.67 1301.91 1667.25 1263.03C1588.68 1224.32 1521.06 1148.39 1487.18 1052.52C1469.98 1003.93 1466.11 949.407 1449.04 904.933C1421.83 833.609 1364.21 804.619 1312.32 792.429C1260.44 780.405 1204.68 791.276 1139.46 785.676C1065.03 779.416 977.137 793.582 915.383 742.354C846.158 685.032 828.686 567.257 849.359 464.637C870.033 362.016 932.989 270.103 968.601 188.566C995.01 128.114 993.943 62.2262 979.672 6.2214C965.4 -49.7833 934.323 -100.517 885.639 -130.496" stroke="#061774" strokeWidth="0.5" stroke-miterlimit="10"/>
<path d="M1892.12 1270.12C1814.23 1306.68 1725 1305.37 1647.77 1266C1570.54 1226.63 1504.25 1151.02 1471.44 1055.82C1454.37 1006.07 1451.3 950.395 1435.16 904.273C1410.22 832.95 1355.67 801.324 1306.05 785.84C1256.43 770.356 1202.02 772.333 1137.46 769.697C1062.5 766.568 974.469 777.604 911.247 728.023C840.823 673.007 820.015 555.891 839.355 452.776C858.695 349.662 922.451 257.583 960.598 178.188C987.941 121.195 988.741 58.6016 977.404 5.06768C966.066 -48.4663 938.723 -98.5411 892.707 -129.344" stroke="#9DADFA" strokeWidth="0.5" stroke-miterlimit="10"/>
<path d="M1869.85 1276.21C1792.62 1311.13 1704.46 1308.5 1628.43 1268.8C1552.4 1229.1 1487.45 1153.49 1455.84 1058.95C1438.77 1008.05 1436.5 951.219 1421.29 903.45C1398.48 831.962 1347.27 797.865 1299.78 779.087C1252.43 760.309 1199.35 758.167 1135.59 753.555C1060.37 748.119 971.935 761.297 907.379 713.693C835.754 660.818 811.746 544.69 829.619 440.917C847.492 337.143 912.181 245.065 952.728 167.976C981.005 114.277 983.673 55.3077 975.27 4.24452C966.867 -46.8186 943.259 -96.0698 899.91 -127.861" stroke="#98AAF9" strokeWidth="0.5" stroke-miterlimit="10"/>
<path d="M1847.44 1282.47C1770.75 1315.91 1683.78 1311.96 1609.09 1271.6C1534.4 1231.24 1470.78 1155.8 1440.23 1062.08C1423.29 1010.02 1421.82 952.043 1407.42 902.792C1386.61 831.468 1338.73 794.735 1293.65 772.498C1248.56 750.261 1196.68 744.002 1133.72 737.413C1058.1 729.506 969.4 744.99 903.51 699.198C830.684 648.629 803.475 533.16 820.014 428.728C836.553 324.296 901.776 232.217 945.125 157.27C974.068 107.03 979.003 51.3547 973.401 2.76235C967.799 -45.83 948.059 -94.4224 907.378 -127.037" stroke="#93A7F9" strokeWidth="0.5" stroke-miterlimit="10"/>
<path d="M1825.17 1288.57C1749.14 1320.36 1663.24 1315.25 1589.75 1274.4C1516.26 1233.55 1454.1 1158.27 1424.76 1065.21C1407.82 1011.84 1407.15 952.866 1393.68 901.968C1374.88 830.644 1330.33 791.276 1287.51 765.745C1244.56 740.213 1194.01 729.671 1131.86 721.27C1055.96 711.058 967 728.683 899.51 684.702C825.484 636.44 795.073 521.63 810.145 416.703C825.217 311.777 891.107 219.534 937.123 146.892C966.867 99.947 973.803 47.8955 971.135 1.60925C968.467 -44.677 952.462 -92.4458 914.449 -125.884" stroke="#8EA3F9" strokeWidth="0.5" stroke-miterlimit="10"/>
<path d="M1802.76 1294.82C1727.27 1324.97 1642.44 1318.71 1570.28 1277.36C1498.12 1236.02 1437.3 1160.74 1409.02 1068.66C1392.22 1014.14 1392.08 954.019 1379.81 901.639C1363 830.315 1321.92 788.311 1281.24 759.321C1240.56 730.33 1191.21 715.67 1129.86 705.457C1053.56 692.774 964.332 712.705 895.508 670.537C820.282 624.415 786.537 510.594 800.275 405.008C814.013 299.423 880.303 207.015 929.12 136.68C959.397 93.0289 968.6 44.4366 968.867 0.785834C969.134 -43.0296 956.863 -89.9748 921.517 -124.566" stroke="#88A0F8" strokeWidth="0.5" stroke-miterlimit="10"/>
<path d="M1780.48 1301.08C1705.66 1329.74 1621.9 1322.17 1550.94 1280.16C1479.98 1238.16 1420.76 1163.21 1393.42 1071.79C1376.74 1016.12 1377.28 955.007 1365.94 900.814C1351 829.655 1313.39 785.016 1274.97 752.567C1236.56 720.117 1188.41 701.339 1127.86 689.314C1051.16 674.16 961.665 696.232 891.374 656.041C814.947 612.225 778.001 499.063 790.405 392.983C802.676 286.903 869.366 194.166 921.251 126.302C952.195 85.7806 963.532 40.9768 966.733 -0.367931C969.935 -41.7126 961.398 -87.9989 928.72 -123.414" stroke="#839EF8" strokeWidth="0.5" stroke-miterlimit="10"/>
<path d="M1758.08 1307.18C1683.78 1334.19 1601.22 1325.46 1531.6 1282.96C1461.97 1240.47 1404.09 1165.52 1377.81 1074.92C1361.27 1017.93 1362.34 955.831 1352.07 899.99C1339 828.832 1304.85 781.557 1268.71 745.813C1232.56 710.068 1185.61 686.843 1125.86 673.171C1048.9 655.382 958.997 679.925 887.372 641.545C809.745 599.871 769.597 487.532 780.534 380.958C791.472 274.22 858.428 181.153 913.248 115.759C944.592 78.368 958.463 37.3528 964.466 -1.68582C970.468 -40.5597 965.799 -86.0224 935.922 -122.425" stroke="#0CAE5C" strokeWidth="0.5" stroke-miterlimit="10"/>
<path d="M1735.8 1313.44C1662.18 1338.81 1580.68 1328.92 1512.26 1285.93C1443.83 1242.94 1387.55 1168.16 1362.2 1078.22C1345.8 1020.07 1347.4 956.82 1338.2 899.498C1326.99 828.339 1296.45 778.428 1262.57 739.39C1228.69 700.186 1183.08 672.843 1123.99 657.359C1046.76 637.099 956.463 663.948 883.37 627.38C804.543 588.012 761.194 476.497 770.664 369.099C780.134 261.702 847.358 168.141 905.378 105.548C937.256 71.286 953.395 33.8947 962.331 -2.50842C971.268 -38.9115 970.334 -83.7154 943.125 -120.942" stroke="#7898F7" strokeWidth="0.5" stroke-miterlimit="10"/>
<path d="M1713.53 1319.7C1640.44 1343.42 1560.14 1332.38 1492.92 1288.73C1425.7 1245.08 1370.88 1170.46 1346.6 1081.51C1330.33 1022.05 1332.33 957.973 1324.46 898.838C1314.99 827.844 1288.05 775.298 1256.44 732.801C1224.83 690.303 1180.41 658.512 1122.12 641.216C1044.5 618.32 953.93 647.64 879.504 612.885C799.476 575.658 752.793 464.966 760.93 357.075C769.066 249.183 836.289 154.799 897.511 95.1701C929.655 63.8734 948.328 30.4352 960.199 -3.66177C971.937 -37.7588 974.871 -81.739 950.329 -119.789" stroke="#7396F6" strokeWidth="0.5" stroke-miterlimit="10"/>
<path d="M1691.12 1325.79C1618.56 1348.03 1539.47 1335.51 1473.44 1291.53C1407.55 1247.55 1354.2 1172.77 1330.86 1084.64C1314.72 1024.03 1317.12 958.797 1310.45 898.18C1302.72 827.186 1279.51 772.005 1250.03 726.048C1220.56 680.091 1177.47 644.017 1119.99 625.074C1042.09 599.543 951.261 631.169 875.234 598.39C794.006 563.304 744.122 453.436 750.924 345.051C757.593 236.665 824.817 141.292 889.373 84.6287C921.917 56.1322 943.125 26.6473 957.797 -4.97891C972.468 -36.6051 979.137 -79.7617 957.263 -118.8" stroke="#86A4F7" strokeWidth="0.5" stroke-miterlimit="10"/>
<path d="M1668.85 1332.05C1596.82 1352.64 1518.79 1338.97 1454.1 1294.49C1389.42 1249.86 1337.66 1175.24 1315.26 1087.94C1299.38 1026 1301.92 959.784 1296.58 897.519C1290.45 826.525 1270.97 768.709 1243.76 719.457C1216.56 670.206 1174.81 629.685 1118.12 609.095C1039.96 580.763 948.728 615.025 871.368 584.058C788.939 551.114 735.854 442.069 741.189 333.189C746.524 224.309 813.614 127.619 881.638 74.4145C914.583 48.7182 938.191 23.3513 955.797 -5.80412C973.403 -34.9595 983.807 -77.4573 964.6 -117.319" stroke="#81A0F7" strokeWidth="0.5" stroke-miterlimit="10"/>
<path d="M1646.44 1338.31C1575.08 1357.25 1498.12 1342.43 1434.76 1297.3C1371.41 1252.16 1321.12 1177.71 1299.65 1091.07C1283.91 1027.98 1286.85 960.608 1282.71 896.862C1278.18 825.868 1262.44 765.58 1237.49 712.87C1212.55 660.159 1172.14 615.191 1116.12 593.118C1037.69 562.151 946.06 598.719 867.232 569.728C783.603 538.926 727.316 430.869 731.184 321.331C735.053 211.792 802.009 113.619 873.501 64.0384C906.846 40.9776 932.855 19.7287 953.396 -6.95589C973.803 -33.6405 988.074 -75.4793 971.535 -116.165" stroke="#7B9CF7" strokeWidth="0.5" stroke-miterlimit="10"/>
<path d="M1624.16 1344.41C1553.47 1361.7 1477.58 1345.72 1415.42 1300.1C1353.27 1254.47 1304.72 1180.02 1284.04 1094.36C1268.57 1029.96 1271.51 961.597 1268.97 896.203C1266.04 825.209 1254.03 762.286 1231.36 706.281C1208.69 650.276 1169.47 600.861 1114.25 577.141C1035.69 543.373 943.526 582.577 863.364 555.398C778.535 526.737 719.047 419.504 721.581 309.471C724.116 199.274 790.939 99.4535 865.899 53.8261C899.644 33.2361 928.187 16.4347 951.528 -7.94386C974.87 -32.3224 993.01 -73.173 979.005 -114.847" stroke="#769AF6" strokeWidth="0.5" stroke-miterlimit="10"/>
<path d="M1601.76 1350.66C1531.6 1366.48 1456.9 1349.18 1396.08 1303.06C1335.26 1256.94 1288.18 1182.49 1268.44 1097.65C1253.23 1032.1 1256.3 962.584 1255.1 895.543C1253.77 824.384 1245.63 758.991 1225.22 699.691C1204.82 640.228 1166.94 586.364 1112.38 560.997C1033.56 524.43 941.124 566.104 859.495 540.902C773.465 514.382 710.643 407.973 711.844 297.281C713.044 186.589 779.734 84.6277 858.028 43.1183C892.173 24.9991 923.118 12.4804 949.394 -9.26264C975.669 -31.1704 997.544 -71.362 986.206 -113.86" stroke="#7197F6" strokeWidth="0.5" stroke-miterlimit="10"/>
<path d="M1579.48 1356.92C1509.99 1371.09 1436.37 1352.64 1376.74 1305.86C1317.12 1259.25 1271.64 1184.96 1252.83 1100.79C1237.9 1033.91 1240.96 963.409 1241.23 894.885C1241.5 823.726 1237.1 755.862 1218.96 692.939C1200.82 630.181 1164.27 571.87 1110.38 544.856C1031.42 505.323 938.458 549.632 855.362 526.407C768.132 502.028 702.108 396.608 701.842 285.257C701.575 173.907 768.132 69.9683 849.894 32.9063C884.439 17.2579 917.784 9.18664 946.994 -10.2503C976.204 -29.6873 1001.81 -69.0553 993.144 -112.706" stroke="#6C93F5" strokeWidth="0.5" stroke-miterlimit="10"/>
<path d="M1557.07 1363.02C1488.12 1375.54 1415.56 1355.93 1357.27 1308.66C1298.98 1261.39 1255.1 1187.26 1237.1 1103.91C1222.42 1035.88 1225.49 964.066 1227.23 894.06C1228.96 822.737 1228.56 752.401 1212.55 686.184C1196.55 619.967 1161.47 557.208 1108.25 528.712C1029.16 486.379 935.656 533.159 851.227 511.91C762.796 489.508 693.572 385.076 691.838 273.231C690.104 161.387 756.794 54.648 841.89 22.1982C876.969 8.85593 912.715 5.23214 944.726 -11.734C976.737 -28.7002 1006.21 -67.4094 1000.21 -111.884" stroke="#6691F5" strokeWidth="0.5" stroke-miterlimit="10"/>
<path d="M1534.8 1369.28C1466.51 1380.31 1395.02 1359.23 1337.93 1311.63C1280.84 1263.86 1238.7 1189.73 1221.49 1107.37C1207.09 1038.03 1210.15 965.22 1213.49 893.732C1216.82 822.243 1220.16 749.437 1206.42 679.925C1192.68 610.414 1159.07 543.043 1106.38 513.064C1027.16 467.766 933.123 517.347 847.226 497.91C757.595 477.814 685.17 374.041 682.102 261.702C679.034 149.363 745.724 39.824 834.022 12.3158C869.768 1.11483 907.648 2.26783 942.593 -12.2275C977.539 -26.7229 1010.75 -64.7731 1007.42 -110.071" stroke="#618DF4" strokeWidth="0.5" stroke-miterlimit="10"/>
</g>
</g>
<defs>
<linearGradient id="paint0_linear_59_2280" x1="964" y1="1130.35" x2="945.842" y2="0.0667404" gradientUnits="userSpaceOnUse">
<stop stop-color="#79589F"/>
<stop offset="1" stop-color="#523C85"/>
</linearGradient>
</defs>
</svg>
