  <svg  width="141" height="41" viewBox="0 0 141 41" fill="none" xmlns="http://www.w3.org/2000/svg">
<path d="M20.4702 9.94695C20.4702 12.9552 18.1051 15.3939 15.1876 15.3939C12.2702 15.3939 9.90503 12.9552 9.90503 9.94695C9.90503 6.93872 12.2702 4.5 15.1876 4.5C18.1051 4.5 20.4702 6.93872 20.4702 9.94695Z" fill="#79589F"/>
<path d="M10.5652 26.9682C10.5652 29.9764 8.20006 32.4152 5.28259 32.4152C2.36513 32.4152 0 29.9764 0 26.9682C0 23.96 2.36513 21.5212 5.28259 21.5212C8.20006 21.5212 10.5652 23.96 10.5652 26.9682Z" fill="#79589F"/>
<path d="M29.7147 26.9682C29.7147 29.9764 27.3496 32.4152 24.4321 32.4152C21.5147 32.4152 19.1495 29.9764 19.1495 26.9682C19.1495 23.96 21.5147 21.5212 24.4321 21.5212C27.3496 21.5212 29.7147 23.96 29.7147 26.9682Z" fill="#79589F"/>
<path d="M10.2352 18.4571C11.82 16.2784 11.0055 13.3507 10.2352 11.6484L20.1401 11.9889C19.3697 13.2371 18.4892 15.7337 19.8099 18.4571C21.1306 21.1807 23.6618 21.5211 25.0925 21.5211L20.4702 30.7129C19.9199 29.4646 18.027 26.9681 14.8574 26.9681C11.6879 26.9681 9.57483 29.6915 8.91453 31.0533L4.29224 21.5211C5.61283 21.4076 8.65041 20.636 10.2352 18.4571Z" fill="#79589F"/>
<path d="M28.3941 15.3935C28.3941 17.6497 26.6202 19.4787 24.4321 19.4787C22.244 19.4787 20.4702 17.6497 20.4702 15.3935C20.4702 13.1374 22.244 11.3083 24.4321 11.3083C26.6202 11.3083 28.3941 13.1374 28.3941 15.3935Z" fill="#79589F"/>
<path d="M9.90481 15.3935C9.90481 17.6497 8.13098 19.4787 5.94288 19.4787C3.75478 19.4787 1.98096 17.6497 1.98096 15.3935C1.98096 13.1374 3.75478 11.3083 5.94288 11.3083C8.13098 11.3083 9.90481 13.1374 9.90481 15.3935Z" fill="#79589F"/>
<path d="M19.1496 32.4148C19.1496 34.671 17.3757 36.5 15.1876 36.5C12.9995 36.5 11.2257 34.671 11.2257 32.4148C11.2257 30.1586 12.9995 28.3296 15.1876 28.3296C17.3757 28.3296 19.1496 30.1586 19.1496 32.4148Z" fill="#79589F"/>
<path d="M52.9468 25.244H64.7228V29.5H48.2428V7.1H64.4028V11.356H52.9468V16.092H63.6348V20.316H52.9468V25.244ZM83.2008 29.5H78.0808L74.6888 24.156L71.2968 29.5H66.2088L71.7768 21.148L66.5288 13.18H71.5528L74.6888 18.204L77.8248 13.18H82.8808L77.6008 21.148L83.2008 29.5ZM83.4328 21.34C83.4328 16.508 86.8888 12.732 92.1368 12.732C97.3848 12.732 100.873 16.508 100.873 21.34C100.873 26.172 97.3848 29.948 92.1368 29.948C86.8888 29.948 83.4328 26.14 83.4328 21.34ZM96.2328 21.34C96.2328 18.62 94.6648 16.828 92.1368 16.828C89.6088 16.828 88.0408 18.62 88.0408 21.34C88.0408 24.06 89.6088 25.852 92.1368 25.852C94.6648 25.852 96.2328 24.06 96.2328 21.34ZM126.08 29.5L124.288 24.604H115.04L113.248 29.5H108.288L116.928 7.1H122.368L131.04 29.5H126.08ZM116.48 20.604H122.848L119.68 11.836L116.48 20.604ZM133.357 29.5V7.1H138.093V29.5H133.357Z" fill="#000407"/>
</svg>