<svg width="32" height="32" viewBox="0 0 32 32" fill="none" xmlns="http://www.w3.org/2000/svg">
<circle cx="16" cy="16" r="16" fill="url(#paint0_linear_1754_40908)"/>
<g clipPath="url(#clip0_1754_40908)">
<path d="M22.545 19.217V21.7887C22.5451 21.9728 22.4753 22.1501 22.3498 22.2848C22.2243 22.4195 22.0523 22.5016 21.8686 22.5145C21.5508 22.5363 21.2912 22.5479 21.0905 22.5479C14.6636 22.5479 9.4541 17.3385 9.4541 10.9116C9.4541 10.7108 9.46501 10.4512 9.48756 10.1334C9.50045 9.94972 9.58252 9.77777 9.71723 9.65224C9.85194 9.52671 10.0292 9.45695 10.2134 9.45703H12.785C12.8752 9.45694 12.9622 9.49038 13.0292 9.55086C13.0961 9.61135 13.1382 9.69455 13.1472 9.7843C13.1639 9.95158 13.1792 10.0847 13.1937 10.1858C13.3383 11.1944 13.6345 12.1755 14.0723 13.0956C14.1414 13.241 14.0963 13.4148 13.9654 13.5079L12.3959 14.6294C13.3555 16.8654 15.1374 18.6472 17.3734 19.6068L18.4934 18.0403C18.5392 17.9763 18.6059 17.9304 18.6821 17.9106C18.7583 17.8908 18.8389 17.8983 18.9101 17.9319C19.8301 18.3689 20.8109 18.6644 21.8192 18.8083C21.9203 18.8228 22.0534 18.8389 22.2192 18.8548C22.3088 18.864 22.3918 18.9062 22.4522 18.9731C22.5125 19.04 22.5458 19.1269 22.5457 19.217H22.545Z" fill="white"/>
</g>
<defs>
<linearGradient id="paint0_linear_1754_40908" x1="16" y1="0" x2="16" y2="32" gradientUnits="userSpaceOnUse">
<stop stop-color="#9692DC"/>
<stop offset="1" stop-color="#625CCB"/>
</linearGradient>
<clipPath id="clip0_1754_40908">
<rect width="17.4545" height="17.4545" fill="white" transform="translate(7.27246 7.27344)"/>
</clipPath>
</defs>
</svg>
