<svg width="32" height="32" viewBox="0 0 32 32" fill="none" xmlns="http://www.w3.org/2000/svg">
<path d="M4.00008 4C3.26371 4 2.66675 4.59696 2.66675 5.33333V10.6667H10.0001V4H4.00008ZM12.6667 4V10.6667H19.3334V4H12.6667ZM22.0001 4V10.6667H29.3334V5.33333C29.3334 4.59696 28.7365 4 28.0001 4H22.0001ZM29.3334 13.3333H22.0001V18.6667H29.3334V13.3333ZM29.3334 21.3333H22.0001V28H28.0001C28.7365 28 29.3334 27.4031 29.3334 26.6667V21.3333ZM19.3334 28V21.3333H12.6667V28H19.3334ZM10.0001 28V21.3333H2.66675V26.6667C2.66675 27.4031 3.26371 28 4.00008 28H10.0001ZM2.66675 18.6667H10.0001V13.3333H2.66675V18.6667ZM12.6667 13.3333H19.3334V18.6667H12.6667V13.3333Z" fill="#CBD5E1"/>
</svg>
