<svg width="595" height="478" viewBox="0 0 595 478" fill="none" xmlns="http://www.w3.org/2000/svg">
<g filter="url(#filter0_b_108_1805)">
<g clipPath="url(#clip0_108_1805)">
<path d="M0 7.99999C0 3.58172 3.58172 0 8 0H587C591.418 0 595 3.58172 595 8V470C595 474.418 591.418 478 587 478H8C3.58172 478 0 474.418 0 470V7.99999Z" fill="#F6F7FB"/>
<g opacity="0.5" filter="url(#filter1_f_108_1805)">
<circle cx="211.212" cy="238.742" r="172.597" fill="url(#paint0_linear_108_1805)" fill-opacity="0.35"/>
</g>
<g filter="url(#filter2_f_108_1805)">
<circle cx="139.353" cy="61.0164" r="168.353" fill="#F5F8FF"/>
</g>
<g filter="url(#filter3_dd_108_1805)">
<circle cx="300.404" cy="148.612" r="15.9038" fill="url(#paint1_linear_108_1805)" stroke="white"/>
<path d="M298.808 154.921V142.303H301.998V154.921H298.808ZM294.094 150.207V147.017H306.712V150.207H294.094Z" fill="#7863EC"/>
</g>
<g filter="url(#filter4_dd_108_1805)">
<rect x="132.5" y="30.5" width="335.909" height="88.5899" rx="19.6893" fill="url(#paint2_linear_108_1805)" stroke="white"/>
<path d="M222.179 59.0094V71.8604H220.623V59.0094H222.179ZM232.252 71.8604L229.315 62.2222H230.871L232.955 69.6014H233.055L235.113 62.2222H236.695L238.728 69.5763H238.828L240.911 62.2222H242.467L239.531 71.8604H238.075L235.967 64.456H235.816L233.708 71.8604H232.252ZM248.013 72.0611C247.143 72.0611 246.379 71.8541 245.722 71.4399C245.07 71.0258 244.56 70.4464 244.191 69.7018C243.827 68.9572 243.646 68.0871 243.646 67.0915C243.646 66.0875 243.827 65.2111 244.191 64.4623C244.56 63.7135 245.07 63.132 245.722 62.7179C246.379 62.3037 247.143 62.0967 248.013 62.0967C248.883 62.0967 249.644 62.3037 250.297 62.7179C250.954 63.132 251.464 63.7135 251.828 64.4623C252.196 65.2111 252.38 66.0875 252.38 67.0915C252.38 68.0871 252.196 68.9572 251.828 69.7018C251.464 70.4464 250.954 71.0258 250.297 71.4399C249.644 71.8541 248.883 72.0611 248.013 72.0611ZM248.013 70.7309C248.674 70.7309 249.218 70.5615 249.644 70.2226C250.071 69.8838 250.387 69.4383 250.592 68.8861C250.797 68.3339 250.899 67.7357 250.899 67.0915C250.899 66.4472 250.797 65.8469 250.592 65.2906C250.387 64.7342 250.071 64.2845 249.644 63.9415C249.218 63.5985 248.674 63.4269 248.013 63.4269C247.352 63.4269 246.808 63.5985 246.381 63.9415C245.955 64.2845 245.639 64.7342 245.434 65.2906C245.229 65.8469 245.126 66.4472 245.126 67.0915C245.126 67.7357 245.229 68.3339 245.434 68.8861C245.639 69.4383 245.955 69.8838 246.381 70.2226C246.808 70.5615 247.352 70.7309 248.013 70.7309ZM260.715 67.9197V62.2222H262.196V71.8604H260.715V70.2289H260.614C260.388 70.7183 260.037 71.1346 259.56 71.4776C259.083 71.8164 258.481 71.9858 257.753 71.9858C257.151 71.9858 256.615 71.8541 256.147 71.5905C255.678 71.3228 255.31 70.9212 255.042 70.3858C254.774 69.8461 254.641 69.1663 254.641 68.3464V62.2222H256.121V68.246C256.121 68.9488 256.318 69.5094 256.711 69.9277C257.109 70.346 257.615 70.5552 258.23 70.5552C258.598 70.5552 258.972 70.4611 259.353 70.2728C259.738 70.0846 260.06 69.7959 260.319 69.4069C260.583 69.0178 260.715 68.5221 260.715 67.9197ZM266.389 59.0094V71.8604H264.908V59.0094H266.389ZM272.74 72.0611C271.937 72.0611 271.228 71.8583 270.613 71.4525C269.998 71.0425 269.517 70.4652 269.17 69.7206C268.823 68.9718 268.649 68.0871 268.649 67.0664C268.649 66.054 268.823 65.1755 269.17 64.4309C269.517 63.6863 270 63.1111 270.62 62.7053C271.239 62.2996 271.954 62.0967 272.766 62.0967C273.393 62.0967 273.889 62.2013 274.253 62.4104C274.621 62.6154 274.901 62.8497 275.094 63.1132C275.29 63.3726 275.443 63.5859 275.552 63.7532H275.677V59.0094H277.158V71.8604H275.727V70.3795H275.552C275.443 70.5552 275.288 70.7769 275.087 71.0446C274.886 71.3082 274.6 71.5445 274.228 71.7537C273.855 71.9587 273.36 72.0611 272.74 72.0611ZM272.941 70.7309C273.535 70.7309 274.037 70.5761 274.447 70.2665C274.857 69.9528 275.169 69.5198 275.382 68.9676C275.596 68.4113 275.702 67.7691 275.702 67.0413C275.702 66.3217 275.598 65.6922 275.388 65.1525C275.179 64.6087 274.87 64.1862 274.46 63.885C274.05 63.5796 273.544 63.4269 272.941 63.4269C272.314 63.4269 271.791 63.588 271.373 63.9101C270.958 64.228 270.647 64.661 270.438 65.209C270.233 65.7528 270.13 66.3636 270.13 67.0413C270.13 67.7273 270.235 68.3506 270.444 68.9112C270.657 69.4675 270.971 69.911 271.385 70.2414C271.803 70.5677 272.322 70.7309 272.941 70.7309ZM286.526 59.0094V71.8604H285.045V59.0094H286.526ZM289.239 71.8604V62.2222H290.719V71.8604H289.239ZM289.992 60.6158C289.703 60.6158 289.454 60.5175 289.245 60.3209C289.04 60.1243 288.937 59.8879 288.937 59.6118C288.937 59.3357 289.04 59.0994 289.245 58.9028C289.454 58.7062 289.703 58.6079 289.992 58.6079C290.28 58.6079 290.527 58.7062 290.732 58.9028C290.941 59.0994 291.046 59.3357 291.046 59.6118C291.046 59.8879 290.941 60.1243 290.732 60.3209C290.527 60.5175 290.28 60.6158 289.992 60.6158ZM294.812 68.3464L294.787 66.5142H295.088L299.305 62.2222H301.137L296.645 66.7652H296.519L294.812 68.3464ZM293.432 71.8604V59.0094H294.913V71.8604H293.432ZM299.556 71.8604L295.791 67.0915L296.845 66.0624L301.439 71.8604H299.556ZM306.687 72.0611C305.759 72.0611 304.958 71.8562 304.284 71.4462C303.615 71.0321 303.098 70.4548 302.734 69.7144C302.375 68.9697 302.195 68.1038 302.195 67.1166C302.195 66.1293 302.375 65.2592 302.734 64.5062C303.098 63.7491 303.604 63.1592 304.253 62.7367C304.905 62.31 305.667 62.0967 306.537 62.0967C307.039 62.0967 307.535 62.1803 308.024 62.3477C308.513 62.515 308.959 62.7869 309.361 63.1634C309.762 63.5357 310.082 64.0293 310.321 64.6443C310.559 65.2592 310.678 66.0164 310.678 66.9158V67.5432H303.249V66.2632H309.172C309.172 65.7194 309.064 65.2341 308.846 64.8074C308.633 64.3807 308.327 64.044 307.93 63.7972C307.537 63.5503 307.072 63.4269 306.537 63.4269C305.947 63.4269 305.437 63.5734 305.006 63.8662C304.579 64.1548 304.251 64.5313 304.021 64.9957C303.791 65.46 303.676 65.9578 303.676 66.4891V67.3425C303.676 68.0703 303.801 68.6874 304.052 69.1935C304.307 69.6955 304.661 70.0783 305.112 70.3418C305.564 70.6012 306.089 70.7309 306.687 70.7309C307.076 70.7309 307.428 70.6765 307.742 70.5677C308.06 70.4548 308.334 70.2875 308.564 70.0657C308.794 69.8398 308.971 69.5596 309.097 69.2249L310.528 69.6265C310.377 70.1118 310.124 70.5384 309.768 70.9066C309.413 71.2705 308.974 71.555 308.451 71.76C307.928 71.9607 307.34 72.0611 306.687 72.0611ZM322.092 62.2222V63.4771H317.097V62.2222H322.092ZM318.553 59.913H320.034V69.0994C320.034 69.5177 320.095 69.8315 320.216 70.0406C320.342 70.2456 320.5 70.3837 320.693 70.4548C320.89 70.5217 321.097 70.5552 321.314 70.5552C321.477 70.5552 321.611 70.5468 321.716 70.5301C321.82 70.5092 321.904 70.4924 321.967 70.4799L322.268 71.8102C322.168 71.8478 322.027 71.8855 321.847 71.9231C321.668 71.9649 321.44 71.9858 321.164 71.9858C320.745 71.9858 320.335 71.8959 319.934 71.716C319.536 71.5362 319.206 71.2621 318.942 70.894C318.683 70.5259 318.553 70.0616 318.553 69.501V59.913ZM328.132 72.0611C327.262 72.0611 326.498 71.8541 325.841 71.4399C325.189 71.0258 324.679 70.4464 324.31 69.7018C323.946 68.9572 323.764 68.0871 323.764 67.0915C323.764 66.0875 323.946 65.2111 324.31 64.4623C324.679 63.7135 325.189 63.132 325.841 62.7179C326.498 62.3037 327.262 62.0967 328.132 62.0967C329.002 62.0967 329.763 62.3037 330.416 62.7179C331.073 63.132 331.583 63.7135 331.947 64.4623C332.315 65.2111 332.499 66.0875 332.499 67.0915C332.499 68.0871 332.315 68.9572 331.947 69.7018C331.583 70.4464 331.073 71.0258 330.416 71.4399C329.763 71.8541 329.002 72.0611 328.132 72.0611ZM328.132 70.7309C328.793 70.7309 329.337 70.5615 329.763 70.2226C330.19 69.8838 330.506 69.4383 330.711 68.8861C330.916 68.3339 331.018 67.7357 331.018 67.0915C331.018 66.4472 330.916 65.8469 330.711 65.2906C330.506 64.7342 330.19 64.2845 329.763 63.9415C329.337 63.5985 328.793 63.4269 328.132 63.4269C327.471 63.4269 326.927 63.5985 326.5 63.9415C326.074 64.2845 325.758 64.7342 325.553 65.2906C325.348 65.8469 325.245 66.4472 325.245 67.0915C325.245 67.7357 325.348 68.3339 325.553 68.8861C325.758 69.4383 326.074 69.8838 326.5 70.2226C326.927 70.5615 327.471 70.7309 328.132 70.7309ZM344.021 62.2222V63.4771H338.826V62.2222H344.021ZM340.382 71.8604V60.8919C340.382 60.3397 340.512 59.8796 340.771 59.5114C341.03 59.1433 341.367 58.8672 341.781 58.6831C342.195 58.4991 342.632 58.4071 343.093 58.4071C343.457 58.4071 343.754 58.4363 343.984 58.4949C344.214 58.5535 344.385 58.6079 344.498 58.658L344.071 59.9381C343.996 59.913 343.892 59.8816 343.758 59.844C343.628 59.8063 343.457 59.7875 343.243 59.7875C342.754 59.7875 342.4 59.9109 342.183 60.1577C341.969 60.4046 341.863 60.7664 341.863 61.2433V71.8604H340.382ZM346.097 71.8604V62.2222H347.578V71.8604H346.097ZM346.85 60.6158C346.561 60.6158 346.312 60.5175 346.103 60.3209C345.898 60.1243 345.795 59.8879 345.795 59.6118C345.795 59.3357 345.898 59.0994 346.103 58.9028C346.312 58.7062 346.561 58.6079 346.85 58.6079C347.138 58.6079 347.385 58.7062 347.59 58.9028C347.799 59.0994 347.904 59.3357 347.904 59.6118C347.904 59.8879 347.799 60.1243 347.59 60.3209C347.385 60.5175 347.138 60.6158 346.85 60.6158ZM351.771 66.0624V71.8604H350.29V62.2222H351.721V63.7281H351.846C352.072 63.2387 352.415 62.8455 352.875 62.5485C353.335 62.2473 353.929 62.0967 354.657 62.0967C355.31 62.0967 355.881 62.2305 356.37 62.4983C356.86 62.7618 357.24 63.1634 357.512 63.703C357.784 64.2385 357.92 64.9162 357.92 65.7361V71.8604H356.439V65.8365C356.439 65.0793 356.243 64.4895 355.849 64.067C355.456 63.6403 354.917 63.4269 354.23 63.4269C353.758 63.4269 353.335 63.5294 352.963 63.7344C352.595 63.9394 352.304 64.2385 352.091 64.6317C351.877 65.0249 351.771 65.5018 351.771 66.0624ZM363.462 72.0862C362.852 72.0862 362.297 71.9712 361.8 71.7411C361.302 71.5069 360.906 71.1701 360.614 70.7309C360.321 70.2875 360.174 69.752 360.174 69.1245C360.174 68.5723 360.283 68.1247 360.501 67.7817C360.718 67.4345 361.009 67.1626 361.373 66.966C361.737 66.7693 362.138 66.6229 362.578 66.5267C363.021 66.4263 363.467 66.3468 363.914 66.2883C364.5 66.213 364.975 66.1565 365.339 66.1189C365.707 66.077 365.974 66.008 366.142 65.9118C366.313 65.8156 366.399 65.6482 366.399 65.4098V65.3596C366.399 64.7405 366.23 64.2594 365.891 63.9164C365.556 63.5734 365.048 63.4018 364.366 63.4018C363.659 63.4018 363.105 63.5566 362.703 63.8662C362.302 64.1757 362.019 64.5062 361.856 64.8576L360.45 64.3556C360.701 63.77 361.036 63.314 361.454 62.9877C361.877 62.6572 362.337 62.4271 362.835 62.2975C363.337 62.1636 363.83 62.0967 364.316 62.0967C364.625 62.0967 364.981 62.1343 365.382 62.2096C365.788 62.2807 366.179 62.4292 366.556 62.6551C366.937 62.881 367.252 63.222 367.503 63.6779C367.754 64.1339 367.88 64.7447 367.88 65.5102V71.8604H366.399V70.5552H366.324C366.223 70.7643 366.056 70.9881 365.822 71.2266C365.587 71.465 365.276 71.6679 364.887 71.8353C364.498 72.0026 364.023 72.0862 363.462 72.0862ZM363.688 70.756C364.274 70.756 364.768 70.6409 365.169 70.4109C365.575 70.1808 365.88 69.8838 366.085 69.5198C366.294 69.1559 366.399 68.7731 366.399 68.3715V67.0162C366.336 67.0915 366.198 67.1605 365.985 67.2232C365.776 67.2818 365.533 67.3341 365.257 67.3801C364.985 67.4219 364.719 67.4596 364.46 67.4931C364.205 67.5223 363.998 67.5474 363.839 67.5683C363.454 67.6185 363.094 67.7001 362.76 67.8131C362.429 67.9218 362.161 68.0871 361.956 68.3088C361.756 68.5263 361.655 68.8233 361.655 69.1998C361.655 69.7144 361.846 70.1034 362.226 70.3669C362.611 70.6263 363.098 70.756 363.688 70.756ZM372.064 66.0624V71.8604H370.583V62.2222H372.013V63.7281H372.139C372.365 63.2387 372.708 62.8455 373.168 62.5485C373.628 62.2473 374.222 62.0967 374.95 62.0967C375.603 62.0967 376.174 62.2305 376.663 62.4983C377.153 62.7618 377.533 63.1634 377.805 63.703C378.077 64.2385 378.213 64.9162 378.213 65.7361V71.8604H376.732V65.8365C376.732 65.0793 376.536 64.4895 376.142 64.067C375.749 63.6403 375.209 63.4269 374.523 63.4269C374.051 63.4269 373.628 63.5294 373.256 63.7344C372.888 63.9394 372.597 64.2385 372.384 64.6317C372.17 65.0249 372.064 65.5018 372.064 66.0624ZM384.835 72.0611C383.931 72.0611 383.153 71.8478 382.5 71.4211C381.848 70.9944 381.346 70.4067 380.994 69.6579C380.643 68.9091 380.467 68.0536 380.467 67.0915C380.467 66.1126 380.647 65.2487 381.007 64.4999C381.371 63.747 381.877 63.1592 382.525 62.7367C383.178 62.31 383.939 62.0967 384.809 62.0967C385.487 62.0967 386.098 62.2222 386.642 62.4732C387.186 62.7242 387.631 63.0756 387.978 63.5273C388.325 63.9791 388.541 64.5062 388.625 65.1086H387.144C387.031 64.6694 386.78 64.2803 386.391 63.9415C386.006 63.5985 385.487 63.4269 384.835 63.4269C384.257 63.4269 383.751 63.5775 383.316 63.8787C382.885 64.1757 382.548 64.5962 382.306 65.14C382.067 65.6796 381.948 66.3134 381.948 67.0413C381.948 67.7859 382.065 68.4343 382.299 68.9865C382.538 69.5387 382.873 69.9674 383.303 70.2728C383.739 70.5782 384.249 70.7309 384.835 70.7309C385.219 70.7309 385.569 70.6639 385.882 70.5301C386.196 70.3962 386.462 70.2038 386.679 69.9528C386.897 69.7018 387.052 69.4006 387.144 69.0492H388.625C388.541 69.6181 388.334 70.1306 388.003 70.5866C387.677 71.0383 387.244 71.3981 386.704 71.6658C386.169 71.9294 385.546 72.0611 384.835 72.0611ZM394.83 72.0611C393.902 72.0611 393.101 71.8562 392.427 71.4462C391.758 71.0321 391.241 70.4548 390.877 69.7144C390.517 68.9697 390.338 68.1038 390.338 67.1166C390.338 66.1293 390.517 65.2592 390.877 64.5062C391.241 63.7491 391.747 63.1592 392.396 62.7367C393.048 62.31 393.81 62.0967 394.68 62.0967C395.182 62.0967 395.677 62.1803 396.167 62.3477C396.656 62.515 397.102 62.7869 397.503 63.1634C397.905 63.5357 398.225 64.0293 398.464 64.6443C398.702 65.2592 398.821 66.0164 398.821 66.9158V67.5432H391.392V66.2632H397.315C397.315 65.7194 397.206 65.2341 396.989 64.8074C396.776 64.3807 396.47 64.044 396.073 63.7972C395.68 63.5503 395.215 63.4269 394.68 63.4269C394.09 63.4269 393.58 63.5734 393.149 63.8662C392.722 64.1548 392.394 64.5313 392.164 64.9957C391.933 65.46 391.818 65.9578 391.818 66.4891V67.3425C391.818 68.0703 391.944 68.6874 392.195 69.1935C392.45 69.6955 392.804 70.0783 393.255 70.3418C393.707 70.6012 394.232 70.7309 394.83 70.7309C395.219 70.7309 395.571 70.6765 395.885 70.5677C396.202 70.4548 396.476 70.2875 396.707 70.0657C396.937 69.8398 397.114 69.5596 397.24 69.2249L398.671 69.6265C398.52 70.1118 398.267 70.5384 397.911 70.9066C397.556 71.2705 397.117 71.555 396.594 71.76C396.071 71.9607 395.483 72.0611 394.83 72.0611ZM408.88 72.0862C408.269 72.0862 407.715 71.9712 407.217 71.7411C406.719 71.5069 406.324 71.1701 406.031 70.7309C405.738 70.2875 405.592 69.752 405.592 69.1245C405.592 68.5723 405.701 68.1247 405.918 67.7817C406.136 67.4345 406.426 67.1626 406.79 66.966C407.154 66.7693 407.556 66.6229 407.995 66.5267C408.438 66.4263 408.884 66.3468 409.332 66.2883C409.917 66.213 410.392 66.1565 410.756 66.1189C411.124 66.077 411.392 66.008 411.559 65.9118C411.731 65.8156 411.816 65.6482 411.816 65.4098V65.3596C411.816 64.7405 411.647 64.2594 411.308 63.9164C410.973 63.5734 410.465 63.4018 409.783 63.4018C409.076 63.4018 408.522 63.5566 408.121 63.8662C407.719 64.1757 407.437 64.5062 407.273 64.8576L405.868 64.3556C406.119 63.77 406.453 63.314 406.872 62.9877C407.294 62.6572 407.754 62.4271 408.252 62.2975C408.754 62.1636 409.248 62.0967 409.733 62.0967C410.043 62.0967 410.398 62.1343 410.8 62.2096C411.206 62.2807 411.597 62.4292 411.973 62.6551C412.354 62.881 412.67 63.222 412.921 63.6779C413.172 64.1339 413.297 64.7447 413.297 65.5102V71.8604H411.816V70.5552H411.741C411.641 70.7643 411.473 70.9881 411.239 71.2266C411.005 71.465 410.693 71.6679 410.304 71.8353C409.915 72.0026 409.44 72.0862 408.88 72.0862ZM409.106 70.756C409.691 70.756 410.185 70.6409 410.587 70.4109C410.992 70.1808 411.298 69.8838 411.503 69.5198C411.712 69.1559 411.816 68.7731 411.816 68.3715V67.0162C411.754 67.0915 411.616 67.1605 411.402 67.2232C411.193 67.2818 410.95 67.3341 410.674 67.3801C410.402 67.4219 410.137 67.4596 409.877 67.4931C409.622 67.5223 409.415 67.5474 409.256 67.5683C408.871 67.6185 408.512 67.7001 408.177 67.8131C407.847 67.9218 407.579 68.0871 407.374 68.3088C407.173 68.5263 407.073 68.8233 407.073 69.1998C407.073 69.7144 407.263 70.1034 407.644 70.3669C408.028 70.6263 408.516 70.756 409.106 70.756ZM220.422 95.4747V82.2222H221.853V83.7532H222.029C222.137 83.5859 222.288 83.3726 222.48 83.1132C222.677 82.8497 222.957 82.6154 223.321 82.4104C223.689 82.2013 224.187 82.0967 224.815 82.0967C225.626 82.0967 226.342 82.2996 226.961 82.7053C227.58 83.1111 228.063 83.6863 228.41 84.4309C228.757 85.1755 228.931 86.054 228.931 87.0664C228.931 88.0871 228.757 88.9718 228.41 89.7206C228.063 90.4652 227.582 91.0425 226.967 91.4525C226.352 91.8583 225.643 92.0611 224.84 92.0611C224.221 92.0611 223.725 91.9587 223.353 91.7537C222.98 91.5445 222.694 91.3082 222.493 91.0446C222.292 90.7769 222.137 90.5552 222.029 90.3795H221.903V95.4747H220.422ZM221.878 87.0413C221.878 87.7691 221.985 88.4113 222.198 88.9676C222.411 89.5198 222.723 89.9528 223.133 90.2665C223.543 90.5761 224.045 90.7309 224.639 90.7309C225.258 90.7309 225.775 90.5677 226.189 90.2414C226.607 89.911 226.921 89.4675 227.13 88.9112C227.343 88.3506 227.45 87.7273 227.45 87.0413C227.45 86.3636 227.346 85.7528 227.136 85.209C226.931 84.661 226.62 84.228 226.201 83.9101C225.787 83.588 225.266 83.4269 224.639 83.4269C224.037 83.4269 223.53 83.5796 223.12 83.885C222.71 84.1862 222.401 84.6087 222.192 85.1525C221.983 85.6922 221.878 86.3217 221.878 87.0413ZM231.19 91.8604V82.2222H232.621V83.6779H232.721C232.897 83.201 233.215 82.8141 233.675 82.5171C234.135 82.2201 234.654 82.0716 235.231 82.0716C235.34 82.0716 235.476 82.0737 235.639 82.0778C235.802 82.082 235.925 82.0883 236.009 82.0967V83.6026C235.959 83.5901 235.844 83.5713 235.664 83.5462C235.488 83.5169 235.302 83.5022 235.105 83.5022C234.637 83.5022 234.219 83.6005 233.85 83.7972C233.487 83.9896 233.198 84.2573 232.985 84.6003C232.775 84.9392 232.671 85.3261 232.671 85.7612V91.8604H231.19ZM241.387 92.0611C240.516 92.0611 239.753 91.8541 239.096 91.4399C238.444 91.0258 237.933 90.4464 237.565 89.7018C237.201 88.9572 237.019 88.0871 237.019 87.0915C237.019 86.0875 237.201 85.2111 237.565 84.4623C237.933 83.7135 238.444 83.132 239.096 82.7179C239.753 82.3037 240.516 82.0967 241.387 82.0967C242.257 82.0967 243.018 82.3037 243.671 82.7179C244.327 83.132 244.838 83.7135 245.202 84.4623C245.57 85.2111 245.754 86.0875 245.754 87.0915C245.754 88.0871 245.57 88.9572 245.202 89.7018C244.838 90.4464 244.327 91.0258 243.671 91.4399C243.018 91.8541 242.257 92.0611 241.387 92.0611ZM241.387 90.7309C242.048 90.7309 242.591 90.5615 243.018 90.2226C243.445 89.8838 243.761 89.4383 243.966 88.8861C244.171 88.3339 244.273 87.7357 244.273 87.0915C244.273 86.4472 244.171 85.8469 243.966 85.2906C243.761 84.7342 243.445 84.2845 243.018 83.9415C242.591 83.5985 242.048 83.4269 241.387 83.4269C240.726 83.4269 240.182 83.5985 239.755 83.9415C239.328 84.2845 239.013 84.7342 238.808 85.2906C238.603 85.8469 238.5 86.4472 238.5 87.0915C238.5 87.7357 238.603 88.3339 238.808 88.8861C239.013 89.4383 239.328 89.8838 239.755 90.2226C240.182 90.5615 240.726 90.7309 241.387 90.7309ZM248.014 82.2222H249.495V92.5631C249.495 93.1572 249.393 93.6717 249.188 94.1068C248.987 94.5418 248.682 94.8786 248.272 95.117C247.866 95.3554 247.353 95.4747 246.734 95.4747C246.684 95.4747 246.634 95.4747 246.584 95.4747C246.534 95.4747 246.483 95.4747 246.433 95.4747V94.0942C246.483 94.0942 246.529 94.0942 246.571 94.0942C246.613 94.0942 246.659 94.0942 246.709 94.0942C247.161 94.0942 247.491 93.9603 247.701 93.6926C247.91 93.4291 248.014 93.0526 248.014 92.5631V82.2222ZM248.742 80.6158C248.454 80.6158 248.205 80.5175 247.996 80.3209C247.791 80.1243 247.688 79.8879 247.688 79.6118C247.688 79.3357 247.791 79.0994 247.996 78.9028C248.205 78.7062 248.454 78.6079 248.742 78.6079C249.031 78.6079 249.278 78.7062 249.483 78.9028C249.692 79.0994 249.796 79.3357 249.796 79.6118C249.796 79.8879 249.692 80.1243 249.483 80.3209C249.278 80.5175 249.031 80.6158 248.742 80.6158ZM256.249 92.0611C255.32 92.0611 254.519 91.8562 253.845 91.4462C253.176 91.0321 252.659 90.4548 252.295 89.7144C251.936 88.9697 251.756 88.1038 251.756 87.1166C251.756 86.1293 251.936 85.2592 252.295 84.5062C252.659 83.7491 253.166 83.1592 253.814 82.7367C254.467 82.31 255.228 82.0967 256.098 82.0967C256.6 82.0967 257.096 82.1803 257.585 82.3477C258.075 82.515 258.52 82.7869 258.922 83.1634C259.323 83.5357 259.643 84.0293 259.882 84.6443C260.12 85.2592 260.239 86.0164 260.239 86.9158V87.5432H252.81V86.2632H258.733C258.733 85.7194 258.625 85.2341 258.407 84.8074C258.194 84.3807 257.888 84.044 257.491 83.7972C257.098 83.5503 256.633 83.4269 256.098 83.4269C255.508 83.4269 254.998 83.5734 254.567 83.8662C254.14 84.1548 253.812 84.5313 253.582 84.9957C253.352 85.46 253.237 85.9578 253.237 86.4891V87.3425C253.237 88.0703 253.362 88.6874 253.613 89.1935C253.868 89.6955 254.222 90.0783 254.674 90.3418C255.125 90.6012 255.65 90.7309 256.249 90.7309C256.638 90.7309 256.989 90.6765 257.303 90.5677C257.621 90.4548 257.895 90.2875 258.125 90.0657C258.355 89.8398 258.533 89.5596 258.658 89.2249L260.089 89.6265C259.938 90.1118 259.685 90.5384 259.33 90.9066C258.974 91.2705 258.535 91.555 258.012 91.76C257.489 91.9607 256.901 92.0611 256.249 92.0611ZM266.408 92.0611C265.504 92.0611 264.726 91.8478 264.073 91.4211C263.421 90.9944 262.919 90.4067 262.567 89.6579C262.216 88.9091 262.04 88.0536 262.04 87.0915C262.04 86.1126 262.22 85.2487 262.58 84.4999C262.944 83.747 263.45 83.1592 264.098 82.7367C264.751 82.31 265.512 82.0967 266.382 82.0967C267.06 82.0967 267.671 82.2222 268.215 82.4732C268.759 82.7242 269.204 83.0756 269.551 83.5273C269.898 83.9791 270.114 84.5062 270.198 85.1086H268.717C268.604 84.6694 268.353 84.2803 267.964 83.9415C267.579 83.5985 267.06 83.4269 266.408 83.4269C265.83 83.4269 265.324 83.5775 264.889 83.8787C264.458 84.1757 264.121 84.5962 263.879 85.14C263.64 85.6796 263.521 86.3134 263.521 87.0413C263.521 87.7859 263.638 88.4343 263.873 88.9865C264.111 89.5387 264.446 89.9674 264.876 90.2728C265.312 90.5782 265.822 90.7309 266.408 90.7309C266.792 90.7309 267.142 90.6639 267.455 90.5301C267.769 90.3962 268.035 90.2038 268.252 89.9528C268.47 89.7018 268.625 89.4006 268.717 89.0492H270.198C270.114 89.6181 269.907 90.1306 269.576 90.5866C269.25 91.0383 268.817 91.3981 268.277 91.6658C267.742 91.9294 267.119 92.0611 266.408 92.0611ZM276.554 82.2222V83.4771H271.559V82.2222H276.554ZM273.015 79.913H274.496V89.0994C274.496 89.5177 274.557 89.8315 274.678 90.0406C274.803 90.2456 274.962 90.3837 275.155 90.4548C275.351 90.5217 275.558 90.5552 275.776 90.5552C275.939 90.5552 276.073 90.5468 276.178 90.5301C276.282 90.5092 276.366 90.4924 276.429 90.4799L276.73 91.8102C276.629 91.8478 276.489 91.8855 276.309 91.9231C276.129 91.9649 275.901 91.9858 275.625 91.9858C275.207 91.9858 274.797 91.8959 274.395 91.716C273.998 91.5362 273.668 91.2621 273.404 90.894C273.145 90.5259 273.015 90.0616 273.015 89.501V79.913ZM283.751 95.4747V82.2222H285.182V83.7532H285.358C285.466 83.5859 285.617 83.3726 285.809 83.1132C286.006 82.8497 286.286 82.6154 286.65 82.4104C287.018 82.2013 287.516 82.0967 288.144 82.0967C288.955 82.0967 289.671 82.2996 290.29 82.7053C290.909 83.1111 291.392 83.6863 291.739 84.4309C292.086 85.1755 292.26 86.054 292.26 87.0664C292.26 88.0871 292.086 88.9718 291.739 89.7206C291.392 90.4652 290.911 91.0425 290.296 91.4525C289.681 91.8583 288.972 92.0611 288.169 92.0611C287.55 92.0611 287.054 91.9587 286.682 91.7537C286.309 91.5445 286.023 91.3082 285.822 91.0446C285.621 90.7769 285.466 90.5552 285.358 90.3795H285.232V95.4747H283.751ZM285.207 87.0413C285.207 87.7691 285.314 88.4113 285.527 88.9676C285.74 89.5198 286.052 89.9528 286.462 90.2665C286.872 90.5761 287.374 90.7309 287.968 90.7309C288.587 90.7309 289.104 90.5677 289.518 90.2414C289.936 89.911 290.25 89.4675 290.459 88.9112C290.672 88.3506 290.779 87.7273 290.779 87.0413C290.779 86.3636 290.675 85.7528 290.465 85.209C290.26 84.661 289.949 84.228 289.53 83.9101C289.116 83.588 288.595 83.4269 287.968 83.4269C287.366 83.4269 286.859 83.5796 286.449 83.885C286.04 84.1862 285.73 84.6087 285.521 85.1525C285.312 85.6922 285.207 86.3217 285.207 87.0413ZM296 79.0094V91.8604H294.519V79.0094H296ZM302.753 92.0611C301.824 92.0611 301.023 91.8562 300.35 91.4462C299.681 91.0321 299.164 90.4548 298.8 89.7144C298.44 88.9697 298.26 88.1038 298.26 87.1166C298.26 86.1293 298.44 85.2592 298.8 84.5062C299.164 83.7491 299.67 83.1592 300.318 82.7367C300.971 82.31 301.732 82.0967 302.603 82.0967C303.104 82.0967 303.6 82.1803 304.09 82.3477C304.579 82.515 305.025 82.7869 305.426 83.1634C305.828 83.5357 306.148 84.0293 306.386 84.6443C306.625 85.2592 306.744 86.0164 306.744 86.9158V87.5432H299.314V86.2632H305.238C305.238 85.7194 305.129 85.2341 304.912 84.8074C304.698 84.3807 304.393 84.044 303.996 83.7972C303.602 83.5503 303.138 83.4269 302.603 83.4269C302.013 83.4269 301.502 83.5734 301.071 83.8662C300.645 84.1548 300.316 84.5313 300.086 84.9957C299.856 85.46 299.741 85.9578 299.741 86.4891V87.3425C299.741 88.0703 299.867 88.6874 300.118 89.1935C300.373 89.6955 300.726 90.0783 301.178 90.3418C301.63 90.6012 302.155 90.7309 302.753 90.7309C303.142 90.7309 303.494 90.6765 303.807 90.5677C304.125 90.4548 304.399 90.2875 304.629 90.0657C304.859 89.8398 305.037 89.5596 305.163 89.2249L306.593 89.6265C306.443 90.1118 306.19 90.5384 305.834 90.9066C305.478 91.2705 305.039 91.555 304.516 91.76C303.993 91.9607 303.406 92.0611 302.753 92.0611ZM311.833 92.0862C311.222 92.0862 310.668 91.9712 310.17 91.7411C309.672 91.5069 309.277 91.1701 308.984 90.7309C308.691 90.2875 308.545 89.752 308.545 89.1245C308.545 88.5723 308.654 88.1247 308.871 87.7817C309.089 87.4345 309.379 87.1626 309.743 86.966C310.107 86.7693 310.509 86.6229 310.948 86.5267C311.391 86.4263 311.837 86.3468 312.285 86.2883C312.87 86.213 313.345 86.1565 313.709 86.1189C314.077 86.077 314.345 86.008 314.512 85.9118C314.684 85.8156 314.769 85.6482 314.769 85.4098V85.3596C314.769 84.7405 314.6 84.2594 314.261 83.9164C313.927 83.5734 313.418 83.4018 312.736 83.4018C312.029 83.4018 311.475 83.5566 311.074 83.8662C310.672 84.1757 310.39 84.5062 310.226 84.8576L308.821 84.3556C309.072 83.77 309.407 83.314 309.825 82.9877C310.247 82.6572 310.708 82.4271 311.205 82.2975C311.707 82.1636 312.201 82.0967 312.686 82.0967C312.996 82.0967 313.351 82.1343 313.753 82.2096C314.159 82.2807 314.55 82.4292 314.926 82.6551C315.307 82.881 315.623 83.222 315.874 83.6779C316.125 84.1339 316.25 84.7447 316.25 85.5102V91.8604H314.769V90.5552H314.694C314.594 90.7643 314.426 90.9881 314.192 91.2266C313.958 91.465 313.646 91.6679 313.257 91.8353C312.868 92.0026 312.393 92.0862 311.833 92.0862ZM312.059 90.756C312.644 90.756 313.138 90.6409 313.54 90.4109C313.945 90.1808 314.251 89.8838 314.456 89.5198C314.665 89.1559 314.769 88.7731 314.769 88.3715V87.0162C314.707 87.0915 314.569 87.1605 314.355 87.2232C314.146 87.2818 313.904 87.3341 313.627 87.3801C313.356 87.4219 313.09 87.4596 312.831 87.4931C312.575 87.5223 312.368 87.5474 312.209 87.5683C311.824 87.6185 311.465 87.7001 311.13 87.8131C310.8 87.9218 310.532 88.0871 310.327 88.3088C310.126 88.5263 310.026 88.8233 310.026 89.1998C310.026 89.7144 310.216 90.1034 310.597 90.3669C310.982 90.6263 311.469 90.756 312.059 90.756ZM325.78 84.3807L324.45 84.7572C324.366 84.5355 324.243 84.3201 324.08 84.1109C323.921 83.8976 323.703 83.7219 323.427 83.5838C323.151 83.4458 322.798 83.3767 322.367 83.3767C321.777 83.3767 321.285 83.5127 320.892 83.7846C320.503 84.0523 320.309 84.3933 320.309 84.8074C320.309 85.1755 320.442 85.4663 320.71 85.6796C320.978 85.893 321.396 86.0707 321.965 86.213L323.396 86.5644C324.258 86.7735 324.9 87.0936 325.322 87.5244C325.745 87.9511 325.956 88.5012 325.956 89.1747C325.956 89.7269 325.797 90.2205 325.479 90.6556C325.165 91.0906 324.726 91.4337 324.161 91.6847C323.597 91.9356 322.94 92.0611 322.191 92.0611C321.208 92.0611 320.394 91.8478 319.75 91.4211C319.106 90.9944 318.698 90.3711 318.527 89.5512L319.932 89.1998C320.066 89.7185 320.319 90.1076 320.691 90.3669C321.068 90.6263 321.559 90.756 322.166 90.756C322.856 90.756 323.404 90.6096 323.81 90.3167C324.22 90.0197 324.425 89.6642 324.425 89.25C324.425 88.9154 324.308 88.6351 324.074 88.4092C323.839 88.1791 323.479 88.0076 322.994 87.8946L321.388 87.5181C320.505 87.309 319.857 86.9848 319.443 86.5455C319.033 86.1021 318.828 85.5478 318.828 84.8827C318.828 84.3389 318.98 83.8578 319.286 83.4395C319.595 83.0212 320.016 82.6928 320.547 82.4543C321.082 82.2159 321.689 82.0967 322.367 82.0967C323.321 82.0967 324.069 82.3058 324.613 82.7242C325.161 83.1425 325.55 83.6947 325.78 84.3807ZM332.226 92.0611C331.297 92.0611 330.496 91.8562 329.823 91.4462C329.154 91.0321 328.637 90.4548 328.273 89.7144C327.913 88.9697 327.733 88.1038 327.733 87.1166C327.733 86.1293 327.913 85.2592 328.273 84.5062C328.637 83.7491 329.143 83.1592 329.791 82.7367C330.444 82.31 331.205 82.0967 332.076 82.0967C332.578 82.0967 333.073 82.1803 333.563 82.3477C334.052 82.515 334.498 82.7869 334.899 83.1634C335.301 83.5357 335.621 84.0293 335.859 84.6443C336.098 85.2592 336.217 86.0164 336.217 86.9158V87.5432H328.787V86.2632H334.711C334.711 85.7194 334.602 85.2341 334.385 84.8074C334.171 84.3807 333.866 84.044 333.469 83.7972C333.075 83.5503 332.611 83.4269 332.076 83.4269C331.486 83.4269 330.975 83.5734 330.544 83.8662C330.118 84.1548 329.789 84.5313 329.559 84.9957C329.329 85.46 329.214 85.9578 329.214 86.4891V87.3425C329.214 88.0703 329.34 88.6874 329.591 89.1935C329.846 89.6955 330.199 90.0783 330.651 90.3418C331.103 90.6012 331.628 90.7309 332.226 90.7309C332.615 90.7309 332.967 90.6765 333.28 90.5677C333.598 90.4548 333.872 90.2875 334.102 90.0657C334.332 89.8398 334.51 89.5596 334.636 89.2249L336.066 89.6265C335.916 90.1118 335.663 90.5384 335.307 90.9066C334.951 91.2705 334.512 91.555 333.989 91.76C333.466 91.9607 332.879 92.0611 332.226 92.0611ZM340.427 79.0094L340.302 88.246H338.846L338.721 79.0094H340.427ZM339.574 91.9607C339.264 91.9607 338.999 91.8499 338.777 91.6282C338.555 91.4065 338.444 91.1408 338.444 90.8313C338.444 90.5217 338.555 90.2561 338.777 90.0344C338.999 89.8127 339.264 89.7018 339.574 89.7018C339.884 89.7018 340.149 89.8127 340.371 90.0344C340.593 90.2561 340.703 90.5217 340.703 90.8313C340.703 91.0363 340.651 91.2245 340.547 91.396C340.446 91.5675 340.31 91.7056 340.139 91.8102C339.971 91.9106 339.783 91.9607 339.574 91.9607Z" fill="black"/>
<circle cx="171.117" cy="74.1641" r="24.6057" stroke="#6A24FF" strokeWidth="1.26183"/>
<circle cx="171.118" cy="74.1641" r="22.7129" fill="url(#paint3_linear_108_1805)"/>
<circle cx="171.118" cy="74.1639" r="30.9148" stroke="#7863EC" stroke-opacity="0.29" strokeWidth="1.26183"/>
<path d="M178.688 71.55V80.1125" stroke="url(#paint4_linear_108_1805)" strokeWidth="5.04732" strokeLinecap="round"/>
<path d="M172.381 65.241V83.7178" stroke="url(#paint5_linear_108_1805)" strokeWidth="5.04732" strokeLinecap="round"/>
<path d="M166.069 68.8462V81.4645" stroke="url(#paint6_linear_108_1805)" strokeWidth="5.04732" strokeLinecap="round"/>
<path d="M159.761 73.3528V77.4087" stroke="url(#paint7_linear_108_1805)" strokeWidth="5.04732" strokeLinecap="round"/>
</g>
</g>
</g>
<defs>
<filter id="filter0_b_108_1805" x="-1.03351" y="-1.03351" width="597.067" height="480.067" filterUnits="userSpaceOnUse" color-interpolation-filters="sRGB">
<feFlood flood-opacity="0" result="BackgroundImageFix"/>
<feGaussianBlur in="BackgroundImageFix" stdDeviation="0.516757"/>
<feComposite in2="SourceAlpha" operator="in" result="effect1_backgroundBlur_108_1805"/>
<feBlend mode="normal" in="SourceGraphic" in2="effect1_backgroundBlur_108_1805" result="shape"/>
</filter>
<filter id="filter1_f_108_1805" x="-59.569" y="-32.039" width="541.561" height="541.561" filterUnits="userSpaceOnUse" color-interpolation-filters="sRGB">
<feFlood flood-opacity="0" result="BackgroundImageFix"/>
<feBlend mode="normal" in="SourceGraphic" in2="BackgroundImageFix" result="shape"/>
<feGaussianBlur stdDeviation="49.0919" result="effect1_foregroundBlur_108_1805"/>
</filter>
<filter id="filter2_f_108_1805" x="-355.898" y="-434.234" width="990.502" height="990.502" filterUnits="userSpaceOnUse" color-interpolation-filters="sRGB">
<feFlood flood-opacity="0" result="BackgroundImageFix"/>
<feBlend mode="normal" in="SourceGraphic" in2="BackgroundImageFix" result="shape"/>
<feGaussianBlur stdDeviation="163.449" result="effect1_foregroundBlur_108_1805"/>
</filter>
<filter id="filter3_dd_108_1805" x="272" y="132.208" width="56.8076" height="56.8076" filterUnits="userSpaceOnUse" color-interpolation-filters="sRGB">
<feFlood flood-opacity="0" result="BackgroundImageFix"/>
<feColorMatrix in="SourceAlpha" type="matrix" values="0 0 0 0 0 0 0 0 0 0 0 0 0 0 0 0 0 0 127 0" result="hardAlpha"/>
<feMorphology radius="2" operator="erode" in="SourceAlpha" result="effect1_dropShadow_108_1805"/>
<feOffset dy="4"/>
<feGaussianBlur stdDeviation="3"/>
<feComposite in2="hardAlpha" operator="out"/>
<feColorMatrix type="matrix" values="0 0 0 0 0.0627451 0 0 0 0 0.0941176 0 0 0 0 0.156863 0 0 0 0.03 0"/>
<feBlend mode="normal" in2="BackgroundImageFix" result="effect1_dropShadow_108_1805"/>
<feColorMatrix in="SourceAlpha" type="matrix" values="0 0 0 0 0 0 0 0 0 0 0 0 0 0 0 0 0 0 127 0" result="hardAlpha"/>
<feMorphology radius="4" operator="erode" in="SourceAlpha" result="effect2_dropShadow_108_1805"/>
<feOffset dy="12"/>
<feGaussianBlur stdDeviation="8"/>
<feComposite in2="hardAlpha" operator="out"/>
<feColorMatrix type="matrix" values="0 0 0 0 0.0627451 0 0 0 0 0.0941176 0 0 0 0 0.156863 0 0 0 0.08 0"/>
<feBlend mode="normal" in2="effect1_dropShadow_108_1805" result="effect2_dropShadow_108_1805"/>
<feBlend mode="normal" in="SourceGraphic" in2="effect2_dropShadow_108_1805" result="shape"/>
</filter>
<filter id="filter4_dd_108_1805" x="112" y="30" width="376.908" height="129.59" filterUnits="userSpaceOnUse" color-interpolation-filters="sRGB">
<feFlood flood-opacity="0" result="BackgroundImageFix"/>
<feColorMatrix in="SourceAlpha" type="matrix" values="0 0 0 0 0 0 0 0 0 0 0 0 0 0 0 0 0 0 127 0" result="hardAlpha"/>
<feMorphology radius="4" operator="erode" in="SourceAlpha" result="effect1_dropShadow_108_1805"/>
<feOffset dy="8"/>
<feGaussianBlur stdDeviation="4"/>
<feComposite in2="hardAlpha" operator="out"/>
<feColorMatrix type="matrix" values="0 0 0 0 0.0627451 0 0 0 0 0.0941176 0 0 0 0 0.156863 0 0 0 0.03 0"/>
<feBlend mode="normal" in2="BackgroundImageFix" result="effect1_dropShadow_108_1805"/>
<feColorMatrix in="SourceAlpha" type="matrix" values="0 0 0 0 0 0 0 0 0 0 0 0 0 0 0 0 0 0 127 0" result="hardAlpha"/>
<feMorphology radius="4" operator="erode" in="SourceAlpha" result="effect2_dropShadow_108_1805"/>
<feOffset dy="20"/>
<feGaussianBlur stdDeviation="12"/>
<feComposite in2="hardAlpha" operator="out"/>
<feColorMatrix type="matrix" values="0 0 0 0 0.0627451 0 0 0 0 0.0941176 0 0 0 0 0.156863 0 0 0 0.08 0"/>
<feBlend mode="normal" in2="effect1_dropShadow_108_1805" result="effect2_dropShadow_108_1805"/>
<feBlend mode="normal" in="SourceGraphic" in2="effect2_dropShadow_108_1805" result="shape"/>
</filter>
<linearGradient id="paint0_linear_108_1805" x1="211.212" y1="66.1448" x2="211.212" y2="411.338" gradientUnits="userSpaceOnUse">
<stop stop-color="#CD64FF" stopOpacity="0.54"/>
<stop offset="0.545" stop-color="#AA34E1" stopOpacity="0.46"/>
<stop offset="1" stop-color="#5F1AF2" stopOpacity="0.65"/>
</linearGradient>
<linearGradient id="paint1_linear_108_1805" x1="293.113" y1="135.989" x2="300.404" y2="165.016" gradientUnits="userSpaceOnUse">
<stop stop-color="#FDFCFF"/>
<stop offset="1" stop-color="#ECE2EF"/>
</linearGradient>
<linearGradient id="paint2_linear_108_1805" x1="225.586" y1="40.3231" x2="231.189" y2="124.216" gradientUnits="userSpaceOnUse">
<stop stop-color="#FDFCFF"/>
<stop offset="1" stop-color="#ECE2EF"/>
</linearGradient>
<linearGradient id="paint3_linear_108_1805" x1="162.859" y1="51.4512" x2="172.151" y2="76.2289" gradientUnits="userSpaceOnUse">
<stop stop-color="#E2CFFF"/>
<stop offset="1" stop-color="#F7F2FF"/>
</linearGradient>
<linearGradient id="paint4_linear_108_1805" x1="179.188" y1="71.55" x2="179.188" y2="80.1125" gradientUnits="userSpaceOnUse">
<stop stop-color="#7B37E3"/>
<stop offset="1" stop-color="#B58EF1"/>
</linearGradient>
<linearGradient id="paint5_linear_108_1805" x1="172.881" y1="65.241" x2="172.881" y2="83.7178" gradientUnits="userSpaceOnUse">
<stop stop-color="#7B37E3"/>
<stop offset="1" stop-color="#B58EF1"/>
</linearGradient>
<linearGradient id="paint6_linear_108_1805" x1="166.569" y1="68.8462" x2="166.569" y2="81.4645" gradientUnits="userSpaceOnUse">
<stop stop-color="#7B37E3"/>
<stop offset="1" stop-color="#B58EF1"/>
</linearGradient>
<linearGradient id="paint7_linear_108_1805" x1="160.261" y1="73.3528" x2="160.261" y2="77.4087" gradientUnits="userSpaceOnUse">
<stop stop-color="#7B37E3"/>
<stop offset="1" stop-color="#B58EF1"/>
</linearGradient>
<clipPath id="clip0_108_1805">
<path d="M0 7.99999C0 3.58172 3.58172 0 8 0H587C591.418 0 595 3.58172 595 8V470C595 474.418 591.418 478 587 478H8C3.58172 478 0 474.418 0 470V7.99999Z" fill="white"/>
</clipPath>
</defs>
</svg>
