<svg width="467" height="1024" viewBox="0 0 467 1024" fill="none" xmlns="http://www.w3.org/2000/svg">
<rect width="467" height="1024" fill="url(#paint0_linear_473_22722)"/>
<mask id="mask0_473_22722" style="mask-type:alpha" maskUnits="userSpaceOnUse" x="0" y="0" width="467" height="1024">
<rect width="467" height="1024" fill="url(#paint1_linear_473_22722)"/>
</mask>
<g mask="url(#mask0_473_22722)">
<g opacity="0.2">
<path d="M-935 412.812C-877.246 356.148 -815.492 304.921 -747.868 282.354C-680.378 259.952 -605.952 269.506 -551.666 326.169C-486.843 393.869 -456.433 520.045 -382.673 566.66C-334.923 596.804 -279.171 586.921 -226.219 581.815C-173.133 576.708 -115.247 579.344 -76.0328 627.936C-5.74157 715.073 -30.817 903.842 45.343 980.601C95.6272 1031.17 165.518 1008.11 227.94 1014.04C306.901 1021.62 381.06 1082.07 424.409 1174.31C467.757 1266.56 479.361 1388.78 455.353 1498.15" stroke="#D9DFE3" strokeWidth="0.5" stroke-miterlimit="10"/>
<path d="M-927.797 398.81C-870.31 342.97 -808.555 293.06 -741.332 271.646C-700.784 258.633 -657.703 257.151 -618.089 270.328C-592.213 278.894 -567.804 293.883 -546.464 315.791C-481.774 382.502 -450.163 505.878 -378.138 554.141C-352.529 571.271 -324.919 577.366 -296.243 578.519C-271.968 579.507 -247.026 577.037 -222.484 575.225C-188.072 572.589 -151.392 572.425 -119.114 584.943C-101.241 591.861 -84.7021 602.568 -70.5638 618.711C-42.6874 650.337 -28.4158 696.294 -16.9451 745.38C-0.272594 816.045 10.9314 893.464 47.4775 943.703C51.3455 949.139 55.6137 954.08 60.1486 958.857C110.033 1010.58 176.989 992.46 235.81 1001.68C293.43 1010.91 347.582 1050.77 388.663 1112.21C400.534 1130 411.205 1149.6 420.675 1170.69C437.614 1208.74 450.018 1251.4 457.621 1295.71C469.092 1361.6 470.025 1430.94 458.955 1494.69" stroke="#D1D7DC" strokeWidth="0.5" stroke-miterlimit="10"/>
<path d="M-920.73 384.645C-863.376 329.793 -801.755 281.201 -734.798 260.611C-694.384 248.092 -651.702 246.939 -612.355 260.117C-586.613 268.682 -562.337 283.342 -540.997 305.085C-476.441 370.644 -443.896 491.383 -373.471 541.129C-348.129 558.919 -321.186 566.66 -292.776 569.131C-268.635 571.273 -243.559 569.625 -218.884 568.143C-184.205 566.166 -147.259 566.001 -114.581 577.532C-96.5745 583.956 -79.902 593.839 -65.2302 609.158C-36.6868 638.808 -20.948 681.964 -8.01018 728.58C10.7964 795.621 24.9347 870.404 62.0143 921.302C66.0157 926.738 70.1505 931.844 74.6854 936.621C124.303 989.332 188.058 976.154 243.278 989.002C297.297 1001.52 347.314 1043.52 385.861 1106.61C397.065 1124.9 407.335 1144.99 416.405 1166.57C432.811 1205.44 445.348 1248.77 453.751 1293.4C466.289 1359.79 469.89 1428.64 462.154 1490.74" stroke="#C8CDD5" strokeWidth="0.5" stroke-miterlimit="10"/>
<path d="M-913.659 370.643C-856.572 316.615 -794.951 269.34 -728.261 249.739C-688.113 237.879 -645.832 236.89 -606.752 250.068C-581.276 258.633 -557.134 273.129 -535.793 294.542C-471.238 359.113 -437.626 477.217 -368.802 528.28C-343.86 546.893 -317.45 556.118 -289.174 559.741C-265.165 563.036 -240.09 562.048 -215.148 561.224C-180.202 559.906 -142.856 559.741 -109.911 570.284C-91.638 576.213 -74.6988 585.438 -59.7602 599.604C-30.4166 627.277 -13.4774 667.468 1.061 711.778C22.135 775.36 39.2077 847.178 76.6875 898.9C80.6889 904.335 84.8237 909.606 89.3586 914.548C138.709 968.411 199.397 960.175 250.882 976.318C301.433 992.131 347.049 1036.28 383.328 1101.18C393.865 1119.95 403.602 1140.71 412.405 1162.62C428.277 1202.48 440.948 1246.29 450.018 1291.26C463.756 1358.14 469.892 1426.5 465.49 1486.78" stroke="#31363F" strokeWidth="0.5" stroke-miterlimit="10"/>
<path d="M-906.588 356.641C-849.635 303.601 -788.147 257.644 -721.857 238.866C-681.976 227.501 -639.962 226.842 -601.148 240.019C-575.806 248.585 -551.798 262.915 -530.59 283.835C-466.034 347.417 -431.489 462.885 -364.265 515.431C-339.59 534.703 -313.848 545.41 -285.838 550.516C-261.963 554.799 -236.754 554.799 -211.545 554.47C-176.333 553.811 -138.72 553.481 -105.241 563.2C-86.8348 568.471 -69.6288 577.201 -54.2901 590.214C-24.1462 615.91 -6.0065 653.466 10.1325 694.976C33.3406 754.934 53.3476 824.116 91.4943 876.497C95.4957 882.097 99.7638 887.369 104.165 892.31C153.116 947.162 210.869 943.867 258.753 963.469C305.703 982.577 347.05 1028.86 380.929 1095.57C390.799 1115.01 400.002 1136.1 408.538 1158.5C423.877 1199.18 436.682 1243.82 446.552 1288.96C461.49 1356.33 470.027 1424.19 469.093 1482.83" stroke="#383C47" strokeWidth="0.5" stroke-miterlimit="10"/>
<path d="M-899.521 342.477C-842.701 290.261 -781.346 245.622 -715.323 227.832C-675.709 216.96 -634.095 216.796 -595.414 229.808C-570.206 238.374 -546.331 252.54 -525.257 273.13C-460.834 335.723 -425.088 448.556 -359.599 502.42C-335.19 522.516 -310.115 534.705 -282.238 540.964C-258.497 546.4 -233.154 547.224 -207.812 547.224C-172.466 547.224 -134.32 546.894 -100.575 555.624C-81.9014 560.401 -64.5621 568.308 -48.9566 580.332C-18.0125 604.052 1.46101 638.808 19.0672 677.846C44.4094 734.345 67.4841 800.727 106.031 853.767C110.166 859.368 114.301 864.803 118.702 869.91C167.386 925.75 222.072 927.562 266.22 950.458C309.702 973.024 346.649 1021.29 378.26 1089.65C387.463 1109.58 396.132 1131.32 404.402 1154.05C419.207 1195.56 432.145 1240.86 442.682 1286.16C458.688 1353.86 469.892 1421.39 472.293 1478.38" stroke="#3F4350" strokeWidth="0.5" stroke-miterlimit="10"/>
<path d="M-892.451 328.476C-835.898 277.083 -774.544 233.926 -708.787 216.96C-669.44 206.583 -628.092 206.748 -589.812 219.76C-564.87 228.326 -541.129 242.327 -520.054 262.588C-455.632 324.193 -418.952 434.39 -355.063 489.572C-330.922 510.491 -306.513 524.163 -278.77 531.575C-255.162 537.999 -229.82 539.811 -204.211 540.305C-168.598 540.964 -130.185 540.635 -96.0395 548.541C-77.2329 552.824 -59.6268 560.072 -43.6212 570.943C-12.0101 592.686 8.93058 624.642 28.0039 661.21C55.6136 714.085 81.4893 777.831 120.57 831.53C124.704 837.13 128.973 842.566 133.374 847.837C181.791 904.83 233.409 911.584 273.957 937.939C313.837 963.8 346.649 1014.37 375.726 1084.37C384.262 1104.8 392.532 1127.04 400.401 1150.26C414.673 1192.76 427.744 1238.55 439.081 1284.18C456.287 1352.37 470.025 1419.42 475.761 1474.76" stroke="#464958" strokeWidth="0.5" stroke-miterlimit="10"/>
<path d="M-885.249 314.309C-828.829 263.905 -767.607 222.066 -702.251 205.923C-663.171 196.205 -622.223 196.534 -584.077 209.547C-559.268 218.113 -535.66 231.949 -514.719 251.716C-450.43 312.168 -412.683 420.059 -350.528 476.558C-326.653 498.301 -302.912 513.291 -275.435 522.186C-251.96 529.763 -226.485 532.234 -200.743 533.222C-164.863 534.54 -126.05 534.045 -91.6377 541.128C-72.5644 544.917 -54.6914 551.341 -38.419 561.389C-6.00771 581.155 16.1334 610.146 36.8073 644.408C66.551 693.824 95.361 754.77 135.108 809.128C139.243 814.893 143.511 820.329 147.913 825.6C196.063 883.581 244.613 895.441 281.426 925.09C317.839 954.41 346.249 1006.96 373.058 1078.77C380.928 1099.86 388.664 1122.42 396.266 1146.31C410.004 1189.63 423.076 1236.25 435.213 1282.04C453.486 1350.73 469.892 1417.44 478.962 1470.97" stroke="#4D5060" strokeWidth="0.5" stroke-miterlimit="10"/>
<path d="M-878.18 300.309C-821.894 250.728 -760.806 210.207 -695.717 195.053C-656.77 185.828 -616.222 186.487 -578.476 199.5C-553.8 207.901 -530.459 221.737 -509.385 241.174C-445.096 300.638 -406.415 406.059 -345.861 463.711C-322.253 486.113 -299.044 502.749 -271.835 512.797C-248.493 521.363 -222.884 524.822 -196.875 526.304C-160.729 528.281 -121.649 527.787 -86.7036 533.881C-67.4968 537.176 -49.3572 542.941 -32.6847 551.836C0.526961 569.626 24.0019 595.816 46.143 627.607C78.1542 673.399 109.899 731.71 150.046 786.726C154.181 792.492 158.449 798.092 162.85 803.528C210.601 862.662 256.35 879.628 289.295 912.408C322.373 945.187 346.248 999.709 370.79 1073.17C377.992 1094.75 385.195 1117.98 392.531 1142.19C405.735 1186.34 418.94 1233.61 431.878 1279.73C451.351 1348.92 470.291 1415.13 482.696 1467.02" stroke="#545669" strokeWidth="0.5" stroke-miterlimit="10"/>
<path d="M-871.111 286.306C-815.091 237.714 -753.869 198.511 -689.18 184.18C-650.5 175.45 -610.219 176.438 -572.739 189.451C-548.331 197.852 -524.989 211.359 -504.049 230.631C-439.76 289.107 -400.146 391.892 -341.192 451.026C-317.85 474.252 -295.309 492.371 -268.233 503.737C-245.025 513.455 -219.416 517.738 -193.14 519.714C-156.727 522.35 -117.38 521.856 -82.0344 526.962C-62.561 529.762 -44.1545 534.704 -27.3486 542.61C6.66326 558.424 31.4719 581.814 55.0802 611.134C89.2255 653.467 123.904 708.978 164.585 764.653C168.853 770.418 173.122 776.183 177.39 781.619C224.873 841.742 267.555 863.979 296.898 899.888C326.509 936.291 345.982 992.79 368.123 1067.9C374.659 1089.97 381.461 1113.69 388.397 1138.4C401.068 1183.37 414.406 1231.3 428.011 1277.76C448.685 1347.43 470.159 1413.15 485.898 1463.39" stroke="#5B5D71" strokeWidth="0.5" stroke-miterlimit="10"/>
<path d="M-864.043 272.14C-808.157 224.372 -747.069 186.486 -682.78 173.144C-644.366 165.073 -604.485 166.39 -567.139 179.238C-542.864 187.639 -519.656 200.981 -498.849 219.76C-434.693 277.247 -394.145 377.561 -336.658 437.849C-313.717 461.898 -291.709 481.499 -264.9 494.018C-241.825 504.89 -216.083 509.831 -189.674 512.302C-152.994 515.596 -113.247 515.102 -77.6345 519.22C-58.0276 521.526 -39.3544 525.644 -22.1483 532.562C12.6638 546.399 38.6729 566.989 63.8818 593.838C100.295 632.547 137.908 685.423 179.122 741.592C183.39 747.522 187.658 753.287 192.06 758.888C239.276 820.163 279.024 847.507 304.499 886.71C330.642 926.572 345.714 985.048 365.587 1061.97C371.456 1084.7 377.725 1108.92 384.394 1133.95C396.531 1179.91 410.003 1228.5 424.408 1275.12C446.149 1345.29 470.291 1410.52 489.364 1459.11" stroke="#626379" strokeWidth="0.5" stroke-miterlimit="10"/>
<path d="M-856.972 258.14C-801.22 211.359 -740.265 174.792 -676.242 162.273C-638.096 154.696 -598.482 156.343 -561.536 169.191C-537.394 177.592 -514.452 190.769 -493.645 209.218C-429.489 265.717 -388.008 363.725 -332.122 425.001C-309.447 449.874 -288.107 470.958 -261.431 484.794C-238.489 496.654 -212.614 502.584 -186.071 505.549C-149.258 509.502 -109.111 508.843 -73.098 512.138C-53.2244 513.95 -34.4178 517.409 -16.8116 523.174C18.8008 535.034 46.1437 552.824 72.8197 577.202C111.5 612.452 151.914 662.362 193.662 719.355C197.93 725.285 202.332 731.05 206.6 736.816C253.55 799.08 290.229 831.859 312.103 874.027C334.645 917.678 345.448 977.966 362.921 1056.37C368.123 1079.6 373.858 1104.31 380.261 1129.84C391.865 1176.62 405.469 1225.87 420.541 1272.81C443.483 1343.48 470.159 1408.21 492.567 1455.16" stroke="#696A82" strokeWidth="0.5" stroke-miterlimit="10"/>
<path d="M-849.903 243.974C-794.417 198.017 -733.462 162.767 -669.707 151.236C-631.827 144.153 -592.613 146.13 -555.8 158.978C-531.792 167.379 -508.984 180.392 -488.31 198.511C-424.287 253.857 -381.739 349.559 -327.454 412.153C-305.046 437.849 -284.372 460.416 -257.829 475.405C-235.021 488.418 -209.145 495.171 -182.203 498.466C-145.123 503.078 -104.575 502.419 -68.1627 504.725C-48.0224 506.043 -28.949 508.678 -11.0761 513.455C25.47 523.339 54.0134 538.328 82.1565 560.236C123.104 591.862 166.453 639.137 208.601 696.789C213.002 702.718 217.27 708.648 221.539 714.578C268.088 777.831 301.7 816.046 319.973 861.179C339.046 908.454 345.449 970.553 360.654 1050.77C365.189 1074.66 370.524 1099.86 376.526 1125.72C387.597 1173.32 401.335 1223.23 417.207 1270.51C441.349 1341.67 470.559 1405.91 496.301 1451.21" stroke="#70708A" strokeWidth="0.5" stroke-miterlimit="10"/>
<path d="M-842.703 229.972C-787.35 185.003 -726.529 151.071 -663.173 140.364C-625.56 133.94 -586.613 136.082 -550.2 148.93C-526.459 157.33 -503.784 170.179 -483.11 187.804C-419.088 242.161 -375.739 335.393 -322.921 399.139C-300.78 425.824 -280.773 449.543 -254.497 466.015C-231.822 480.181 -205.813 487.758 -178.737 491.547C-141.39 496.818 -100.576 496.159 -63.7633 497.477C-43.4895 498.301 -24.1494 500.277 -6.00974 504.066C31.3367 511.808 61.2138 524.162 90.8242 543.599C133.906 571.766 180.189 616.24 223.004 674.551C227.405 680.645 231.673 686.575 235.942 692.505C282.224 756.911 312.769 800.397 327.307 848.495C342.779 899.558 344.913 963.469 357.851 1045.34C361.719 1069.71 366.521 1095.41 372.256 1121.77C382.793 1170.36 396.664 1220.93 413.204 1268.2C438.412 1339.85 470.29 1403.6 499.367 1447.09" stroke="#777792" strokeWidth="0.5" stroke-miterlimit="10"/>
<path d="M-835.632 215.972C-780.413 171.827 -719.725 139.377 -656.636 129.494C-619.156 123.564 -580.609 126.199 -544.463 138.883C-520.855 147.283 -498.314 159.967 -477.64 177.263C-413.751 230.632 -369.469 321.557 -318.118 386.292C-296.377 413.8 -276.903 439.002 -250.761 456.627C-228.219 471.782 -202.077 480.182 -174.867 484.63C-137.254 490.56 -96.0399 489.736 -58.9603 490.23C-38.4197 490.56 -18.8128 491.713 -0.406408 494.513C37.7403 500.278 68.9512 509.832 100.029 526.633C145.378 551.177 194.462 593.015 237.81 651.985C242.212 658.08 246.613 664.174 250.748 670.269C296.764 735.663 324.107 784.585 335.178 835.812C347.048 890.499 344.914 956.223 355.451 1039.74C358.653 1064.61 362.921 1090.96 368.389 1117.65C378.393 1167.06 392.398 1218.29 409.737 1265.9C436.146 1338.04 470.558 1401.3 502.97 1443.13" stroke="#7E7E9B" strokeWidth="0.5" stroke-miterlimit="10"/>
<path d="M-828.562 201.806C-773.609 158.65 -712.922 127.353 -650.1 118.458C-612.887 113.022 -574.74 115.987 -538.727 128.835C-515.252 137.236 -492.845 149.755 -472.304 166.721C-408.415 219.102 -363.199 307.721 -313.448 373.609C-291.974 401.941 -273.034 428.625 -247.159 447.403C-224.751 463.711 -198.608 472.935 -171.132 477.712C-133.252 484.301 -91.7709 483.477 -54.2911 482.983C-33.6172 482.653 -13.7436 483.148 5.06296 484.96C44.0099 488.748 76.4213 495.502 109.099 509.832C156.716 530.752 208.734 569.955 252.483 629.584C257.018 635.678 261.286 641.938 265.554 648.032C311.17 714.579 335.445 768.772 342.915 822.965C351.051 881.44 344.782 948.975 353.051 1034.14C355.586 1059.67 359.32 1086.35 364.522 1113.7C373.992 1164.1 388.13 1215.82 406.137 1263.75C433.746 1336.4 470.693 1399.15 506.572 1439.35" stroke="#8584A3" strokeWidth="0.5" stroke-miterlimit="10"/>
<path d="M-821.494 187.803C-766.675 145.47 -706.121 115.656 -643.565 107.585C-606.619 102.643 -568.739 105.938 -533.127 118.786C-509.919 127.187 -487.644 139.541 -467.104 156.012C-403.348 207.405 -357.199 293.718 -308.915 360.595C-287.841 389.75 -269.435 417.917 -243.826 438.013C-221.551 455.473 -195.275 465.521 -167.666 470.792C-129.519 478.04 -87.6376 477.216 -49.7577 475.898C-28.817 475.075 -8.81006 474.745 10.3967 475.569C50.1439 477.216 83.8891 481.334 118.034 493.194C167.919 510.654 222.738 547.057 267.153 607.345C271.688 613.44 276.09 619.699 280.224 625.958C325.574 693.493 346.514 752.957 350.649 810.28C355.051 872.379 344.514 941.726 350.516 1028.7C352.383 1054.72 355.584 1082.07 360.519 1109.74C369.456 1160.97 383.594 1213.51 402.401 1261.61C431.077 1334.75 470.691 1397.01 509.905 1435.56" stroke="#8C8BAC" strokeWidth="0.5" stroke-miterlimit="10"/>
<path d="M-814.424 173.803C-759.738 132.458 -699.317 103.797 -637.162 96.7142C-600.482 92.4315 -563.003 95.8906 -527.523 108.739C-504.449 116.975 -482.308 129.164 -461.901 145.471C-398.145 195.711 -351.195 279.883 -304.379 347.912C-283.571 378.056 -265.832 407.54 -240.356 428.789C-218.215 447.403 -191.806 458.11 -163.93 464.039C-125.65 471.946 -83.3681 471.122 -45.088 468.816C-24.014 467.499 -3.60688 467.004 15.7332 466.181C56.2807 464.698 91.3597 467.169 126.972 476.558C178.99 490.395 236.877 524.162 281.693 585.109C286.228 591.368 290.629 597.627 294.764 604.051C339.847 672.74 357.586 737.474 358.12 797.762C358.787 863.485 344.115 934.809 347.849 1023.26C348.916 1049.78 351.717 1077.62 356.386 1105.79C364.789 1157.84 379.06 1211.04 398.667 1259.47C428.544 1333.1 470.692 1394.87 513.241 1431.77" stroke="#9391B4" strokeWidth="0.5" stroke-miterlimit="10"/>
<path d="M-807.357 159.638C-752.938 119.117 -692.517 91.9384 -630.628 85.6791C-594.216 81.8905 -557.003 85.8438 -521.924 98.5272C-498.982 106.763 -476.975 118.788 -456.701 134.601C-392.945 183.852 -345.329 265.718 -299.846 334.736C-279.439 365.703 -262.233 396.67 -236.891 419.237C-214.883 438.838 -188.474 450.534 -160.331 456.793C-121.784 465.358 -79.1021 464.37 -40.5552 461.24C-19.2144 459.428 1.32601 457.617 21.0662 456.463C62.414 453.993 98.8268 452.51 135.906 459.593C190.192 469.806 250.88 500.938 296.229 562.543C300.898 568.802 305.166 575.227 309.3 581.651C354.116 651.327 368.521 721.333 365.587 784.915C362.519 854.262 343.712 927.398 345.18 1017.66C345.58 1044.84 347.981 1073.17 352.249 1101.67C360.118 1154.71 374.523 1208.41 394.797 1257.17C425.875 1331.13 470.423 1392.57 516.44 1427.82" stroke="#9A98BC" strokeWidth="0.5" stroke-miterlimit="10"/>
<path d="M-800.153 145.636C-745.867 106.103 -685.579 80.0772 -623.958 74.8062C-587.812 71.5118 -550.866 75.7945 -516.053 88.4779C-493.379 96.7139 -471.504 108.574 -451.231 124.057C-387.608 172.32 -339.058 251.88 -295.043 321.886C-275.036 353.842 -258.363 386.127 -233.288 409.846C-211.413 430.601 -184.871 443.12 -156.594 449.873C-117.781 459.098 -74.8324 458.109 -35.8854 453.991C-14.4112 451.685 6.52952 449.05 26.5365 446.908C68.6846 442.296 106.431 438.178 144.978 442.79C201.531 449.544 265.02 477.711 311.036 540.14C315.704 546.399 320.106 552.988 324.241 559.577C368.656 630.241 379.86 705.518 373.591 772.23C366.655 845.201 343.714 920.313 342.914 1012.23C342.647 1039.9 344.514 1068.73 348.516 1097.72C355.852 1151.58 370.39 1206.1 391.464 1255.02C423.609 1329.48 470.825 1390.42 520.176 1424.03" stroke="#A19EC5" strokeWidth="0.5" stroke-miterlimit="10"/>
<path d="M-793.083 131.47C-738.931 92.7609 -678.776 68.2177 -617.555 63.7702C-581.542 61.1347 -545.129 65.5821 -510.451 78.2656C-487.909 86.5016 -466.169 98.1967 -445.895 113.351C-382.273 160.626 -333.055 237.879 -290.374 309.038C-270.767 341.817 -254.628 375.585 -229.686 400.622C-207.945 422.53 -181.269 435.872 -152.859 442.955C-113.779 452.674 -70.4301 451.85 -31.2163 446.744C-9.4754 443.944 11.5986 440.485 32.0057 437.355C74.9541 430.766 113.901 423.848 154.048 425.989C212.736 429.119 279.292 454.65 325.709 517.738C330.377 524.162 334.778 530.751 338.913 537.34C383.062 609.158 390.931 689.541 381.195 759.382C370.524 835.812 343.448 912.901 340.38 1006.46C339.447 1034.79 340.78 1063.95 344.515 1093.43C351.317 1148.12 365.989 1203.3 387.73 1252.55C421.075 1327.5 470.826 1387.95 523.511 1419.91" stroke="#A8A5CD" strokeWidth="0.5" stroke-miterlimit="10"/>
<path d="M-786.015 117.469C-732.13 79.5834 -671.975 56.5226 -611.021 52.8988C-575.275 50.7574 -539.129 55.5343 -504.85 68.2177C-482.442 76.4537 -460.968 87.9841 -440.694 102.644C-377.206 148.766 -327.055 223.878 -285.84 296.025C-266.634 329.793 -251.028 364.878 -226.219 391.069C-204.612 414.129 -177.936 428.131 -149.126 435.872C-109.779 446.25 -66.1634 445.261 -26.4162 439.332C-4.40847 436.037 16.799 431.754 37.4729 427.636C81.2215 418.906 121.502 409.188 163.117 409.023C224.071 408.364 293.429 431.425 340.379 495.172C345.181 501.596 349.449 508.184 353.583 515.103C397.466 587.909 402 673.563 388.929 746.534C374.524 826.588 343.313 905.653 337.845 1000.86C336.244 1029.69 337.044 1059.5 340.512 1089.32C346.781 1144.99 361.586 1200.67 384.128 1250.25C418.673 1325.69 470.958 1385.65 526.978 1415.96" stroke="#AFABD5" strokeWidth="0.5" stroke-miterlimit="10"/>
<path d="M-778.945 103.468C-725.193 66.5712 -665.172 44.6635 -604.484 42.028C-569.005 40.3808 -533.259 45.6518 -499.114 58.1705C-476.973 66.4065 -455.499 77.7722 -435.359 92.1028C-371.87 137.236 -321.052 210.042 -281.171 283.178C-262.231 317.769 -247.293 354.337 -222.751 381.845C-201.277 406.059 -174.467 420.884 -145.524 429.12C-105.91 440.156 -61.8945 439.168 -21.8805 432.249C0.260603 428.461 21.8682 423.354 42.8088 418.248C87.3577 407.377 128.972 395.023 172.054 392.387C235.276 388.104 307.568 408.53 355.051 472.935C359.853 479.359 364.255 486.113 368.256 493.031C411.871 566.99 413.205 657.751 396.532 734.016C378.259 817.529 342.914 898.571 335.311 995.591C333.044 1024.91 333.444 1055.22 336.511 1085.53C342.247 1142.03 357.185 1198.53 380.394 1248.11C416.006 1324.04 470.959 1383.51 530.313 1412.17" stroke="#B6B2DE" strokeWidth="0.5" stroke-miterlimit="10"/>
<path d="M-771.875 89.3021C-718.39 53.2285 -658.369 32.8032 -598.081 30.9913C-562.869 29.8383 -527.39 35.4387 -493.645 47.9574C-471.637 56.1934 -450.296 67.3944 -430.289 81.3956C-366.934 125.54 -315.316 196.041 -276.769 270.329C-258.362 305.909 -243.824 343.794 -219.415 372.456C-198.075 397.658 -171.265 413.471 -142.055 422.036C-102.308 433.731 -57.8922 432.743 -17.4781 424.836C4.92977 420.554 26.6707 414.624 48.0115 408.694C93.3607 395.681 136.176 380.692 180.858 375.585C246.214 367.843 321.44 385.468 369.457 450.533C374.259 457.122 378.661 463.875 382.795 470.958C426.011 545.906 424.143 641.937 404.003 721.332C381.995 808.469 342.381 891.323 332.644 989.99C329.577 1019.97 329.577 1050.77 332.378 1081.57C337.58 1138.9 352.651 1196.05 376.66 1245.96C413.473 1322.39 470.96 1381.36 533.648 1408.21" stroke="#26205A" strokeWidth="0.5" stroke-miterlimit="10"/>
<path d="M-764.808 75.3012C-711.456 40.2159 -651.568 20.9436 -591.547 20.12C-556.602 19.6259 -521.389 25.3911 -487.911 37.9098C-466.037 46.1458 -444.963 57.0173 -424.956 70.689C-361.6 113.846 -309.315 182.204 -272.102 257.317C-254.096 293.72 -240.091 333.088 -215.949 362.902C-194.742 389.257 -167.799 405.729 -138.455 414.954C-98.4413 427.308 -53.6257 426.155 -12.9448 417.424C9.59639 412.647 31.6042 406.059 53.3451 398.976C99.4946 383.986 143.643 366.197 189.793 358.455C257.416 347.089 335.444 362.079 383.994 427.802C388.796 434.391 393.331 441.309 397.332 448.392C440.28 524.492 435.079 625.466 411.604 708.155C385.861 798.751 342.113 883.746 329.975 984.061C326.241 1014.53 325.707 1045.83 328.241 1077.13C332.91 1135.44 348.115 1193.09 372.79 1243.33C410.804 1320.25 470.825 1378.73 536.848 1403.93" stroke="#1D1654" strokeWidth="0.5" stroke-miterlimit="10"/>
<path d="M-757.604 61.1345C-704.386 26.8728 -644.631 9.08301 -584.877 9.08301C-550.198 9.08301 -515.386 15.1776 -482.041 27.6964C-460.3 35.7676 -439.36 46.6391 -419.486 59.9814C-356.264 102.15 -303.312 168.202 -267.299 244.468C-249.693 281.859 -236.222 322.38 -212.213 353.677C-191.139 381.185 -164.063 398.481 -134.453 408.199C-94.1722 421.212 -49.0897 420.059 -7.8753 410.505C14.9327 405.234 37.0737 397.822 59.0814 389.751C105.898 372.455 151.514 352.194 199.13 341.982C269.022 327.157 349.983 339.346 399.067 405.728C404.002 412.317 408.404 419.4 412.405 426.483C455.087 503.572 446.55 609.816 419.608 695.635C389.997 789.526 342.114 876.662 327.842 978.789C323.441 1009.76 322.507 1041.71 324.641 1073.34C328.776 1132.47 344.115 1190.78 369.59 1241.35C408.67 1318.77 471.359 1376.75 540.717 1400.31" stroke="#130B50" strokeWidth="0.5" stroke-miterlimit="10"/>
<path d="M-750.534 47.1335C-666.772 -5.41215 -566.337 -16.2837 -476.438 17.6486C-386.54 51.5809 -308.38 130.152 -262.897 231.62C-245.691 269.999 -232.753 311.838 -208.878 344.288C-159.528 411.658 -75.6316 421.377 -3.47297 403.093C68.5522 384.809 135.776 343.464 207.934 325.016C279.96 306.567 363.856 316.121 413.473 383.162C471.227 461.404 460.289 585.438 427.078 682.787C393.733 780.302 341.715 869.25 325.042 973.024C310.504 1063.62 325.309 1160.97 365.59 1238.88C405.87 1316.79 471.093 1374.28 543.785 1396.19" stroke="#09004C" strokeWidth="0.5" stroke-miterlimit="10"/>
<path d="M-728.261 40.8742C-645.031 -10.1889 -545.797 -19.7427 -457.232 14.8485C-368.668 49.4397 -291.441 127.352 -247.292 228.325C-230.086 267.693 -218.082 311.344 -195.007 344.947C-148.191 413.141 -67.0959 424.672 2.79522 409.682C72.553 394.692 138.443 357.301 209.801 341.159C282.093 324.687 366.389 332.428 417.34 397.657C476.294 473.593 468.691 596.804 436.68 694.977C404.669 793.15 351.317 882.593 332.777 983.731C316.772 1071.2 330.243 1164.76 367.59 1240.2C404.936 1315.64 466.424 1372.47 536.449 1395.2" stroke="#08014F" strokeWidth="0.5" stroke-miterlimit="10"/>
<path d="M-705.852 34.7803C-623.29 -14.6356 -525.122 -23.0363 -437.758 12.049C-350.394 47.1343 -274.234 124.717 -231.553 225.196C-214.347 265.718 -203.41 310.851 -181.135 345.607C-136.986 414.46 -58.5589 427.967 8.93138 416.271C76.555 404.741 141.111 371.138 211.669 357.137C284.228 342.806 369.057 348.407 421.342 411.989C481.63 485.454 477.095 608.17 446.551 706.837C416.007 805.504 361.321 895.606 340.781 993.944C323.175 1078.12 335.446 1168.22 369.858 1241.19C404.403 1314.16 462.023 1370.33 529.38 1393.88" stroke="#030152" strokeWidth="0.5" stroke-miterlimit="10"/>
<path d="M-683.579 28.5214C-601.55 -19.2473 -504.583 -26.3303 -418.42 9.08446C-332.256 44.4992 -257.296 121.918 -215.949 221.903C-198.743 263.577 -188.872 310.192 -167.265 346.266C-125.65 415.778 -50.1573 431.097 15.1989 422.861C80.5551 414.625 143.777 384.81 213.668 373.115C286.36 360.926 371.857 364.385 425.342 426.32C486.964 497.479 485.497 619.536 456.42 718.698C427.343 817.859 371.19 908.455 348.649 1004.32C329.709 1085.03 340.379 1171.68 371.99 1242.34C403.601 1312.84 457.487 1368.19 522.176 1392.73" stroke="#030456" strokeWidth="0.5" stroke-miterlimit="10"/>
<path d="M-661.17 22.2612C-579.808 -24.025 -483.774 -29.7902 -398.945 6.28343C-314.115 42.3571 -240.223 119.446 -200.209 218.772C-183.003 261.599 -174.199 309.533 -153.259 347.089C-114.178 417.095 -41.4864 434.555 21.6024 429.778C84.6911 425.001 146.579 398.976 215.804 389.422C288.896 379.209 374.659 380.856 429.612 440.979C492.567 509.832 494.168 631.066 466.558 730.886C438.815 830.706 381.462 921.467 356.92 1014.86C336.513 1092.28 345.849 1175.46 374.526 1243.66C403.203 1311.85 453.353 1366.38 515.375 1391.91" stroke="#03075B" strokeWidth="0.5" stroke-miterlimit="10"/>
<path d="M-638.897 16.1658C-558.068 -28.4733 -463.235 -33.0854 -379.739 3.4824C-296.243 40.0502 -223.418 116.81 -184.738 215.477C-167.532 259.457 -159.662 308.873 -139.522 347.582C-102.976 418.082 -33.0848 437.684 27.7365 436.201C88.5578 434.719 149.246 412.811 217.67 405.234C291.029 397.163 377.192 396.833 433.479 455.144C497.634 521.691 502.569 642.266 476.16 742.58C449.884 842.895 391.197 934.15 364.521 1025.07C342.78 1099.2 350.65 1178.76 376.392 1244.48C402.134 1310.2 448.55 1364.07 507.771 1390.42" stroke="#040A5F" strokeWidth="0.5" stroke-miterlimit="10"/>
<path d="M-616.488 9.90648C-536.326 -33.0854 -442.56 -36.5445 -360.265 0.682152C-277.969 37.9088 -206.478 114.339 -168.998 212.347C-151.792 257.48 -144.989 308.214 -125.649 348.406C-91.5039 419.235 -24.6805 440.978 34.0067 442.955C92.5605 444.932 151.915 426.812 219.672 421.377C293.297 415.611 379.861 412.976 437.615 469.64C503.104 533.88 511.107 653.796 486.165 754.77C461.223 855.743 401.469 947.162 372.658 1035.62C349.717 1106.28 355.853 1182.55 378.794 1245.8C401.735 1309.05 444.284 1362.09 500.837 1389.44" stroke="#040E66" strokeWidth="0.5" stroke-miterlimit="10"/>
<path d="M-594.213 3.64806C-514.585 -37.6966 -422.02 -40.0027 -340.925 -2.28184C-259.83 35.439 -189.672 111.704 -153.392 209.054C-136.186 255.34 -130.318 307.391 -111.778 348.901C-80.0334 419.895 -16.1443 444.109 40.142 449.38C96.5618 454.651 154.582 440.65 221.539 437.355C295.431 433.732 382.528 429.119 441.482 483.971C508.172 545.906 519.376 664.998 495.901 766.63C472.426 868.263 411.472 959.682 380.528 1046C356.386 1113.2 360.921 1186.01 380.928 1246.95C400.935 1307.74 439.615 1360.12 493.634 1388.28" stroke="#05116A" strokeWidth="0.5" stroke-miterlimit="10"/>
<path d="M-571.805 -2.44611C-492.844 -42.3083 -401.345 -43.2966 -321.584 -5.08164C-241.823 33.1334 -172.865 109.234 -137.786 205.925C-120.58 253.364 -115.779 306.568 -97.9057 349.725C-68.4287 420.884 -7.6075 447.569 46.4114 456.134C100.564 464.864 157.384 450.204 223.54 453.498C297.699 457.122 385.197 445.427 445.618 498.467C513.508 558.096 527.913 676.529 505.772 778.655C483.631 880.782 421.743 972.531 388.398 1056.37C363.056 1120.28 365.99 1189.63 383.063 1247.94C400.135 1306.42 435.081 1357.81 486.432 1386.97" stroke="#05136F" strokeWidth="0.5" stroke-miterlimit="10"/>
<path d="M-549.532 -8.70638C-471.105 -46.9214 -380.673 -46.7567 -302.246 -7.88278C-223.685 30.8264 -156.061 106.762 -122.183 202.629C-104.977 251.222 -101.109 305.744 -84.036 350.218C-56.8265 421.542 0.793683 450.533 52.6785 462.722C104.563 474.746 160.316 463.875 225.539 469.475C299.965 475.735 387.863 461.569 449.617 512.797C518.842 570.119 536.314 687.894 515.641 790.514C494.967 893.135 432.011 985.048 396.399 1066.58C369.99 1127.04 371.057 1192.92 385.328 1248.93C399.6 1304.93 430.677 1355.67 479.361 1385.65" stroke="#061774" strokeWidth="0.5" stroke-miterlimit="10"/>
<path d="M-527.124 -14.9655C-449.23 -51.5333 -359.999 -50.2156 -282.772 -10.8475C-205.545 28.5205 -139.255 104.127 -106.443 199.335C-89.3706 249.08 -86.3028 304.756 -70.1638 350.877C-45.2218 422.201 9.33063 453.827 58.948 469.311C108.565 484.794 162.984 482.818 227.54 485.453C302.5 488.583 390.531 477.547 453.753 527.127C524.178 582.144 544.985 699.26 525.645 802.374C506.305 905.489 442.549 997.567 404.402 1076.96C377.059 1133.96 376.259 1196.55 387.596 1250.08C398.934 1303.62 426.277 1353.69 472.293 1384.49" stroke="#9DADFA" strokeWidth="0.5" stroke-miterlimit="10"/>
<path d="M-504.849 -21.0605C-427.622 -55.9811 -339.458 -53.3456 -263.432 -13.6481C-187.405 26.0494 -122.449 101.656 -90.8379 196.205C-73.7652 247.103 -71.4978 303.932 -56.2925 351.701C-33.4845 423.189 17.7334 457.286 65.2167 476.064C112.567 494.842 165.652 496.983 229.407 501.596C304.634 507.031 393.065 493.854 457.621 541.458C529.246 594.333 553.254 710.46 535.381 814.234C517.508 918.007 452.819 1010.09 412.271 1087.17C383.995 1140.87 381.327 1199.84 389.73 1250.91C398.133 1301.97 421.741 1351.22 465.09 1383.01" stroke="#98AAF9" strokeWidth="0.5" stroke-miterlimit="10"/>
<path d="M-482.44 -27.3197C-405.747 -60.7578 -318.783 -56.8045 -244.09 -16.4482C-169.397 23.9082 -105.775 99.3499 -75.2312 193.076C-58.2919 245.127 -56.8247 303.108 -42.4197 352.36C-21.6124 423.683 26.271 460.416 71.3534 482.653C116.436 504.89 168.321 511.15 231.276 517.738C306.903 525.645 395.6 510.161 461.49 555.953C534.316 606.522 561.525 721.991 544.986 826.423C528.447 930.856 463.224 1022.93 419.875 1097.88C390.932 1148.12 385.997 1203.8 391.599 1252.39C397.201 1300.98 416.941 1349.57 457.622 1382.19" stroke="#93A7F9" strokeWidth="0.5" stroke-miterlimit="10"/>
<path d="M-460.167 -33.4142C-384.141 -65.2051 -298.244 -60.0988 -224.751 -19.2483C-151.259 21.6022 -89.1039 96.8792 -59.7604 189.946C-42.8211 243.315 -42.1542 302.285 -28.6828 353.183C-9.87625 424.507 34.6727 463.875 77.4877 489.407C120.436 514.938 170.987 525.48 233.142 533.881C309.035 544.094 398 526.469 465.49 570.449C539.516 618.712 569.927 733.521 554.855 838.448C539.783 943.374 473.893 1035.62 427.877 1108.26C398.133 1155.2 391.197 1207.26 393.865 1253.54C396.533 1299.83 412.538 1347.6 450.551 1381.04" stroke="#8EA3F9" strokeWidth="0.5" stroke-miterlimit="10"/>
<path d="M-437.759 -39.6742C-362.266 -69.8179 -277.436 -63.5586 -205.277 -22.2139C-133.119 19.1308 -72.2976 94.4078 -44.021 186.486C-27.2151 241.008 -27.0817 301.131 -14.8108 353.512C1.99512 424.836 43.0761 466.839 83.757 495.83C124.438 524.821 173.788 539.481 235.143 549.693C311.437 562.377 400.668 542.446 469.492 584.614C544.718 630.736 578.463 744.557 564.725 850.142C550.987 955.728 484.697 1048.14 435.88 1118.47C405.603 1162.12 396.4 1210.71 396.133 1254.36C395.866 1298.18 408.137 1345.13 443.483 1379.72" stroke="#88A0F8" strokeWidth="0.5" stroke-miterlimit="10"/>
<path d="M-415.485 -45.9328C-340.659 -74.594 -256.896 -67.0169 -185.938 -25.0133C-114.98 16.9902 -55.7591 91.9378 -28.4162 183.357C-11.7437 239.033 -12.2772 300.144 -0.939914 354.336C13.9986 425.495 51.6118 470.135 90.0253 502.584C128.439 535.034 176.589 553.812 237.143 565.837C313.837 580.991 403.335 558.919 473.626 599.11C550.053 642.926 586.999 756.088 574.595 862.168C562.324 968.247 495.634 1060.98 443.749 1128.85C412.805 1169.37 401.468 1214.17 398.266 1255.52C395.065 1296.86 403.602 1343.15 436.28 1378.56" stroke="#839EF8" strokeWidth="0.5" stroke-miterlimit="10"/>
<path d="M-393.076 -52.0268C-318.784 -79.0408 -236.222 -70.3107 -166.597 -27.813C-96.9728 14.6847 -39.0859 89.6323 -12.8101 180.228C3.72904 237.221 2.66199 299.321 12.9322 355.161C26.0035 426.32 60.1488 473.594 96.2947 509.338C132.441 545.083 179.39 568.308 239.145 581.98C316.105 599.77 406.003 575.226 477.628 613.606C555.255 655.28 595.403 767.619 584.466 874.193C573.528 980.931 506.572 1074 451.752 1139.39C420.408 1176.78 406.537 1217.8 400.534 1256.84C394.532 1295.71 399.201 1341.17 429.078 1377.58" stroke="#0CAE5C" strokeWidth="0.5" stroke-miterlimit="10"/>
<path d="M-370.802 -58.2877C-297.176 -83.6545 -215.681 -73.7713 -147.257 -30.7794C-78.8332 12.2124 -22.5469 86.9953 2.79535 176.932C19.2011 235.078 17.6005 298.331 26.8037 355.653C38.0077 426.812 68.5516 476.722 102.43 515.761C136.309 554.964 181.925 582.308 241.012 597.792C318.239 618.052 408.537 591.203 481.63 627.771C560.457 667.139 603.806 778.654 594.336 886.051C584.866 993.449 517.642 1087.01 459.622 1149.6C427.744 1183.86 411.605 1221.26 402.668 1257.66C393.732 1294.06 394.666 1338.87 421.875 1376.09" stroke="#7898F7" strokeWidth="0.5" stroke-miterlimit="10"/>
<path d="M-348.529 -64.5471C-275.437 -88.2667 -195.142 -77.2305 -127.919 -33.5798C-60.6954 10.071 -5.87624 84.6891 18.3989 173.638C34.6713 233.102 32.6706 297.178 40.54 356.312C50.01 427.306 76.9528 479.852 108.564 522.35C140.175 564.847 184.59 596.638 242.878 613.934C320.505 636.83 411.07 607.51 485.496 642.266C565.524 679.492 612.207 790.184 604.07 898.076C595.934 1005.97 528.711 1100.35 467.489 1159.98C435.345 1191.28 416.672 1224.72 404.801 1258.81C393.063 1292.91 390.129 1336.89 414.671 1374.94" stroke="#7396F6" strokeWidth="0.5" stroke-miterlimit="10"/>
<path d="M-326.12 -70.6418C-253.561 -92.879 -174.467 -80.3603 -108.444 -36.3801C-42.554 7.60015 10.798 82.383 34.1395 170.508C50.2785 231.125 47.8777 296.354 54.5467 356.971C62.2827 427.965 85.4908 483.146 114.968 529.103C144.445 575.06 187.527 611.134 245.013 630.076C322.907 655.608 413.739 623.982 489.766 656.761C570.994 691.846 620.878 801.714 614.076 910.1C607.407 1018.49 540.183 1113.86 475.627 1170.52C443.083 1199.02 421.875 1228.5 407.203 1260.13C392.532 1291.76 385.863 1334.91 407.737 1373.95" stroke="#86A4F7" strokeWidth="0.5" stroke-miterlimit="10"/>
<path d="M-303.847 -76.9C-231.821 -97.49 -153.794 -83.8182 -89.1049 -39.3439C-24.4156 5.29521 27.3358 79.9133 49.7437 167.215C65.6159 229.149 63.0817 295.367 68.4169 357.631C74.5523 428.625 94.0259 486.442 121.235 535.693C148.445 584.944 190.193 625.465 246.879 646.055C325.04 674.387 416.272 640.126 493.632 671.093C576.061 704.037 629.146 813.081 623.811 921.961C618.476 1030.84 551.386 1127.53 483.362 1180.74C450.417 1206.43 426.809 1231.8 409.203 1260.95C391.597 1290.11 381.193 1332.61 400.4 1372.47" stroke="#81A0F7" strokeWidth="0.5" stroke-miterlimit="10"/>
<path d="M-281.438 -83.1602C-210.08 -102.103 -133.12 -87.2781 -69.764 -42.1449C-6.40852 2.98832 43.8757 77.4417 65.3499 164.084C81.0888 227.172 78.1544 294.542 82.2892 358.289C86.8241 429.283 102.563 489.571 127.505 542.281C152.447 594.991 192.861 639.96 248.881 662.032C327.308 693 418.94 656.432 497.768 685.423C581.397 716.225 637.684 824.281 633.816 933.82C629.947 1043.36 562.991 1141.53 491.499 1191.11C458.154 1214.17 432.145 1235.42 411.604 1262.11C391.197 1288.79 376.926 1330.63 393.465 1371.32" stroke="#7B9CF7" strokeWidth="0.5" stroke-miterlimit="10"/>
<path d="M-259.164 -89.2548C-188.473 -106.55 -112.579 -90.5726 -50.4242 -44.9452C11.7309 0.682238 60.2812 75.1356 80.9551 160.79C96.4272 225.195 93.4928 293.554 96.027 358.948C98.9614 429.942 110.966 492.865 133.64 548.87C156.315 604.875 195.528 654.291 250.748 678.01C329.309 711.778 421.474 672.574 501.636 699.753C586.465 728.414 645.953 835.647 643.419 945.68C640.884 1055.88 574.061 1155.7 499.101 1201.33C465.356 1221.92 436.813 1238.72 413.472 1263.09C390.13 1287.47 371.99 1328.32 385.995 1370" stroke="#769AF6" strokeWidth="0.5" stroke-miterlimit="10"/>
<path d="M-236.755 -95.5132C-166.597 -111.326 -91.9045 -94.0307 -31.0832 -47.9092C29.738 -1.7876 76.8212 72.6658 96.5615 157.497C111.767 223.055 108.699 292.567 109.899 359.608C111.233 430.767 119.369 496.161 139.777 555.46C160.184 614.924 198.064 668.787 252.616 694.154C331.444 730.722 423.876 689.047 505.505 714.25C591.535 740.769 654.357 847.178 653.156 957.87C651.956 1068.56 585.266 1170.52 506.972 1212.03C472.827 1230.15 441.882 1242.67 415.606 1264.41C389.331 1286.32 367.456 1326.51 378.794 1369.01" stroke="#7197F6" strokeWidth="0.5" stroke-miterlimit="10"/>
<path d="M-214.482 -101.774C-144.991 -115.94 -71.3654 -97.4914 -11.7446 -50.711C47.8763 -4.09524 93.3589 70.1934 112.165 154.365C127.104 221.242 124.036 291.742 123.769 360.265C123.503 431.424 127.904 499.289 146.044 562.212C164.184 624.97 200.73 683.281 254.615 710.295C333.576 749.828 426.542 705.518 509.638 728.743C596.868 753.122 662.892 858.543 663.158 969.893C663.425 1081.24 596.868 1185.18 515.106 1222.24C480.561 1237.89 447.216 1245.96 418.006 1265.4C388.796 1284.84 363.187 1324.21 371.856 1367.86" stroke="#6C93F5" strokeWidth="0.5" stroke-miterlimit="10"/>
<path d="M-192.074 -107.867C-123.116 -120.385 -50.5576 -100.784 7.72943 -53.5091C66.0165 -6.23451 109.899 67.8894 127.905 151.238C142.577 219.267 139.509 291.085 137.775 361.091C136.041 432.414 136.441 502.75 152.447 568.967C168.452 635.185 203.531 697.943 256.75 726.439C335.844 768.772 429.344 721.992 513.773 743.241C602.204 765.643 671.428 870.075 673.162 981.92C674.896 1093.76 608.206 1200.5 523.11 1232.95C488.031 1246.3 452.285 1249.92 420.274 1266.89C388.263 1283.85 358.786 1322.56 364.788 1367.03" stroke="#6691F5" strokeWidth="0.5" stroke-miterlimit="10"/>
<path d="M-169.8 -114.127C-101.51 -125.163 -30.0182 -104.079 27.0684 -56.4751C84.1551 -8.7063 126.303 65.4176 143.509 147.778C157.914 217.125 154.847 289.931 151.512 361.419C148.178 432.908 144.843 505.714 158.581 575.226C172.319 644.737 205.931 712.108 258.616 742.087C337.844 787.385 431.877 737.804 517.774 757.241C607.405 777.337 679.83 881.11 682.898 993.449C685.966 1105.79 619.276 1215.33 530.978 1242.84C495.232 1254.04 457.352 1252.88 422.407 1267.38C387.461 1281.87 354.25 1319.92 357.584 1365.22" stroke="#618DF4" strokeWidth="0.5" stroke-miterlimit="10"/>
</g>
</g>
<defs>
<linearGradient id="paint0_linear_473_22722" x1="312.631" y1="1129.24" x2="256.872" y2="2.53464" gradientUnits="userSpaceOnUse">
<stop stop-color="#625CCB"/>
<stop offset="1" stop-color="#523C85"/>
</linearGradient>
<linearGradient id="paint1_linear_473_22722" x1="312.631" y1="1129.24" x2="256.872" y2="2.53464" gradientUnits="userSpaceOnUse">
<stop stop-color="#79589F"/>
<stop offset="1" stop-color="#523C85"/>
</linearGradient>
</defs>
</svg>
