<svg xmlns="http://www.w3.org/2000/svg" width="17" height="16" viewBox="0 0 17 16" fill="none">
  <path opacity="0.2" d="M1.6543 8H4.6543V12H1.6543V8ZM6.6543 12H9.6543V10H6.6543V12ZM11.6543 6V12H14.6543V6H11.6543Z" fill="#6B7280"/>
  <path d="M5.1543 6C5.1543 6.13261 5.10162 6.25979 5.00785 6.35355C4.91408 6.44732 4.78691 6.5 4.6543 6.5H1.6543C1.52169 6.5 1.39451 6.44732 1.30074 6.35355C1.20698 6.25979 1.1543 6.13261 1.1543 6C1.1543 5.86739 1.20698 5.74021 1.30074 5.64645C1.39451 5.55268 1.52169 5.5 1.6543 5.5H4.6543C4.78691 5.5 4.91408 5.55268 5.00785 5.64645C5.10162 5.74021 5.1543 5.86739 5.1543 6ZM9.6543 7.5H6.6543C6.52169 7.5 6.39451 7.55268 6.30074 7.64645C6.20698 7.74021 6.1543 7.86739 6.1543 8C6.1543 8.13261 6.20698 8.25979 6.30074 8.35355C6.39451 8.44732 6.52169 8.5 6.6543 8.5H9.6543C9.78691 8.5 9.91408 8.44732 10.0079 8.35355C10.1016 8.25979 10.1543 8.13261 10.1543 8C10.1543 7.86739 10.1016 7.74021 10.0079 7.64645C9.91408 7.55268 9.78691 7.5 9.6543 7.5ZM11.6543 4.5H14.6543C14.7869 4.5 14.9141 4.44732 15.0079 4.35355C15.1016 4.25979 15.1543 4.13261 15.1543 4C15.1543 3.86739 15.1016 3.74021 15.0079 3.64645C14.9141 3.55268 14.7869 3.5 14.6543 3.5H11.6543C11.5217 3.5 11.3945 3.55268 11.3007 3.64645C11.207 3.74021 11.1543 3.86739 11.1543 4C11.1543 4.13261 11.207 4.25979 11.3007 4.35355C11.3945 4.44732 11.5217 4.5 11.6543 4.5ZM5.1543 8V12C5.1543 12.1326 5.10162 12.2598 5.00785 12.3536C4.91408 12.4473 4.78691 12.5 4.6543 12.5H1.6543C1.52169 12.5 1.39451 12.4473 1.30074 12.3536C1.20698 12.2598 1.1543 12.1326 1.1543 12V8C1.1543 7.86739 1.20698 7.74021 1.30074 7.64645C1.39451 7.55268 1.52169 7.5 1.6543 7.5H4.6543C4.78691 7.5 4.91408 7.55268 5.00785 7.64645C5.10162 7.74021 5.1543 7.86739 5.1543 8ZM4.1543 8.5H2.1543V11.5H4.1543V8.5ZM10.1543 10V12C10.1543 12.1326 10.1016 12.2598 10.0079 12.3536C9.91408 12.4473 9.78691 12.5 9.6543 12.5H6.6543C6.52169 12.5 6.39451 12.4473 6.30074 12.3536C6.20698 12.2598 6.1543 12.1326 6.1543 12V10C6.1543 9.86739 6.20698 9.74021 6.30074 9.64645C6.39451 9.55268 6.52169 9.5 6.6543 9.5H9.6543C9.78691 9.5 9.91408 9.55268 10.0079 9.64645C10.1016 9.74021 10.1543 9.86739 10.1543 10ZM9.1543 10.5H7.1543V11.5H9.1543V10.5ZM15.1543 6V12C15.1543 12.1326 15.1016 12.2598 15.0079 12.3536C14.9141 12.4473 14.7869 12.5 14.6543 12.5H11.6543C11.5217 12.5 11.3945 12.4473 11.3007 12.3536C11.207 12.2598 11.1543 12.1326 11.1543 12V6C11.1543 5.86739 11.207 5.74021 11.3007 5.64645C11.3945 5.55268 11.5217 5.5 11.6543 5.5H14.6543C14.7869 5.5 14.9141 5.55268 15.0079 5.64645C15.1016 5.74021 15.1543 5.86739 15.1543 6ZM14.1543 6.5H12.1543V11.5H14.1543V6.5Z" fill="#6B7280"/>
</svg>