<svg width="1440" height="575" viewBox="0 0 1440 575" fill="none" xmlns="http://www.w3.org/2000/svg">
<rect x="1440" y="574" width="1440" height="574" rx="24" transform="rotate(-180 1440 574)" fill="url(#paint0_linear_1356_34713)"/>
<mask id="mask0_1356_34713" style="mask-type:luminance" maskUnits="userSpaceOnUse" x="17" y="24" width="1440" height="560">
<path d="M17 584L1457 584L1457 24L17 23.9999L17 584Z" fill="white"/>
</mask>
<g mask="url(#mask0_1356_34713)">
<path d="M1349.94 363.41L1349.94 424.41L1402.77 454.91L1455.6 424.41L1455.6 363.41L1402.77 332.91M1349.94 363.41L1402.77 332.91M1349.94 363.41L1297.11 332.91M1402.77 332.91L1402.77 271.91L1349.94 241.41M1297.11 332.91L1297.11 271.91M1297.11 332.91L1244.28 363.41M1297.11 271.91L1349.94 241.41M1297.11 271.91L1244.28 241.41M1349.94 241.41L1349.94 180.41L1297.11 149.91L1244.28 180.41L1244.28 241.41M1191.45 454.91L1191.45 515.91L1244.28 546.41L1297.11 515.91L1297.11 454.91L1244.28 424.41M1191.45 454.91L1244.28 424.41M1191.45 454.91L1138.62 424.41M1244.28 424.41L1244.28 363.41M1244.28 363.41L1191.45 332.91M1191.45 332.91L1191.45 271.91L1244.28 241.41M1191.45 332.91L1138.62 363.41M1138.62 424.41L1138.62 363.41M1138.62 424.41L1085.8 454.91M1138.62 363.41L1085.8 332.91L1032.97 363.41L1032.97 424.41M1138.62 180.41L1085.8 149.91M1138.62 180.41L1191.45 149.91L1191.45 88.9101M1138.62 180.41L1138.62 241.41L1085.8 271.91L1032.97 241.41L1032.97 180.41M1085.8 149.91L1085.8 88.9101M1085.8 149.91L1032.97 180.41M1085.8 88.9101L1138.62 58.4101M1085.8 88.9101L1032.97 58.4101L980.141 88.9101M1138.62 58.4101L1191.45 88.9101M1138.62 58.4101L1138.62 -2.58987L1191.45 -33.0899L1244.28 -2.58986L1244.28 58.4101L1191.45 88.9101M1032.97 607.41L1085.8 637.91L1138.62 607.41L1138.62 546.41L1085.8 515.91M1032.97 607.41L1032.97 546.41M1032.97 607.41L980.141 637.91L927.311 607.41L927.311 546.41L980.141 515.91M1032.97 546.41L1085.8 515.91M1032.97 546.41L980.141 515.91M1085.8 515.91L1085.8 454.91M980.141 515.91L980.141 454.91L1032.97 424.41M1032.97 424.41L1085.8 454.91M1032.97 180.41L980.141 149.91M980.141 149.91L980.141 88.9101M980.141 149.91L927.311 180.41M980.141 88.9101L927.311 58.4101M927.311 180.41L874.481 149.91M927.311 180.41L927.311 241.41L874.481 271.91M874.481 149.91L874.481 88.9101M874.481 149.91L821.651 180.41L821.651 241.41M874.481 88.9101L927.311 58.4101M874.481 88.9101L821.651 58.4101M927.311 58.4101L927.311 -2.58989L874.481 -33.0899L821.651 -2.5899M821.651 241.41L768.821 271.91L768.821 332.91L821.651 363.41L874.481 332.91L874.481 271.91M821.651 241.41L874.481 271.91M821.651 58.4101L821.651 -2.5899M821.651 58.4101L768.821 88.9101M821.651 -2.5899L768.821 -33.0899L715.991 -2.58991L715.991 58.4101M715.991 58.4101L663.161 88.9101L663.161 149.91L715.991 180.41L768.821 149.91L768.821 88.9101M715.991 58.4101L768.821 88.9101M504.681 180.41L451.851 149.91M504.681 180.41L557.511 149.91L557.511 88.9101L504.681 58.4101L451.851 88.9101L451.851 149.91M504.681 180.41L504.681 241.41L451.851 271.91M451.851 149.91L399.021 180.41M399.021 424.41L451.851 454.91L504.681 424.41L504.681 363.41L451.851 332.91M399.021 424.41L399.021 363.41M399.021 424.41L346.191 454.91L293.361 424.41L293.361 363.41L346.191 332.91M399.021 363.41L451.851 332.91M399.021 363.41L346.191 332.91M451.851 332.91L451.851 271.91M346.191 332.91L346.191 271.91M346.191 271.91L399.021 241.41M346.191 271.91L293.361 241.41L293.361 180.41M399.021 241.41L451.851 271.91M399.021 241.41L399.021 180.41M399.021 180.41L346.191 149.91M293.361 180.41L346.191 149.91M293.361 180.41L240.531 149.91M346.191 149.91L346.191 88.9101M240.531 149.91L240.531 88.9101M240.531 149.91L187.701 180.41L134.871 149.91M240.531 88.9101L293.361 58.4101M240.531 88.9101L187.701 58.41M293.361 58.4101L346.191 88.9101M293.361 58.4101L293.361 -2.58995L346.191 -33.0899L399.021 -2.58994L399.021 58.4101L346.191 88.9101M134.871 149.91L134.871 88.91M134.871 149.91L82.0407 180.41L29.2106 149.91L29.2106 88.91L82.0407 58.41M134.871 88.91L187.701 58.41M134.871 88.91L82.0407 58.41M187.701 58.41L187.701 -2.58995L134.871 -33.09L82.0407 -2.58996L82.0407 58.41M1402.77 88.9102L1349.94 58.4101L1349.94 -2.58985L1402.77 -33.0898L1455.6 -2.58984L1455.6 58.4102L1402.77 88.9102ZM768.821 637.91L715.991 607.41L715.991 546.41L768.821 515.91L821.651 546.41L821.651 607.41L768.821 637.91ZM187.701 363.41L134.871 332.91L134.871 271.91L187.701 241.41L240.531 271.91L240.531 332.91L187.701 363.41ZM82.0407 546.41L29.2106 515.91L29.2106 454.91L82.0407 424.41L134.871 454.91L134.871 515.91L82.0407 546.41ZM-23.6094 363.41L-76.4393 332.91L-76.4393 271.91L-23.6093 241.41L29.2106 271.91L29.2106 332.91L-23.6094 363.41Z" stroke="url(#paint1_linear_1356_34713)" stroke-opacity="0.7" strokeWidth="2"/>
</g>
<defs>
<linearGradient id="paint0_linear_1356_34713" x1="2160" y1="574" x2="2160" y2="1148" gradientUnits="userSpaceOnUse">
<stop stop-color="#E0DEF5"/>
<stop offset="1" stop-color="white"/>
</linearGradient>
<linearGradient id="paint1_linear_1356_34713" x1="689.581" y1="637.91" x2="689.581" y2="-33.0899" gradientUnits="userSpaceOnUse">
<stop stop-color="#B0ADE5"/>
<stop offset="1" stop-color="white"/>
</linearGradient>
</defs>
</svg>
