<svg width="258" height="277" viewBox="0 0 258 277" fill="none" xmlns="http://www.w3.org/2000/svg">
<rect width="258" height="277" rx="8" fill="#F6F7FB"/>
<path d="M50.9524 36.9134C50.9524 28.9343 57.4207 22.466 65.3997 22.466H227.157C235.136 22.466 241.604 28.9343 241.604 36.9134V62.0798C241.604 70.0588 235.136 76.5271 227.157 76.5271H65.3997C57.4207 76.5271 50.9524 70.0588 50.9524 62.0798V36.9134Z" fill="white" fill-opacity="0.6" stroke="white" strokeWidth="0.932088"/>
<circle cx="81.2467" cy="49.6418" r="18.6418" fill="#F5F2FD"/>
<g clipPath="url(#clip0_108_1797)">
<path d="M90.1013 55.2343L83.9096 49.6418M78.5834 49.6418L72.3917 55.2343M71.9257 44.9813L79.5361 50.3086C80.1523 50.74 80.4605 50.9557 80.7957 51.0392C81.0917 51.113 81.4014 51.113 81.6974 51.0392C82.0326 50.9557 82.3407 50.74 82.957 50.3086L90.5674 44.9813M76.3997 57.0985H86.0934C87.6594 57.0985 88.4425 57.0985 89.0406 56.7937C89.5668 56.5256 89.9945 56.0978 90.2626 55.5717C90.5674 54.9735 90.5674 54.1905 90.5674 52.6244V46.6591C90.5674 45.093 90.5674 44.31 90.2626 43.7118C89.9945 43.1857 89.5668 42.7579 89.0406 42.4898C88.4425 42.1851 87.6594 42.1851 86.0934 42.1851H76.3997C74.8336 42.1851 74.0506 42.1851 73.4524 42.4898C72.9263 42.7579 72.4985 43.1857 72.2304 43.7118C71.9257 44.31 71.9257 45.093 71.9257 46.6591V52.6244C71.9257 54.1905 71.9257 54.9735 72.2304 55.5717C72.4985 56.0978 72.9263 56.5256 73.4524 56.7937C74.0506 57.0985 74.8336 57.0985 76.3997 57.0985Z" stroke="#B38FFF" strokeWidth="1.86418" strokeLinecap="round" strokeLinejoin="round"/>
</g>
<circle cx="28.1171" cy="50.635" r="11.6511" fill="white" stroke="#EEEEEE" strokeWidth="0.932088"/>
<path d="M22.9953 52.5243L26.3007 54.7928L32.5897 47.5443" stroke="#9D91A4" strokeWidth="1.86418" strokeLinecap="round"/>
<defs>
<clipPath id="clip0_108_1797">
<rect width="22.3701" height="22.3701" fill="white" transform="translate(70.0615 38.4568)"/>
</clipPath>
</defs>
</svg>
