<svg width="40" height="40" viewBox="0 0 40 40" fill="none" xmlns="http://www.w3.org/2000/svg">
<circle cx="20" cy="20" r="20" fill="url(#paint0_linear_620_1420)"/>
<path fillRule="evenodd" clipRule="evenodd" d="M17.7297 30.5C22.2749 30.5 25.9595 26.8154 25.9595 22.2703C25.9595 17.7251 22.2749 14.0405 17.7297 14.0405C13.1846 14.0405 9.5 17.7251 9.5 22.2703C9.5 26.8154 13.1846 30.5 17.7297 30.5ZM17.7297 32C23.1033 32 27.4595 27.6438 27.4595 22.2703C27.4595 16.8967 23.1033 12.5405 17.7297 12.5405C12.3561 12.5405 8 16.8967 8 22.2703C8 27.6438 12.3561 32 17.7297 32ZM22.2707 25.9595C26.8159 25.9595 30.5005 22.2749 30.5005 17.7297C30.5005 13.1846 26.8159 9.5 22.2707 9.5C17.7256 9.5 14.041 13.1846 14.041 17.7297C14.041 22.2749 17.7256 25.9595 22.2707 25.9595ZM22.2707 27.4595C27.6443 27.4595 32.0005 23.1033 32.0005 17.7297C32.0005 12.3561 27.6443 8 22.2707 8C16.8972 8 12.541 12.3561 12.541 17.7297C12.541 23.1033 16.8972 27.4595 22.2707 27.4595Z" fill="white"/>
<defs>
<linearGradient id="paint0_linear_620_1420" x1="26.7778" y1="44.1111" x2="25.7825" y2="0.0136829" gradientUnits="userSpaceOnUse">
<stop stop-color="#006CFB"/>
<stop offset="1" stop-color="#005BEA"/>
</linearGradient>
</defs>
</svg>
