<svg width="39" height="41" viewBox="0 0 39 41" fill="none" xmlns="http://www.w3.org/2000/svg">
<path d="M26.6909 6.97891C26.6909 10.8332 23.6606 13.9578 19.9226 13.9578C16.1846 13.9578 13.1543 10.8332 13.1543 6.97891C13.1543 3.12461 16.1846 0 19.9226 0C23.6606 0 26.6909 3.12461 26.6909 6.97891Z" fill="#625CCB"/>
<path d="M13.9995 28.7875C13.9995 32.6418 10.9692 35.7664 7.23121 35.7664C3.49321 35.7664 0.462891 32.6418 0.462891 28.7875C0.462891 24.9332 3.49321 21.8086 7.23121 21.8086C10.9692 21.8086 13.9995 24.9332 13.9995 28.7875Z" fill="#625CCB"/>
<path d="M38.5376 28.7875C38.5376 32.6418 35.5073 35.7664 31.7693 35.7664C28.0313 35.7664 25.001 32.6418 25.001 28.7875C25.001 24.9332 28.0313 21.8086 31.7693 21.8086C35.5073 21.8086 38.5376 24.9332 38.5376 28.7875Z" fill="#625CCB"/>
<path d="M13.5793 17.8838C15.6098 15.0923 14.5663 11.3411 13.5793 9.16016L26.2699 9.59637C25.2828 11.1957 24.1548 14.3944 25.8469 17.8838C27.539 21.3733 30.7821 21.8095 32.6152 21.8095L26.6929 33.5865C25.9878 31.9871 23.5625 28.7885 19.5015 28.7885C15.4406 28.7885 12.7332 32.2779 11.8872 34.0226L5.96484 21.8095C7.65685 21.6641 11.5488 20.6755 13.5793 17.8838Z" fill="#625CCB"/>
<path d="M36.8448 13.9568C36.8448 16.8475 34.5721 19.191 31.7686 19.191C28.9651 19.191 26.6924 16.8475 26.6924 13.9568C26.6924 11.0661 28.9651 8.72266 31.7686 8.72266C34.5721 8.72266 36.8448 11.0661 36.8448 13.9568Z" fill="#625CCB"/>
<path d="M13.1524 13.9568C13.1524 16.8475 10.8797 19.191 8.07622 19.191C5.27272 19.191 3 16.8475 3 13.9568C3 11.0661 5.27272 8.72266 8.07622 8.72266C10.8797 8.72266 13.1524 11.0661 13.1524 13.9568Z" fill="#625CCB"/>
<path d="M25.0011 35.7654C25.0011 38.6561 22.7284 40.9996 19.9249 40.9996C17.1213 40.9996 14.8486 38.6561 14.8486 35.7654C14.8486 32.8747 17.1213 30.5312 19.9249 30.5312C22.7284 30.5312 25.0011 32.8747 25.0011 35.7654Z" fill="#625CCB"/>
</svg>
