<svg width="40" height="40" viewBox="0 0 40 40" fill="none" xmlns="http://www.w3.org/2000/svg">
<circle cx="20" cy="20" r="20" fill="url(#paint0_linear_426_3246)"/>
<path fillRule="evenodd" clipRule="evenodd" d="M32 20C32 13.3726 26.6274 8 20 8C13.3726 8 8 13.3726 8 20C8 26.6274 13.3726 32 20 32C26.6274 32 32 26.6274 32 20ZM20 30.5C25.799 30.5 30.5 25.799 30.5 20C30.5 16.9161 29.1705 14.1426 27.0533 12.2217C27.6574 13.3469 28 14.6335 28 16C28 20.4183 24.4183 24 20 24C15.5817 24 12 20.4183 12 16C12 14.6335 12.3426 13.3469 12.9467 12.2217C10.8295 14.1426 9.5 16.9161 9.5 20C9.5 25.799 14.201 30.5 20 30.5ZM13.5 16C13.5 12.4101 16.4101 9.5 20 9.5C20.9093 9.5 21.7749 9.6867 22.5607 10.0238C20.5583 10.2426 19 11.9393 19 14C19 16.2091 20.7909 18 23 18C24.5058 18 25.8173 17.1679 26.4997 15.9385C26.4999 15.959 26.5 15.9795 26.5 16C26.5 19.5899 23.5899 22.5 20 22.5C16.4101 22.5 13.5 19.5899 13.5 16ZM25.5 14C25.5 15.3807 24.3807 16.5 23 16.5C21.6193 16.5 20.5 15.3807 20.5 14C20.5 12.6193 21.6193 11.5 23 11.5C24.3807 11.5 25.5 12.6193 25.5 14Z" fill="white"/>
<defs>
<linearGradient id="paint0_linear_426_3246" x1="26.7778" y1="44.1111" x2="25.7825" y2="0.0136829" gradientUnits="userSpaceOnUse">
<stop stop-color="#42307D"/>
<stop offset="1" stop-color="#7F56D9"/>
</linearGradient>
</defs>
</svg>
