<svg xmlns="http://www.w3.org/2000/svg" width="17" height="16" viewBox="0 0 17 16" fill="none">
  <path opacity="0.2" d="M14.6543 10V11.5C14.6543 11.6326 14.6016 11.7598 14.5079 11.8536C14.4141 11.9474 14.2869 12 14.1543 12H2.1543C2.02169 12 1.89451 11.9474 1.80074 11.8536C1.70698 11.7598 1.6543 11.6326 1.6543 11.5V10.0707C1.6543 6.47817 4.53867 3.51254 8.13117 3.50004C8.98671 3.497 9.83443 3.66288 10.6257 3.98817C11.417 4.31346 12.1363 4.79177 12.7423 5.39565C13.3484 5.99954 13.8292 6.71712 14.1573 7.50725C14.4854 8.29737 14.6543 9.1445 14.6543 10Z" fill="#6B7280"/>
  <path d="M13.0955 5.0419C12.4474 4.39231 11.6771 3.87744 10.829 3.527C9.98097 3.17655 9.07192 2.99745 8.1543 3.00003H8.1293C4.28367 3.01315 1.1543 6.18753 1.1543 10.0707V11.5C1.1543 11.7652 1.25965 12.0196 1.44719 12.2071C1.63473 12.3947 1.88908 12.5 2.1543 12.5H14.1543C14.4195 12.5 14.6739 12.3947 14.8614 12.2071C15.0489 12.0196 15.1543 11.7652 15.1543 11.5V10C15.1569 9.07839 14.9762 8.16544 14.6227 7.31426C14.2693 6.46307 13.7502 5.69065 13.0955 5.0419ZM14.1543 11.5H7.63617L11.0587 6.79378C11.1367 6.68653 11.169 6.55266 11.1484 6.42162C11.1278 6.29058 11.0559 6.1731 10.9487 6.09503C10.8414 6.01695 10.7076 5.98468 10.5765 6.00531C10.4455 6.02594 10.328 6.09778 10.2499 6.20503L6.3993 11.5H2.1543V10.0707C2.1543 9.87815 2.16367 9.68815 2.18117 9.50003H3.6543C3.78691 9.50003 3.91408 9.44735 4.00785 9.35358C4.10162 9.25981 4.1543 9.13264 4.1543 9.00003C4.1543 8.86742 4.10162 8.74024 4.00785 8.64647C3.91408 8.55271 3.78691 8.50003 3.6543 8.50003H2.35867C3.00367 6.07128 5.10867 4.23503 7.6543 4.02128V5.50003C7.6543 5.63264 7.70698 5.75981 7.80074 5.85358C7.89451 5.94735 8.02169 6.00003 8.1543 6.00003C8.28691 6.00003 8.41408 5.94735 8.50785 5.85358C8.60162 5.75981 8.6543 5.63264 8.6543 5.50003V4.02065C9.89471 4.12504 11.0721 4.61209 12.0237 5.4145C12.9754 6.21692 13.6544 7.29508 13.9668 8.50003H12.6543C12.5217 8.50003 12.3945 8.55271 12.3007 8.64647C12.207 8.74024 12.1543 8.86742 12.1543 9.00003C12.1543 9.13264 12.207 9.25981 12.3007 9.35358C12.3945 9.44735 12.5217 9.50003 12.6543 9.50003H14.1337C14.1468 9.66565 14.1543 9.8319 14.1543 10V11.5Z" fill="#6B7280"/>
</svg>