<svg width="1282" height="416" viewBox="0 0 1282 416" fill="none" xmlns="http://www.w3.org/2000/svg">
<g clipPath="url(#clip0_35_104)">
<mask id="mask0_35_104" style="mask-type:luminance" maskUnits="userSpaceOnUse" x="-158" y="54" width="1440" height="560">
<path d="M1282 54H-158V614H1282V54Z" fill="white"/>
</mask>
<g mask="url(#mask0_35_104)">
<path d="M-50.9401 274.59V213.59L-103.77 183.09L-156.6 213.59V274.59L-103.77 305.09M-50.9401 274.59L-103.77 305.09M-50.9401 274.59L1.88991 305.09M-103.77 305.09V366.09L-50.9401 396.59M1.88991 305.09V366.09M1.88991 305.09L54.7199 274.59M1.88991 366.09L-50.9401 396.59M1.88991 366.09L54.7199 396.59M-50.9401 396.59V457.59L1.88991 488.09L54.7199 457.59V396.59M107.55 183.09V122.09L54.7199 91.59L1.88991 122.09V183.09L54.7199 213.59M107.55 183.09L54.7199 213.59M107.55 183.09L160.38 213.59M54.7199 213.59V274.59M54.7199 274.59L107.55 305.09M107.55 305.09V366.09L54.7199 396.59M107.55 305.09L160.38 274.59M160.38 213.59V274.59M160.38 213.59L213.2 183.09M160.38 274.59L213.2 305.09L266.03 274.59V213.59M160.38 457.59L213.2 488.09M160.38 457.59L107.55 488.09V549.09M160.38 457.59V396.59L213.2 366.09L266.03 396.59V457.59M213.2 488.09V549.09M213.2 488.09L266.03 457.59M213.2 549.09L160.38 579.59M213.2 549.09L266.03 579.59L318.86 549.09M160.38 579.59L107.55 549.09M160.38 579.59V640.59L107.55 671.09L54.7199 640.59V579.59L107.55 549.09M266.03 30.59L213.2 0.0900002L160.38 30.59V91.59L213.2 122.09M266.03 30.59V91.59M266.03 30.59L318.86 0.0900002L371.69 30.59V91.59L318.86 122.09M266.03 91.59L213.2 122.09M266.03 91.59L318.86 122.09M213.2 122.09V183.09M318.86 122.09V183.09L266.03 213.59M266.03 213.59L213.2 183.09M266.03 457.59L318.86 488.09M318.86 488.09V549.09M318.86 488.09L371.69 457.59M318.86 549.09L371.69 579.59M371.69 457.59L424.52 488.09M371.69 457.59V396.59L424.52 366.09M424.52 488.09V549.09M424.52 488.09L477.35 457.59V396.59M424.52 549.09L371.69 579.59M424.52 549.09L477.35 579.59M371.69 579.59V640.59L424.52 671.09L477.35 640.59M477.35 396.59L530.18 366.09V305.09L477.35 274.59L424.52 305.09V366.09M477.35 396.59L424.52 366.09M477.35 579.59V640.59M477.35 579.59L530.18 549.09M477.35 640.59L530.18 671.09L583.01 640.59V579.59M583.01 579.59L635.84 549.09V488.09L583.01 457.59L530.18 488.09V549.09M583.01 579.59L530.18 549.09M794.32 457.59L847.15 488.09M794.32 457.59L741.49 488.09V549.09L794.32 579.59L847.15 549.09V488.09M794.32 457.59V396.59L847.15 366.09M847.15 488.09L899.98 457.59M899.98 213.59L847.15 183.09L794.32 213.59V274.59L847.15 305.09M899.98 213.59V274.59M899.98 213.59L952.81 183.09L1005.64 213.59V274.59L952.81 305.09M899.98 274.59L847.15 305.09M899.98 274.59L952.81 305.09M847.15 305.09V366.09M952.81 305.09V366.09M952.81 366.09L899.98 396.59M952.81 366.09L1005.64 396.59V457.59M899.98 396.59L847.15 366.09M899.98 396.59V457.59M899.98 457.59L952.81 488.09M1005.64 457.59L952.81 488.09M1005.64 457.59L1058.47 488.09M952.81 488.09V549.09M1058.47 488.09V549.09M1058.47 488.09L1111.3 457.59L1164.13 488.09M1058.47 549.09L1005.64 579.59M1058.47 549.09L1111.3 579.59M1005.64 579.59L952.81 549.09M1005.64 579.59V640.59L952.81 671.09L899.98 640.59V579.59L952.81 549.09M1164.13 488.09V549.09M1164.13 488.09L1216.96 457.59L1269.79 488.09V549.09L1216.96 579.59M1164.13 549.09L1111.3 579.59M1164.13 549.09L1216.96 579.59M1111.3 579.59V640.59L1164.13 671.09L1216.96 640.59V579.59M-103.77 549.09L-50.9401 579.59V640.59L-103.77 671.09L-156.6 640.59V579.59L-103.77 549.09ZM530.18 0.0900002L583.01 30.59V91.59L530.18 122.09L477.35 91.59V30.59L530.18 0.0900002ZM1111.3 274.59L1164.13 305.09V366.09L1111.3 396.59L1058.47 366.09V305.09L1111.3 274.59ZM1216.96 91.59L1269.79 122.09V183.09L1216.96 213.59L1164.13 183.09V122.09L1216.96 91.59ZM1322.61 274.59L1375.44 305.09V366.09L1322.61 396.59L1269.79 366.09V305.09L1322.61 274.59Z" stroke="url(#paint0_linear_35_104)" stroke-opacity="0.7" strokeWidth="2"/>
</g>
</g>
<defs>
<linearGradient id="paint0_linear_35_104" x1="609.42" y1="0.0900002" x2="609.42" y2="671.09" gradientUnits="userSpaceOnUse">
<stop stop-color="white"/>
<stop offset="1" stop-color="#B0ADE5"/>
</linearGradient>
<clipPath id="clip0_35_104">
<rect width="1282" height="416" fill="white"/>
</clipPath>
</defs>
</svg>
