<svg width="144" height="108" viewBox="0 0 144 108" fill="none" xmlns="http://www.w3.org/2000/svg">
<circle cx="9.42861" cy="15.4269" r="2.57143" fill="#282828" fill-opacity="0.05"/>
<circle cx="9.42861" cy="15.4269" r="2.35714" stroke="url(#paint0_linear_2347_6294)" stroke-opacity="0.25" stroke-width="0.428571"/>
<circle cx="9.42866" cy="15.4263" r="1.28571" fill="#282828" fill-opacity="0.05"/>
<circle cx="9.42866" cy="15.4263" r="1.07143" stroke="url(#paint1_linear_2347_6294)" stroke-opacity="0.25" stroke-width="0.428571"/>
<path d="M17.2046 13.8897C16.9577 13.8897 16.7657 13.9423 16.6286 14.0474C16.496 14.148 16.4297 14.3194 16.4297 14.5617C16.4297 14.6714 16.4526 14.7652 16.4983 14.8429C16.544 14.9206 16.6012 14.9869 16.6697 15.0417C16.7429 15.0966 16.8252 15.1423 16.9166 15.1789C17.0126 15.2109 17.1086 15.2383 17.2046 15.2612V13.8897ZM16.3269 16.7972C16.3223 17.0989 16.3886 17.3366 16.5257 17.5103C16.6629 17.684 16.8892 17.7754 17.2046 17.7846V16.1252C17.0172 16.0749 16.8297 16.0154 16.6423 15.9469C16.4594 15.8737 16.2926 15.7823 16.1417 15.6726C15.9954 15.5583 15.8766 15.4166 15.7852 15.2474C15.6937 15.0783 15.648 14.868 15.648 14.6166C15.648 14.3972 15.6892 14.2052 15.7714 14.0406C15.8583 13.8714 15.9726 13.732 16.1143 13.6223C16.2606 13.508 16.4274 13.4212 16.6149 13.3617C16.8023 13.3023 16.9989 13.2726 17.2046 13.2726V12.7377H17.4994V13.2726C17.7052 13.2726 17.8994 13.3 18.0823 13.3549C18.2652 13.4097 18.4229 13.492 18.5554 13.6017C18.6926 13.7114 18.8 13.8509 18.8777 14.02C18.96 14.1892 19.0012 14.3857 19.0012 14.6097H18.2194C18.2103 14.3766 18.1486 14.1983 18.0343 14.0749C17.9246 13.9514 17.7463 13.8897 17.4994 13.8897V15.3366C17.7052 15.3914 17.9063 15.4554 18.1029 15.5286C18.2994 15.6017 18.4732 15.6954 18.624 15.8097C18.7749 15.924 18.896 16.0657 18.9874 16.2349C19.0789 16.404 19.1246 16.612 19.1246 16.8589C19.1246 17.1149 19.0812 17.3389 18.9943 17.5309C18.912 17.7183 18.7977 17.876 18.6514 18.004C18.5052 18.1274 18.3337 18.2212 18.1372 18.2852C17.9406 18.3537 17.728 18.3926 17.4994 18.4017V18.9366H17.2046V18.4017C16.9577 18.3972 16.7314 18.3583 16.5257 18.2852C16.32 18.212 16.144 18.1092 15.9977 17.9766C15.8514 17.8394 15.7372 17.6726 15.6549 17.476C15.5772 17.2794 15.5406 17.0532 15.5452 16.7972H16.3269ZM17.4994 17.7846C17.7463 17.7663 17.9474 17.6954 18.1029 17.572C18.2629 17.444 18.3429 17.2429 18.3429 16.9686C18.3429 16.8406 18.3177 16.7332 18.2674 16.6463C18.2217 16.5594 18.1577 16.4863 18.0754 16.4269C17.9977 16.3674 17.9086 16.3194 17.808 16.2829C17.7074 16.2463 17.6046 16.2143 17.4994 16.1869V17.7846ZM20.0069 16.5297H21.4606V14.4177H21.4469L20.0069 16.5297ZM22.8183 17.1469H22.2011V18.2852H21.4606V17.1469H19.4034V16.372L21.4606 13.4852H22.2011V16.5297H22.8183V17.1469ZM24.9554 13.3892C25.2983 13.3892 25.5771 13.4692 25.792 13.6292C26.0114 13.7846 26.1806 13.9857 26.2994 14.2326C26.4228 14.4749 26.5051 14.7423 26.5463 15.0349C26.592 15.3274 26.6148 15.6109 26.6148 15.8852C26.6148 16.1594 26.592 16.4429 26.5463 16.7354C26.5051 17.028 26.4228 17.2977 26.2994 17.5446C26.1806 17.7869 26.0114 17.988 25.792 18.148C25.5771 18.3034 25.2983 18.3812 24.9554 18.3812C24.6126 18.3812 24.3314 18.3034 24.112 18.148C23.8971 17.988 23.728 17.7869 23.6046 17.5446C23.4857 17.2977 23.4034 17.028 23.3577 16.7354C23.3166 16.4429 23.296 16.1594 23.296 15.8852C23.296 15.6109 23.3166 15.3274 23.3577 15.0349C23.4034 14.7423 23.4857 14.4749 23.6046 14.2326C23.728 13.9857 23.8971 13.7846 24.112 13.6292C24.3314 13.4692 24.6126 13.3892 24.9554 13.3892ZM24.9554 17.7297C25.1246 17.7297 25.2663 17.6817 25.3806 17.5857C25.4948 17.4852 25.584 17.3526 25.648 17.188C25.7166 17.0189 25.7646 16.8223 25.792 16.5983C25.8194 16.3743 25.8331 16.1366 25.8331 15.8852C25.8331 15.6337 25.8194 15.3983 25.792 15.1789C25.7646 14.9549 25.7166 14.7583 25.648 14.5892C25.584 14.42 25.4948 14.2874 25.3806 14.1914C25.2663 14.0909 25.1246 14.0406 24.9554 14.0406C24.7817 14.0406 24.6377 14.0909 24.5234 14.1914C24.4137 14.2874 24.3246 14.42 24.256 14.5892C24.192 14.7583 24.1463 14.9549 24.1188 15.1789C24.0914 15.3983 24.0777 15.6337 24.0777 15.8852C24.0777 16.1366 24.0914 16.3743 24.1188 16.5983C24.1463 16.8223 24.192 17.0189 24.256 17.188C24.3246 17.3526 24.4137 17.4852 24.5234 17.5857C24.6377 17.6817 24.7817 17.7297 24.9554 17.7297ZM28.7657 14.0063C28.5554 14.0063 28.3771 14.0703 28.2308 14.1983C28.0845 14.3217 28.0114 14.5023 28.0114 14.74C28.0114 14.9686 28.0822 15.1446 28.224 15.268C28.3657 15.3869 28.5462 15.4463 28.7657 15.4463C28.9851 15.4463 29.1657 15.3869 29.3074 15.268C29.4491 15.1446 29.52 14.9686 29.52 14.74C29.52 14.5023 29.4468 14.3217 29.3005 14.1983C29.1542 14.0703 28.976 14.0063 28.7657 14.0063ZM28.7657 18.3812C28.5234 18.3812 28.2971 18.3469 28.0868 18.2783C27.8811 18.2097 27.7028 18.1114 27.552 17.9834C27.4011 17.8509 27.2822 17.6909 27.1954 17.5034C27.1131 17.316 27.072 17.1057 27.072 16.8726C27.072 16.5709 27.1497 16.3172 27.3051 16.1114C27.4651 15.9057 27.68 15.7686 27.9497 15.7V15.6863C27.7302 15.604 27.5611 15.4783 27.4422 15.3092C27.328 15.1354 27.2708 14.932 27.2708 14.6989C27.2708 14.2874 27.3988 13.9674 27.6548 13.7389C27.9154 13.5057 28.2857 13.3892 28.7657 13.3892C29.2457 13.3892 29.6137 13.5057 29.8697 13.7389C30.1302 13.9674 30.2605 14.2874 30.2605 14.6989C30.2605 14.932 30.2011 15.1354 30.0822 15.3092C29.968 15.4783 29.8011 15.604 29.5817 15.6863V15.7C29.8514 15.7686 30.064 15.9057 30.2194 16.1114C30.3794 16.3172 30.4594 16.5709 30.4594 16.8726C30.4594 17.1057 30.416 17.316 30.3291 17.5034C30.2468 17.6909 30.1302 17.8509 29.9794 17.9834C29.8285 18.1114 29.648 18.2097 29.4377 18.2783C29.232 18.3469 29.008 18.3812 28.7657 18.3812ZM28.7657 17.764C29.0262 17.764 29.2434 17.6863 29.4171 17.5309C29.5908 17.3754 29.6777 17.156 29.6777 16.8726C29.6777 16.6074 29.5908 16.4017 29.4171 16.2554C29.2434 16.1046 29.0262 16.0292 28.7657 16.0292C28.5051 16.0292 28.288 16.1046 28.1142 16.2554C27.9405 16.4017 27.8537 16.6074 27.8537 16.8726C27.8537 17.156 27.9405 17.3754 28.1142 17.5309C28.288 17.6863 28.5051 17.764 28.7657 17.764ZM31.1428 17.3594H32.0959V18.2852H31.1428V17.3594ZM34.1416 15.4737C34.2696 15.4783 34.3976 15.4692 34.5256 15.4463C34.6536 15.4234 34.7679 15.3846 34.8684 15.3297C34.969 15.2703 35.049 15.1903 35.1084 15.0897C35.1724 14.9892 35.2044 14.8657 35.2044 14.7194C35.2044 14.5137 35.1336 14.3492 34.9919 14.2257C34.8547 14.1023 34.6764 14.0406 34.457 14.0406C34.3199 14.0406 34.201 14.068 34.1004 14.1229C33.9999 14.1777 33.9153 14.2532 33.8467 14.3492C33.7827 14.4406 33.7347 14.5457 33.7027 14.6646C33.6707 14.7789 33.657 14.8977 33.6616 15.0212H32.8799C32.889 14.788 32.9324 14.5732 33.0101 14.3766C33.0879 14.1754 33.193 14.0017 33.3256 13.8554C33.4627 13.7092 33.6273 13.5949 33.8193 13.5126C34.0113 13.4303 34.2284 13.3892 34.4707 13.3892C34.6581 13.3892 34.841 13.4166 35.0193 13.4714C35.2021 13.5263 35.3644 13.6063 35.5061 13.7114C35.6524 13.8166 35.769 13.9514 35.8559 14.116C35.9427 14.276 35.9861 14.4612 35.9861 14.6714C35.9861 14.9137 35.9313 15.1263 35.8216 15.3092C35.7119 15.4874 35.5404 15.6177 35.3073 15.7V15.7137C35.5816 15.7686 35.7941 15.9057 35.945 16.1252C36.1004 16.34 36.1781 16.6029 36.1781 16.9137C36.1781 17.1423 36.1324 17.348 36.041 17.5309C35.9496 17.7092 35.8261 17.8623 35.6707 17.9903C35.5153 18.1137 35.3347 18.2097 35.129 18.2783C34.9233 18.3469 34.7061 18.3812 34.4776 18.3812C34.1987 18.3812 33.9541 18.3423 33.7439 18.2646C33.5381 18.1823 33.3644 18.068 33.2227 17.9217C33.0856 17.7754 32.9804 17.5994 32.9073 17.3937C32.8341 17.188 32.7953 16.9594 32.7907 16.708H33.5724C33.5633 17.0006 33.6341 17.2452 33.785 17.4417C33.9404 17.6337 34.1713 17.7297 34.4776 17.7297C34.7381 17.7297 34.9553 17.6566 35.129 17.5103C35.3073 17.3594 35.3964 17.1469 35.3964 16.8726C35.3964 16.6852 35.3599 16.5366 35.2867 16.4269C35.2136 16.3172 35.1176 16.2349 34.9987 16.18C34.8799 16.1206 34.745 16.084 34.5941 16.0703C34.4479 16.0566 34.297 16.052 34.1416 16.0566V15.4737ZM39.097 14.6989C39.0787 14.5023 39.0078 14.3446 38.8844 14.2257C38.7656 14.1023 38.6033 14.0406 38.3976 14.0406C38.2558 14.0406 38.1324 14.068 38.0273 14.1229C37.9267 14.1732 37.8398 14.2417 37.7667 14.3286C37.6981 14.4154 37.641 14.516 37.5953 14.6303C37.5541 14.74 37.5198 14.8566 37.4924 14.98C37.465 15.1034 37.4444 15.2269 37.4307 15.3503C37.4216 15.4692 37.4124 15.5812 37.4033 15.6863L37.417 15.7C37.5221 15.508 37.6661 15.3663 37.849 15.2749C38.0364 15.1789 38.2376 15.1309 38.4524 15.1309C38.6901 15.1309 38.9027 15.172 39.0901 15.2543C39.2776 15.3366 39.4353 15.4509 39.5633 15.5972C39.6958 15.7389 39.7964 15.908 39.865 16.1046C39.9336 16.3012 39.9678 16.5137 39.9678 16.7423C39.9678 16.9754 39.929 17.1926 39.8513 17.3937C39.7781 17.5903 39.6707 17.764 39.529 17.9149C39.3873 18.0612 39.2181 18.1754 39.0216 18.2577C38.825 18.34 38.6078 18.3812 38.3701 18.3812C38.0181 18.3812 37.7278 18.3172 37.4993 18.1892C37.2753 18.0566 37.097 17.8783 36.9644 17.6543C36.8364 17.4257 36.7473 17.1606 36.697 16.8589C36.6467 16.5526 36.6216 16.2234 36.6216 15.8714C36.6216 15.5834 36.6513 15.2932 36.7107 15.0006C36.7747 14.708 36.8776 14.4429 37.0193 14.2052C37.161 13.9629 37.3461 13.7663 37.5747 13.6154C37.8078 13.4646 38.0936 13.3892 38.4318 13.3892C38.6238 13.3892 38.8044 13.4212 38.9736 13.4852C39.1427 13.5492 39.2913 13.6383 39.4193 13.7526C39.5518 13.8669 39.6593 14.004 39.7416 14.164C39.8238 14.324 39.8696 14.5023 39.8787 14.6989H39.097ZM38.3427 17.7297C38.4844 17.7297 38.6078 17.7023 38.713 17.6474C38.8181 17.588 38.905 17.5126 38.9736 17.4212C39.0467 17.3297 39.0993 17.2246 39.1313 17.1057C39.1678 16.9823 39.1861 16.8566 39.1861 16.7286C39.1861 16.6006 39.1678 16.4772 39.1313 16.3583C39.0993 16.2394 39.0467 16.1366 38.9736 16.0497C38.905 15.9583 38.8181 15.8852 38.713 15.8303C38.6078 15.7754 38.4844 15.748 38.3427 15.748C38.201 15.748 38.0753 15.7754 37.9656 15.8303C37.8604 15.8806 37.7713 15.9514 37.6981 16.0429C37.625 16.1297 37.5701 16.2326 37.5336 16.3514C37.497 16.4703 37.4787 16.596 37.4787 16.7286C37.4787 16.8612 37.497 16.9869 37.5336 17.1057C37.5701 17.2246 37.625 17.332 37.6981 17.428C37.7713 17.5194 37.8604 17.5926 37.9656 17.6474C38.0753 17.7023 38.201 17.7297 38.3427 17.7297Z" fill="#403C84"/>
<path d="M15.8297 22.6132H16.3183V25.8737H18.2623V26.2852H15.8297V22.6132ZM20.9709 26.2749C20.8954 26.3194 20.7909 26.3417 20.6571 26.3417C20.544 26.3417 20.4531 26.3109 20.3846 26.2492C20.3194 26.184 20.2869 26.0794 20.2869 25.9354C20.1669 26.0794 20.0263 26.184 19.8651 26.2492C19.7074 26.3109 19.536 26.3417 19.3509 26.3417C19.2309 26.3417 19.116 26.328 19.0063 26.3006C18.9 26.2732 18.8074 26.2303 18.7286 26.172C18.6497 26.1137 18.5863 26.0383 18.5383 25.9457C18.4937 25.8497 18.4714 25.7349 18.4714 25.6012C18.4714 25.4503 18.4971 25.3269 18.5486 25.2309C18.6 25.1349 18.6669 25.0577 18.7491 24.9994C18.8349 24.9377 18.9309 24.8914 19.0371 24.8606C19.1469 24.8297 19.2583 24.804 19.3714 24.7834C19.4914 24.7594 19.6046 24.7423 19.7109 24.732C19.8206 24.7183 19.9166 24.7012 19.9989 24.6806C20.0811 24.6566 20.1463 24.624 20.1943 24.5829C20.2423 24.5383 20.2663 24.4749 20.2663 24.3926C20.2663 24.2966 20.2474 24.2194 20.2097 24.1612C20.1754 24.1029 20.1291 24.0583 20.0709 24.0274C20.016 23.9966 19.9526 23.976 19.8806 23.9657C19.812 23.9554 19.7434 23.9503 19.6749 23.9503C19.4897 23.9503 19.3354 23.9863 19.212 24.0583C19.0886 24.1269 19.0217 24.2589 19.0114 24.4543H18.5743C18.5811 24.2897 18.6154 24.1509 18.6771 24.0377C18.7389 23.9246 18.8211 23.8337 18.924 23.7652C19.0269 23.6932 19.1434 23.6417 19.2737 23.6109C19.4074 23.58 19.5497 23.5646 19.7006 23.5646C19.8206 23.5646 19.9389 23.5732 20.0554 23.5903C20.1754 23.6074 20.2834 23.6434 20.3794 23.6983C20.4754 23.7497 20.5526 23.8234 20.6109 23.9194C20.6691 24.0154 20.6983 24.1406 20.6983 24.2949V25.6629C20.6983 25.7657 20.7034 25.8412 20.7137 25.8892C20.7274 25.9372 20.7686 25.9612 20.8371 25.9612C20.8749 25.9612 20.9194 25.9526 20.9709 25.9354V26.2749ZM20.2611 24.912C20.2063 24.9532 20.1343 24.984 20.0451 25.0046C19.956 25.0217 19.8617 25.0372 19.7623 25.0509C19.6663 25.0612 19.5686 25.0749 19.4691 25.092C19.3697 25.1057 19.2806 25.1297 19.2017 25.164C19.1229 25.1983 19.0577 25.248 19.0063 25.3132C18.9583 25.3749 18.9343 25.4606 18.9343 25.5703C18.9343 25.6423 18.948 25.704 18.9754 25.7554C19.0063 25.8034 19.044 25.8429 19.0886 25.8737C19.1366 25.9046 19.1914 25.9269 19.2531 25.9406C19.3149 25.9543 19.38 25.9612 19.4486 25.9612C19.5926 25.9612 19.716 25.9423 19.8189 25.9046C19.9217 25.8634 20.0057 25.8137 20.0709 25.7554C20.136 25.6937 20.184 25.6286 20.2149 25.56C20.2457 25.488 20.2611 25.4212 20.2611 25.3594V24.912ZM21.6451 25.4469C21.6486 25.5429 21.6709 25.6252 21.712 25.6937C21.7531 25.7589 21.8063 25.812 21.8714 25.8532C21.94 25.8909 22.0154 25.9183 22.0977 25.9354C22.1834 25.9526 22.2709 25.9612 22.36 25.9612C22.4286 25.9612 22.5006 25.956 22.576 25.9457C22.6514 25.9354 22.72 25.9166 22.7817 25.8892C22.8469 25.8617 22.9 25.8223 22.9411 25.7709C22.9823 25.716 23.0029 25.6474 23.0029 25.5652C23.0029 25.452 22.96 25.3663 22.8743 25.308C22.7886 25.2497 22.6806 25.2034 22.5503 25.1692C22.4234 25.1314 22.2846 25.0989 22.1337 25.0714C21.9829 25.0406 21.8423 24.9994 21.712 24.948C21.5851 24.8932 21.4789 24.8177 21.3931 24.7217C21.3074 24.6257 21.2646 24.492 21.2646 24.3206C21.2646 24.1869 21.2937 24.072 21.352 23.976C21.4137 23.88 21.4909 23.8029 21.5834 23.7446C21.6794 23.6829 21.7857 23.6383 21.9023 23.6109C22.0223 23.58 22.1406 23.5646 22.2571 23.5646C22.408 23.5646 22.5469 23.5783 22.6737 23.6057C22.8006 23.6297 22.912 23.6743 23.008 23.7394C23.1074 23.8012 23.1863 23.8869 23.2446 23.9966C23.3029 24.1029 23.3371 24.2366 23.3474 24.3977H22.9103C22.9034 24.312 22.8811 24.2417 22.8434 24.1869C22.8057 24.1286 22.7577 24.0823 22.6994 24.048C22.6411 24.0137 22.576 23.9897 22.504 23.976C22.4354 23.9589 22.3651 23.9503 22.2931 23.9503C22.228 23.9503 22.1611 23.9554 22.0926 23.9657C22.0274 23.976 21.9674 23.9949 21.9126 24.0223C21.8577 24.0463 21.8131 24.0806 21.7789 24.1252C21.7446 24.1663 21.7274 24.2212 21.7274 24.2897C21.7274 24.3652 21.7531 24.4286 21.8046 24.48C21.8594 24.528 21.928 24.5692 22.0103 24.6034C22.0926 24.6343 22.1851 24.6617 22.288 24.6857C22.3909 24.7063 22.4937 24.7286 22.5966 24.7526C22.7063 24.7766 22.8126 24.8057 22.9154 24.84C23.0217 24.8743 23.1143 24.9206 23.1931 24.9789C23.2754 25.0337 23.3406 25.104 23.3886 25.1897C23.44 25.2754 23.4657 25.3817 23.4657 25.5086C23.4657 25.6697 23.4314 25.8034 23.3629 25.9097C23.2977 26.016 23.2103 26.1017 23.1006 26.1669C22.9943 26.232 22.8726 26.2766 22.7354 26.3006C22.6017 26.328 22.468 26.3417 22.3343 26.3417C22.1869 26.3417 22.0463 26.3263 21.9126 26.2954C21.7789 26.2646 21.6606 26.2149 21.5577 26.1463C21.4549 26.0743 21.3726 25.9817 21.3109 25.8686C21.2491 25.752 21.2149 25.6114 21.208 25.4469H21.6451ZM24.556 23.6263H25.0857V24.012H24.556V25.6629C24.556 25.7143 24.5594 25.7554 24.5663 25.7863C24.5766 25.8172 24.5937 25.8412 24.6177 25.8583C24.6417 25.8754 24.6743 25.8874 24.7154 25.8943C24.76 25.8977 24.8166 25.8994 24.8851 25.8994H25.0857V26.2852H24.7514C24.6383 26.2852 24.5406 26.2783 24.4583 26.2646C24.3794 26.2474 24.3143 26.2183 24.2629 26.1772C24.2149 26.136 24.1789 26.0777 24.1549 26.0023C24.1309 25.9269 24.1189 25.8274 24.1189 25.704V24.012H23.6663V23.6263H24.1189V22.8292H24.556V23.6263ZM27.0027 23.6263H27.4141V24.0172H27.4244C27.6233 23.7154 27.9096 23.5646 28.2833 23.5646C28.4479 23.5646 28.597 23.5989 28.7307 23.6674C28.8644 23.736 28.9587 23.8526 29.0136 24.0172C29.1027 23.8732 29.2193 23.7617 29.3633 23.6829C29.5107 23.604 29.6719 23.5646 29.8467 23.5646C29.9804 23.5646 30.1004 23.58 30.2067 23.6109C30.3164 23.6383 30.409 23.6829 30.4844 23.7446C30.5633 23.8063 30.6233 23.8869 30.6644 23.9863C30.709 24.0823 30.7313 24.1989 30.7313 24.336V26.2852H30.2941V24.5417C30.2941 24.4594 30.2873 24.3823 30.2736 24.3103C30.2599 24.2383 30.2341 24.1766 30.1964 24.1252C30.1587 24.0703 30.1056 24.0274 30.037 23.9966C29.9719 23.9657 29.8861 23.9503 29.7799 23.9503C29.5639 23.9503 29.3941 24.012 29.2707 24.1354C29.1473 24.2589 29.0856 24.4234 29.0856 24.6292V26.2852H28.6484V24.5417C28.6484 24.456 28.6399 24.3772 28.6227 24.3052C28.609 24.2332 28.5833 24.1714 28.5456 24.12C28.5079 24.0652 28.4564 24.024 28.3913 23.9966C28.3296 23.9657 28.249 23.9503 28.1496 23.9503C28.0227 23.9503 27.913 23.976 27.8204 24.0274C27.7313 24.0789 27.6576 24.1406 27.5993 24.2126C27.5444 24.2846 27.5033 24.36 27.4759 24.4389C27.4519 24.5143 27.4399 24.5777 27.4399 24.6292V26.2852H27.0027V23.6263ZM31.7061 24.9583C31.7061 25.1194 31.7266 25.2634 31.7678 25.3903C31.8123 25.5137 31.8723 25.6183 31.9478 25.704C32.0232 25.7863 32.1106 25.8497 32.2101 25.8943C32.3129 25.9389 32.4209 25.9612 32.5341 25.9612C32.6472 25.9612 32.7535 25.9389 32.8529 25.8943C32.9558 25.8497 33.0449 25.7863 33.1203 25.704C33.1958 25.6183 33.2541 25.5137 33.2952 25.3903C33.3398 25.2634 33.3621 25.1194 33.3621 24.9583C33.3621 24.7972 33.3398 24.6549 33.2952 24.5314C33.2541 24.4046 33.1958 24.2983 33.1203 24.2126C33.0449 24.1269 32.9558 24.0617 32.8529 24.0172C32.7535 23.9726 32.6472 23.9503 32.5341 23.9503C32.4209 23.9503 32.3129 23.9726 32.2101 24.0172C32.1106 24.0617 32.0232 24.1269 31.9478 24.2126C31.8723 24.2983 31.8123 24.4046 31.7678 24.5314C31.7266 24.6549 31.7061 24.7972 31.7061 24.9583ZM31.2432 24.9583C31.2432 24.7629 31.2706 24.5812 31.3255 24.4132C31.3803 24.2417 31.4626 24.0943 31.5723 23.9709C31.6821 23.844 31.8175 23.7446 31.9786 23.6726C32.1398 23.6006 32.3249 23.5646 32.5341 23.5646C32.7466 23.5646 32.9318 23.6006 33.0895 23.6726C33.2506 23.7446 33.3861 23.844 33.4958 23.9709C33.6055 24.0943 33.6878 24.2417 33.7426 24.4132C33.7975 24.5812 33.8249 24.7629 33.8249 24.9583C33.8249 25.1537 33.7975 25.3354 33.7426 25.5034C33.6878 25.6714 33.6055 25.8189 33.4958 25.9457C33.3861 26.0692 33.2506 26.1669 33.0895 26.2389C32.9318 26.3074 32.7466 26.3417 32.5341 26.3417C32.3249 26.3417 32.1398 26.3074 31.9786 26.2389C31.8175 26.1669 31.6821 26.0692 31.5723 25.9457C31.4626 25.8189 31.3803 25.6714 31.3255 25.5034C31.2706 25.3354 31.2432 25.1537 31.2432 24.9583ZM34.3403 23.6263H34.7517V24.048H34.762C34.9437 23.7257 35.2317 23.5646 35.626 23.5646C35.8009 23.5646 35.9466 23.5886 36.0632 23.6366C36.1797 23.6846 36.274 23.7514 36.346 23.8372C36.418 23.9229 36.4677 24.0257 36.4952 24.1457C36.526 24.2623 36.5415 24.3926 36.5415 24.5366V26.2852H36.1043V24.4852C36.1043 24.3206 36.0563 24.1903 35.9603 24.0943C35.8643 23.9983 35.7323 23.9503 35.5643 23.9503C35.4306 23.9503 35.314 23.9709 35.2146 24.012C35.1186 24.0532 35.038 24.1114 34.9729 24.1869C34.9077 24.2623 34.858 24.3514 34.8237 24.4543C34.7929 24.5537 34.7775 24.6634 34.7775 24.7834V26.2852H34.3403V23.6263ZM37.8049 23.6263H38.3346V24.012H37.8049V25.6629C37.8049 25.7143 37.8083 25.7554 37.8152 25.7863C37.8255 25.8172 37.8426 25.8412 37.8666 25.8583C37.8906 25.8754 37.9232 25.8874 37.9643 25.8943C38.0089 25.8977 38.0655 25.8994 38.134 25.8994H38.3346V26.2852H38.0003C37.8872 26.2852 37.7895 26.2783 37.7072 26.2646C37.6283 26.2474 37.5632 26.2183 37.5117 26.1772C37.4637 26.136 37.4277 26.0777 37.4037 26.0023C37.3797 25.9269 37.3677 25.8274 37.3677 25.704V24.012H36.9152V23.6263H37.3677V22.8292H37.8049V23.6263ZM38.8202 22.6132H39.2574V24.0172H39.2677C39.3019 23.9349 39.3499 23.8663 39.4117 23.8114C39.4734 23.7532 39.5419 23.7069 39.6174 23.6726C39.6962 23.6349 39.7768 23.6074 39.8591 23.5903C39.9448 23.5732 40.0271 23.5646 40.1059 23.5646C40.2808 23.5646 40.4265 23.5886 40.5431 23.6366C40.6597 23.6846 40.7539 23.7514 40.8259 23.8372C40.8979 23.9229 40.9477 24.0257 40.9751 24.1457C41.0059 24.2623 41.0214 24.3926 41.0214 24.5366V26.2852H40.5842V24.4852C40.5842 24.3206 40.5362 24.1903 40.4402 24.0943C40.3442 23.9983 40.2122 23.9503 40.0442 23.9503C39.9105 23.9503 39.7939 23.9709 39.6945 24.012C39.5985 24.0532 39.5179 24.1114 39.4528 24.1869C39.3877 24.2623 39.3379 24.3514 39.3037 24.4543C39.2728 24.5537 39.2574 24.6634 39.2574 24.7834V26.2852H38.8202V22.6132Z" fill="#282828" fill-opacity="0.7"/>
<circle cx="57.7144" cy="15.4269" r="2.57143" fill="#282828" fill-opacity="0.95"/>
<circle cx="57.7144" cy="15.4269" r="2.35714" stroke="url(#paint2_linear_2347_6294)" stroke-opacity="0.25" stroke-width="0.428571"/>
<circle cx="57.7143" cy="15.4263" r="1.28571" fill="#F8F8F8" fill-opacity="0.7"/>
<circle cx="57.7143" cy="15.4263" r="1.07143" stroke="url(#paint3_linear_2347_6294)" stroke-opacity="0.25" stroke-width="0.428571"/>
<path d="M65.4904 13.8897C65.2435 13.8897 65.0515 13.9423 64.9144 14.0474C64.7818 14.148 64.7155 14.3194 64.7155 14.5617C64.7155 14.6714 64.7384 14.7652 64.7841 14.8429C64.8298 14.9206 64.8869 14.9869 64.9555 15.0417C65.0286 15.0966 65.1109 15.1423 65.2024 15.1789C65.2984 15.2109 65.3944 15.2383 65.4904 15.2612V13.8897ZM64.6126 16.7972C64.6081 17.0989 64.6744 17.3366 64.8115 17.5103C64.9486 17.684 65.1749 17.7754 65.4904 17.7846V16.1252C65.3029 16.0749 65.1155 16.0154 64.9281 15.9469C64.7452 15.8737 64.5784 15.7823 64.4275 15.6726C64.2812 15.5583 64.1624 15.4166 64.0709 15.2474C63.9795 15.0783 63.9338 14.868 63.9338 14.6166C63.9338 14.3972 63.9749 14.2052 64.0572 14.0406C64.1441 13.8714 64.2584 13.732 64.4001 13.6223C64.5464 13.508 64.7132 13.4212 64.9006 13.3617C65.0881 13.3023 65.2846 13.2726 65.4904 13.2726V12.7377H65.7852V13.2726C65.9909 13.2726 66.1852 13.3 66.3681 13.3549C66.5509 13.4097 66.7086 13.492 66.8412 13.6017C66.9784 13.7114 67.0858 13.8509 67.1635 14.02C67.2458 14.1892 67.2869 14.3857 67.2869 14.6097H66.5052C66.4961 14.3766 66.4344 14.1983 66.3201 14.0749C66.2104 13.9514 66.0321 13.8897 65.7852 13.8897V15.3366C65.9909 15.3914 66.1921 15.4554 66.3886 15.5286C66.5852 15.6017 66.7589 15.6954 66.9098 15.8097C67.0606 15.924 67.1818 16.0657 67.2732 16.2349C67.3646 16.404 67.4104 16.612 67.4104 16.8589C67.4104 17.1149 67.3669 17.3389 67.2801 17.5309C67.1978 17.7183 67.0835 17.876 66.9372 18.004C66.7909 18.1274 66.6195 18.2212 66.4229 18.2852C66.2264 18.3537 66.0138 18.3926 65.7852 18.4017V18.9366H65.4904V18.4017C65.2435 18.3972 65.0172 18.3583 64.8115 18.2852C64.6058 18.212 64.4298 18.1092 64.2835 17.9766C64.1372 17.8394 64.0229 17.6726 63.9406 17.476C63.8629 17.2794 63.8264 17.0532 63.8309 16.7972H64.6126ZM65.7852 17.7846C66.0321 17.7663 66.2332 17.6954 66.3886 17.572C66.5486 17.444 66.6286 17.2429 66.6286 16.9686C66.6286 16.8406 66.6035 16.7332 66.5532 16.6463C66.5075 16.5594 66.4435 16.4863 66.3612 16.4269C66.2835 16.3674 66.1944 16.3194 66.0938 16.2829C65.9932 16.2463 65.8904 16.2143 65.7852 16.1869V17.7846ZM67.8881 14.2806C68.0526 14.2806 68.2126 14.2669 68.3681 14.2394C68.5235 14.212 68.6629 14.1663 68.7863 14.1023C68.9143 14.0383 69.0218 13.956 69.1086 13.8554C69.2001 13.7549 69.2595 13.6314 69.2869 13.4852H69.9246V18.2852H69.0675V14.8977H67.8881V14.2806ZM71.808 17.3594H72.7612V18.2852C72.7566 18.5686 72.6697 18.8063 72.5006 18.9983C72.3315 19.1903 72.1097 19.3137 71.8355 19.3686V18.9503C71.9863 18.9137 72.0983 18.8292 72.1715 18.6966C72.2492 18.5686 72.2857 18.4314 72.2812 18.2852H71.808V17.3594ZM75.1497 13.3892C75.4925 13.3892 75.7714 13.4692 75.9862 13.6292C76.2057 13.7846 76.3748 13.9857 76.4937 14.2326C76.6171 14.4749 76.6994 14.7423 76.7405 15.0349C76.7862 15.3274 76.8091 15.6109 76.8091 15.8852C76.8091 16.1594 76.7862 16.4429 76.7405 16.7354C76.6994 17.028 76.6171 17.2977 76.4937 17.5446C76.3748 17.7869 76.2057 17.988 75.9862 18.148C75.7714 18.3034 75.4925 18.3812 75.1497 18.3812C74.8068 18.3812 74.5257 18.3034 74.3062 18.148C74.0914 17.988 73.9222 17.7869 73.7988 17.5446C73.6799 17.2977 73.5977 17.028 73.5519 16.7354C73.5108 16.4429 73.4902 16.1594 73.4902 15.8852C73.4902 15.6109 73.5108 15.3274 73.5519 15.0349C73.5977 14.7423 73.6799 14.4749 73.7988 14.2326C73.9222 13.9857 74.0914 13.7846 74.3062 13.6292C74.5257 13.4692 74.8068 13.3892 75.1497 13.3892ZM75.1497 17.7297C75.3188 17.7297 75.4605 17.6817 75.5748 17.5857C75.6891 17.4852 75.7782 17.3526 75.8422 17.188C75.9108 17.0189 75.9588 16.8223 75.9862 16.5983C76.0137 16.3743 76.0274 16.1366 76.0274 15.8852C76.0274 15.6337 76.0137 15.3983 75.9862 15.1789C75.9588 14.9549 75.9108 14.7583 75.8422 14.5892C75.7782 14.42 75.6891 14.2874 75.5748 14.1914C75.4605 14.0909 75.3188 14.0406 75.1497 14.0406C74.9759 14.0406 74.8319 14.0909 74.7177 14.1914C74.6079 14.2874 74.5188 14.42 74.4502 14.5892C74.3862 14.7583 74.3405 14.9549 74.3131 15.1789C74.2857 15.3983 74.2719 15.6337 74.2719 15.8852C74.2719 16.1366 74.2857 16.3743 74.3131 16.5983C74.3405 16.8223 74.3862 17.0189 74.4502 17.188C74.5188 17.3526 74.6079 17.4852 74.7177 17.5857C74.8319 17.6817 74.9759 17.7297 75.1497 17.7297ZM80.5988 18.2852H77.3211C77.3256 17.8874 77.4216 17.54 77.6091 17.2429C77.7965 16.9457 78.0525 16.6874 78.3771 16.468C78.5325 16.3537 78.6948 16.244 78.8639 16.1389C79.0331 16.0292 79.1885 15.9126 79.3302 15.7892C79.4719 15.6657 79.5885 15.5332 79.6799 15.3914C79.7714 15.2452 79.8194 15.0783 79.8239 14.8909C79.8239 14.804 79.8125 14.7126 79.7896 14.6166C79.7714 14.516 79.7325 14.4246 79.6731 14.3423C79.6136 14.2554 79.5314 14.1846 79.4262 14.1297C79.3211 14.0703 79.1839 14.0406 79.0148 14.0406C78.8594 14.0406 78.7291 14.0726 78.6239 14.1366C78.5234 14.196 78.4411 14.2806 78.3771 14.3903C78.3176 14.4954 78.2719 14.6212 78.2399 14.7674C78.2125 14.9137 78.1965 15.0714 78.1919 15.2406H77.4102C77.4102 14.9754 77.4445 14.7309 77.5131 14.5069C77.5862 14.2783 77.6936 14.0817 77.8354 13.9172C77.9771 13.7526 78.1485 13.6246 78.3496 13.5332C78.5554 13.4372 78.7931 13.3892 79.0628 13.3892C79.3554 13.3892 79.5999 13.4372 79.7965 13.5332C79.9931 13.6292 80.1508 13.7503 80.2696 13.8966C80.3931 14.0429 80.4799 14.2029 80.5302 14.3766C80.5805 14.5457 80.6056 14.708 80.6056 14.8634C80.6056 15.0554 80.5759 15.2292 80.5165 15.3846C80.4571 15.54 80.3771 15.684 80.2765 15.8166C80.1759 15.9446 80.0616 16.0634 79.9336 16.1732C79.8056 16.2829 79.6731 16.3857 79.5359 16.4817C79.3988 16.5777 79.2616 16.6692 79.1245 16.756C78.9874 16.8429 78.8594 16.9297 78.7405 17.0166C78.6262 17.1034 78.5256 17.1949 78.4388 17.2909C78.3519 17.3823 78.2925 17.4806 78.2605 17.5857H80.5988V18.2852ZM81.6319 16.5297H83.0856V14.4177H83.0719L81.6319 16.5297ZM84.4433 17.1469H83.8262V18.2852H83.0856V17.1469H81.0285V16.372L83.0856 13.4852H83.8262V16.5297H84.4433V17.1469Z" fill="#403C84"/>
<path d="M64.9486 23.0246H63.7246V22.6132H66.6612V23.0246H65.4372V26.2852H64.9486V23.0246ZM66.9966 22.6132H67.4338V24.0172H67.4441C67.4783 23.9349 67.5263 23.8663 67.5881 23.8114C67.6498 23.7532 67.7183 23.7069 67.7938 23.6726C67.8726 23.6349 67.9532 23.6074 68.0355 23.5903C68.1212 23.5732 68.2035 23.5646 68.2823 23.5646C68.4572 23.5646 68.6029 23.5886 68.7195 23.6366C68.8361 23.6846 68.9303 23.7514 69.0023 23.8372C69.0743 23.9229 69.1241 24.0257 69.1515 24.1457C69.1823 24.2623 69.1978 24.3926 69.1978 24.5366V26.2852H68.7606V24.4852C68.7606 24.3206 68.7126 24.1903 68.6166 24.0943C68.5206 23.9983 68.3886 23.9503 68.2206 23.9503C68.0869 23.9503 67.9703 23.9709 67.8709 24.012C67.7749 24.0532 67.6943 24.1114 67.6292 24.1869C67.5641 24.2623 67.5143 24.3514 67.4801 24.4543C67.4492 24.5537 67.4338 24.6634 67.4338 24.7834V26.2852H66.9966V22.6132ZM70.3172 23.148H69.88V22.6132H70.3172V23.148ZM69.88 23.6263H70.3172V26.2852H69.88V23.6263ZM71.2618 25.4469C71.2652 25.5429 71.2875 25.6252 71.3287 25.6937C71.3698 25.7589 71.423 25.812 71.4881 25.8532C71.5567 25.8909 71.6321 25.9183 71.7144 25.9354C71.8001 25.9526 71.8875 25.9612 71.9767 25.9612C72.0452 25.9612 72.1172 25.956 72.1927 25.9457C72.2681 25.9354 72.3367 25.9166 72.3984 25.8892C72.4635 25.8617 72.5167 25.8223 72.5578 25.7709C72.599 25.716 72.6195 25.6474 72.6195 25.5652C72.6195 25.452 72.5767 25.3663 72.491 25.308C72.4052 25.2497 72.2972 25.2034 72.167 25.1692C72.0401 25.1314 71.9012 25.0989 71.7504 25.0714C71.5995 25.0406 71.459 24.9994 71.3287 24.948C71.2018 24.8932 71.0955 24.8177 71.0098 24.7217C70.9241 24.6257 70.8812 24.492 70.8812 24.3206C70.8812 24.1869 70.9104 24.072 70.9687 23.976C71.0304 23.88 71.1075 23.8029 71.2001 23.7446C71.2961 23.6829 71.4024 23.6383 71.519 23.6109C71.639 23.58 71.7572 23.5646 71.8738 23.5646C72.0247 23.5646 72.1635 23.5783 72.2904 23.6057C72.4172 23.6297 72.5287 23.6743 72.6247 23.7394C72.7241 23.8012 72.803 23.8869 72.8612 23.9966C72.9195 24.1029 72.9538 24.2366 72.9641 24.3977H72.527C72.5201 24.312 72.4978 24.2417 72.4601 24.1869C72.4224 24.1286 72.3744 24.0823 72.3161 24.048C72.2578 24.0137 72.1927 23.9897 72.1207 23.976C72.0521 23.9589 71.9818 23.9503 71.9098 23.9503C71.8447 23.9503 71.7778 23.9554 71.7092 23.9657C71.6441 23.976 71.5841 23.9949 71.5292 24.0223C71.4744 24.0463 71.4298 24.0806 71.3955 24.1252C71.3612 24.1663 71.3441 24.2212 71.3441 24.2897C71.3441 24.3652 71.3698 24.4286 71.4212 24.48C71.4761 24.528 71.5447 24.5692 71.627 24.6034C71.7092 24.6343 71.8018 24.6617 71.9047 24.6857C72.0075 24.7063 72.1104 24.7286 72.2132 24.7526C72.323 24.7766 72.4292 24.8057 72.5321 24.84C72.6384 24.8743 72.731 24.9206 72.8098 24.9789C72.8921 25.0337 72.9572 25.104 73.0052 25.1897C73.0567 25.2754 73.0824 25.3817 73.0824 25.5086C73.0824 25.6697 73.0481 25.8034 72.9795 25.9097C72.9144 26.016 72.827 26.1017 72.7172 26.1669C72.611 26.232 72.4892 26.2766 72.3521 26.3006C72.2184 26.328 72.0847 26.3417 71.951 26.3417C71.8035 26.3417 71.663 26.3263 71.5292 26.2954C71.3955 26.2646 71.2772 26.2149 71.1744 26.1463C71.0715 26.0743 70.9892 25.9817 70.9275 25.8686C70.8658 25.752 70.8315 25.6114 70.8247 25.4469H71.2618ZM74.9972 23.6263H75.4086V24.0172H75.4189C75.6178 23.7154 75.904 23.5646 76.2778 23.5646C76.4423 23.5646 76.5915 23.5989 76.7252 23.6674C76.8589 23.736 76.9532 23.8526 77.008 24.0172C77.0972 23.8732 77.2138 23.7617 77.3578 23.6829C77.5052 23.604 77.6663 23.5646 77.8412 23.5646C77.9749 23.5646 78.0949 23.58 78.2012 23.6109C78.3109 23.6383 78.4035 23.6829 78.4789 23.7446C78.5578 23.8063 78.6178 23.8869 78.6589 23.9863C78.7035 24.0823 78.7258 24.1989 78.7258 24.336V26.2852H78.2886V24.5417C78.2886 24.4594 78.2818 24.3823 78.268 24.3103C78.2543 24.2383 78.2286 24.1766 78.1909 24.1252C78.1532 24.0703 78.1 24.0274 78.0315 23.9966C77.9663 23.9657 77.8806 23.9503 77.7743 23.9503C77.5583 23.9503 77.3886 24.012 77.2652 24.1354C77.1418 24.2589 77.08 24.4234 77.08 24.6292V26.2852H76.6429V24.5417C76.6429 24.456 76.6343 24.3772 76.6172 24.3052C76.6035 24.2332 76.5778 24.1714 76.54 24.12C76.5023 24.0652 76.4509 24.024 76.3858 23.9966C76.324 23.9657 76.2435 23.9503 76.144 23.9503C76.0172 23.9503 75.9075 23.976 75.8149 24.0274C75.7258 24.0789 75.652 24.1406 75.5938 24.2126C75.5389 24.2846 75.4978 24.36 75.4703 24.4389C75.4463 24.5143 75.4343 24.5777 75.4343 24.6292V26.2852H74.9972V23.6263ZM79.7005 24.9583C79.7005 25.1194 79.7211 25.2634 79.7622 25.3903C79.8068 25.5137 79.8668 25.6183 79.9422 25.704C80.0177 25.7863 80.1051 25.8497 80.2045 25.8943C80.3074 25.9389 80.4154 25.9612 80.5285 25.9612C80.6417 25.9612 80.748 25.9389 80.8474 25.8943C80.9502 25.8497 81.0394 25.7863 81.1148 25.704C81.1902 25.6183 81.2485 25.5137 81.2897 25.3903C81.3342 25.2634 81.3565 25.1194 81.3565 24.9583C81.3565 24.7972 81.3342 24.6549 81.2897 24.5314C81.2485 24.4046 81.1902 24.2983 81.1148 24.2126C81.0394 24.1269 80.9502 24.0617 80.8474 24.0172C80.748 23.9726 80.6417 23.9503 80.5285 23.9503C80.4154 23.9503 80.3074 23.9726 80.2045 24.0172C80.1051 24.0617 80.0177 24.1269 79.9422 24.2126C79.8668 24.2983 79.8068 24.4046 79.7622 24.5314C79.7211 24.6549 79.7005 24.7972 79.7005 24.9583ZM79.2377 24.9583C79.2377 24.7629 79.2651 24.5812 79.32 24.4132C79.3748 24.2417 79.4571 24.0943 79.5668 23.9709C79.6765 23.844 79.812 23.7446 79.9731 23.6726C80.1342 23.6006 80.3194 23.5646 80.5285 23.5646C80.7411 23.5646 80.9262 23.6006 81.084 23.6726C81.2451 23.7446 81.3805 23.844 81.4902 23.9709C81.6 24.0943 81.6822 24.2417 81.7371 24.4132C81.792 24.5812 81.8194 24.7629 81.8194 24.9583C81.8194 25.1537 81.792 25.3354 81.7371 25.5034C81.6822 25.6714 81.6 25.8189 81.4902 25.9457C81.3805 26.0692 81.2451 26.1669 81.084 26.2389C80.9262 26.3074 80.7411 26.3417 80.5285 26.3417C80.3194 26.3417 80.1342 26.3074 79.9731 26.2389C79.812 26.1669 79.6765 26.0692 79.5668 25.9457C79.4571 25.8189 79.3748 25.6714 79.32 25.5034C79.2651 25.3354 79.2377 25.1537 79.2377 24.9583ZM82.3348 23.6263H82.7462V24.048H82.7565C82.9382 23.7257 83.2262 23.5646 83.6205 23.5646C83.7954 23.5646 83.9411 23.5886 84.0576 23.6366C84.1742 23.6846 84.2685 23.7514 84.3405 23.8372C84.4125 23.9229 84.4622 24.0257 84.4896 24.1457C84.5205 24.2623 84.5359 24.3926 84.5359 24.5366V26.2852H84.0988V24.4852C84.0988 24.3206 84.0508 24.1903 83.9548 24.0943C83.8588 23.9983 83.7268 23.9503 83.5588 23.9503C83.4251 23.9503 83.3085 23.9709 83.2091 24.012C83.1131 24.0532 83.0325 24.1114 82.9674 24.1869C82.9022 24.2623 82.8525 24.3514 82.8182 24.4543C82.7874 24.5537 82.7719 24.6634 82.7719 24.7834V26.2852H82.3348V23.6263ZM85.7993 23.6263H86.3291V24.012H85.7993V25.6629C85.7993 25.7143 85.8028 25.7554 85.8096 25.7863C85.8199 25.8172 85.8371 25.8412 85.8611 25.8583C85.8851 25.8754 85.9176 25.8874 85.9588 25.8943C86.0033 25.8977 86.0599 25.8994 86.1285 25.8994H86.3291V26.2852H85.9948C85.8816 26.2852 85.7839 26.2783 85.7016 26.2646C85.6228 26.2474 85.5576 26.2183 85.5062 26.1772C85.4582 26.136 85.4222 26.0777 85.3982 26.0023C85.3742 25.9269 85.3622 25.8274 85.3622 25.704V24.012H84.9096V23.6263H85.3622V22.8292H85.7993V23.6263ZM86.8147 22.6132H87.2518V24.0172H87.2621C87.2964 23.9349 87.3444 23.8663 87.4061 23.8114C87.4678 23.7532 87.5364 23.7069 87.6118 23.6726C87.6907 23.6349 87.7713 23.6074 87.8536 23.5903C87.9393 23.5732 88.0216 23.5646 88.1004 23.5646C88.2753 23.5646 88.421 23.5886 88.5376 23.6366C88.6541 23.6846 88.7484 23.7514 88.8204 23.8372C88.8924 23.9229 88.9421 24.0257 88.9696 24.1457C89.0004 24.2623 89.0158 24.3926 89.0158 24.5366V26.2852H88.5787V24.4852C88.5787 24.3206 88.5307 24.1903 88.4347 24.0943C88.3387 23.9983 88.2067 23.9503 88.0387 23.9503C87.905 23.9503 87.7884 23.9709 87.689 24.012C87.593 24.0532 87.5124 24.1114 87.4473 24.1869C87.3821 24.2623 87.3324 24.3514 87.2981 24.4543C87.2673 24.5537 87.2518 24.6634 87.2518 24.7834V26.2852H86.8147V22.6132Z" fill="#282828" fill-opacity="0.7"/>
<g filter="url(#filter0_bdi_2347_6294)">
<g clip-path="url(#clip0_2347_6294)">
<g filter="url(#filter1_d_2347_6294)">
<rect x="123.429" y="13.2852" width="12" height="12" rx="6" fill="#282828" fill-opacity="0.05" style="mix-blend-mode:luminosity" shape-rendering="crispEdges"/>
<rect x="123.75" y="13.6066" width="11.3571" height="11.3571" rx="5.67857" stroke="url(#paint4_linear_2347_6294)" stroke-opacity="0.25" stroke-width="0.642857" shape-rendering="crispEdges"/>
<g clip-path="url(#clip1_2347_6294)">
<path d="M127.5 19.9275L128.849 20.9989L131.357 17.5703" stroke="#282828" stroke-width="0.857143" stroke-linecap="square"/>
</g>
</g>
</g>
<rect x="122.036" y="11.8917" width="14.7857" height="14.7857" rx="7.39286" stroke="#282828" stroke-opacity="0.4" stroke-width="0.642857" shape-rendering="crispEdges"/>
</g>
<rect opacity="0.05" x="6.85718" y="78" width="13.7143" height="34.2857" rx="0.857143" fill="#282828"/>
<rect opacity="0.1" x="21.4286" y="61.2852" width="13.7143" height="51" rx="0.857143" fill="#282828"/>
<rect opacity="0.05" x="40.8572" y="92.5703" width="13.7143" height="19.7143" rx="0.857143" fill="#282828"/>
<rect opacity="0.5" x="55.4287" y="68.5703" width="13.7143" height="0.857143" rx="0.428571" fill="#282828" fill-opacity="0.95"/>
<rect opacity="0.5" x="55.4287" y="70.2852" width="13.7143" height="42" rx="0.857143" fill="url(#paint5_linear_2347_6294)"/>
<rect opacity="0.05" x="74.8571" y="78" width="13.7143" height="34.2857" rx="0.857143" fill="#282828"/>
<rect opacity="0.05" x="89.4286" y="40.2852" width="13.7143" height="72" rx="0.857143" fill="#282828"/>
<rect opacity="0.05" x="108.857" y="98.5703" width="13.7143" height="13.7143" rx="0.857143" fill="#282828"/>
<rect opacity="0.1" x="123.429" y="103.715" width="13.7143" height="8.57143" rx="0.857143" fill="#282828"/>
<defs>
<filter id="filter0_bdi_2347_6294" x="116.571" y="6.42746" width="25.7143" height="37.7154" filterUnits="userSpaceOnUse" color-interpolation-filters="sRGB">
<feFlood flood-opacity="0" result="BackgroundImageFix"/>
<feGaussianBlur in="BackgroundImageFix" stdDeviation="2.57143"/>
<feComposite in2="SourceAlpha" operator="in" result="effect1_backgroundBlur_2347_6294"/>
<feColorMatrix in="SourceAlpha" type="matrix" values="0 0 0 0 0 0 0 0 0 0 0 0 0 0 0 0 0 0 127 0" result="hardAlpha"/>
<feMorphology radius="6.85714" operator="erode" in="SourceAlpha" result="effect2_dropShadow_2347_6294"/>
<feOffset dy="13.7143"/>
<feGaussianBlur stdDeviation="5.14286"/>
<feComposite in2="hardAlpha" operator="out"/>
<feColorMatrix type="matrix" values="0 0 0 0 0 0 0 0 0 0 0 0 0 0 0 0 0 0 0.4 0"/>
<feBlend mode="multiply" in2="effect1_backgroundBlur_2347_6294" result="effect2_dropShadow_2347_6294"/>
<feBlend mode="normal" in="SourceGraphic" in2="effect2_dropShadow_2347_6294" result="shape"/>
<feColorMatrix in="SourceAlpha" type="matrix" values="0 0 0 0 0 0 0 0 0 0 0 0 0 0 0 0 0 0 127 0" result="hardAlpha"/>
<feOffset/>
<feGaussianBlur stdDeviation="1.71429"/>
<feComposite in2="hardAlpha" operator="arithmetic" k2="-1" k3="1"/>
<feColorMatrix type="matrix" values="0 0 0 0 0.972549 0 0 0 0 0.972549 0 0 0 0 0.972549 0 0 0 0.25 0"/>
<feBlend mode="normal" in2="shape" result="effect3_innerShadow_2347_6294"/>
</filter>
<filter id="filter1_d_2347_6294" x="113.143" y="13.2852" width="32.5714" height="32.5714" filterUnits="userSpaceOnUse" color-interpolation-filters="sRGB">
<feFlood flood-opacity="0" result="BackgroundImageFix"/>
<feColorMatrix in="SourceAlpha" type="matrix" values="0 0 0 0 0 0 0 0 0 0 0 0 0 0 0 0 0 0 127 0" result="hardAlpha"/>
<feOffset dy="10.2857"/>
<feGaussianBlur stdDeviation="5.14286"/>
<feComposite in2="hardAlpha" operator="out"/>
<feColorMatrix type="matrix" values="0 0 0 0 0 0 0 0 0 0 0 0 0 0 0 0 0 0 0.3 0"/>
<feBlend mode="multiply" in2="BackgroundImageFix" result="effect1_dropShadow_2347_6294"/>
<feBlend mode="normal" in="SourceGraphic" in2="effect1_dropShadow_2347_6294" result="shape"/>
</filter>
<linearGradient id="paint0_linear_2347_6294" x1="9.42861" y1="12.8555" x2="11.6659" y2="18.503" gradientUnits="userSpaceOnUse">
<stop stop-color="#121212" stopOpacity="0.4"/>
<stop offset="0.4" stop-color="#121212" stopOpacity="0"/>
<stop offset="0.6" stop-color="#121212" stopOpacity="0"/>
<stop offset="1" stop-color="#121212" stopOpacity="0.1"/>
</linearGradient>
<linearGradient id="paint1_linear_2347_6294" x1="9.42866" y1="14.1406" x2="10.5473" y2="16.9644" gradientUnits="userSpaceOnUse">
<stop stop-color="#121212" stopOpacity="0.4"/>
<stop offset="0.4" stop-color="#121212" stopOpacity="0"/>
<stop offset="0.6" stop-color="#121212" stopOpacity="0"/>
<stop offset="1" stop-color="#121212" stopOpacity="0.1"/>
</linearGradient>
<linearGradient id="paint2_linear_2347_6294" x1="57.7144" y1="12.8555" x2="59.9516" y2="18.503" gradientUnits="userSpaceOnUse">
<stop stop-color="#121212" stopOpacity="0.4"/>
<stop offset="0.4" stop-color="#121212" stopOpacity="0"/>
<stop offset="0.6" stop-color="#121212" stopOpacity="0"/>
<stop offset="1" stop-color="#121212" stopOpacity="0.1"/>
</linearGradient>
<linearGradient id="paint3_linear_2347_6294" x1="57.7143" y1="14.1406" x2="58.8329" y2="16.9644" gradientUnits="userSpaceOnUse">
<stop stop-color="#121212" stopOpacity="0.4"/>
<stop offset="0.4" stop-color="#121212" stopOpacity="0"/>
<stop offset="0.6" stop-color="#121212" stopOpacity="0"/>
<stop offset="1" stop-color="#121212" stopOpacity="0.1"/>
</linearGradient>
<linearGradient id="paint4_linear_2347_6294" x1="129.429" y1="13.2852" x2="134.649" y2="26.4626" gradientUnits="userSpaceOnUse">
<stop stop-color="#121212" stopOpacity="0.4"/>
<stop offset="0.4" stop-color="#121212" stopOpacity="0"/>
<stop offset="0.6" stop-color="#121212" stopOpacity="0"/>
<stop offset="1" stop-color="#121212" stopOpacity="0.1"/>
</linearGradient>
<linearGradient id="paint5_linear_2347_6294" x1="62.2859" y1="70.2852" x2="62.2859" y2="112.285" gradientUnits="userSpaceOnUse">
<stop stop-color="#121212" stopOpacity="0.4"/>
<stop offset="1" stop-color="#121212" stopOpacity="0"/>
</linearGradient>
<clipPath id="clip0_2347_6294">
<rect x="121.714" y="11.5703" width="15.4286" height="15.4286" rx="7.71429" fill="white"/>
</clipPath>
<clipPath id="clip1_2347_6294">
<rect width="5.14286" height="5.14286" fill="white" transform="translate(126.857 16.7148)"/>
</clipPath>
</defs>
</svg>
