<svg width="156" height="157" viewBox="0 0 156 157" fill="none" xmlns="http://www.w3.org/2000/svg">
<mask id="mask0_2347_12502" style="mask-type:alpha" maskUnits="userSpaceOnUse" x="-20" y="-63" width="253" height="252">
<rect x="-19.25" y="-63" width="252" height="252" fill="url(#paint0_linear_2347_12502)"/>
</mask>
<g mask="url(#mask0_2347_12502)">
<circle cx="32.8928" cy="65.6423" r="1.60714" fill="#282828" fill-opacity="0.05"/>
<circle cx="32.8928" cy="65.6423" r="1.47321" stroke="url(#paint1_linear_2347_12502)" stroke-opacity="0.25" stroke-width="0.267857"/>
<circle cx="32.8929" cy="65.6434" r="0.803571" fill="#282828" fill-opacity="0.05"/>
<circle cx="32.8929" cy="65.6434" r="0.669643" stroke="url(#paint2_linear_2347_12502)" stroke-opacity="0.25" stroke-width="0.267857"/>
<path d="M37.7528 64.6825C37.5985 64.6825 37.4785 64.7154 37.3928 64.7811C37.31 64.844 37.2685 64.9511 37.2685 65.1025C37.2685 65.1711 37.2828 65.2297 37.3114 65.2783C37.34 65.3268 37.3757 65.3683 37.4185 65.4025C37.4643 65.4368 37.5157 65.4654 37.5728 65.4883C37.6328 65.5083 37.6928 65.5254 37.7528 65.5397V64.6825ZM37.2043 66.4997C37.2014 66.6883 37.2428 66.8368 37.3285 66.9454C37.4143 67.054 37.5557 67.1111 37.7528 67.1168V66.0797C37.6357 66.0483 37.5185 66.0111 37.4014 65.9683C37.2871 65.9225 37.1828 65.8654 37.0885 65.7968C36.9971 65.7254 36.9228 65.6368 36.8657 65.5311C36.8085 65.4254 36.78 65.294 36.78 65.1368C36.78 64.9997 36.8057 64.8797 36.8571 64.7768C36.9114 64.6711 36.9828 64.584 37.0714 64.5154C37.1628 64.444 37.2671 64.3897 37.3843 64.3525C37.5014 64.3154 37.6243 64.2968 37.7528 64.2968V63.9625H37.9371V64.2968C38.0657 64.2968 38.1871 64.314 38.3014 64.3483C38.4157 64.3825 38.5143 64.434 38.5971 64.5025C38.6828 64.5711 38.75 64.6583 38.7985 64.764C38.85 64.8697 38.8757 64.9925 38.8757 65.1325H38.3871C38.3814 64.9868 38.3428 64.8754 38.2714 64.7983C38.2028 64.7211 38.0914 64.6825 37.9371 64.6825V65.5868C38.0657 65.6211 38.1914 65.6611 38.3143 65.7068C38.4371 65.7525 38.5457 65.8111 38.64 65.8825C38.7343 65.954 38.81 66.0425 38.8671 66.1483C38.9243 66.254 38.9528 66.384 38.9528 66.5383C38.9528 66.6983 38.9257 66.8383 38.8714 66.9583C38.82 67.0754 38.7485 67.174 38.6571 67.254C38.5657 67.3311 38.4585 67.3897 38.3357 67.4297C38.2128 67.4725 38.08 67.4968 37.9371 67.5025V67.8368H37.7528V67.5025C37.5985 67.4997 37.4571 67.4754 37.3285 67.4297C37.2 67.384 37.09 67.3197 36.9985 67.2368C36.9071 67.1511 36.8357 67.0468 36.7843 66.924C36.7357 66.8011 36.7128 66.6597 36.7157 66.4997H37.2043ZM37.9371 67.1168C38.0914 67.1054 38.2171 67.0611 38.3143 66.984C38.4143 66.904 38.4643 66.7783 38.4643 66.6068C38.4643 66.5268 38.4485 66.4597 38.4171 66.4054C38.3885 66.3511 38.3485 66.3054 38.2971 66.2683C38.2485 66.2311 38.1928 66.2011 38.13 66.1783C38.0671 66.1554 38.0028 66.1354 37.9371 66.1183V67.1168ZM39.5042 66.3325H40.4128V65.0125H40.4042L39.5042 66.3325ZM41.2614 66.7183H40.8757V67.4297H40.4128V66.7183H39.1271V66.234L40.4128 64.4297H40.8757V66.3325H41.2614V66.7183ZM42.5971 64.3697C42.8114 64.3697 42.9857 64.4197 43.1199 64.5197C43.2571 64.6168 43.3628 64.7425 43.4371 64.8968C43.5142 65.0483 43.5657 65.2154 43.5914 65.3983C43.6199 65.5811 43.6342 65.7583 43.6342 65.9297C43.6342 66.1011 43.6199 66.2783 43.5914 66.4611C43.5657 66.644 43.5142 66.8125 43.4371 66.9668C43.3628 67.1183 43.2571 67.244 43.1199 67.344C42.9857 67.4411 42.8114 67.4897 42.5971 67.4897C42.3828 67.4897 42.2071 67.4411 42.0699 67.344C41.9357 67.244 41.8299 67.1183 41.7528 66.9668C41.6785 66.8125 41.6271 66.644 41.5985 66.4611C41.5728 66.2783 41.5599 66.1011 41.5599 65.9297C41.5599 65.7583 41.5728 65.5811 41.5985 65.3983C41.6271 65.2154 41.6785 65.0483 41.7528 64.8968C41.8299 64.7425 41.9357 64.6168 42.0699 64.5197C42.2071 64.4197 42.3828 64.3697 42.5971 64.3697ZM42.5971 67.0825C42.7028 67.0825 42.7914 67.0525 42.8628 66.9925C42.9342 66.9297 42.9899 66.8468 43.0299 66.744C43.0728 66.6383 43.1028 66.5154 43.1199 66.3754C43.1371 66.2354 43.1457 66.0868 43.1457 65.9297C43.1457 65.7725 43.1371 65.6254 43.1199 65.4883C43.1028 65.3483 43.0728 65.2254 43.0299 65.1197C42.9899 65.014 42.9342 64.9311 42.8628 64.8711C42.7914 64.8083 42.7028 64.7768 42.5971 64.7768C42.4885 64.7768 42.3985 64.8083 42.3271 64.8711C42.2585 64.9311 42.2028 65.014 42.1599 65.1197C42.1199 65.2254 42.0914 65.3483 42.0742 65.4883C42.0571 65.6254 42.0485 65.7725 42.0485 65.9297C42.0485 66.0868 42.0571 66.2354 42.0742 66.3754C42.0914 66.5154 42.1199 66.6383 42.1599 66.744C42.2028 66.8468 42.2585 66.9297 42.3271 66.9925C42.3985 67.0525 42.4885 67.0825 42.5971 67.0825ZM44.9785 64.7554C44.8471 64.7554 44.7356 64.7954 44.6442 64.8754C44.5528 64.9525 44.5071 65.0654 44.5071 65.214C44.5071 65.3568 44.5514 65.4668 44.6399 65.544C44.7285 65.6183 44.8414 65.6554 44.9785 65.6554C45.1156 65.6554 45.2285 65.6183 45.3171 65.544C45.4056 65.4668 45.4499 65.3568 45.4499 65.214C45.4499 65.0654 45.4042 64.9525 45.3128 64.8754C45.2214 64.7954 45.1099 64.7554 44.9785 64.7554ZM44.9785 67.4897C44.8271 67.4897 44.6856 67.4683 44.5542 67.4254C44.4256 67.3825 44.3142 67.3211 44.2199 67.2411C44.1256 67.1583 44.0514 67.0583 43.9971 66.9411C43.9456 66.824 43.9199 66.6925 43.9199 66.5468C43.9199 66.3583 43.9685 66.1997 44.0656 66.0711C44.1656 65.9425 44.2999 65.8568 44.4685 65.814V65.8054C44.3314 65.754 44.2256 65.6754 44.1514 65.5697C44.0799 65.4611 44.0442 65.334 44.0442 65.1883C44.0442 64.9311 44.1242 64.7311 44.2842 64.5883C44.4471 64.4425 44.6785 64.3697 44.9785 64.3697C45.2785 64.3697 45.5085 64.4425 45.6685 64.5883C45.8314 64.7311 45.9128 64.9311 45.9128 65.1883C45.9128 65.334 45.8756 65.4611 45.8014 65.5697C45.7299 65.6754 45.6256 65.754 45.4885 65.8054V65.814C45.6571 65.8568 45.7899 65.9425 45.8871 66.0711C45.9871 66.1997 46.0371 66.3583 46.0371 66.5468C46.0371 66.6925 46.0099 66.824 45.9556 66.9411C45.9042 67.0583 45.8314 67.1583 45.7371 67.2411C45.6428 67.3211 45.5299 67.3825 45.3985 67.4254C45.2699 67.4683 45.1299 67.4897 44.9785 67.4897ZM44.9785 67.104C45.1414 67.104 45.2771 67.0554 45.3856 66.9583C45.4942 66.8611 45.5485 66.724 45.5485 66.5468C45.5485 66.3811 45.4942 66.2525 45.3856 66.1611C45.2771 66.0668 45.1414 66.0197 44.9785 66.0197C44.8156 66.0197 44.6799 66.0668 44.5714 66.1611C44.4628 66.2525 44.4085 66.3811 44.4085 66.5468C44.4085 66.724 44.4628 66.8611 44.5714 66.9583C44.6799 67.0554 44.8156 67.104 44.9785 67.104ZM46.4642 66.8511H47.0599V67.4297H46.4642V66.8511ZM48.3384 65.6725C48.4184 65.6754 48.4984 65.6697 48.5784 65.6554C48.6584 65.6411 48.7299 65.6168 48.7927 65.5825C48.8556 65.5454 48.9056 65.4954 48.9427 65.4325C48.9827 65.3697 49.0027 65.2925 49.0027 65.2011C49.0027 65.0725 48.9584 64.9697 48.8699 64.8925C48.7842 64.8154 48.6727 64.7768 48.5356 64.7768C48.4499 64.7768 48.3756 64.794 48.3127 64.8283C48.2499 64.8625 48.197 64.9097 48.1541 64.9697C48.1141 65.0268 48.0841 65.0925 48.0641 65.1668C48.0441 65.2383 48.0356 65.3125 48.0384 65.3897H47.5499C47.5556 65.244 47.5827 65.1097 47.6313 64.9868C47.6799 64.8611 47.7456 64.7525 47.8284 64.6611C47.9142 64.5697 48.017 64.4983 48.137 64.4468C48.257 64.3954 48.3927 64.3697 48.5442 64.3697C48.6613 64.3697 48.7756 64.3868 48.887 64.4211C49.0013 64.4554 49.1027 64.5054 49.1913 64.5711C49.2827 64.6368 49.3556 64.7211 49.4099 64.824C49.4641 64.924 49.4913 65.0397 49.4913 65.1711C49.4913 65.3225 49.457 65.4554 49.3884 65.5697C49.3199 65.6811 49.2127 65.7625 49.067 65.814V65.8225C49.2384 65.8568 49.3713 65.9425 49.4656 66.0797C49.5627 66.214 49.6113 66.3783 49.6113 66.5725C49.6113 66.7154 49.5827 66.844 49.5256 66.9583C49.4684 67.0697 49.3913 67.1654 49.2942 67.2454C49.197 67.3225 49.0842 67.3825 48.9556 67.4254C48.827 67.4683 48.6913 67.4897 48.5484 67.4897C48.3741 67.4897 48.2213 67.4654 48.0899 67.4168C47.9613 67.3654 47.8527 67.294 47.7641 67.2025C47.6784 67.1111 47.6127 67.0011 47.567 66.8725C47.5213 66.744 47.497 66.6011 47.4941 66.444H47.9827C47.977 66.6268 48.0213 66.7797 48.1156 66.9025C48.2127 67.0225 48.357 67.0825 48.5484 67.0825C48.7113 67.0825 48.847 67.0368 48.9556 66.9454C49.067 66.8511 49.1227 66.7183 49.1227 66.5468C49.1227 66.4297 49.0999 66.3368 49.0541 66.2683C49.0084 66.1997 48.9484 66.1483 48.8741 66.114C48.7999 66.0768 48.7156 66.054 48.6213 66.0454C48.5299 66.0368 48.4356 66.034 48.3384 66.0368V65.6725ZM51.4356 65.1883C51.4241 65.0654 51.3799 64.9668 51.3027 64.8925C51.2284 64.8154 51.127 64.7768 50.9984 64.7768C50.9099 64.7768 50.8327 64.794 50.767 64.8283C50.7041 64.8597 50.6499 64.9025 50.6041 64.9568C50.5613 65.0111 50.5256 65.074 50.497 65.1454C50.4713 65.214 50.4499 65.2868 50.4327 65.364C50.4156 65.4411 50.4027 65.5183 50.3941 65.5954C50.3884 65.6697 50.3827 65.7397 50.377 65.8054L50.3856 65.814C50.4513 65.694 50.5413 65.6054 50.6556 65.5483C50.7727 65.4883 50.8984 65.4583 51.0327 65.4583C51.1813 65.4583 51.3141 65.484 51.4313 65.5354C51.5484 65.5868 51.647 65.6583 51.727 65.7497C51.8099 65.8383 51.8727 65.944 51.9156 66.0668C51.9584 66.1897 51.9799 66.3225 51.9799 66.4654C51.9799 66.6111 51.9556 66.7468 51.907 66.8725C51.8613 66.9954 51.7941 67.104 51.7056 67.1983C51.617 67.2897 51.5113 67.3611 51.3884 67.4125C51.2656 67.464 51.1299 67.4897 50.9813 67.4897C50.7613 67.4897 50.5799 67.4497 50.437 67.3697C50.297 67.2868 50.1856 67.1754 50.1027 67.0354C50.0227 66.8925 49.967 66.7268 49.9356 66.5383C49.9041 66.3468 49.8884 66.1411 49.8884 65.9211C49.8884 65.7411 49.907 65.5597 49.9441 65.3768C49.9841 65.194 50.0484 65.0283 50.137 64.8797C50.2256 64.7283 50.3413 64.6054 50.4841 64.5111C50.6299 64.4168 50.8084 64.3697 51.0199 64.3697C51.1399 64.3697 51.2527 64.3897 51.3584 64.4297C51.4641 64.4697 51.557 64.5254 51.637 64.5968C51.7199 64.6683 51.787 64.754 51.8384 64.854C51.8899 64.954 51.9184 65.0654 51.9241 65.1883H51.4356ZM50.9641 67.0825C51.0527 67.0825 51.1299 67.0654 51.1956 67.0311C51.2613 66.994 51.3156 66.9468 51.3584 66.8897C51.4041 66.8325 51.437 66.7668 51.457 66.6925C51.4799 66.6154 51.4913 66.5368 51.4913 66.4568C51.4913 66.3768 51.4799 66.2997 51.457 66.2254C51.437 66.1511 51.4041 66.0868 51.3584 66.0325C51.3156 65.9754 51.2613 65.9297 51.1956 65.8954C51.1299 65.8611 51.0527 65.844 50.9641 65.844C50.8756 65.844 50.797 65.8611 50.7284 65.8954C50.6627 65.9268 50.607 65.9711 50.5613 66.0283C50.5156 66.0825 50.4813 66.1468 50.4584 66.2211C50.4356 66.2954 50.4241 66.374 50.4241 66.4568C50.4241 66.5397 50.4356 66.6183 50.4584 66.6925C50.4813 66.7668 50.5156 66.834 50.5613 66.894C50.607 66.9511 50.6627 66.9968 50.7284 67.0311C50.797 67.0654 50.8756 67.0825 50.9641 67.0825Z" fill="#403C84"/>
<path d="M36.8935 70.1347H37.1989V72.1725H38.4139V72.4297H36.8935V70.1347ZM40.1067 72.4233C40.0596 72.4511 39.9942 72.465 39.9107 72.465C39.84 72.465 39.7832 72.4458 39.7403 72.4072C39.6996 72.3665 39.6792 72.3011 39.6792 72.2111C39.6042 72.3011 39.5164 72.3665 39.4157 72.4072C39.3171 72.4458 39.21 72.465 39.0942 72.465C39.0192 72.465 38.9475 72.4565 38.8789 72.4393C38.8125 72.4222 38.7546 72.3954 38.7053 72.359C38.656 72.3225 38.6164 72.2754 38.5864 72.2175C38.5585 72.1575 38.5446 72.0858 38.5446 72.0022C38.5446 71.9079 38.5607 71.8308 38.5928 71.7708C38.625 71.7108 38.6667 71.6625 38.7182 71.6261C38.7717 71.5875 38.8317 71.5586 38.8982 71.5393C38.9667 71.52 39.0364 71.504 39.1071 71.4911C39.1821 71.4761 39.2528 71.4654 39.3192 71.459C39.3878 71.4504 39.4478 71.4397 39.4992 71.4268C39.5507 71.4118 39.5914 71.3915 39.6214 71.3658C39.6514 71.3379 39.6664 71.2983 39.6664 71.2468C39.6664 71.1868 39.6546 71.1386 39.631 71.1022C39.6096 71.0658 39.5807 71.0379 39.5442 71.0186C39.51 70.9993 39.4703 70.9865 39.4253 70.98C39.3825 70.9736 39.3396 70.9704 39.2967 70.9704C39.181 70.9704 39.0846 70.9929 39.0075 71.0379C38.9303 71.0808 38.8885 71.1633 38.8821 71.2854H38.6089C38.6132 71.1825 38.6346 71.0958 38.6732 71.025C38.7117 70.9543 38.7632 70.8975 38.8275 70.8547C38.8917 70.8097 38.9646 70.7775 39.046 70.7583C39.1296 70.739 39.2185 70.7293 39.3128 70.7293C39.3878 70.7293 39.4617 70.7347 39.5346 70.7454C39.6096 70.7561 39.6771 70.7786 39.7371 70.8129C39.7971 70.845 39.8453 70.8911 39.8817 70.9511C39.9182 71.0111 39.9364 71.0893 39.9364 71.1858V72.0408C39.9364 72.105 39.9396 72.1522 39.946 72.1822C39.9546 72.2122 39.9803 72.2272 40.0232 72.2272C40.0467 72.2272 40.0746 72.2218 40.1067 72.2111V72.4233ZM39.6632 71.5715C39.6289 71.5972 39.5839 71.6165 39.5282 71.6293C39.4725 71.64 39.4135 71.6497 39.3514 71.6583C39.2914 71.6647 39.2303 71.6733 39.1682 71.684C39.106 71.6925 39.0503 71.7075 39.001 71.729C38.9517 71.7504 38.911 71.7815 38.8789 71.8222C38.8489 71.8608 38.8339 71.9143 38.8339 71.9829C38.8339 72.0279 38.8425 72.0665 38.8596 72.0986C38.8789 72.1286 38.9025 72.1533 38.9303 72.1725C38.9603 72.1918 38.9946 72.2058 39.0332 72.2143C39.0717 72.2229 39.1125 72.2272 39.1553 72.2272C39.2453 72.2272 39.3225 72.2154 39.3867 72.1918C39.451 72.1661 39.5035 72.135 39.5442 72.0986C39.585 72.06 39.615 72.0193 39.6342 71.9765C39.6535 71.9315 39.6632 71.8897 39.6632 71.8511V71.5715ZM40.5282 71.9058C40.5303 71.9658 40.5442 72.0172 40.57 72.06C40.5957 72.1008 40.6289 72.134 40.6696 72.1597C40.7125 72.1833 40.7596 72.2004 40.811 72.2111C40.8646 72.2218 40.9192 72.2272 40.975 72.2272C41.0178 72.2272 41.0628 72.224 41.11 72.2175C41.1571 72.2111 41.2 72.1993 41.2385 72.1822C41.2792 72.165 41.3125 72.1404 41.3382 72.1083C41.3639 72.074 41.3767 72.0311 41.3767 71.9797C41.3767 71.909 41.35 71.8554 41.2964 71.819C41.2428 71.7825 41.1753 71.7536 41.0939 71.7322C41.0146 71.7086 40.9278 71.6883 40.8335 71.6711C40.7392 71.6518 40.6514 71.6261 40.57 71.594C40.4907 71.5597 40.4242 71.5125 40.3707 71.4525C40.3171 71.3925 40.2903 71.309 40.2903 71.2018C40.2903 71.1183 40.3085 71.0465 40.345 70.9865C40.3835 70.9265 40.4317 70.8783 40.4896 70.8418C40.5496 70.8033 40.616 70.7754 40.6889 70.7583C40.7639 70.739 40.8378 70.7293 40.9107 70.7293C41.005 70.7293 41.0917 70.7379 41.171 70.755C41.2503 70.77 41.32 70.7979 41.38 70.8386C41.4421 70.8772 41.4914 70.9308 41.5278 70.9993C41.5642 71.0658 41.5857 71.1493 41.5921 71.25H41.3189C41.3146 71.1965 41.3007 71.1525 41.2771 71.1183C41.2535 71.0818 41.2235 71.0529 41.1871 71.0315C41.1507 71.01 41.11 70.995 41.065 70.9865C41.0221 70.9758 40.9782 70.9704 40.9332 70.9704C40.8925 70.9704 40.8507 70.9736 40.8078 70.98C40.7671 70.9865 40.7296 70.9983 40.6953 71.0154C40.661 71.0304 40.6332 71.0518 40.6117 71.0797C40.5903 71.1054 40.5796 71.1397 40.5796 71.1825C40.5796 71.2297 40.5957 71.2693 40.6278 71.3015C40.6621 71.3315 40.705 71.3572 40.7564 71.3786C40.8078 71.3979 40.8657 71.415 40.93 71.43C40.9942 71.4429 41.0585 71.4568 41.1228 71.4718C41.1914 71.4868 41.2578 71.505 41.3221 71.5265C41.3885 71.5479 41.4464 71.5768 41.4957 71.6133C41.5471 71.6475 41.5878 71.6915 41.6178 71.745C41.65 71.7986 41.666 71.865 41.666 71.9443C41.666 72.045 41.6446 72.1286 41.6017 72.195C41.561 72.2615 41.5064 72.315 41.4378 72.3558C41.3714 72.3965 41.2953 72.4243 41.2096 72.4393C41.126 72.4565 41.0425 72.465 40.9589 72.465C40.8667 72.465 40.7789 72.4554 40.6953 72.4361C40.6117 72.4168 40.5378 72.3858 40.4735 72.3429C40.4092 72.2979 40.3578 72.24 40.3192 72.1693C40.2807 72.0965 40.2592 72.0086 40.255 71.9058H40.5282ZM42.3475 70.7679H42.6785V71.009H42.3475V72.0408C42.3475 72.0729 42.3496 72.0986 42.3539 72.1179C42.3603 72.1372 42.371 72.1522 42.386 72.1629C42.401 72.1736 42.4214 72.1811 42.4471 72.1854C42.475 72.1875 42.5103 72.1886 42.5532 72.1886H42.6785V72.4297H42.4696C42.3989 72.4297 42.3378 72.4254 42.2864 72.4168C42.2371 72.4061 42.1964 72.3879 42.1642 72.3622C42.1342 72.3365 42.1117 72.3 42.0967 72.2529C42.0817 72.2058 42.0742 72.1436 42.0742 72.0665V71.009H41.7914V70.7679H42.0742V70.2697H42.3475V70.7679ZM43.8766 70.7679H44.1338V71.0122H44.1402C44.2645 70.8236 44.4434 70.7293 44.677 70.7293C44.7799 70.7293 44.8731 70.7508 44.9566 70.7936C45.0402 70.8365 45.0991 70.9093 45.1334 71.0122C45.1891 70.9222 45.262 70.8525 45.352 70.8033C45.4441 70.754 45.5449 70.7293 45.6541 70.7293C45.7377 70.7293 45.8127 70.739 45.8791 70.7583C45.9477 70.7754 46.0056 70.8033 46.0527 70.8418C46.102 70.8804 46.1395 70.9308 46.1652 70.9929C46.1931 71.0529 46.207 71.1258 46.207 71.2115V72.4297H45.9338V71.34C45.9338 71.2886 45.9295 71.2404 45.9209 71.1954C45.9124 71.1504 45.8963 71.1118 45.8727 71.0797C45.8491 71.0454 45.8159 71.0186 45.7731 70.9993C45.7324 70.98 45.6788 70.9704 45.6124 70.9704C45.4774 70.9704 45.3713 71.009 45.2941 71.0861C45.217 71.1633 45.1784 71.2661 45.1784 71.3947V72.4297H44.9052V71.34C44.9052 71.2865 44.8999 71.2372 44.8891 71.1922C44.8806 71.1472 44.8645 71.1086 44.8409 71.0765C44.8174 71.0422 44.7852 71.0165 44.7445 70.9993C44.7059 70.98 44.6556 70.9704 44.5934 70.9704C44.5141 70.9704 44.4456 70.9865 44.3877 71.0186C44.332 71.0508 44.2859 71.0893 44.2495 71.1343C44.2152 71.1793 44.1895 71.2265 44.1724 71.2758C44.1574 71.3229 44.1499 71.3625 44.1499 71.3947V72.4297H43.8766V70.7679ZM46.8162 71.6004C46.8162 71.7011 46.8291 71.7911 46.8548 71.8704C46.8827 71.9475 46.9202 72.0129 46.9673 72.0665C47.0145 72.1179 47.0691 72.1575 47.1312 72.1854C47.1955 72.2133 47.263 72.2272 47.3337 72.2272C47.4045 72.2272 47.4709 72.2133 47.533 72.1854C47.5973 72.1575 47.653 72.1179 47.7002 72.0665C47.7473 72.0129 47.7837 71.9475 47.8095 71.8704C47.8373 71.7911 47.8512 71.7011 47.8512 71.6004C47.8512 71.4997 47.8373 71.4108 47.8095 71.3336C47.7837 71.2543 47.7473 71.1879 47.7002 71.1343C47.653 71.0808 47.5973 71.04 47.533 71.0122C47.4709 70.9843 47.4045 70.9704 47.3337 70.9704C47.263 70.9704 47.1955 70.9843 47.1312 71.0122C47.0691 71.04 47.0145 71.0808 46.9673 71.1343C46.9202 71.1879 46.8827 71.2543 46.8548 71.3336C46.8291 71.4108 46.8162 71.4997 46.8162 71.6004ZM46.527 71.6004C46.527 71.4783 46.5441 71.3647 46.5784 71.2597C46.6127 71.1525 46.6641 71.0604 46.7327 70.9833C46.8012 70.904 46.8859 70.8418 46.9866 70.7968C47.0873 70.7518 47.203 70.7293 47.3337 70.7293C47.4666 70.7293 47.5823 70.7518 47.6809 70.7968C47.7816 70.8418 47.8662 70.904 47.9348 70.9833C48.0034 71.0604 48.0548 71.1525 48.0891 71.2597C48.1234 71.3647 48.1405 71.4783 48.1405 71.6004C48.1405 71.7225 48.1234 71.8361 48.0891 71.9411C48.0548 72.0461 48.0034 72.1383 47.9348 72.2175C47.8662 72.2947 47.7816 72.3558 47.6809 72.4008C47.5823 72.4436 47.4666 72.465 47.3337 72.465C47.203 72.465 47.0873 72.4436 46.9866 72.4008C46.8859 72.3558 46.8012 72.2947 46.7327 72.2175C46.6641 72.1383 46.6127 72.0461 46.5784 71.9411C46.5441 71.8361 46.527 71.7225 46.527 71.6004ZM48.4627 70.7679H48.7198V71.0315H48.7262C48.8398 70.83 49.0198 70.7293 49.2662 70.7293C49.3755 70.7293 49.4666 70.7443 49.5394 70.7743C49.6123 70.8043 49.6712 70.8461 49.7162 70.8997C49.7612 70.9533 49.7923 71.0175 49.8094 71.0925C49.8287 71.1654 49.8384 71.2468 49.8384 71.3368V72.4297H49.5652V71.3047C49.5652 71.2018 49.5352 71.1204 49.4752 71.0604C49.4152 71.0004 49.3327 70.9704 49.2277 70.9704C49.1441 70.9704 49.0712 70.9833 49.0091 71.009C48.9491 71.0347 48.8987 71.0711 48.858 71.1183C48.8173 71.1654 48.7862 71.2211 48.7648 71.2854C48.7455 71.3475 48.7359 71.4161 48.7359 71.4911V72.4297H48.4627V70.7679ZM50.628 70.7679H50.9591V71.009H50.628V72.0408C50.628 72.0729 50.6301 72.0986 50.6344 72.1179C50.6409 72.1372 50.6516 72.1522 50.6666 72.1629C50.6816 72.1736 50.7019 72.1811 50.7276 72.1854C50.7555 72.1875 50.7909 72.1886 50.8337 72.1886H50.9591V72.4297H50.7501C50.6794 72.4297 50.6184 72.4254 50.5669 72.4168C50.5176 72.4061 50.4769 72.3879 50.4448 72.3622C50.4148 72.3365 50.3923 72.3 50.3773 72.2529C50.3623 72.2058 50.3548 72.1436 50.3548 72.0665V71.009H50.0719V70.7679H50.3548V70.2697H50.628V70.7679ZM51.2626 70.1347H51.5358V71.0122H51.5422C51.5637 70.9608 51.5937 70.9179 51.6322 70.8836C51.6708 70.8472 51.7137 70.8183 51.7608 70.7968C51.8101 70.7733 51.8605 70.7561 51.9119 70.7454C51.9655 70.7347 52.0169 70.7293 52.0662 70.7293C52.1755 70.7293 52.2665 70.7443 52.3394 70.7743C52.4122 70.8043 52.4712 70.8461 52.5162 70.8997C52.5612 70.9533 52.5922 71.0175 52.6094 71.0925C52.6287 71.1654 52.6383 71.2468 52.6383 71.3368V72.4297H52.3651V71.3047C52.3651 71.2018 52.3351 71.1204 52.2751 71.0604C52.2151 71.0004 52.1326 70.9704 52.0276 70.9704C51.944 70.9704 51.8712 70.9833 51.809 71.009C51.749 71.0347 51.6987 71.0711 51.658 71.1183C51.6172 71.1654 51.5862 71.2211 51.5647 71.2854C51.5455 71.3475 51.5358 71.4161 51.5358 71.4911V72.4297H51.2626V70.1347Z" fill="#282828" fill-opacity="0.7"/>
<circle cx="63.8214" cy="65.6423" r="1.60714" fill="#282828" fill-opacity="0.95"/>
<circle cx="63.8214" cy="65.6423" r="1.47321" stroke="url(#paint3_linear_2347_12502)" stroke-opacity="0.25" stroke-width="0.267857"/>
<circle cx="63.8214" cy="65.6434" r="0.803571" fill="#F8F8F8" fill-opacity="0.7"/>
<circle cx="63.8214" cy="65.6434" r="0.669643" stroke="url(#paint4_linear_2347_12502)" stroke-opacity="0.25" stroke-width="0.267857"/>
<path d="M68.6814 64.6825C68.5271 64.6825 68.4071 64.7154 68.3214 64.7811C68.2386 64.844 68.1971 64.9511 68.1971 65.1025C68.1971 65.1711 68.2114 65.2297 68.24 65.2783C68.2686 65.3268 68.3043 65.3683 68.3471 65.4025C68.3928 65.4368 68.4443 65.4654 68.5014 65.4883C68.5614 65.5083 68.6214 65.5254 68.6814 65.5397V64.6825ZM68.1328 66.4997C68.13 66.6883 68.1714 66.8368 68.2571 66.9454C68.3428 67.054 68.4843 67.1111 68.6814 67.1168V66.0797C68.5643 66.0483 68.4471 66.0111 68.33 65.9683C68.2157 65.9225 68.1114 65.8654 68.0171 65.7968C67.9257 65.7254 67.8514 65.6368 67.7943 65.5311C67.7371 65.4254 67.7086 65.294 67.7086 65.1368C67.7086 64.9997 67.7343 64.8797 67.7857 64.7768C67.84 64.6711 67.9114 64.584 68 64.5154C68.0914 64.444 68.1957 64.3897 68.3128 64.3525C68.43 64.3154 68.5528 64.2968 68.6814 64.2968V63.9625H68.8657V64.2968C68.9943 64.2968 69.1157 64.314 69.23 64.3483C69.3443 64.3825 69.4428 64.434 69.5257 64.5025C69.6114 64.5711 69.6786 64.6583 69.7271 64.764C69.7786 64.8697 69.8043 64.9925 69.8043 65.1325H69.3157C69.31 64.9868 69.2714 64.8754 69.2 64.7983C69.1314 64.7211 69.02 64.6825 68.8657 64.6825V65.5868C68.9943 65.6211 69.12 65.6611 69.2428 65.7068C69.3657 65.7525 69.4743 65.8111 69.5686 65.8825C69.6628 65.954 69.7386 66.0425 69.7957 66.1483C69.8528 66.254 69.8814 66.384 69.8814 66.5383C69.8814 66.6983 69.8543 66.8383 69.8 66.9583C69.7486 67.0754 69.6771 67.174 69.5857 67.254C69.4943 67.3311 69.3871 67.3897 69.2643 67.4297C69.1414 67.4725 69.0086 67.4968 68.8657 67.5025V67.8368H68.6814V67.5025C68.5271 67.4997 68.3857 67.4754 68.2571 67.4297C68.1286 67.384 68.0186 67.3197 67.9271 67.2368C67.8357 67.1511 67.7643 67.0468 67.7128 66.924C67.6643 66.8011 67.6414 66.6597 67.6443 66.4997H68.1328ZM68.8657 67.1168C69.02 67.1054 69.1457 67.0611 69.2428 66.984C69.3428 66.904 69.3928 66.7783 69.3928 66.6068C69.3928 66.5268 69.3771 66.4597 69.3457 66.4054C69.3171 66.3511 69.2771 66.3054 69.2257 66.2683C69.1771 66.2311 69.1214 66.2011 69.0586 66.1783C68.9957 66.1554 68.9314 66.1354 68.8657 66.1183V67.1168ZM70.18 64.9268C70.2828 64.9268 70.3828 64.9183 70.48 64.9011C70.5771 64.884 70.6643 64.8554 70.7414 64.8154C70.8214 64.7754 70.8885 64.724 70.9428 64.6611C71 64.5983 71.0371 64.5211 71.0543 64.4297H71.4528V67.4297H70.9171V65.3125H70.18V64.9268ZM72.63 66.8511H73.2257V67.4297C73.2228 67.6068 73.1685 67.7554 73.0628 67.8754C72.9571 67.9954 72.8185 68.0725 72.6471 68.1068V67.8454C72.7414 67.8225 72.8114 67.7697 72.8571 67.6868C72.9057 67.6068 72.9285 67.5211 72.9257 67.4297H72.63V66.8511ZM74.7185 64.3697C74.9328 64.3697 75.107 64.4197 75.2413 64.5197C75.3785 64.6168 75.4842 64.7425 75.5585 64.8968C75.6356 65.0483 75.687 65.2154 75.7128 65.3983C75.7413 65.5811 75.7556 65.7583 75.7556 65.9297C75.7556 66.1011 75.7413 66.2783 75.7128 66.4611C75.687 66.644 75.6356 66.8125 75.5585 66.9668C75.4842 67.1183 75.3785 67.244 75.2413 67.344C75.107 67.4411 74.9328 67.4897 74.7185 67.4897C74.5042 67.4897 74.3285 67.4411 74.1913 67.344C74.057 67.244 73.9513 67.1183 73.8742 66.9668C73.7999 66.8125 73.7485 66.644 73.7199 66.4611C73.6942 66.2783 73.6813 66.1011 73.6813 65.9297C73.6813 65.7583 73.6942 65.5811 73.7199 65.3983C73.7485 65.2154 73.7999 65.0483 73.8742 64.8968C73.9513 64.7425 74.057 64.6168 74.1913 64.5197C74.3285 64.4197 74.5042 64.3697 74.7185 64.3697ZM74.7185 67.0825C74.8242 67.0825 74.9128 67.0525 74.9842 66.9925C75.0556 66.9297 75.1113 66.8468 75.1513 66.744C75.1942 66.6383 75.2242 66.5154 75.2413 66.3754C75.2585 66.2354 75.267 66.0868 75.267 65.9297C75.267 65.7725 75.2585 65.6254 75.2413 65.4883C75.2242 65.3483 75.1942 65.2254 75.1513 65.1197C75.1113 65.014 75.0556 64.9311 74.9842 64.8711C74.9128 64.8083 74.8242 64.7768 74.7185 64.7768C74.6099 64.7768 74.5199 64.8083 74.4485 64.8711C74.3799 64.9311 74.3242 65.014 74.2813 65.1197C74.2413 65.2254 74.2128 65.3483 74.1956 65.4883C74.1785 65.6254 74.1699 65.7725 74.1699 65.9297C74.1699 66.0868 74.1785 66.2354 74.1956 66.3754C74.2128 66.5154 74.2413 66.6383 74.2813 66.744C74.3242 66.8468 74.3799 66.9297 74.4485 66.9925C74.5199 67.0525 74.6099 67.0825 74.7185 67.0825ZM78.1242 67.4297H76.0756C76.0785 67.1811 76.1385 66.964 76.2556 66.7783C76.3728 66.5925 76.5328 66.4311 76.7356 66.294C76.8328 66.2225 76.9342 66.154 77.0399 66.0883C77.1456 66.0197 77.2428 65.9468 77.3313 65.8697C77.4199 65.7925 77.4928 65.7097 77.5499 65.6211C77.607 65.5297 77.637 65.4254 77.6399 65.3083C77.6399 65.254 77.6328 65.1968 77.6185 65.1368C77.607 65.074 77.5828 65.0168 77.5456 64.9654C77.5085 64.9111 77.457 64.8668 77.3913 64.8325C77.3256 64.7954 77.2399 64.7768 77.1342 64.7768C77.037 64.7768 76.9556 64.7968 76.8899 64.8368C76.827 64.874 76.7756 64.9268 76.7356 64.9954C76.6985 65.0611 76.6699 65.1397 76.6499 65.2311C76.6328 65.3225 76.6228 65.4211 76.6199 65.5268H76.1313C76.1313 65.3611 76.1528 65.2083 76.1956 65.0683C76.2413 64.9254 76.3085 64.8025 76.397 64.6997C76.4856 64.5968 76.5928 64.5168 76.7185 64.4597C76.847 64.3997 76.9956 64.3697 77.1642 64.3697C77.347 64.3697 77.4999 64.3997 77.6228 64.4597C77.7456 64.5197 77.8442 64.5954 77.9185 64.6868C77.9956 64.7783 78.0499 64.8783 78.0813 64.9868C78.1128 65.0925 78.1285 65.194 78.1285 65.2911C78.1285 65.4111 78.1099 65.5197 78.0728 65.6168C78.0356 65.714 77.9856 65.804 77.9228 65.8868C77.8599 65.9668 77.7885 66.0411 77.7085 66.1097C77.6285 66.1783 77.5456 66.2425 77.4599 66.3025C77.3742 66.3625 77.2885 66.4197 77.2028 66.474C77.117 66.5283 77.037 66.5825 76.9628 66.6368C76.8913 66.6911 76.8285 66.7483 76.7742 66.8083C76.7199 66.8654 76.6828 66.9268 76.6628 66.9925H78.1242V67.4297ZM78.7699 66.3325H79.6785V65.0125H79.6699L78.7699 66.3325ZM80.527 66.7183H80.1413V67.4297H79.6785V66.7183H78.3927V66.234L79.6785 64.4297H80.1413V66.3325H80.527V66.7183Z" fill="#403C84"/>
<path d="M68.3428 70.3918H67.5778V70.1347H69.4132V70.3918H68.6482V72.4297H68.3428V70.3918ZM69.6228 70.1347H69.896V71.0122H69.9025C69.9239 70.9608 69.9539 70.9179 69.9925 70.8836C70.031 70.8472 70.0739 70.8183 70.121 70.7968C70.1703 70.7733 70.2207 70.7561 70.2721 70.7454C70.3257 70.7347 70.3771 70.7293 70.4264 70.7293C70.5357 70.7293 70.6268 70.7443 70.6996 70.7743C70.7725 70.8043 70.8314 70.8461 70.8764 70.8997C70.9214 70.9533 70.9525 71.0175 70.9696 71.0925C70.9889 71.1654 70.9985 71.2468 70.9985 71.3368V72.4297H70.7253V71.3047C70.7253 71.2018 70.6953 71.1204 70.6353 71.0604C70.5753 71.0004 70.4928 70.9704 70.3878 70.9704C70.3043 70.9704 70.2314 70.9833 70.1693 71.009C70.1093 71.0347 70.0589 71.0711 70.0182 71.1183C69.9775 71.1654 69.9464 71.2211 69.925 71.2854C69.9057 71.3475 69.896 71.4161 69.896 71.4911V72.4297H69.6228V70.1347ZM71.6982 70.469H71.425V70.1347H71.6982V70.469ZM71.425 70.7679H71.6982V72.4297H71.425V70.7679ZM72.2886 71.9058C72.2907 71.9658 72.3046 72.0172 72.3304 72.06C72.3561 72.1008 72.3893 72.134 72.43 72.1597C72.4729 72.1833 72.52 72.2004 72.5714 72.2111C72.625 72.2218 72.6796 72.2272 72.7354 72.2272C72.7782 72.2272 72.8232 72.224 72.8704 72.2175C72.9175 72.2111 72.9604 72.1993 72.9989 72.1822C73.0396 72.165 73.0729 72.1404 73.0986 72.1083C73.1243 72.074 73.1371 72.0311 73.1371 71.9797C73.1371 71.909 73.1104 71.8554 73.0568 71.819C73.0032 71.7825 72.9357 71.7536 72.8543 71.7322C72.775 71.7086 72.6882 71.6883 72.5939 71.6711C72.4996 71.6518 72.4118 71.6261 72.3304 71.594C72.2511 71.5597 72.1846 71.5125 72.1311 71.4525C72.0775 71.3925 72.0507 71.309 72.0507 71.2018C72.0507 71.1183 72.0689 71.0465 72.1054 70.9865C72.1439 70.9265 72.1921 70.8783 72.25 70.8418C72.31 70.8033 72.3764 70.7754 72.4493 70.7583C72.5243 70.739 72.5982 70.7293 72.6711 70.7293C72.7654 70.7293 72.8521 70.7379 72.9314 70.755C73.0107 70.77 73.0804 70.7979 73.1404 70.8386C73.2025 70.8772 73.2518 70.9308 73.2882 70.9993C73.3246 71.0658 73.3461 71.1493 73.3525 71.25H73.0793C73.075 71.1965 73.0611 71.1525 73.0375 71.1183C73.0139 71.0818 72.9839 71.0529 72.9475 71.0315C72.9111 71.01 72.8704 70.995 72.8254 70.9865C72.7825 70.9758 72.7386 70.9704 72.6936 70.9704C72.6529 70.9704 72.6111 70.9736 72.5682 70.98C72.5275 70.9865 72.49 70.9983 72.4557 71.0154C72.4214 71.0304 72.3936 71.0518 72.3721 71.0797C72.3507 71.1054 72.34 71.1397 72.34 71.1825C72.34 71.2297 72.3561 71.2693 72.3882 71.3015C72.4225 71.3315 72.4654 71.3572 72.5168 71.3786C72.5682 71.3979 72.6261 71.415 72.6904 71.43C72.7546 71.4429 72.8189 71.4568 72.8832 71.4718C72.9518 71.4868 73.0182 71.505 73.0825 71.5265C73.1489 71.5479 73.2068 71.5768 73.2561 71.6133C73.3075 71.6475 73.3482 71.6915 73.3782 71.745C73.4104 71.7986 73.4264 71.865 73.4264 71.9443C73.4264 72.045 73.405 72.1286 73.3621 72.195C73.3214 72.2615 73.2668 72.315 73.1982 72.3558C73.1318 72.3965 73.0557 72.4243 72.97 72.4393C72.8864 72.4565 72.8029 72.465 72.7193 72.465C72.6271 72.465 72.5393 72.4554 72.4557 72.4361C72.3721 72.4168 72.2982 72.3858 72.2339 72.3429C72.1696 72.2979 72.1182 72.24 72.0796 72.1693C72.0411 72.0965 72.0196 72.0086 72.0154 71.9058H72.2886ZM74.6232 70.7679H74.8803V71.0122H74.8867C75.011 70.8236 75.19 70.7293 75.4235 70.7293C75.5264 70.7293 75.6196 70.7508 75.7032 70.7936C75.7867 70.8365 75.8457 70.9093 75.88 71.0122C75.9357 70.9222 76.0085 70.8525 76.0985 70.8033C76.1907 70.754 76.2914 70.7293 76.4007 70.7293C76.4842 70.7293 76.5592 70.739 76.6257 70.7583C76.6942 70.7754 76.7521 70.8033 76.7992 70.8418C76.8485 70.8804 76.886 70.9308 76.9117 70.9929C76.9396 71.0529 76.9535 71.1258 76.9535 71.2115V72.4297H76.6803V71.34C76.6803 71.2886 76.676 71.2404 76.6675 71.1954C76.6589 71.1504 76.6428 71.1118 76.6192 71.0797C76.5957 71.0454 76.5625 71.0186 76.5196 70.9993C76.4789 70.98 76.4253 70.9704 76.3589 70.9704C76.2239 70.9704 76.1178 71.009 76.0407 71.0861C75.9635 71.1633 75.925 71.2661 75.925 71.3947V72.4297H75.6517V71.34C75.6517 71.2865 75.6464 71.2372 75.6357 71.1922C75.6271 71.1472 75.611 71.1086 75.5875 71.0765C75.5639 71.0422 75.5317 71.0165 75.491 70.9993C75.4525 70.98 75.4021 70.9704 75.34 70.9704C75.2607 70.9704 75.1921 70.9865 75.1342 71.0186C75.0785 71.0508 75.0325 71.0893 74.996 71.1343C74.9617 71.1793 74.936 71.2265 74.9189 71.2758C74.9039 71.3229 74.8964 71.3625 74.8964 71.3947V72.4297H74.6232V70.7679ZM77.5628 71.6004C77.5628 71.7011 77.5756 71.7911 77.6013 71.8704C77.6292 71.9475 77.6667 72.0129 77.7138 72.0665C77.761 72.1179 77.8156 72.1575 77.8778 72.1854C77.9421 72.2133 78.0096 72.2272 78.0803 72.2272C78.151 72.2272 78.2174 72.2133 78.2796 72.1854C78.3438 72.1575 78.3996 72.1179 78.4467 72.0665C78.4938 72.0129 78.5303 71.9475 78.556 71.8704C78.5838 71.7911 78.5978 71.7011 78.5978 71.6004C78.5978 71.4997 78.5838 71.4108 78.556 71.3336C78.5303 71.2543 78.4938 71.1879 78.4467 71.1343C78.3996 71.0808 78.3438 71.04 78.2796 71.0122C78.2174 70.9843 78.151 70.9704 78.0803 70.9704C78.0096 70.9704 77.9421 70.9843 77.8778 71.0122C77.8156 71.04 77.761 71.0808 77.7138 71.1343C77.6667 71.1879 77.6292 71.2543 77.6013 71.3336C77.5756 71.4108 77.5628 71.4997 77.5628 71.6004ZM77.2735 71.6004C77.2735 71.4783 77.2906 71.3647 77.3249 71.2597C77.3592 71.1525 77.4106 71.0604 77.4792 70.9833C77.5478 70.904 77.6324 70.8418 77.7331 70.7968C77.8338 70.7518 77.9496 70.7293 78.0803 70.7293C78.2131 70.7293 78.3288 70.7518 78.4274 70.7968C78.5281 70.8418 78.6128 70.904 78.6813 70.9833C78.7499 71.0604 78.8013 71.1525 78.8356 71.2597C78.8699 71.3647 78.8871 71.4783 78.8871 71.6004C78.8871 71.7225 78.8699 71.8361 78.8356 71.9411C78.8013 72.0461 78.7499 72.1383 78.6813 72.2175C78.6128 72.2947 78.5281 72.3558 78.4274 72.4008C78.3288 72.4436 78.2131 72.465 78.0803 72.465C77.9496 72.465 77.8338 72.4436 77.7331 72.4008C77.6324 72.3558 77.5478 72.2947 77.4792 72.2175C77.4106 72.1383 77.3592 72.0461 77.3249 71.9411C77.2906 71.8361 77.2735 71.7225 77.2735 71.6004ZM79.2092 70.7679H79.4663V71.0315H79.4728C79.5863 70.83 79.7663 70.7293 80.0128 70.7293C80.122 70.7293 80.2131 70.7443 80.286 70.7743C80.3588 70.8043 80.4178 70.8461 80.4628 70.8997C80.5078 70.9533 80.5388 71.0175 80.556 71.0925C80.5753 71.1654 80.5849 71.2468 80.5849 71.3368V72.4297H80.3117V71.3047C80.3117 71.2018 80.2817 71.1204 80.2217 71.0604C80.1617 71.0004 80.0792 70.9704 79.9742 70.9704C79.8906 70.9704 79.8178 70.9833 79.7556 71.009C79.6956 71.0347 79.6453 71.0711 79.6045 71.1183C79.5638 71.1654 79.5328 71.2211 79.5113 71.2854C79.492 71.3475 79.4824 71.4161 79.4824 71.4911V72.4297H79.2092V70.7679ZM81.3745 70.7679H81.7056V71.009H81.3745V72.0408C81.3745 72.0729 81.3767 72.0986 81.381 72.1179C81.3874 72.1372 81.3981 72.1522 81.4131 72.1629C81.4281 72.1736 81.4485 72.1811 81.4742 72.1854C81.502 72.1875 81.5374 72.1886 81.5802 72.1886H81.7056V72.4297H81.4967C81.426 72.4297 81.3649 72.4254 81.3135 72.4168C81.2642 72.4061 81.2235 72.3879 81.1913 72.3622C81.1613 72.3365 81.1388 72.3 81.1238 72.2529C81.1088 72.2058 81.1013 72.1436 81.1013 72.0665V71.009H80.8185V70.7679H81.1013V70.2697H81.3745V70.7679ZM82.0091 70.1347H82.2823V71.0122H82.2888C82.3102 70.9608 82.3402 70.9179 82.3788 70.8836C82.4173 70.8472 82.4602 70.8183 82.5073 70.7968C82.5566 70.7733 82.607 70.7561 82.6584 70.7454C82.712 70.7347 82.7634 70.7293 82.8127 70.7293C82.922 70.7293 83.0131 70.7443 83.0859 70.7743C83.1588 70.8043 83.2177 70.8461 83.2627 70.8997C83.3077 70.9533 83.3388 71.0175 83.3559 71.0925C83.3752 71.1654 83.3848 71.2468 83.3848 71.3368V72.4297H83.1116V71.3047C83.1116 71.2018 83.0816 71.1204 83.0216 71.0604C82.9616 71.0004 82.8791 70.9704 82.7741 70.9704C82.6906 70.9704 82.6177 70.9833 82.5556 71.009C82.4956 71.0347 82.4452 71.0711 82.4045 71.1183C82.3638 71.1654 82.3327 71.2211 82.3113 71.2854C82.292 71.3475 82.2823 71.4161 82.2823 71.4911V72.4297H82.0091V70.1347Z" fill="#282828" fill-opacity="0.7"/>
<g filter="url(#filter0_bdi_2347_12502)">
<g clip-path="url(#clip0_2347_12502)">
<g filter="url(#filter1_d_2347_12502)">
<rect x="104.143" y="64.6797" width="7.5" height="7.5" rx="3.75" fill="#282828" fill-opacity="0.05" style="mix-blend-mode:luminosity" shape-rendering="crispEdges"/>
<rect x="104.344" y="64.8806" width="7.09821" height="7.09821" rx="3.54911" stroke="url(#paint5_linear_2347_12502)" stroke-opacity="0.25" stroke-width="0.401786" shape-rendering="crispEdges"/>
<g clip-path="url(#clip1_2347_12502)">
<path d="M106.688 68.8326L107.531 69.5022L109.098 67.3594" stroke="#282828" stroke-width="0.535714" stroke-linecap="square"/>
</g>
</g>
</g>
<rect x="103.272" y="63.8103" width="9.24107" height="9.24107" rx="4.62054" stroke="#282828" stroke-opacity="0.4" stroke-width="0.401786" shape-rendering="crispEdges"/>
</g>
<rect opacity="0.05" x="31.2857" y="104.75" width="8.57143" height="21.4286" rx="0.535714" fill="#282828"/>
<rect opacity="0.1" x="40.3928" y="94.3047" width="8.57143" height="31.875" rx="0.535714" fill="#282828"/>
<rect opacity="0.05" x="52.5357" y="113.859" width="8.57143" height="12.3214" rx="0.535714" fill="#282828"/>
<rect opacity="0.5" x="61.6429" y="98.8594" width="8.57143" height="0.535714" rx="0.267857" fill="#282828" fill-opacity="0.95"/>
<rect opacity="0.5" x="61.6429" y="99.9297" width="8.57143" height="26.25" rx="0.535714" fill="url(#paint6_linear_2347_12502)"/>
<rect opacity="0.05" x="73.7857" y="104.75" width="8.57143" height="21.4286" rx="0.535714" fill="#282828"/>
<rect opacity="0.05" x="82.8928" y="81.1797" width="8.57143" height="45" rx="0.535714" fill="#282828"/>
<rect opacity="0.05" x="95.0357" y="117.609" width="8.57143" height="8.57143" rx="0.535714" fill="#282828"/>
<rect opacity="0.1" x="104.143" y="120.824" width="8.57143" height="5.35714" rx="0.535714" fill="#282828"/>
<g opacity="0.1">
<mask id="path-29-inside-1_2347_12502" fill="white">
<path d="M27 128.324H117V129.396H27V128.324Z"/>
</mask>
<path d="M27 128.726H117V127.922H27V128.726Z" fill="#282828" mask="url(#path-29-inside-1_2347_12502)"/>
<path d="M31.2857 128.324V129.396" stroke="#282828" stroke-width="0.401786" stroke-linecap="round"/>
<path d="M48.9643 128.324V129.396" stroke="#282828" stroke-width="0.401786" stroke-linecap="round"/>
<path d="M52.5357 128.324V129.396" stroke="#282828" stroke-width="0.401786" stroke-linecap="round"/>
<path d="M70.2143 128.324V129.396" stroke="#282828" stroke-width="0.401786" stroke-linecap="round"/>
<path d="M73.7857 128.324V129.396" stroke="#282828" stroke-width="0.401786" stroke-linecap="round"/>
<path d="M91.4642 128.324V129.396" stroke="#282828" stroke-width="0.401786" stroke-linecap="round"/>
<path d="M95.0357 128.324V129.396" stroke="#282828" stroke-width="0.401786" stroke-linecap="round"/>
<path d="M112.714 128.324V129.396" stroke="#282828" stroke-width="0.401786" stroke-linecap="round"/>
</g>
<rect opacity="0.5" x="33.4286" y="135.824" width="11.7857" height="1.07143" rx="0.267857" fill="#282828"/>
<rect opacity="0.1" x="33.4286" y="138.504" width="38.5714" height="1.07143" rx="0.267857" fill="#282828"/>
<rect opacity="0.5" x="98.7857" y="135.824" width="11.7857" height="1.07143" rx="0.267857" fill="#282828"/>
<rect opacity="0.1" x="72" y="138.504" width="38.5714" height="1.07143" rx="0.267857" fill="#282828"/>
</g>
<defs>
<filter id="filter0_bdi_2347_12502" x="99.8571" y="60.3951" width="16.0715" height="23.5731" filterUnits="userSpaceOnUse" color-interpolation-filters="sRGB">
<feFlood flood-opacity="0" result="BackgroundImageFix"/>
<feGaussianBlur in="BackgroundImageFix" stdDeviation="1.60714"/>
<feComposite in2="SourceAlpha" operator="in" result="effect1_backgroundBlur_2347_12502"/>
<feColorMatrix in="SourceAlpha" type="matrix" values="0 0 0 0 0 0 0 0 0 0 0 0 0 0 0 0 0 0 127 0" result="hardAlpha"/>
<feMorphology radius="4.28571" operator="erode" in="SourceAlpha" result="effect2_dropShadow_2347_12502"/>
<feOffset dy="8.57143"/>
<feGaussianBlur stdDeviation="3.21429"/>
<feComposite in2="hardAlpha" operator="out"/>
<feColorMatrix type="matrix" values="0 0 0 0 0 0 0 0 0 0 0 0 0 0 0 0 0 0 0.4 0"/>
<feBlend mode="multiply" in2="effect1_backgroundBlur_2347_12502" result="effect2_dropShadow_2347_12502"/>
<feBlend mode="normal" in="SourceGraphic" in2="effect2_dropShadow_2347_12502" result="shape"/>
<feColorMatrix in="SourceAlpha" type="matrix" values="0 0 0 0 0 0 0 0 0 0 0 0 0 0 0 0 0 0 127 0" result="hardAlpha"/>
<feOffset/>
<feGaussianBlur stdDeviation="1.07143"/>
<feComposite in2="hardAlpha" operator="arithmetic" k2="-1" k3="1"/>
<feColorMatrix type="matrix" values="0 0 0 0 0.972549 0 0 0 0 0.972549 0 0 0 0 0.972549 0 0 0 0.25 0"/>
<feBlend mode="normal" in2="shape" result="effect3_innerShadow_2347_12502"/>
</filter>
<filter id="filter1_d_2347_12502" x="97.7143" y="64.6797" width="20.3571" height="20.3571" filterUnits="userSpaceOnUse" color-interpolation-filters="sRGB">
<feFlood flood-opacity="0" result="BackgroundImageFix"/>
<feColorMatrix in="SourceAlpha" type="matrix" values="0 0 0 0 0 0 0 0 0 0 0 0 0 0 0 0 0 0 127 0" result="hardAlpha"/>
<feOffset dy="6.42857"/>
<feGaussianBlur stdDeviation="3.21429"/>
<feComposite in2="hardAlpha" operator="out"/>
<feColorMatrix type="matrix" values="0 0 0 0 0 0 0 0 0 0 0 0 0 0 0 0 0 0 0.3 0"/>
<feBlend mode="multiply" in2="BackgroundImageFix" result="effect1_dropShadow_2347_12502"/>
<feBlend mode="normal" in="SourceGraphic" in2="effect1_dropShadow_2347_12502" result="shape"/>
</filter>
<linearGradient id="paint0_linear_2347_12502" x1="106.75" y1="-7.125" x2="106.75" y2="189" gradientUnits="userSpaceOnUse">
<stop offset="0.704257" stop-color="#D9D9D9"/>
<stop offset="1" stop-color="#737373" stopOpacity="0"/>
</linearGradient>
<linearGradient id="paint1_linear_2347_12502" x1="32.8928" y1="64.0352" x2="34.2911" y2="67.5648" gradientUnits="userSpaceOnUse">
<stop stop-color="#121212" stopOpacity="0.4"/>
<stop offset="0.4" stop-color="#121212" stopOpacity="0"/>
<stop offset="0.6" stop-color="#121212" stopOpacity="0"/>
<stop offset="1" stop-color="#121212" stopOpacity="0.1"/>
</linearGradient>
<linearGradient id="paint2_linear_2347_12502" x1="32.8929" y1="64.8398" x2="33.592" y2="66.6047" gradientUnits="userSpaceOnUse">
<stop stop-color="#121212" stopOpacity="0.4"/>
<stop offset="0.4" stop-color="#121212" stopOpacity="0"/>
<stop offset="0.6" stop-color="#121212" stopOpacity="0"/>
<stop offset="1" stop-color="#121212" stopOpacity="0.1"/>
</linearGradient>
<linearGradient id="paint3_linear_2347_12502" x1="63.8214" y1="64.0352" x2="65.2197" y2="67.5648" gradientUnits="userSpaceOnUse">
<stop stop-color="#121212" stopOpacity="0.4"/>
<stop offset="0.4" stop-color="#121212" stopOpacity="0"/>
<stop offset="0.6" stop-color="#121212" stopOpacity="0"/>
<stop offset="1" stop-color="#121212" stopOpacity="0.1"/>
</linearGradient>
<linearGradient id="paint4_linear_2347_12502" x1="63.8214" y1="64.8398" x2="64.5205" y2="66.6047" gradientUnits="userSpaceOnUse">
<stop stop-color="#121212" stopOpacity="0.4"/>
<stop offset="0.4" stop-color="#121212" stopOpacity="0"/>
<stop offset="0.6" stop-color="#121212" stopOpacity="0"/>
<stop offset="1" stop-color="#121212" stopOpacity="0.1"/>
</linearGradient>
<linearGradient id="paint5_linear_2347_12502" x1="107.893" y1="64.6797" x2="111.156" y2="72.9156" gradientUnits="userSpaceOnUse">
<stop stop-color="#121212" stopOpacity="0.4"/>
<stop offset="0.4" stop-color="#121212" stopOpacity="0"/>
<stop offset="0.6" stop-color="#121212" stopOpacity="0"/>
<stop offset="1" stop-color="#121212" stopOpacity="0.1"/>
</linearGradient>
<linearGradient id="paint6_linear_2347_12502" x1="65.9286" y1="99.9297" x2="65.9286" y2="126.18" gradientUnits="userSpaceOnUse">
<stop stop-color="#121212" stopOpacity="0.4"/>
<stop offset="1" stop-color="#121212" stopOpacity="0"/>
</linearGradient>
<clipPath id="clip0_2347_12502">
<rect x="103.071" y="63.6094" width="9.64286" height="9.64286" rx="4.82143" fill="white"/>
</clipPath>
<clipPath id="clip1_2347_12502">
<rect width="3.21429" height="3.21429" fill="white" transform="translate(106.286 66.8242)"/>
</clipPath>
</defs>
</svg>
