<svg width="43" height="43" viewBox="0 0 43 43" fill="none" xmlns="http://www.w3.org/2000/svg">
<circle opacity="0.8" cx="21.5002" cy="21.499" r="11.7686" fill="url(#paint0_linear_2298_274)"/>
<g style="mix-blend-mode:plus-lighter">
<path d="M13.5911 26.5374C15.8911 29.8595 20.5533 31.8372 24.9039 29.8389C29.2545 27.8407 29.6451 25.3538 29.7939 22.9268C29.9428 20.4999 28.6285 14.1344 23.6436 14.6481C18.6588 15.1617 18.2032 18.8082 15.324 21.4804C14.2115 22.5129 11.2911 23.2153 13.5911 26.5374Z" fill="url(#paint1_linear_2298_274)" fill-opacity="0.8"/>
</g>
<path d="M18.2368 15.9845C10.6768 17.993 11.051 24.5967 15.2522 28.1185C17.2116 29.7611 17.9801 26.5097 21.7714 24.7389C25.5628 22.9681 30.7256 19.8368 27.6586 16.5873C24.5916 13.3377 21.43 15.1361 18.2368 15.9845Z" fill="url(#paint2_radial_2298_274)"/>
<path d="M18.2368 15.9845C10.6768 17.993 11.051 24.5967 15.2522 28.1185C17.2116 29.7611 17.9801 26.5097 21.7714 24.7389C25.5628 22.9681 30.7256 19.8368 27.6586 16.5873C24.5916 13.3377 21.43 15.1361 18.2368 15.9845Z" fill="url(#paint3_linear_2298_274)"/>
<path d="M18.2368 15.9845C10.6768 17.993 11.051 24.5967 15.2522 28.1185C17.2116 29.7611 17.9801 26.5097 21.7714 24.7389C25.5628 22.9681 30.7256 19.8368 27.6586 16.5873C24.5916 13.3377 21.43 15.1361 18.2368 15.9845Z" fill="url(#paint4_radial_2298_274)" fill-opacity="0.2"/>
<path d="M16.2378 13.9215C19.5903 13.0801 23.7067 10.6218 25.6798 13.8403C27.2376 16.3813 27.4396 19.1134 26.0947 21.7433C24.7497 24.3731 25.864 27.1757 24.276 28.1492C21.395 29.9154 16.7732 25.7597 15.1771 22.4803C13.5811 19.2008 12.8853 14.763 16.2378 13.9215Z" fill="url(#paint5_linear_2298_274)" fill-opacity="0.3" style="mix-blend-mode:plus-lighter"/>
<path d="M16.2378 13.9215C19.5903 13.0801 23.7067 10.6218 25.6798 13.8403C27.2376 16.3813 27.4396 19.1134 26.0947 21.7433C24.7497 24.3731 25.864 27.1757 24.276 28.1492C21.395 29.9154 16.7732 25.7597 15.1771 22.4803C13.5811 19.2008 12.8853 14.763 16.2378 13.9215Z" fill="url(#paint6_radial_2298_274)"/>
<path d="M27.4767 19.4712C31.7318 24.5599 21.4733 32.6688 21.9857 27.2364C22.4982 21.804 15.4484 15.2084 13.7466 22.2088C12.2923 28.1911 23.2215 14.3825 27.4767 19.4712Z" fill="url(#paint7_angular_2298_274)" style="mix-blend-mode:screen"/>
<path d="M21.0055 30.1853C14.069 29.4054 11.5292 28.0001 12.5395 21.7532C13.5497 15.5063 16.9362 16.9116 21.0055 13.321C25.0748 9.73042 27.451 12.8856 31.001 19.5679C34.5511 26.2503 27.942 30.9652 21.0055 30.1853Z" fill="url(#paint8_radial_2298_274)"/>
<g filter="url(#filter0_d_2298_274)">
<circle cx="21.5002" cy="21.499" r="11.6425" stroke="white" stroke-width="0.252181" shape-rendering="crispEdges"/>
</g>
<g filter="url(#filter1_d_2298_274)">
<circle cx="21.5002" cy="21.499" r="11.6165" stroke="url(#paint9_linear_2298_274)" stroke-width="0.30411" shape-rendering="crispEdges"/>
</g>
<circle cx="21.5002" cy="21.5017" r="16.2439" stroke="#522EDD" stroke-opacity="0.15" stroke-width="0.10137"/>
<circle cx="21.5001" cy="21.4996" r="20.7809" stroke="#684ADF" stroke-opacity="0.2" stroke-width="0.10137"/>
<defs>
<filter id="filter0_d_2298_274" x="6.93232" y="6.9311" width="29.5091" height="29.511" filterUnits="userSpaceOnUse" color-interpolation-filters="sRGB">
<feFlood flood-opacity="0" result="BackgroundImageFix"/>
<feColorMatrix in="SourceAlpha" type="matrix" values="0 0 0 0 0 0 0 0 0 0 0 0 0 0 0 0 0 0 127 0" result="hardAlpha"/>
<feMorphology radius="0.186624" operator="dilate" in="SourceAlpha" result="effect1_dropShadow_2298_274"/>
<feOffset dx="0.186624" dy="0.186624"/>
<feGaussianBlur stdDeviation="1.39968"/>
<feComposite in2="hardAlpha" operator="out"/>
<feColorMatrix type="matrix" values="0 0 0 0 0.698326 0 0 0 0 0.623389 0 0 0 0 1 0 0 0 1 0"/>
<feBlend mode="normal" in2="BackgroundImageFix" result="effect1_dropShadow_2298_274"/>
<feBlend mode="normal" in="SourceGraphic" in2="effect1_dropShadow_2298_274" result="shape"/>
</filter>
<filter id="filter1_d_2298_274" x="8.79857" y="8.79735" width="25.7766" height="25.7786" filterUnits="userSpaceOnUse" color-interpolation-filters="sRGB">
<feFlood flood-opacity="0" result="BackgroundImageFix"/>
<feColorMatrix in="SourceAlpha" type="matrix" values="0 0 0 0 0 0 0 0 0 0 0 0 0 0 0 0 0 0 127 0" result="hardAlpha"/>
<feMorphology radius="0.186624" operator="dilate" in="SourceAlpha" result="effect1_dropShadow_2298_274"/>
<feOffset dx="0.186624" dy="0.186624"/>
<feGaussianBlur stdDeviation="0.466561"/>
<feComposite in2="hardAlpha" operator="out"/>
<feColorMatrix type="matrix" values="0 0 0 0 0.267042 0 0 0 0 0.165322 0 0 0 0 0.605111 0 0 0 1 0"/>
<feBlend mode="normal" in2="BackgroundImageFix" result="effect1_dropShadow_2298_274"/>
<feBlend mode="normal" in="SourceGraphic" in2="effect1_dropShadow_2298_274" result="shape"/>
</filter>
<linearGradient id="paint0_linear_2298_274" x1="14.3025" y1="13.3031" x2="28.5404" y2="30.2204" gradientUnits="userSpaceOnUse">
<stop offset="0.235" stop-color="#4D42C8"/>
<stop offset="1" stop-color="#A762FE"/>
</linearGradient>
<linearGradient id="paint1_linear_2298_274" x1="20.8693" y1="30.4325" x2="18.119" y2="22.1382" gradientUnits="userSpaceOnUse">
<stop stop-color="#9777C0" stopOpacity="0.53"/>
<stop offset="1" stop-color="#E95BEC" stopOpacity="0"/>
</linearGradient>
<radialGradient id="paint2_radial_2298_274" cx="0" cy="0" r="1" gradientUnits="userSpaceOnUse" gradientTransform="translate(25.9436 23.4087) rotate(-127.874) scale(9.68402 9.9021)">
<stop stop-color="#8F50C1"/>
<stop offset="1" stop-color="#F7BADE" stopOpacity="0"/>
</radialGradient>
<linearGradient id="paint3_linear_2298_274" x1="22.2656" y1="27.3451" x2="21.2769" y2="24.4276" gradientUnits="userSpaceOnUse">
<stop stop-color="#5950C1"/>
<stop offset="1" stop-color="#E0ADBC" stopOpacity="0"/>
</linearGradient>
<radialGradient id="paint4_radial_2298_274" cx="0" cy="0" r="1" gradientUnits="userSpaceOnUse" gradientTransform="translate(19.0255 19.8937) rotate(-50.8678) scale(5.76962 5.20492)">
<stop stop-color="#AD00FF"/>
<stop offset="1" stop-color="#FFD6CD" stopOpacity="0"/>
</radialGradient>
<linearGradient id="paint5_linear_2298_274" x1="21.1303" y1="26.9114" x2="25.9886" y2="26.5791" gradientUnits="userSpaceOnUse">
<stop stop-color="#EE518C" stopOpacity="0"/>
<stop offset="0.665732" stop-color="#8D51EE"/>
<stop offset="0.911525" stop-color="#CE7DFF"/>
</linearGradient>
<radialGradient id="paint6_radial_2298_274" cx="0" cy="0" r="1" gradientUnits="userSpaceOnUse" gradientTransform="translate(16.1401 14.6597) rotate(89.1892) scale(4.24816 5.18429)">
<stop stop-color="#8F4791"/>
<stop offset="1" stop-color="#8F4791" stopOpacity="0"/>
</radialGradient>
<radialGradient id="paint7_angular_2298_274" cx="0" cy="0" r="1" gradientUnits="userSpaceOnUse" gradientTransform="translate(18.7749 19.3161) rotate(99.2389) scale(12.7744 13.4352)">
<stop offset="0.0076933" stop-color="#5121D8"/>
<stop offset="0.258126" stop-color="#2805FF" stopOpacity="0"/>
<stop offset="0.570188" stop-color="#FFF1E0" stopOpacity="0"/>
<stop offset="0.762235" stop-color="#7A0E4F" stopOpacity="0"/>
</radialGradient>
<radialGradient id="paint8_radial_2298_274" cx="0" cy="0" r="1" gradientUnits="userSpaceOnUse" gradientTransform="translate(21.0055 21.7532) rotate(-180) scale(6.98609 6.95814)">
<stop stop-color="white"/>
<stop offset="0.165839" stop-color="white"/>
<stop offset="0.335281" stop-color="white" stopOpacity="0.7"/>
<stop offset="1" stop-color="#9B6CCA" stopOpacity="0"/>
</radialGradient>
<linearGradient id="paint9_linear_2298_274" x1="21.5002" y1="9.73047" x2="21.5002" y2="33.2676" gradientUnits="userSpaceOnUse">
<stop stop-color="#5D5DDC"/>
<stop offset="0.735" stop-color="#ABAFFF"/>
</linearGradient>
</defs>
</svg>
