<svg xmlns="http://www.w3.org/2000/svg" width="15" height="14" viewBox="0 0 15 14" fill="none">
  <path d="M11.9668 2.625H2.3418C2.22576 2.625 2.11448 2.67109 2.03244 2.75314C1.95039 2.83519 1.9043 2.94647 1.9043 3.0625C1.9043 3.17853 1.95039 3.28981 2.03244 3.37186C2.11448 3.45391 2.22576 3.5 2.3418 3.5H2.7793V11.375C2.7793 11.6071 2.87148 11.8296 3.03558 11.9937C3.19967 12.1578 3.42223 12.25 3.6543 12.25H10.6543C10.8864 12.25 11.1089 12.1578 11.273 11.9937C11.4371 11.8296 11.5293 11.6071 11.5293 11.375V3.5H11.9668C12.0828 3.5 12.1941 3.45391 12.2762 3.37186C12.3582 3.28981 12.4043 3.17853 12.4043 3.0625C12.4043 2.94647 12.3582 2.83519 12.2762 2.75314C12.1941 2.67109 12.0828 2.625 11.9668 2.625ZM10.6543 11.375H3.6543V3.5H10.6543V11.375ZM4.5293 1.3125C4.5293 1.19647 4.57539 1.08519 4.65744 1.00314C4.73948 0.921094 4.85076 0.875 4.9668 0.875H9.3418C9.45783 0.875 9.56911 0.921094 9.65116 1.00314C9.7332 1.08519 9.7793 1.19647 9.7793 1.3125C9.7793 1.42853 9.7332 1.53981 9.65116 1.62186C9.56911 1.70391 9.45783 1.75 9.3418 1.75H4.9668C4.85076 1.75 4.73948 1.70391 4.65744 1.62186C4.57539 1.53981 4.5293 1.42853 4.5293 1.3125Z" fill="#6B7280"/>
</svg>