<svg xmlns="http://www.w3.org/2000/svg" width="160" height="133" viewBox="0 0 160 133" fill="none">
  <path style="mix-blend-mode:multiply" d="M90.9995 57.65L52.9995 79.73C52.3307 80.1162 51.5719 80.3195 50.7995 80.3195C50.0272 80.3195 49.2684 80.1162 48.5995 79.73L24.9995 65.72C24.8855 65.6529 24.7909 65.5571 24.7252 65.4422C24.6596 65.3274 24.625 65.1973 24.625 65.065C24.625 64.9326 24.6596 64.8026 24.7252 64.6877C24.7909 64.5728 24.8855 64.4771 24.9995 64.41L65.1995 41.41C65.3142 41.3461 65.4433 41.3125 65.5745 41.3125C65.7058 41.3125 65.8349 41.3461 65.9495 41.41L90.9995 56.33C91.1159 56.3964 91.2127 56.4925 91.28 56.6084C91.3473 56.7243 91.3827 56.856 91.3827 56.99C91.3827 57.124 91.3473 57.2557 91.28 57.3716C91.2127 57.4875 91.1159 57.5835 90.9995 57.65Z" fill="url(#paint0_linear_990_53131)"/>
  <path d="M61.2118 87.7699C60.437 87.7647 59.6666 87.6536 58.9218 87.4399C54.3018 86.1599 50.4418 81.3199 50.3218 76.6599C50.2466 75.629 50.4198 74.5951 50.827 73.645C51.2342 72.6949 51.8634 71.8564 52.6618 71.1999C53.5372 70.5518 54.5551 70.1229 55.6303 69.9489C56.7055 69.7749 57.8067 69.861 58.8418 70.1999C61.1878 70.939 63.2597 72.3618 64.7919 74.286C66.3241 76.2101 67.2468 78.548 67.4418 80.9999C67.5211 82.0371 67.3499 83.0781 66.9427 84.0353C66.5354 84.9925 65.9041 85.8378 65.1018 86.4999C63.9848 87.3484 62.6144 87.7958 61.2118 87.7699ZM56.5518 71.2199C55.438 71.1915 54.3478 71.5443 53.4618 72.2199C52.8265 72.7539 52.3273 73.4315 52.0056 74.1965C51.6839 74.9616 51.5489 75.7923 51.6118 76.6199C51.7923 78.7956 52.6162 80.8684 53.9785 82.5744C55.3408 84.2804 57.18 85.5425 59.2618 86.1999C60.0933 86.4808 60.9791 86.562 61.8478 86.4369C62.7164 86.3118 63.5434 85.984 64.2618 85.4799C64.8975 84.9444 65.396 84.2649 65.7161 83.4978C66.0361 82.7308 66.1684 81.8984 66.1018 81.0699C65.9194 78.8959 65.0947 76.8253 63.7325 75.1213C62.3703 73.4172 60.5322 72.1567 58.4518 71.4999C57.8341 71.3211 57.1949 71.2269 56.5518 71.2199Z" fill="white"/>
  <path d="M61.2112 87.8809C60.4265 87.8765 59.646 87.7655 58.8912 87.5509C54.2312 86.2509 50.3412 81.3609 50.2112 76.6609C50.1385 75.6133 50.3164 74.5634 50.7303 73.5982C51.1442 72.6331 51.7821 71.7804 52.5912 71.1109C53.4847 70.4603 54.5195 70.0304 55.6111 69.8566C56.7026 69.6828 57.8198 69.77 58.8712 70.1109C63.5312 71.4109 67.4212 76.3009 67.5412 81.0009C67.6184 82.0481 67.4435 83.0985 67.0311 84.0641C66.6188 85.0298 65.981 85.8825 65.1712 86.5509C64.0386 87.4275 62.6433 87.8961 61.2112 87.8809ZM56.5512 70.0009C55.1729 69.9725 53.826 70.4132 52.7312 71.2509C51.9453 71.896 51.3261 72.7206 50.9258 73.6552C50.5255 74.5898 50.3559 75.607 50.4312 76.6209C50.5512 81.2409 54.3712 86.0309 58.9412 87.3109C59.951 87.6471 61.0258 87.7408 62.0786 87.5844C63.1314 87.4281 64.1326 87.026 65.0012 86.4109C65.7963 85.7633 66.4234 84.9333 66.8291 83.9914C67.2347 83.0495 67.407 82.0236 67.3312 81.0009C67.2112 76.3809 63.3912 71.5909 58.8112 70.3109C58.0756 70.1043 57.3152 70 56.5512 70.0009ZM61.2112 86.5609C60.5344 86.5553 59.8616 86.4577 59.2112 86.2709C57.1092 85.6086 55.2522 84.335 53.8772 82.6127C52.5021 80.8903 51.6715 78.7974 51.4912 76.6009C51.4222 75.7552 51.5569 74.9053 51.884 74.1223C52.2111 73.3394 52.7211 72.6462 53.3712 72.1009C54.108 71.5831 54.9564 71.2463 55.8477 71.1177C56.739 70.9891 57.6481 71.0725 58.5012 71.3609C60.6065 72.0222 62.4667 73.2966 63.8437 75.021C65.2208 76.7454 66.052 78.8414 66.2312 81.0409C66.2969 81.8848 66.1606 82.7323 65.8337 83.5131C65.5067 84.2938 64.9986 84.9855 64.3512 85.5309C63.4532 86.2267 62.3471 86.6001 61.2112 86.5909V86.5609ZM56.5512 71.3209C55.4678 71.3112 54.4121 71.6631 53.5512 72.3209C52.9287 72.8455 52.4406 73.5113 52.1275 74.2627C51.8145 75.0142 51.6854 75.8295 51.7512 76.6409C51.9284 78.7932 52.7433 80.8437 54.0917 82.5306C55.4401 84.2174 57.2608 85.464 59.3212 86.1109C60.1425 86.396 61.02 86.4812 61.8808 86.3595C62.7417 86.2377 63.5611 85.9126 64.2712 85.4109C64.8825 84.8761 65.3582 84.2038 65.6589 83.4493C65.9597 82.6948 66.077 81.8796 66.0012 81.0709C65.8279 78.9174 65.0145 76.8649 63.6655 75.1774C62.3165 73.4898 60.4936 72.2443 58.4312 71.6009C57.8197 71.4247 57.1875 71.3305 56.5512 71.3209Z" fill="#0C3932"/>
  <path d="M55.7313 78.1908V76.3308H55.3512L54.4212 72.2208C54.359 71.9629 54.2431 71.7209 54.0812 71.5107C53.9192 71.3006 53.7148 71.1268 53.4813 71.0008L35.2612 60.7408C34.6415 60.3922 33.9424 60.209 33.2312 60.209C32.5201 60.209 31.821 60.3922 31.2013 60.7408L18.7312 67.8208L17.2813 67.5908V69.5908C17.2811 69.8863 17.3597 70.1765 17.5092 70.4314C17.6586 70.6863 17.8733 70.8967 18.1312 71.0408L34.0012 80.1008C35.7828 81.1186 37.7995 81.6529 39.8512 81.6508H50.7913C51.3263 81.6489 51.8511 81.5039 52.3113 81.2308L54.9813 79.6708C55.2343 79.5268 55.4417 79.3144 55.5797 79.058C55.7177 78.8015 55.7806 78.5114 55.7612 78.2208L55.7313 78.1908ZM52.5713 77.3308C52.5384 77.5648 52.4456 77.7862 52.302 77.9737C52.1583 78.1612 51.9686 78.3083 51.7513 78.4008C50.8211 78.8567 49.7657 78.9904 48.7512 78.7808C48.2731 78.7151 47.8136 78.5517 47.4013 78.3008C47.2194 78.201 47.0656 78.0571 46.9538 77.8824C46.842 77.7077 46.7758 77.5078 46.7612 77.3008C46.8079 77.0763 46.9102 76.8671 47.0587 76.6924C47.2072 76.5177 47.3972 76.3831 47.6112 76.3008C48.2517 76.009 48.9474 75.858 49.6513 75.858C50.3551 75.858 51.0508 76.009 51.6912 76.3008C51.9026 76.3842 52.0894 76.5196 52.2345 76.6944C52.3796 76.8692 52.4782 77.0778 52.5213 77.3008L52.5713 77.3308Z" fill="#0C3932"/>
  <path d="M53.4814 68.9994L35.2614 58.7194C34.6416 58.3707 33.9425 58.1875 33.2314 58.1875C32.5203 58.1875 31.8211 58.3707 31.2014 58.7194L18.1414 66.1394C17.8814 66.2868 17.6652 66.5005 17.5148 66.7588C17.3644 67.017 17.2852 67.3105 17.2852 67.6094C17.2852 67.9082 17.3644 68.2017 17.5148 68.4599C17.6652 68.7182 17.8814 68.9319 18.1414 69.0794L33.9614 78.0794C35.7419 79.0984 37.7598 79.6296 39.8114 79.6194H50.7514C51.2855 79.6204 51.8102 79.4789 52.2714 79.2094L54.9414 77.6494C55.2318 77.481 55.4611 77.2245 55.596 76.917C55.7309 76.6095 55.7643 76.2671 55.6914 75.9394L54.4014 70.2294C54.3433 69.9711 54.2313 69.7281 54.0727 69.5161C53.9142 69.3041 53.7127 69.1281 53.4814 68.9994ZM52.5714 75.3194C52.5385 75.5533 52.4458 75.7747 52.3021 75.9622C52.1584 76.1497 51.9687 76.2968 51.7514 76.3894C50.8208 76.8435 49.7671 76.9805 48.7514 76.7794C48.2726 76.71 47.8132 76.5432 47.4014 76.2894C47.2178 76.1917 47.0624 76.0484 46.9503 75.8732C46.8382 75.6981 46.7731 75.497 46.7614 75.2894C46.8072 75.0645 46.9091 74.8549 47.0578 74.68C47.2064 74.5052 47.3968 74.3708 47.6114 74.2894C48.2506 73.993 48.9468 73.8395 49.6514 73.8395C50.356 73.8395 51.0521 73.993 51.6914 74.2894C51.9037 74.3711 52.0915 74.506 52.2368 74.6811C52.3821 74.8562 52.4801 75.0656 52.5214 75.2894L52.5714 75.3194Z" fill="#BBF7D0"/>
  <path d="M39.7804 79.7396C37.7213 79.7398 35.6978 79.2021 33.9104 78.1796L18.0904 69.1796C17.8139 69.0225 17.5839 68.7949 17.4239 68.52C17.264 68.2451 17.1797 67.9327 17.1797 67.6146C17.1797 67.2966 17.264 66.9842 17.4239 66.7093C17.5839 66.4344 17.8139 66.2068 18.0904 66.0496L31.1404 58.6496C31.7766 58.2904 32.4948 58.1016 33.2254 58.1016C33.956 58.1016 34.6743 58.2904 35.3104 58.6496L53.5304 68.8996C53.7795 69.0333 53.9975 69.2183 54.1698 69.4424C54.3422 69.6665 54.4651 69.9246 54.5304 70.1996L55.8104 75.8896C55.8912 76.2412 55.8559 76.6095 55.7099 76.9394C55.5639 77.2693 55.315 77.543 55.0004 77.7196L52.3304 79.2796C51.8509 79.5597 51.3058 79.7081 50.7504 79.7096H39.8104L39.7804 79.7396ZM33.2304 58.2996C32.5302 58.2989 31.8416 58.478 31.2304 58.8196L18.1904 66.2296C17.9467 66.368 17.7441 66.5688 17.6035 66.8113C17.4629 67.0538 17.3894 67.3293 17.3904 67.6096C17.3891 67.8887 17.4626 68.163 17.6033 68.4039C17.744 68.6449 17.9467 68.8437 18.1904 68.9796L34.0004 77.9996C35.7597 78.9973 37.7479 79.5211 39.7704 79.5196H50.7104C51.2271 79.5089 51.7328 79.3679 52.1804 79.1096L54.8504 77.5596C55.1221 77.4025 55.336 77.162 55.4603 76.8738C55.5846 76.5856 55.6127 76.2651 55.5404 75.9596L54.3004 70.2496C54.2445 70.0049 54.1382 69.7746 53.9884 69.5732C53.8387 69.3717 53.6487 69.2037 53.4304 69.0796L35.2004 58.8196C34.6011 58.4757 33.9215 58.2963 33.2304 58.2996ZM49.7204 76.9996C49.4055 76.9974 49.0912 76.9706 48.7804 76.9196C48.2877 76.8442 47.815 76.6708 47.3904 76.4096C47.1916 76.3008 47.0244 76.1422 46.9052 75.9494C46.786 75.7566 46.7189 75.5361 46.7104 75.3096C46.7495 75.0594 46.8531 74.8236 47.0109 74.6255C47.1687 74.4274 47.3753 74.2737 47.6104 74.1796C48.2659 73.878 48.9789 73.7219 49.7004 73.7219C50.422 73.7219 51.135 73.878 51.7904 74.1796C52.0228 74.2709 52.2271 74.4214 52.3833 74.6161C52.5394 74.8108 52.6419 75.043 52.6804 75.2896V75.3496C52.6491 75.6034 52.5511 75.8444 52.3966 76.0481C52.242 76.2518 52.0364 76.411 51.8004 76.5096C51.1575 76.8402 50.4434 77.0085 49.7204 76.9996ZM49.7204 73.9396C49.0284 73.9262 48.343 74.077 47.7204 74.3796C47.5185 74.4542 47.3394 74.5802 47.2009 74.745C47.0624 74.9098 46.9692 75.1078 46.9304 75.3196C46.9437 75.5089 47.0047 75.6916 47.1079 75.8508C47.2111 76.01 47.3531 76.1403 47.5204 76.2296C47.9181 76.4714 48.3601 76.6312 48.8204 76.6996C49.7983 76.8949 50.8133 76.765 51.7104 76.3296C51.9118 76.2415 52.0873 76.1034 52.2204 75.9284C52.3534 75.7534 52.4395 75.5473 52.4704 75.3296C52.4338 75.1211 52.3436 74.9258 52.2085 74.7627C52.0735 74.5996 51.8984 74.4745 51.7004 74.3996C51.083 74.0762 50.3974 73.9048 49.7004 73.8996L49.7204 73.9396Z" fill="#0C3932"/>
  <path d="M33.3013 66.3508L31.6013 65.4108L36.8313 62.1808C37.3681 62.5077 37.8203 62.9565 38.1513 63.4908C38.5085 64.2082 38.716 64.9907 38.7613 65.7908C38.7974 66.3432 38.9084 66.8882 39.0913 67.4108C39.2792 67.7554 39.5644 68.0371 39.9113 68.2208C40.2808 68.4326 40.6958 68.5527 41.1213 68.5708C41.4972 68.5799 41.868 68.4828 42.1913 68.2908C42.5013 68.0908 42.6313 67.8808 42.5813 67.6408C42.5313 67.4008 42.2613 67.1208 41.7513 66.8108L43.4213 66.0008C44.3413 66.6108 44.7913 67.1808 44.7613 67.7108C44.7125 68.0221 44.5874 68.3165 44.3972 68.5678C44.2071 68.819 43.9577 69.0193 43.6713 69.1508C42.8998 69.6274 42.0081 69.8738 41.1013 69.8608C40.2091 69.8647 39.3298 69.6483 38.5413 69.2308C38.1679 69.0226 37.8303 68.7559 37.5413 68.4408C37.2745 68.1468 37.0613 67.8083 36.9113 67.4408C36.7827 67.0247 36.7022 66.5952 36.6713 66.1608C36.6316 65.77 36.5647 65.3823 36.4713 65.0008C36.4229 64.8369 36.3558 64.6792 36.2713 64.5308L33.3013 66.3508ZM34.4713 69.6608C35.0181 69.529 35.5854 69.5052 36.1413 69.5908C36.6352 69.6636 37.1125 69.8227 37.5513 70.0608C38.2613 70.4508 38.6513 70.8908 38.7113 71.4008C38.7713 71.9108 38.4313 72.4008 37.7113 72.8508C36.9864 73.3057 36.1471 73.545 35.2913 73.5408C34.4549 73.5704 33.625 73.3844 32.8813 73.0008C32.5062 72.8233 32.1928 72.5378 31.9813 72.1808C31.906 72.0374 31.8666 71.8778 31.8666 71.7158C31.8666 71.5538 31.906 71.3942 31.9813 71.2508C31.353 71.4029 30.702 71.4368 30.0613 71.3508C29.4477 71.2771 28.8537 71.087 28.3113 70.7908C27.4213 70.3008 26.9413 69.7908 26.8413 69.1808C26.7413 68.5708 27.0813 68.0708 27.8413 67.5908C28.5854 67.1509 29.4275 66.9034 30.2913 66.8708C31.356 66.821 32.4141 67.063 33.3513 67.5708C33.7997 67.8052 34.1815 68.1492 34.4613 68.5708C34.5575 68.7359 34.609 68.9233 34.6108 69.1145C34.6126 69.3056 34.5645 69.4939 34.4713 69.6608ZM32.0513 68.5308C31.5942 68.2637 31.08 68.1094 30.5513 68.0808C30.1309 68.042 29.7087 68.1327 29.3413 68.3408C29.221 68.3994 29.1229 68.4953 29.0616 68.6143C29.0003 68.7332 28.9792 68.8688 29.0013 69.0008C29.0813 69.2808 29.3713 69.5508 29.8813 69.8308C30.3063 70.0726 30.7828 70.2097 31.2713 70.2308C31.6756 70.2749 32.0837 70.1946 32.4413 70.0008C32.8013 69.7808 32.9213 69.5308 32.7913 69.2508C32.6274 68.9382 32.3682 68.686 32.0513 68.5308ZM36.0513 70.8608C35.7131 70.6661 35.3314 70.5595 34.9413 70.5508C34.5915 70.5294 34.2433 70.613 33.9413 70.7908C33.6613 70.9708 33.5413 71.1708 33.5713 71.3908C33.6013 71.6108 33.8113 71.8108 34.1813 72.0108C34.5081 72.1967 34.8755 72.2997 35.2513 72.3108C35.6012 72.3334 35.9498 72.2497 36.2513 72.0708C36.5413 71.8908 36.6613 71.6908 36.6213 71.4708C36.5813 71.2508 36.3513 71.0508 36.0013 70.8608H36.0513ZM142.821 47.1008V45.0008L98.2613 71.0508L95.0913 71.3308L139.651 45.2708V43.2008H139.571L125.131 43.0508V45.1708L125.771 47.5108L126.111 48.7308L114.471 55.7308L106.621 54.1108V56.2308L107.061 59.0408L107.361 61.0408L98.2113 66.3608L90.5613 65.3608L87.5613 67.1508C79.2613 64.8608 69.0413 65.7008 62.2013 69.6808C58.3513 71.9208 56.2013 74.7808 55.7913 77.6808C55.2813 81.3408 57.4413 85.1108 62.3013 87.9108C71.0413 92.9108 85.1613 92.9108 93.8413 87.9108C98.6213 85.1308 100.761 81.4008 100.241 77.7608C99.9731 76.076 99.2388 74.4999 98.1213 73.2108L99.1713 72.6008L142.821 47.1008ZM68.6113 82.9408C67.984 82.8498 67.3817 82.632 66.8413 82.3008C66.6185 82.1843 66.4291 82.013 66.2909 81.8031C66.1527 81.5931 66.0702 81.3514 66.0513 81.1008C66.0513 80.6308 66.4513 80.1808 67.1113 79.8308C67.9601 79.4264 68.8912 79.2245 69.8313 79.2408C70.7649 79.2247 71.6895 79.4267 72.5313 79.8308C72.7901 79.9404 73.0172 80.1132 73.1919 80.3333C73.3666 80.5534 73.4833 80.8139 73.5313 81.0908C73.4835 81.3727 73.3673 81.6386 73.193 81.8652C73.0187 82.0918 72.7915 82.2723 72.5313 82.3908C71.8157 82.7606 71.0264 82.9656 70.2213 82.9908C69.975 83.0108 69.7276 83.0108 69.4813 82.9908C69.1905 82.993 68.8999 82.9763 68.6113 82.9408Z" fill="#0C3932"/>
  <path d="M78.1002 89.5098C72.6172 89.6227 67.1972 88.3245 62.3602 85.7398C58.6202 83.5798 56.3602 80.7398 55.9002 77.7398C55.3802 74.0098 57.6902 70.3498 62.2602 67.7398C67.0822 65.1059 72.5066 63.7722 78.0002 63.8698C81.2353 63.8636 84.4568 64.2873 87.5802 65.1298L90.5802 63.3298L98.2302 64.3298L107.11 59.1598L107.47 58.9498L106.73 54.1898L108.5 53.1898L114.21 53.8598H114.47C114.851 53.8611 115.225 53.7573 115.55 53.5598L125.98 47.5598C126.275 47.3895 126.525 47.1523 126.711 46.8674C126.897 46.5825 127.013 46.2579 127.05 45.9198C127.089 45.5819 127.047 45.2397 126.927 44.9214C126.807 44.6032 126.612 44.3181 126.36 44.0898L125.29 43.0898L126.93 42.0898L138.2 42.4198L139.44 43.1298L94.8902 69.2198L96.7602 70.2898L141.31 44.2298L142.62 44.9798L98.0002 71.0998L98.0702 71.1898C98.4422 71.6595 98.7766 72.1577 99.0702 72.6798C99.9968 74.2085 100.371 76.0086 100.13 77.7798C99.7102 80.7798 97.4502 83.5998 93.7802 85.7798C88.9586 88.3667 83.5508 89.6653 78.0802 89.5498L78.1002 89.5098ZM69.8302 79.1398C68.8727 79.1203 67.9239 79.3258 67.0602 79.7398C66.7841 79.8573 66.5421 80.0426 66.3568 80.2786C66.1714 80.5147 66.0488 80.7937 66.0002 81.0898C66.0186 81.3574 66.1043 81.616 66.2494 81.8416C66.3945 82.0671 66.5943 82.2523 66.8302 82.3798C67.3752 82.6976 67.9761 82.9081 68.6002 82.9998C68.8949 83.0472 69.1921 83.0772 69.4902 83.0898H70.2402C71.0622 83.0626 71.868 82.8543 72.6002 82.4798C72.8834 82.3617 73.1315 82.1727 73.3207 81.931C73.5098 81.6894 73.6336 81.4031 73.6802 81.0998C73.6279 80.7994 73.4992 80.5175 73.3066 80.2811C73.114 80.0447 72.8639 79.8618 72.5802 79.7498C71.725 79.3312 70.7823 79.1221 69.8302 79.1398Z" fill="#BBF7D0"/>
  <path d="M126.999 42.22L138.219 42.54L139.299 43.16L94.9995 69.05L94.6995 69.22L94.9995 69.39L96.6695 70.39L96.7695 70.45L96.8695 70.39L139.759 45.3L141.32 44.38L142.439 45.02L98.1595 70.88L97.9995 71L97.7995 71.12L97.9495 71.3C98.3205 71.7633 98.6549 72.2548 98.9495 72.77C99.8321 74.2781 100.184 76.0384 99.9495 77.77C99.5295 80.77 97.2895 83.54 93.6395 85.66C88.8649 88.217 83.5148 89.5081 78.0995 89.41C72.6339 89.52 67.2315 88.2254 62.4095 85.65C58.6995 83.51 56.4095 80.65 55.9995 77.65C55.4795 73.96 57.7795 70.33 62.3095 67.65C67.138 65.1026 72.5425 63.8453 77.9995 64C81.2243 63.9897 84.436 64.4101 87.5495 65.25H87.7095L90.6495 63.49L98.2295 64.49H98.2995L107.16 59.34L107.47 59.17L107.58 59.1V58.97L106.86 54.34L108.54 53.34L114.22 54.01H114.489C114.887 54.0092 115.277 53.9022 115.62 53.7L125.889 47.76L126.049 47.67C126.358 47.4942 126.621 47.2477 126.816 46.9509C127.011 46.654 127.133 46.3151 127.172 45.962C127.211 45.6088 127.166 45.2515 127.041 44.9192C126.915 44.5868 126.712 44.289 126.449 44.05L125.449 43.16L126.939 42.3L126.999 42.22ZM69.9095 83.22H70.2895C71.1234 83.1923 71.9403 82.977 72.6795 82.59C72.9811 82.4669 73.2447 82.266 73.4432 82.0077C73.6417 81.7495 73.7681 81.4431 73.8095 81.12C73.7587 80.8022 73.626 80.5032 73.4243 80.2524C73.2226 80.0016 72.959 79.8077 72.6595 79.69C71.7808 79.288 70.8258 79.0799 69.8595 79.0799C68.8932 79.0799 67.9382 79.288 67.0595 79.69C66.756 79.8075 66.4885 80.0021 66.2833 80.2547C66.0781 80.5072 65.9424 80.8089 65.8895 81.13C65.9071 81.4145 65.9972 81.6897 66.1512 81.9295C66.3053 82.1693 66.5181 82.3657 66.7695 82.5C67.334 82.8491 67.9633 83.0804 68.6195 83.18C68.9209 83.2273 69.2247 83.2574 69.5295 83.27L69.9095 83.22ZM126.91 42L125.139 43L126.299 44.07C126.54 44.2874 126.725 44.5586 126.84 44.8614C126.955 45.1641 126.996 45.4899 126.961 45.8118C126.926 46.1338 126.815 46.4429 126.638 46.7137C126.46 46.9846 126.221 47.2095 125.939 47.37L125.779 47.46L115.51 53.4C115.205 53.5756 114.861 53.6719 114.51 53.68H114.26L108.48 53L106.629 54.08L107.37 58.84L107.069 59.01L98.2195 64.16L90.5695 63.21L87.5695 65C84.4482 64.1671 81.2299 63.7535 77.9995 63.77C72.5116 63.6642 67.0885 64.9692 62.2495 67.56C57.4595 70.34 55.3295 74.07 55.8395 77.71C56.2595 80.71 58.4295 83.56 62.3495 85.82C67.1909 88.4045 72.6124 89.7091 78.0995 89.61C83.5865 89.7193 89.0097 88.4177 93.8495 85.83C97.6995 83.59 99.8495 80.73 100.25 77.83C100.486 76.0385 100.109 74.2198 99.1795 72.67C98.8682 72.144 98.5172 71.6425 98.1295 71.17L98.2595 71.09L142.82 45L141.309 44.13L139.649 45.13L96.7595 70.18L95.0895 69.18L139.579 43.18L139.649 43.13L138.24 42.32L126.91 42ZM69.9095 83H69.4995C69.2012 82.9898 68.9038 82.9598 68.6095 82.91C67.9822 82.819 67.3799 82.6012 66.8395 82.27C66.6167 82.1535 66.4273 81.9822 66.2891 81.7723C66.1509 81.5623 66.0684 81.3206 66.0495 81.07C66.0495 80.6 66.4495 80.15 67.1095 79.8C67.9584 79.3957 68.8894 79.1937 69.8295 79.21C70.7632 79.1939 71.6877 79.3959 72.5295 79.8C72.7883 79.9096 73.0154 80.0824 73.1901 80.3025C73.3648 80.5227 73.4815 80.7831 73.5295 81.06C73.4817 81.3419 73.3656 81.6078 73.1912 81.8344C73.0169 82.061 72.7897 82.2415 72.5295 82.36C71.8139 82.7298 71.0246 82.9348 70.2195 82.96L69.9095 83Z" fill="#0C3932"/>
  <path d="M78.0008 86.1907C76.0907 86.1915 74.1839 86.0309 72.3008 85.7107C69.3647 85.2874 66.5466 84.2664 64.0208 82.7107C62.2357 81.6762 60.8938 80.021 60.2508 78.0607C60.2036 77.856 60.1669 77.6491 60.1408 77.4407C60.1249 77.2276 60.1249 77.0137 60.1408 76.8007V76.5907C60.2708 74.2007 62.1408 71.9407 65.3408 70.2307C69.2615 68.333 73.5759 67.3906 77.9308 67.4807C82.273 67.3894 86.5747 68.332 90.4808 70.2307C93.6408 71.9107 95.4808 74.1507 95.5908 76.5207C95.596 76.6139 95.596 76.7074 95.5908 76.8007C95.6007 76.9772 95.6007 77.1541 95.5908 77.3307C95.5908 77.5307 95.5208 77.7207 95.4808 77.9207C94.8308 80.5507 92.4808 82.3107 90.6008 83.3307C86.7044 85.3181 82.3734 86.3012 78.0008 86.1907ZM69.8108 79.1907C68.8532 79.1712 67.9045 79.3767 67.0408 79.7907C66.7746 79.9062 66.5407 80.085 66.3595 80.3116C66.1782 80.5382 66.0551 80.8056 66.0008 81.0907C66.0191 81.3582 66.1048 81.6168 66.2499 81.8424C66.3951 82.0679 66.5949 82.2531 66.8308 82.3807C67.3758 82.6985 67.9766 82.9089 68.6008 83.0007C68.8955 83.048 69.1926 83.078 69.4908 83.0907H70.2408C71.0628 83.0634 71.8686 82.8551 72.6008 82.4807C72.884 82.3625 73.1321 82.1735 73.3212 81.9319C73.5104 81.6902 73.6342 81.404 73.6808 81.1007C73.6284 80.8003 73.4998 80.5183 73.3072 80.282C73.1145 80.0456 72.8644 79.8626 72.5808 79.7507C71.7255 79.332 70.7829 79.1229 69.8308 79.1407L69.8108 79.1907Z" fill="#BBF7D0"/>
  <path d="M77.9092 67.5806C82.2343 67.4896 86.5189 68.4288 90.4092 70.3206C93.5492 71.9906 95.3392 74.1906 95.4692 76.5206C95.474 76.6106 95.474 76.7007 95.4692 76.7906C95.4843 76.9636 95.4843 77.1376 95.4692 77.3106C95.4444 77.506 95.4076 77.6997 95.3592 77.8906C94.7292 80.4906 92.3592 82.2306 90.5292 83.2406C86.6562 85.2235 82.349 86.2066 77.9992 86.1006C76.0922 86.0977 74.1887 85.9338 72.3092 85.6106C69.386 85.1859 66.5813 84.1648 64.0692 82.6106C62.3088 81.5837 60.9908 79.9416 60.3692 78.0006C60.3181 77.8002 60.2813 77.5963 60.2592 77.3906C60.2437 77.1809 60.2437 76.9703 60.2592 76.7606V76.5606C60.3792 74.2006 62.2592 71.9706 65.4092 70.2806C69.315 68.392 73.6117 67.4531 77.9492 67.5406L77.9092 67.5806ZM69.9092 83.2406H70.2892C71.1231 83.2129 71.94 82.9976 72.6792 82.6106C72.9809 82.4876 73.2444 82.2866 73.4429 82.0284C73.6415 81.7701 73.7679 81.4637 73.8092 81.1406C73.7585 80.8228 73.6257 80.5238 73.424 80.273C73.2223 80.0222 72.9587 79.8284 72.6592 79.7106C71.7805 79.3086 70.8255 79.1005 69.8592 79.1005C68.8929 79.1005 67.9379 79.3086 67.0592 79.7106C66.7558 79.8281 66.4882 80.0227 66.283 80.2753C66.0779 80.5278 65.9421 80.8296 65.8892 81.1506C65.9068 81.4351 65.9969 81.7103 66.151 81.9501C66.305 82.1899 66.5178 82.3863 66.7692 82.5206C67.3337 82.8698 67.963 83.1011 68.6192 83.2006C68.9206 83.2479 69.2244 83.278 69.5292 83.2906L69.9092 83.2406ZM77.9092 67.3806C73.5401 67.2988 69.2131 68.2478 65.2792 70.1506C61.8992 71.9306 60.1392 74.2506 60.0192 76.5906V76.8006C60.004 77.017 60.004 77.2342 60.0192 77.4506C60.0477 77.6627 60.0878 77.873 60.1392 78.0806C60.7992 80.0739 62.1744 81.752 63.9992 82.7906C66.5409 84.3435 69.3714 85.3641 72.3192 85.7906C74.2093 86.1089 76.1226 86.2694 78.0392 86.2706C82.4027 86.3624 86.721 85.373 90.6092 83.3906C92.9392 82.1306 94.9492 80.3206 95.5392 77.9206C95.5392 77.7206 95.6192 77.5206 95.6492 77.3206C95.6758 77.1417 95.6925 76.9614 95.6992 76.7806C95.7042 76.684 95.7042 76.5872 95.6992 76.4906C95.5692 74.1806 93.8492 71.8906 90.5392 70.1306C86.6168 68.2256 82.299 67.2764 77.9392 67.3606L77.9092 67.3806ZM69.8692 83.0006H69.4992C69.2009 82.9905 68.9036 82.9604 68.6092 82.9106C67.9819 82.8196 67.3797 82.6019 66.8392 82.2706C66.6165 82.1541 66.4271 81.9829 66.2889 81.7729C66.1506 81.563 66.0682 81.3213 66.0492 81.0706C66.0492 80.6006 66.4492 80.1506 67.1092 79.8006C67.9581 79.3963 68.8891 79.1943 69.8292 79.2106C70.7629 79.1945 71.6874 79.3965 72.5292 79.8006C72.788 79.9102 73.0151 80.083 73.1898 80.3032C73.3645 80.5233 73.4812 80.7837 73.5292 81.0606C73.4814 81.3425 73.3653 81.6084 73.191 81.835C73.0166 82.0617 72.7894 82.2421 72.5292 82.3606C71.8136 82.7304 71.0243 82.9354 70.2192 82.9606L69.8692 83.0006Z" fill="#0C3932"/>
  <path d="M73.6606 78.3307C72.458 77.777 71.1496 77.4902 69.8256 77.4902C68.5016 77.4902 67.1933 77.777 65.9906 78.3307C65.5718 78.4942 65.2034 78.7651 64.9225 79.1162C64.6416 79.4673 64.4582 79.8862 64.3906 80.3307C64.4122 80.7233 64.535 81.1037 64.747 81.4348C64.959 81.766 65.2531 82.0367 65.6006 82.2207C66.0099 82.4809 66.4499 82.6892 66.9106 82.8407C67.3058 82.9711 67.7103 83.0714 68.1206 83.1407C68.5873 83.2146 69.0583 83.2581 69.5306 83.2707C69.7669 83.2907 70.0044 83.2907 70.2406 83.2707C71.0703 83.2447 71.892 83.0999 72.6806 82.8407C73.0272 82.7303 73.3621 82.5863 73.6806 82.4107C74.0896 82.2393 74.4472 81.9651 74.7188 81.6146C74.9904 81.2642 75.1667 80.8494 75.2306 80.4107V80.3307C75.1707 79.8877 74.9936 79.4688 74.7176 79.1172C74.4416 78.7656 74.0767 78.494 73.6606 78.3307ZM69.5006 83.0007C69.2023 82.9905 68.905 82.9604 68.6106 82.9107C67.9833 82.8197 67.3811 82.6019 66.8406 82.2707C66.6179 82.1542 66.4285 81.9829 66.2903 81.773C66.152 81.563 66.0696 81.3213 66.0506 81.0707C66.0506 80.6007 66.4506 80.1507 67.1106 79.8007C67.9595 79.3963 68.8905 79.1944 69.8306 79.2107C70.7643 79.1946 71.6888 79.3966 72.5306 79.8007C72.7894 79.9103 73.0165 80.0831 73.1912 80.3032C73.3659 80.5233 73.4826 80.7838 73.5306 81.0607C73.4828 81.3426 73.3667 81.6085 73.1924 81.8351C73.018 82.0617 72.7908 82.2422 72.5306 82.3607C71.815 82.7305 71.0257 82.9355 70.2206 82.9607C69.9821 82.9929 69.7413 83.0063 69.5006 83.0007Z" fill="#0C3932"/>
  <path d="M65.2811 71.4003C72.2811 67.7103 83.5711 67.7103 90.5011 71.4003C93.6211 73.0503 95.3311 75.1703 95.6311 77.3403C95.6311 77.1603 95.6311 76.9803 95.6811 76.8003C95.686 76.7037 95.686 76.6069 95.6811 76.5103C95.5511 74.2003 93.8311 71.9103 90.5211 70.1503C83.5811 66.4603 72.2711 66.4603 65.2911 70.1503C61.9111 71.9303 60.1511 74.2503 60.0311 76.5903C60.0105 76.8766 60.0105 77.164 60.0311 77.4503C60.3511 75.2503 62.0911 73.0803 65.2811 71.4003Z" fill="#0C3932"/>
  <path d="M67.4411 80.9994C67.2442 78.5493 66.3206 76.2136 64.7885 74.2914C63.2565 72.3692 61.1856 70.9479 58.8411 70.2094C57.8103 69.8645 56.7123 69.7699 55.6376 69.9334C54.563 70.0968 53.5428 70.5136 52.6611 71.1494C51.8638 71.8091 51.2356 72.6496 50.8286 73.601C50.4216 74.5524 50.2476 75.5872 50.3211 76.6194C50.7655 76.5534 51.1993 76.429 51.6111 76.2494C51.587 75.4688 51.741 74.693 52.0616 73.9808C52.3822 73.2687 52.8608 72.6389 53.4611 72.1394C54.3471 71.4638 55.4373 71.111 56.5511 71.1394C57.2076 71.1427 57.8605 71.237 58.4911 71.4194C60.6033 72.0594 62.4653 73.338 63.8211 75.0794C65.2072 76.7503 66.0204 78.8219 66.1411 80.9894C66.1511 81.1226 66.1511 81.2563 66.1411 81.3894C66.2494 81.6494 66.4114 81.8835 66.6165 82.0765C66.8216 82.2695 67.0651 82.417 67.3311 82.5094C67.4083 82.0737 67.4451 81.6319 67.4411 81.1894V80.9994Z" fill="white"/>
  <path d="M67.4201 82.7409H67.2901C66.9974 82.6442 66.7298 82.4838 66.5067 82.271C66.2836 82.0583 66.1106 81.7987 66.0001 81.5109V81.0709C65.8772 78.9266 65.0673 76.8789 63.6901 75.2309C62.3566 73.5037 60.518 72.2349 58.4301 71.6009C57.8054 71.4226 57.1597 71.3285 56.5101 71.3209C55.4267 71.3112 54.371 71.6631 53.5101 72.3209C52.9258 72.8069 52.46 73.4198 52.1481 74.1129C51.8362 74.8061 51.6864 75.5612 51.7101 76.3209V76.3909H51.6501C51.2265 76.5785 50.7789 76.7064 50.3201 76.7708H50.2001V76.6109C50.1258 75.563 50.303 74.5126 50.717 73.5472C51.131 72.5818 51.7698 71.7293 52.5801 71.0609C53.4714 70.4057 54.5064 69.9732 55.5988 69.7992C56.6913 69.6253 57.8094 69.715 58.8601 70.0609C63.5201 71.3509 67.4101 76.2409 67.5401 80.9409V81.1709C67.5406 81.6165 67.5038 82.0614 67.4301 82.5009L67.4201 82.7409ZM66.2501 81.4508C66.3421 81.6755 66.4779 81.8797 66.6496 82.0514C66.8213 82.223 67.0254 82.3588 67.2501 82.4508C67.3076 82.0669 67.3344 81.679 67.3301 81.2909V81.0009C67.2101 76.3809 63.3801 71.5909 58.8101 70.3109C57.7961 69.9691 56.7149 69.8751 55.6571 70.0369C54.5993 70.1987 53.5956 70.6116 52.7301 71.2409C51.9551 71.8774 51.3424 72.6889 50.9425 73.6086C50.5426 74.5284 50.367 75.5299 50.4301 76.5309C50.8015 76.4721 51.1642 76.368 51.5101 76.2209C51.4925 75.4353 51.6524 74.656 51.9779 73.9409C52.3034 73.2258 52.7861 72.5934 53.3901 72.0908C54.3017 71.4129 55.4145 71.0607 56.5501 71.0908C57.2266 71.0899 57.8999 71.1842 58.5501 71.3709C60.6825 72.019 62.562 73.3115 63.9301 75.0709C65.3425 76.7636 66.1671 78.8692 66.2801 81.0709C66.2802 81.1981 66.2701 81.3252 66.2501 81.4508Z" fill="#0C3932"/>
  <defs>
    <linearGradient id="paint0_linear_990_53131" x1="42.3095" y1="87.15" x2="61.2295" y2="55.62" gradientUnits="userSpaceOnUse">
      <stop stop-color="#E0DEF5"/>
      <stop offset="1" stop-color="#E0DEF5" stop-opacity="0"/>
    </linearGradient>
  </defs>
</svg>