<svg width="758" height="560" viewBox="0 0 758 560" fill="none" xmlns="http://www.w3.org/2000/svg">
<g clipPath="url(#clip0_35_191)">
<mask id="mask0_35_191" style="mask-type:luminance" maskUnits="userSpaceOnUse" x="0" y="0" width="1440" height="560">
<path d="M1440 0H0V560H1440V0Z" fill="white"/>
</mask>
<g mask="url(#mask0_35_191)">
<path d="M107.06 220.59V159.59L54.2304 129.09L1.40039 159.59V220.59L54.2304 251.09M107.06 220.59L54.2304 251.09M107.06 220.59L159.89 251.09M54.2304 251.09V312.09L107.06 342.59M159.89 251.09V312.09M159.89 251.09L212.72 220.59M159.89 312.09L107.06 342.59M159.89 312.09L212.72 342.59M107.06 342.59V403.59L159.89 434.09L212.72 403.59V342.59M265.55 129.09V68.09L212.72 37.59L159.89 68.09V129.09L212.72 159.59M265.55 129.09L212.72 159.59M265.55 129.09L318.38 159.59M212.72 159.59V220.59M212.72 220.59L265.55 251.09M265.55 251.09V312.09L212.72 342.59M265.55 251.09L318.38 220.59M318.38 159.59V220.59M318.38 159.59L371.2 129.09M318.38 220.59L371.2 251.09L424.03 220.59V159.59M318.38 403.59L371.2 434.09M318.38 403.59L265.55 434.09V495.09M318.38 403.59V342.59L371.2 312.09L424.03 342.59V403.59M371.2 434.09V495.09M371.2 434.09L424.03 403.59M371.2 495.09L318.38 525.59M371.2 495.09L424.03 525.59L476.86 495.09M318.38 525.59L265.55 495.09M318.38 525.59V586.59L265.55 617.09L212.72 586.59V525.59L265.55 495.09M424.03 -23.41L371.2 -53.91L318.38 -23.41V37.59L371.2 68.09M424.03 -23.41V37.59M424.03 -23.41L476.86 -53.91L529.69 -23.41V37.59L476.86 68.09M424.03 37.59L371.2 68.09M424.03 37.59L476.86 68.09M371.2 68.09V129.09M476.86 68.09V129.09L424.03 159.59M424.03 159.59L371.2 129.09M424.03 403.59L476.86 434.09M476.86 434.09V495.09M476.86 434.09L529.69 403.59M476.86 495.09L529.69 525.59M529.69 403.59L582.52 434.09M529.69 403.59V342.59L582.52 312.09M582.52 434.09V495.09M582.52 434.09L635.35 403.59V342.59M582.52 495.09L529.69 525.59M582.52 495.09L635.35 525.59M529.69 525.59V586.59L582.52 617.09L635.35 586.59M635.35 342.59L688.18 312.09V251.09L635.35 220.59L582.52 251.09V312.09M635.35 342.59L582.52 312.09M635.35 525.59V586.59M635.35 525.59L688.18 495.09M635.35 586.59L688.18 617.09L741.01 586.59V525.59M741.01 525.59L793.84 495.09V434.09L741.01 403.59L688.18 434.09V495.09M741.01 525.59L688.18 495.09M952.32 403.59L1005.15 434.09M952.32 403.59L899.49 434.09V495.09L952.32 525.59L1005.15 495.09V434.09M952.32 403.59V342.59L1005.15 312.09M1005.15 434.09L1057.98 403.59M1057.98 159.59L1005.15 129.09L952.32 159.59V220.59L1005.15 251.09M1057.98 159.59V220.59M1057.98 159.59L1110.81 129.09L1163.64 159.59V220.59L1110.81 251.09M1057.98 220.59L1005.15 251.09M1057.98 220.59L1110.81 251.09M1005.15 251.09V312.09M1110.81 251.09V312.09M1110.81 312.09L1057.98 342.59M1110.81 312.09L1163.64 342.59V403.59M1057.98 342.59L1005.15 312.09M1057.98 342.59V403.59M1057.98 403.59L1110.81 434.09M1163.64 403.59L1110.81 434.09M1163.64 403.59L1216.47 434.09M1110.81 434.09V495.09M1216.47 434.09V495.09M1216.47 434.09L1269.3 403.59L1322.13 434.09M1216.47 495.09L1163.64 525.59M1216.47 495.09L1269.3 525.59M1163.64 525.59L1110.81 495.09M1163.64 525.59V586.59L1110.81 617.09L1057.98 586.59V525.59L1110.81 495.09M1322.13 434.09V495.09M1322.13 434.09L1374.96 403.59L1427.79 434.09V495.09L1374.96 525.59M1322.13 495.09L1269.3 525.59M1322.13 495.09L1374.96 525.59M1269.3 525.59V586.59L1322.13 617.09L1374.96 586.59V525.59M54.2304 495.09L107.06 525.59V586.59L54.2304 617.09L1.40039 586.59V525.59L54.2304 495.09ZM688.18 -53.91L741.01 -23.41V37.59L688.18 68.09L635.35 37.59V-23.41L688.18 -53.91ZM1269.3 220.59L1322.13 251.09V312.09L1269.3 342.59L1216.47 312.09V251.09L1269.3 220.59ZM1374.96 37.59L1427.79 68.09V129.09L1374.96 159.59L1322.13 129.09V68.09L1374.96 37.59ZM1480.61 220.59L1533.44 251.09V312.09L1480.61 342.59L1427.79 312.09V251.09L1480.61 220.59Z" stroke="url(#paint0_linear_35_191)" stroke-opacity="0.7" strokeWidth="2"/>
</g>
</g>
<defs>
<linearGradient id="paint0_linear_35_191" x1="767.42" y1="-53.91" x2="767.42" y2="617.09" gradientUnits="userSpaceOnUse">
<stop stop-color="#B0ADE5"/>
<stop offset="1" stop-color="white"/>
</linearGradient>
<clipPath id="clip0_35_191">
<rect width="758" height="560" rx="29" fill="white"/>
</clipPath>
</defs>
</svg>
