<svg width="48" height="48" viewBox="0 0 48 48" fill="none" xmlns="http://www.w3.org/2000/svg">
<path d="M34.3739 3.45886L32.4314 20.1691L23.4595 24.6551L25.4019 7.94482L34.3739 3.45886Z" fill="#625CCB" stroke="white" strokeWidth="0.448598" strokeLinecap="round" strokeLinejoin="round"/>
<path d="M44.086 26.8982L35.1141 31.3841L23.4595 24.6552L32.4314 20.1692L44.086 26.8982Z" fill="#625CCB" stroke="white" strokeWidth="0.448598" strokeLinecap="round" strokeLinejoin="round"/>
<path d="M44.086 26.8981L24.6617 42.4286L15.6897 46.9143L22.7103 41.3026L35.114 31.3841L44.086 26.8981Z" fill="#625CCB" stroke="white" strokeWidth="0.448598" strokeLinecap="round" strokeLinejoin="round"/>
<path d="M35.114 31.3841L22.7103 41.3027L15.6897 46.9144L11.8049 44.6717L13.7473 30.1909L4.03516 24.5834L21.517 5.7019L24.6572 7.51429L25.4019 7.94489L23.4595 24.6552L35.114 31.3841Z" fill="#625CCB" stroke="white" strokeWidth="0.448598" strokeLinecap="round" strokeLinejoin="round"/>
<path d="M34.3737 3.45893L25.4017 7.94489L24.657 7.51428L21.5168 5.7019L30.4888 1.21594L34.3737 3.45893Z" fill="#625CCB" stroke="white" strokeWidth="0.448598" strokeLinecap="round" strokeLinejoin="round"/>
</svg>
