<svg width="52" height="52" viewBox="0 0 52 52" fill="none" xmlns="http://www.w3.org/2000/svg">
<path opacity="0.2" d="M19.5 48.75L22.75 32.5L9.75 27.625L32.5 3.25L29.25 19.5L42.25 24.375L19.5 48.75Z" fill="url(#paint0_linear_652_2469)"/>
<path d="M43.8322 24.0032C43.7706 23.7428 43.6457 23.5015 43.4686 23.301C43.2914 23.1004 43.0674 22.9467 42.8165 22.8535L31.1145 18.464L34.0923 3.56882C34.1597 3.22274 34.1128 2.86412 33.9585 2.54707C33.8042 2.23002 33.551 1.97175 33.2371 1.81123C32.9232 1.65071 32.5656 1.59665 32.2182 1.65721C31.8709 1.71777 31.5526 1.88966 31.3115 2.14695L8.56154 26.5219C8.37677 26.7166 8.2431 26.9541 8.17248 27.213C8.10186 27.472 8.09649 27.7444 8.15685 28.006C8.2172 28.2675 8.34141 28.51 8.51836 28.7119C8.69532 28.9137 8.91951 29.0685 9.17092 29.1626L20.877 33.5521L17.9073 48.431C17.8399 48.7771 17.8869 49.1357 18.0411 49.4528C18.1954 49.7698 18.4486 50.0281 18.7625 50.1886C19.0765 50.3491 19.4341 50.4032 19.7814 50.3426C20.1288 50.2821 20.447 50.1102 20.6881 49.8529L43.4381 25.4779C43.6195 25.2831 43.7504 25.0468 43.8191 24.7897C43.8878 24.5326 43.8923 24.2625 43.8322 24.0032ZM22.2156 43.4687L24.3423 32.829C24.4184 32.4516 24.3581 32.0595 24.1721 31.7225C23.9861 31.3855 23.6865 31.1254 23.3267 30.9887L12.5936 26.9566L29.782 8.54132L27.6573 19.181C27.5812 19.5584 27.6415 19.9505 27.8275 20.2875C28.0135 20.6245 28.3131 20.8846 28.6729 21.0213L39.3979 25.0432L22.2156 43.4687Z" fill="url(#paint1_linear_652_2469)"/>
<defs>
<linearGradient id="paint0_linear_652_2469" x1="19.4878" y1="31.1705" x2="40.5048" y2="31.7644" gradientUnits="userSpaceOnUse">
<stop stop-color="#00B3FF"/>
<stop offset="0.505" stop-color="#CE0CFF"/>
<stop offset="1" stop-color="#2C176E"/>
</linearGradient>
<linearGradient id="paint1_linear_652_2469" x1="18.8295" y1="31.5378" x2="41.9529" y2="32.2091" gradientUnits="userSpaceOnUse">
<stop stop-color="#00B3FF"/>
<stop offset="0.505" stop-color="#CE0CFF"/>
<stop offset="1" stop-color="#2C176E"/>
</linearGradient>
</defs>
</svg>
