<svg xmlns="http://www.w3.org/2000/svg" width="17" height="17" viewBox="0 0 17 17" fill="none">
  <path opacity="0.2" d="M8.5 2.29883C7.17392 2.29883 5.90215 2.82561 4.96447 3.76329C4.02678 4.70098 3.5 5.97275 3.5 7.29883C3.5 11.7988 8.5 15.2988 8.5 15.2988C8.5 15.2988 13.5 11.7988 13.5 7.29883C13.5 5.97275 12.9732 4.70098 12.0355 3.76329C11.0979 2.82561 9.82608 2.29883 8.5 2.29883ZM8.5 9.29883C8.10444 9.29883 7.71776 9.18153 7.38886 8.96177C7.05996 8.742 6.80362 8.42965 6.65224 8.0642C6.50087 7.69874 6.46126 7.29661 6.53843 6.90865C6.6156 6.52069 6.80608 6.16432 7.08579 5.88461C7.36549 5.60491 7.72186 5.41443 8.10982 5.33726C8.49778 5.26009 8.89991 5.29969 9.26537 5.45107C9.63082 5.60244 9.94318 5.85879 10.1629 6.18769C10.3827 6.51659 10.5 6.90327 10.5 7.29883C10.5 7.82926 10.2893 8.33797 9.91421 8.71304C9.53914 9.08811 9.03043 9.29883 8.5 9.29883Z" fill="#6B7280"/>
  <path d="M13 14.7988H9.90875C10.428 14.3352 10.9177 13.8394 11.375 13.3145C13.0906 11.3413 14 9.26133 14 7.29883C14 5.84014 13.4205 4.44119 12.3891 3.40974C11.3576 2.37829 9.95869 1.79883 8.5 1.79883C7.04131 1.79883 5.64236 2.37829 4.61091 3.40974C3.57946 4.44119 3 5.84014 3 7.29883C3 9.26133 3.90688 11.3413 5.625 13.3145C6.08226 13.8394 6.57197 14.3352 7.09125 14.7988H4C3.86739 14.7988 3.74021 14.8515 3.64645 14.9453C3.55268 15.039 3.5 15.1662 3.5 15.2988C3.5 15.4314 3.55268 15.5586 3.64645 15.6524C3.74021 15.7462 3.86739 15.7988 4 15.7988H13C13.1326 15.7988 13.2598 15.7462 13.3536 15.6524C13.4473 15.5586 13.5 15.4314 13.5 15.2988C13.5 15.1662 13.4473 15.039 13.3536 14.9453C13.2598 14.8515 13.1326 14.7988 13 14.7988ZM4 7.29883C4 6.10535 4.47411 4.96076 5.31802 4.11685C6.16193 3.27293 7.30653 2.79883 8.5 2.79883C9.69347 2.79883 10.8381 3.27293 11.682 4.11685C12.5259 4.96076 13 6.10535 13 7.29883C13 10.8757 9.53312 13.8613 8.5 14.6738C7.46688 13.8613 4 10.8757 4 7.29883ZM11 7.29883C11 6.80437 10.8534 6.32103 10.5787 5.9099C10.304 5.49878 9.91352 5.17835 9.45671 4.98913C8.99989 4.79991 8.49723 4.7504 8.01227 4.84686C7.52732 4.94333 7.08186 5.18143 6.73223 5.53106C6.3826 5.88069 6.1445 6.32615 6.04804 6.8111C5.95157 7.29605 6.00108 7.79872 6.1903 8.25554C6.37952 8.71235 6.69995 9.1028 7.11107 9.3775C7.5222 9.65221 8.00555 9.79883 8.5 9.79883C9.16304 9.79883 9.79893 9.53544 10.2678 9.0666C10.7366 8.59775 11 7.96187 11 7.29883ZM7 7.29883C7 7.00216 7.08797 6.71215 7.2528 6.46547C7.41762 6.2188 7.65189 6.02654 7.92597 5.91301C8.20006 5.79948 8.50166 5.76977 8.79264 5.82765C9.08361 5.88553 9.35088 6.02839 9.56066 6.23817C9.77044 6.44795 9.9133 6.71522 9.97118 7.00619C10.0291 7.29716 9.99935 7.59876 9.88582 7.87285C9.77229 8.14694 9.58003 8.38121 9.33335 8.54603C9.08668 8.71085 8.79667 8.79883 8.5 8.79883C8.10218 8.79883 7.72064 8.64079 7.43934 8.35949C7.15804 8.07818 7 7.69665 7 7.29883Z" fill="#6B7280"/>
</svg>