<svg width="92" height="26" viewBox="0 0 92 26" fill="none" xmlns="http://www.w3.org/2000/svg">
<path d="M13.4483 6.1405C13.4483 8.09585 11.911 9.68102 10.0146 9.68102C8.1183 9.68102 6.58096 8.09585 6.58096 6.1405C6.58096 4.18514 8.1183 2.59998 10.0146 2.59998C11.911 2.59998 13.4483 4.18514 13.4483 6.1405Z" fill="#625CCB"/>
<path d="M7.01007 17.2043C7.01007 19.1597 5.47274 20.7449 3.57638 20.7449C1.68003 20.7449 0.1427 19.1597 0.1427 17.2043C0.1427 15.249 1.68003 13.6638 3.57638 13.6638C5.47274 13.6638 7.01007 15.249 7.01007 17.2043Z" fill="#625CCB"/>
<path d="M19.4573 17.2043C19.4573 19.1597 17.9199 20.7449 16.0236 20.7449C14.1272 20.7449 12.5899 19.1597 12.5899 17.2043C12.5899 15.249 14.1272 13.6638 16.0236 13.6638C17.9199 13.6638 19.4573 15.249 19.4573 17.2043Z" fill="#625CCB"/>
<path d="M6.79557 11.6721C7.82568 10.2559 7.29629 8.3529 6.79557 7.24646L13.2338 7.46776C12.733 8.2791 12.1607 9.90189 13.0191 11.6721C13.8776 13.4424 15.5229 13.6637 16.4528 13.6637L13.4483 19.6384C13.0907 18.827 11.8602 17.2042 9.80002 17.2042C7.73985 17.2042 6.36633 18.9745 5.93714 19.8596L2.93265 13.6637C3.79103 13.5899 5.76546 13.0884 6.79557 11.6721Z" fill="#625CCB"/>
<path d="M18.5988 9.68083C18.5988 11.1473 17.4459 12.3362 16.0236 12.3362C14.6013 12.3362 13.4483 11.1473 13.4483 9.68083C13.4483 8.21431 14.6013 7.02545 16.0236 7.02545C17.4459 7.02545 18.5988 8.21431 18.5988 9.68083Z" fill="#625CCB"/>
<path d="M6.58083 9.68083C6.58083 11.1473 5.42784 12.3362 4.00558 12.3362C2.58332 12.3362 1.43033 11.1473 1.43033 9.68083C1.43033 8.21431 2.58332 7.02545 4.00558 7.02545C5.42784 7.02545 6.58083 8.21431 6.58083 9.68083Z" fill="#625CCB"/>
<path d="M12.5899 20.7446C12.5899 22.2111 11.4369 23.4 10.0147 23.4C8.59239 23.4 7.43941 22.2111 7.43941 20.7446C7.43941 19.2781 8.59239 18.0892 10.0147 18.0892C11.4369 18.0892 12.5899 19.2781 12.5899 20.7446Z" fill="#625CCB"/>
<path d="M34.5581 16.2336H42.2125V19H31.5005V4.44H42.0045V7.2064H34.5581V10.2848H41.5053V13.0304H34.5581V16.2336ZM54.2232 19H50.8952L48.6904 15.5264L46.4856 19H43.1784L46.7976 13.5712L43.3864 8.392H46.652L48.6904 11.6576L50.7288 8.392H54.0152L50.5832 13.5712L54.2232 19ZM54.374 13.696C54.374 10.5552 56.6204 8.1008 60.0316 8.1008C63.4428 8.1008 65.71 10.5552 65.71 13.696C65.71 16.8368 63.4428 19.2912 60.0316 19.2912C56.6204 19.2912 54.374 16.816 54.374 13.696ZM62.694 13.696C62.694 11.928 61.6748 10.7632 60.0316 10.7632C58.3884 10.7632 57.3692 11.928 57.3692 13.696C57.3692 15.464 58.3884 16.6288 60.0316 16.6288C61.6748 16.6288 62.694 15.464 62.694 13.696ZM82.0947 19L80.9299 15.8176H74.9187L73.7539 19H70.5299L76.1459 4.44H79.6819L85.3187 19H82.0947ZM75.8547 13.2176H79.9939L77.9347 7.5184L75.8547 13.2176ZM86.8246 19V4.44H89.903V19H86.8246Z" fill="white"/>
</svg>
