<svg xmlns="http://www.w3.org/2000/svg" width="17" height="16" viewBox="0 0 17 16" fill="none">
  <path d="M14.5082 13.6464L11.3788 10.5176C12.2858 9.42871 12.7381 8.03201 12.6416 6.6181C12.5451 5.20419 11.9071 3.88193 10.8605 2.92637C9.81392 1.97082 8.43922 1.45555 7.02238 1.48775C5.60555 1.51995 4.25567 2.09714 3.25355 3.09926C2.25144 4.10137 1.67425 5.45125 1.64205 6.86808C1.60985 8.28492 2.12512 9.65963 3.08067 10.7062C4.03622 11.7528 5.35849 12.3908 6.7724 12.4873C8.18631 12.5838 9.58301 12.1315 10.6719 11.2245L13.8007 14.3539C13.8471 14.4003 13.9023 14.4372 13.963 14.4623C14.0237 14.4875 14.0887 14.5004 14.1544 14.5004C14.2201 14.5004 14.2852 14.4875 14.3459 14.4623C14.4066 14.4372 14.4617 14.4003 14.5082 14.3539C14.5546 14.3074 14.5915 14.2523 14.6166 14.1916C14.6418 14.1309 14.6547 14.0658 14.6547 14.0001C14.6547 13.9344 14.6418 13.8694 14.6166 13.8087C14.5915 13.748 14.5546 13.6928 14.5082 13.6464ZM2.65444 7.00014C2.65444 6.11013 2.91836 5.2401 3.41283 4.50008C3.90729 3.76006 4.6101 3.18328 5.43236 2.84268C6.25463 2.50209 7.15943 2.41298 8.03235 2.58661C8.90526 2.76024 9.70708 3.18883 10.3364 3.81816C10.9658 4.4475 11.3943 5.24932 11.568 6.12224C11.7416 6.99515 11.6525 7.89995 11.3119 8.72222C10.9713 9.54449 10.3945 10.2473 9.65451 10.7418C8.91448 11.2362 8.04446 11.5001 7.15444 11.5001C5.96137 11.4988 4.81755 11.0243 3.97392 10.1807C3.13029 9.33704 2.65576 8.19321 2.65444 7.00014Z" fill="#6B7280"/>
</svg>