<svg xmlns="http://www.w3.org/2000/svg" width="17" height="16" viewBox="0 0 17 16" fill="none">
  <path opacity="0.2" d="M8.1543 1.5C6.82821 1.5 5.55644 2.02678 4.61876 2.96447C3.68108 3.90215 3.1543 5.17392 3.1543 6.5C3.1543 11 8.1543 14.5 8.1543 14.5C8.1543 14.5 13.1543 11 13.1543 6.5C13.1543 5.17392 12.6275 3.90215 11.6898 2.96447C10.7521 2.02678 9.48038 1.5 8.1543 1.5ZM8.1543 8.5C7.75873 8.5 7.37206 8.3827 7.04316 8.16294C6.71426 7.94318 6.45791 7.63082 6.30654 7.26537C6.15516 6.89991 6.11556 6.49778 6.19273 6.10982C6.2699 5.72186 6.46038 5.36549 6.74008 5.08579C7.01979 4.80608 7.37615 4.6156 7.76412 4.53843C8.15208 4.46126 8.55421 4.50087 8.91966 4.65224C9.28512 4.80362 9.59747 5.05996 9.81724 5.38886C10.037 5.71776 10.1543 6.10444 10.1543 6.5C10.1543 7.03043 9.94358 7.53914 9.56851 7.91421C9.19344 8.28929 8.68473 8.5 8.1543 8.5Z" fill="#6B7280" />
  <path d="M12.6543 14H9.56305C10.0823 13.5363 10.572 13.0406 11.0293 12.5156C12.7449 10.5425 13.6543 8.4625 13.6543 6.5C13.6543 5.04131 13.0748 3.64236 12.0434 2.61091C11.0119 1.57946 9.61299 1 8.1543 1C6.69561 1 5.29666 1.57946 4.26521 2.61091C3.23376 3.64236 2.6543 5.04131 2.6543 6.5C2.6543 8.4625 3.56117 10.5425 5.2793 12.5156C5.73655 13.0406 6.22626 13.5363 6.74555 14H3.6543C3.52169 14 3.39451 14.0527 3.30074 14.1464C3.20698 14.2402 3.1543 14.3674 3.1543 14.5C3.1543 14.6326 3.20698 14.7598 3.30074 14.8536C3.39451 14.9473 3.52169 15 3.6543 15H12.6543C12.7869 15 12.9141 14.9473 13.0079 14.8536C13.1016 14.7598 13.1543 14.6326 13.1543 14.5C13.1543 14.3674 13.1016 14.2402 13.0079 14.1464C12.9141 14.0527 12.7869 14 12.6543 14ZM3.6543 6.5C3.6543 5.30653 4.1284 4.16193 4.97232 3.31802C5.81623 2.47411 6.96082 2 8.1543 2C9.34777 2 10.4924 2.47411 11.3363 3.31802C12.1802 4.16193 12.6543 5.30653 12.6543 6.5C12.6543 10.0769 9.18742 13.0625 8.1543 13.875C7.12117 13.0625 3.6543 10.0769 3.6543 6.5ZM10.6543 6.5C10.6543 6.00555 10.5077 5.5222 10.233 5.11107C9.95827 4.69995 9.56782 4.37952 9.11101 4.1903C8.65419 4.00108 8.15152 3.95157 7.66657 4.04804C7.18162 4.1445 6.73616 4.3826 6.38653 4.73223C6.0369 5.08186 5.7988 5.52732 5.70233 6.01227C5.60587 6.49723 5.65538 6.99989 5.8446 7.45671C6.03382 7.91352 6.35425 8.30397 6.76537 8.57867C7.17649 8.85338 7.65984 9 8.1543 9C8.81734 9 9.45322 8.73661 9.92206 8.26777C10.3909 7.79893 10.6543 7.16304 10.6543 6.5ZM6.6543 6.5C6.6543 6.20333 6.74227 5.91332 6.90709 5.66664C7.07191 5.41997 7.30618 5.22771 7.58027 5.11418C7.85436 5.00065 8.15596 4.97094 8.44693 5.02882C8.7379 5.0867 9.00518 5.22956 9.21496 5.43934C9.42474 5.64912 9.5676 5.91639 9.62547 6.20736C9.68335 6.49834 9.65365 6.79994 9.54012 7.07403C9.42658 7.34811 9.23433 7.58238 8.98765 7.7472C8.74098 7.91203 8.45097 8 8.1543 8C7.75647 8 7.37494 7.84196 7.09364 7.56066C6.81233 7.27936 6.6543 6.89782 6.6543 6.5Z" fill="#6B7280" />
</svg>