<svg xmlns="http://www.w3.org/2000/svg" width="17" height="16" viewBox="0 0 17 16" fill="none">
  <path opacity="0.2" d="M10.1543 8C10.1543 8.39556 10.037 8.78224 9.81724 9.11114C9.59747 9.44004 9.28512 9.69638 8.91966 9.84776C8.55421 9.99913 8.15208 10.0387 7.76412 9.96157C7.37615 9.8844 7.01979 9.69392 6.74008 9.41421C6.46038 9.13451 6.2699 8.77814 6.19273 8.39018C6.11556 8.00222 6.15516 7.60009 6.30654 7.23463C6.45791 6.86918 6.71426 6.55682 7.04316 6.33706C7.37206 6.1173 7.75873 6 8.1543 6C8.68473 6 9.19344 6.21071 9.56851 6.58579C9.94358 6.96086 10.1543 7.46957 10.1543 8ZM12.6543 4C12.7602 4.62457 13.0577 5.20075 13.5056 5.64869C13.9535 6.09663 14.5297 6.39414 15.1543 6.5V4H12.6543ZM12.6543 12H15.1543V9.5C14.5297 9.60586 13.9535 9.90337 13.5056 10.3513C13.0577 10.7992 12.7602 11.3754 12.6543 12ZM1.1543 9.5V12H3.6543C3.54844 11.3754 3.25093 10.7992 2.80299 10.3513C2.35505 9.90337 1.77887 9.60586 1.1543 9.5ZM1.1543 6.5C1.77887 6.39414 2.35505 6.09663 2.80299 5.64869C3.25093 5.20075 3.54844 4.62457 3.6543 4H1.1543V6.5Z" fill="#6B7280"/>
  <path d="M8.1543 5.5C7.65984 5.5 7.17649 5.64662 6.76537 5.92133C6.35425 6.19603 6.03382 6.58648 5.8446 7.04329C5.65538 7.50011 5.60587 8.00277 5.70233 8.48773C5.7988 8.97268 6.0369 9.41814 6.38653 9.76777C6.73616 10.1174 7.18162 10.3555 7.66657 10.452C8.15152 10.5484 8.65419 10.4989 9.11101 10.3097C9.56782 10.1205 9.95827 9.80005 10.233 9.38893C10.5077 8.9778 10.6543 8.49445 10.6543 8C10.6543 7.33696 10.3909 6.70107 9.92206 6.23223C9.45322 5.76339 8.81734 5.5 8.1543 5.5ZM8.1543 9.5C7.85763 9.5 7.56762 9.41203 7.32094 9.2472C7.07427 9.08238 6.88201 8.84811 6.76848 8.57403C6.65495 8.29994 6.62524 7.99834 6.68312 7.70736C6.741 7.41639 6.88386 7.14912 7.09364 6.93934C7.30342 6.72956 7.57069 6.5867 7.86166 6.52882C8.15263 6.47094 8.45423 6.50065 8.72832 6.61418C9.00241 6.72771 9.23668 6.91997 9.4015 7.16664C9.56632 7.41332 9.6543 7.70333 9.6543 8C9.6543 8.39782 9.49626 8.77936 9.21496 9.06066C8.93365 9.34196 8.55212 9.5 8.1543 9.5ZM15.1543 3.5H1.1543C1.02169 3.5 0.894512 3.55268 0.800743 3.64645C0.706975 3.74021 0.654297 3.86739 0.654297 4V12C0.654297 12.1326 0.706975 12.2598 0.800743 12.3536C0.894512 12.4473 1.02169 12.5 1.1543 12.5H15.1543C15.2869 12.5 15.4141 12.4473 15.5079 12.3536C15.6016 12.2598 15.6543 12.1326 15.6543 12V4C15.6543 3.86739 15.6016 3.74021 15.5079 3.64645C15.4141 3.55268 15.2869 3.5 15.1543 3.5ZM1.6543 4.5H2.98992C2.73204 5.09973 2.25402 5.57775 1.6543 5.83563V4.5ZM1.6543 11.5V10.1644C2.25402 10.4223 2.73204 10.9003 2.98992 11.5H1.6543ZM14.6543 11.5H13.3187C13.5766 10.9003 14.0546 10.4223 14.6543 10.1644V11.5ZM14.6543 9.10312C14.0865 9.271 13.5698 9.57825 13.1512 9.99689C12.7325 10.4155 12.4253 10.9323 12.2574 11.5H4.05117C3.8833 10.9323 3.57605 10.4155 3.15741 9.99689C2.73877 9.57825 2.22204 9.271 1.6543 9.10312V6.89687C2.22204 6.729 2.73877 6.42175 3.15741 6.00311C3.57605 5.58447 3.8833 5.06775 4.05117 4.5H12.2574C12.4253 5.06775 12.7325 5.58447 13.1512 6.00311C13.5698 6.42175 14.0865 6.729 14.6543 6.89687V9.10312ZM14.6543 5.83563C14.0546 5.57775 13.5766 5.09973 13.3187 4.5H14.6543V5.83563Z" fill="#6B7280"/>
</svg>