<svg xmlns="http://www.w3.org/2000/svg" width="16" height="16" viewBox="0 0 16 16" fill="none">
  <path opacity="0.2" d="M8 8.06859V14.5005C7.91602 14.5001 7.83348 14.4786 7.76 14.438L2.26 11.4267C2.18147 11.3837 2.11591 11.3205 2.07017 11.2435C2.02444 11.1666 2.0002 11.0787 2 10.9892V5.01172C2.0002 4.94169 2.0151 4.87249 2.04375 4.80859L8 8.06859Z" fill="#6B7280"/>
  <path d="M13.98 4.13317L8.48 1.12379C8.33305 1.04259 8.16789 1 8 1C7.83211 1 7.66695 1.04259 7.52 1.12379L2.02 4.13442C1.86293 4.22036 1.73181 4.34689 1.64034 4.50081C1.54888 4.65472 1.50041 4.83037 1.5 5.00942V10.9869C1.50041 11.166 1.54888 11.3416 1.64034 11.4955C1.73181 11.6494 1.86293 11.776 2.02 11.8619L7.52 14.8725C7.66695 14.9537 7.83211 14.9963 8 14.9963C8.16789 14.9963 8.33305 14.9537 8.48 14.8725L13.98 11.8619C14.1371 11.776 14.2682 11.6494 14.3597 11.4955C14.4511 11.3416 14.4996 11.166 14.5 10.9869V5.01004C14.4999 4.83068 14.4516 4.65464 14.3601 4.50036C14.2686 4.34609 14.1373 4.21926 13.98 4.13317ZM8 1.99879L13.0212 4.74879L11.1606 5.76754L6.13875 3.01754L8 1.99879ZM8 7.49879L2.97875 4.74879L5.0975 3.58879L10.1187 6.33879L8 7.49879ZM2.5 5.62379L7.5 8.36004V13.7219L2.5 10.9875V5.62379ZM13.5 10.985L8.5 13.7219V8.36254L10.5 7.26817V9.49879C10.5 9.6314 10.5527 9.75858 10.6464 9.85234C10.7402 9.94611 10.8674 9.99879 11 9.99879C11.1326 9.99879 11.2598 9.94611 11.3536 9.85234C11.4473 9.75858 11.5 9.6314 11.5 9.49879V6.72067L13.5 5.62379V10.9844V10.985Z" fill="#6B7280"/>
</svg>