<svg xmlns="http://www.w3.org/2000/svg" width="16" height="16" viewBox="0 0 16 16" fill="none">
  <path opacity="0.2" d="M9.35414 2.85414L5.35414 6.85414C5.30771 6.90063 5.25256 6.93751 5.19186 6.96267C5.13116 6.98784 5.0661 7.00079 5.00039 7.00079C4.93469 7.00079 4.86962 6.98784 4.80892 6.96267C4.74822 6.93751 4.69308 6.90063 4.64664 6.85414L3.64664 5.85414C3.60016 5.80771 3.56328 5.75256 3.53811 5.69186C3.51295 5.63116 3.5 5.5661 3.5 5.50039C3.5 5.43469 3.51295 5.36962 3.53811 5.30892C3.56328 5.24822 3.60016 5.19308 3.64664 5.14664L7.64664 1.14664C7.69308 1.10016 7.74822 1.06328 7.80892 1.03811C7.86962 1.01295 7.93469 1 8.00039 1C8.0661 1 8.13116 1.01295 8.19186 1.03811C8.25256 1.06328 8.30771 1.10016 8.35414 1.14664L9.35414 2.14664C9.40063 2.19308 9.43751 2.24822 9.46267 2.30892C9.48784 2.36962 9.50079 2.43469 9.50079 2.50039C9.50079 2.5661 9.48784 2.63116 9.46267 2.69186C9.43751 2.75256 9.40063 2.80771 9.35414 2.85414ZM14.8541 7.64664L13.8541 6.64664C13.8077 6.60015 13.7526 6.56328 13.6919 6.53811C13.6312 6.51295 13.5661 6.5 13.5004 6.5C13.4347 6.5 13.3696 6.51295 13.3089 6.53811C13.2482 6.56328 13.1931 6.60015 13.1466 6.64664L9.14664 10.6466C9.10015 10.6931 9.06328 10.7482 9.03811 10.8089C9.01295 10.8696 9 10.9347 9 11.0004C9 11.0661 9.01295 11.1312 9.03811 11.1919C9.06328 11.2526 9.10015 11.3077 9.14664 11.3541L10.1466 12.3541C10.1931 12.4006 10.2482 12.4375 10.3089 12.4627C10.3696 12.4878 10.4347 12.5008 10.5004 12.5008C10.5661 12.5008 10.6312 12.4878 10.6919 12.4627C10.7526 12.4375 10.8077 12.4006 10.8541 12.3541L14.8541 8.35414C14.9006 8.30771 14.9375 8.25256 14.9627 8.19186C14.9878 8.13116 15.0008 8.0661 15.0008 8.00039C15.0008 7.93469 14.9878 7.86962 14.9627 7.80892C14.9375 7.74822 14.9006 7.69308 14.8541 7.64664Z" fill="#6B7280"/>
  <path d="M15.2069 7.2936L14.2069 6.2936C14.0373 6.12419 13.8125 6.02135 13.5734 6.00379C13.3343 5.98624 13.0969 6.05515 12.9044 6.19797L9.80186 3.09547C9.94477 2.90302 10.0138 2.66564 9.99635 2.42657C9.97891 2.18751 9.87618 1.96265 9.70686 1.79297L8.70686 0.792974C8.614 0.700091 8.50375 0.626411 8.38241 0.576142C8.26107 0.525873 8.13102 0.5 7.99968 0.5C7.86834 0.5 7.73828 0.525873 7.61694 0.576142C7.4956 0.626411 7.38535 0.700091 7.29249 0.792974L3.29249 4.79297C3.19961 4.88584 3.12593 4.99609 3.07566 5.11743C3.02539 5.23877 2.99951 5.36882 2.99951 5.50016C2.99951 5.6315 3.02539 5.76156 3.07566 5.8829C3.12593 6.00424 3.19961 6.11449 3.29249 6.20735L4.29249 7.20735C4.46213 7.3765 4.68686 7.47913 4.92579 7.49656C5.16472 7.514 5.40196 7.44508 5.59436 7.30235L6.04249 7.75047L1.95624 11.8367C1.68476 12.1336 1.53827 12.5238 1.54727 12.926C1.55626 13.3282 1.72005 13.7115 2.00452 13.9959C2.289 14.2804 2.67224 14.4442 3.07444 14.4532C3.47665 14.4622 3.86683 14.3157 4.16374 14.0442L8.24936 9.95797L8.69749 10.4055C8.55459 10.5979 8.48557 10.8353 8.50301 11.0744C8.52044 11.3134 8.62317 11.5383 8.79249 11.708L9.79249 12.708C9.88535 12.8009 9.9956 12.8745 10.1169 12.9248C10.2383 12.9751 10.3683 13.0009 10.4997 13.0009C10.631 13.0009 10.7611 12.9751 10.8824 12.9248C11.0038 12.8745 11.114 12.8009 11.2069 12.708L15.2069 8.70797C15.2997 8.61511 15.3734 8.50486 15.4237 8.38352C15.474 8.26218 15.4998 8.13213 15.4998 8.00079C15.4998 7.86945 15.474 7.73939 15.4237 7.61805C15.3734 7.49671 15.2997 7.38646 15.2069 7.2936ZM4.99936 6.50047L3.99936 5.50047L7.99936 1.50047L8.99936 2.50047L4.99936 6.50047ZM3.45686 13.3367C3.35147 13.4415 3.20891 13.5003 3.0603 13.5003C2.9117 13.5003 2.76913 13.4415 2.66374 13.3367C2.55916 13.2314 2.50048 13.0889 2.50048 12.9405C2.50048 12.792 2.55916 12.6496 2.66374 12.5442L6.74936 8.45797L7.54249 9.25047L3.45686 13.3367ZM6.31186 6.60422L9.10311 3.81297L12.1869 6.89672L9.39624 9.68797L6.31186 6.60422ZM10.4994 12.0005L9.49936 11.0005L9.74936 10.7505L13.2494 7.25047L13.4994 7.00047L14.4994 8.00047L10.4994 12.0005Z" fill="#6B7280"/>
</svg>