<svg xmlns="http://www.w3.org/2000/svg" width="16" height="16" viewBox="0 0 16 16" fill="none">
  <path opacity="0.2" d="M14.5 10V11.5C14.5 11.6326 14.4473 11.7598 14.3536 11.8536C14.2598 11.9474 14.1326 12 14 12H2C1.86739 12 1.74021 11.9474 1.64645 11.8536C1.55268 11.7598 1.5 11.6326 1.5 11.5V10.0707C1.5 6.47817 4.38437 3.51254 7.97687 3.50004C8.83241 3.497 9.68013 3.66288 10.4714 3.98817C11.2627 4.31346 11.982 4.79177 12.588 5.39565C13.1941 5.99954 13.6749 6.71712 14.003 7.50725C14.3311 8.29737 14.5 9.1445 14.5 10Z" fill="#6B7280"/>
  <path d="M12.9412 5.0419C12.2931 4.39231 11.5228 3.87744 10.6747 3.527C9.82668 3.17655 8.91762 2.99745 8 3.00003H7.975C4.12937 3.01315 1 6.18753 1 10.0707V11.5C1 11.7652 1.10536 12.0196 1.29289 12.2071C1.48043 12.3947 1.73478 12.5 2 12.5H14C14.2652 12.5 14.5196 12.3947 14.7071 12.2071C14.8946 12.0196 15 11.7652 15 11.5V10C15.0026 9.07839 14.8219 8.16544 14.4684 7.31426C14.115 6.46307 13.5959 5.69065 12.9412 5.0419ZM14 11.5H7.48187L10.9044 6.79378C10.9824 6.68653 11.0147 6.55266 10.9941 6.42162C10.9735 6.29058 10.9016 6.1731 10.7944 6.09503C10.6871 6.01695 10.5533 5.98468 10.4222 6.00531C10.2912 6.02594 10.1737 6.09778 10.0956 6.20503L6.245 11.5H2V10.0707C2 9.87815 2.00937 9.68815 2.02688 9.50003H3.5C3.63261 9.50003 3.75979 9.44735 3.85355 9.35358C3.94732 9.25981 4 9.13264 4 9.00003C4 8.86742 3.94732 8.74024 3.85355 8.64647C3.75979 8.55271 3.63261 8.50003 3.5 8.50003H2.20438C2.84938 6.07128 4.95438 4.23503 7.5 4.02128V5.50003C7.5 5.63264 7.55268 5.75981 7.64645 5.85358C7.74021 5.94735 7.86739 6.00003 8 6.00003C8.13261 6.00003 8.25979 5.94735 8.35355 5.85358C8.44732 5.75981 8.5 5.63264 8.5 5.50003V4.02065C9.74041 4.12504 10.9178 4.61209 11.8694 5.4145C12.8211 6.21692 13.5001 7.29508 13.8125 8.50003H12.5C12.3674 8.50003 12.2402 8.55271 12.1464 8.64647C12.0527 8.74024 12 8.86742 12 9.00003C12 9.13264 12.0527 9.25981 12.1464 9.35358C12.2402 9.44735 12.3674 9.50003 12.5 9.50003H13.9794C13.9925 9.66565 14 9.8319 14 10V11.5Z" fill="#6B7280"/>
</svg>