<svg xmlns="http://www.w3.org/2000/svg" width="16" height="16" viewBox="0 0 16 16" fill="none">
  <path opacity="0.2" d="M14 4.5L13 12L8 14.5L3 12L2 4.5L8 2L14 4.5Z" fill="#6B7280"/>
  <path d="M14.1925 4.03891L8.19251 1.53891C8.13158 1.51323 8.06613 1.5 8.00001 1.5C7.93389 1.5 7.86843 1.51323 7.80751 1.53891L1.80751 4.03891C1.706 4.08125 1.62128 4.15589 1.56648 4.25125C1.51168 4.34662 1.48985 4.45739 1.50438 4.56641L2.50438 12.0664C2.51514 12.1473 2.54554 12.2244 2.59293 12.2908C2.64032 12.3573 2.70326 12.4111 2.77626 12.4477L7.77626 14.9477C7.84572 14.9824 7.92233 15.0005 8.00001 15.0005C8.07768 15.0005 8.15429 14.9824 8.22376 14.9477L13.2238 12.4477C13.2968 12.4111 13.3597 12.3573 13.4071 12.2908C13.4545 12.2244 13.4849 12.1473 13.4956 12.0664L14.4956 4.56641C14.5102 4.45739 14.4883 4.34662 14.4335 4.25125C14.3787 4.15589 14.294 4.08125 14.1925 4.03891ZM12.5394 11.6714L8.00001 13.9414L3.46063 11.6714L2.54626 4.81266L8.00001 2.54204L13.4538 4.81266L12.5394 11.6714ZM7.56251 5.25766L5.06251 9.75766C5.03066 9.81511 5.01044 9.87828 5.00301 9.94354C4.99557 10.0088 5.00107 10.0749 5.01917 10.138C5.03728 10.2012 5.06765 10.2601 5.10854 10.3116C5.14943 10.363 5.20005 10.4058 5.25751 10.4377C5.31496 10.4695 5.37812 10.4897 5.44339 10.4972C5.50866 10.5046 5.57475 10.4991 5.63789 10.481C5.70104 10.4629 5.75999 10.4325 5.8114 10.3916C5.86281 10.3507 5.90566 10.3001 5.93751 10.2427L6.62501 9.00016H9.37501L10.0625 10.2427C10.0944 10.3001 10.1372 10.3507 10.1886 10.3916C10.24 10.4325 10.299 10.4629 10.3621 10.481C10.4253 10.4991 10.4914 10.5046 10.5566 10.4972C10.6219 10.4897 10.6851 10.4695 10.7425 10.4377C10.8 10.4058 10.8506 10.363 10.8915 10.3116C10.9324 10.2601 10.9627 10.2012 10.9808 10.138C10.9989 10.0749 11.0044 10.0088 10.997 9.94354C10.9896 9.87828 10.9694 9.81511 10.9375 9.75766L8.43751 5.25766C8.39427 5.17951 8.33088 5.11437 8.25394 5.06901C8.17701 5.02365 8.08932 4.99972 8.00001 4.99972C7.91069 4.99972 7.82301 5.02365 7.74607 5.06901C7.66913 5.11437 7.60575 5.17951 7.56251 5.25766ZM8.81688 8.00016H7.18313L8.00001 6.52954L8.81688 8.00016Z" fill="#6B7280"/>
</svg>