<svg xmlns="http://www.w3.org/2000/svg" width="16" height="16" viewBox="0 0 16 16" fill="none">
  <path opacity="0.2" d="M1.5 8H4.5V12H1.5V8ZM6.5 12H9.5V10H6.5V12ZM11.5 6V12H14.5V6H11.5Z" fill="#4B5563"/>
  <path d="M5 6C5 6.13261 4.94732 6.25979 4.85355 6.35355C4.75979 6.44732 4.63261 6.5 4.5 6.5H1.5C1.36739 6.5 1.24021 6.44732 1.14645 6.35355C1.05268 6.25979 1 6.13261 1 6C1 5.86739 1.05268 5.74021 1.14645 5.64645C1.24021 5.55268 1.36739 5.5 1.5 5.5H4.5C4.63261 5.5 4.75979 5.55268 4.85355 5.64645C4.94732 5.74021 5 5.86739 5 6ZM9.5 7.5H6.5C6.36739 7.5 6.24021 7.55268 6.14645 7.64645C6.05268 7.74021 6 7.86739 6 8C6 8.13261 6.05268 8.25979 6.14645 8.35355C6.24021 8.44732 6.36739 8.5 6.5 8.5H9.5C9.63261 8.5 9.75979 8.44732 9.85355 8.35355C9.94732 8.25979 10 8.13261 10 8C10 7.86739 9.94732 7.74021 9.85355 7.64645C9.75979 7.55268 9.63261 7.5 9.5 7.5ZM11.5 4.5H14.5C14.6326 4.5 14.7598 4.44732 14.8536 4.35355C14.9473 4.25979 15 4.13261 15 4C15 3.86739 14.9473 3.74021 14.8536 3.64645C14.7598 3.55268 14.6326 3.5 14.5 3.5H11.5C11.3674 3.5 11.2402 3.55268 11.1464 3.64645C11.0527 3.74021 11 3.86739 11 4C11 4.13261 11.0527 4.25979 11.1464 4.35355C11.2402 4.44732 11.3674 4.5 11.5 4.5ZM5 8V12C5 12.1326 4.94732 12.2598 4.85355 12.3536C4.75979 12.4473 4.63261 12.5 4.5 12.5H1.5C1.36739 12.5 1.24021 12.4473 1.14645 12.3536C1.05268 12.2598 1 12.1326 1 12V8C1 7.86739 1.05268 7.74021 1.14645 7.64645C1.24021 7.55268 1.36739 7.5 1.5 7.5H4.5C4.63261 7.5 4.75979 7.55268 4.85355 7.64645C4.94732 7.74021 5 7.86739 5 8ZM4 8.5H2V11.5H4V8.5ZM10 10V12C10 12.1326 9.94732 12.2598 9.85355 12.3536C9.75979 12.4473 9.63261 12.5 9.5 12.5H6.5C6.36739 12.5 6.24021 12.4473 6.14645 12.3536C6.05268 12.2598 6 12.1326 6 12V10C6 9.86739 6.05268 9.74021 6.14645 9.64645C6.24021 9.55268 6.36739 9.5 6.5 9.5H9.5C9.63261 9.5 9.75979 9.55268 9.85355 9.64645C9.94732 9.74021 10 9.86739 10 10ZM9 10.5H7V11.5H9V10.5ZM15 6V12C15 12.1326 14.9473 12.2598 14.8536 12.3536C14.7598 12.4473 14.6326 12.5 14.5 12.5H11.5C11.3674 12.5 11.2402 12.4473 11.1464 12.3536C11.0527 12.2598 11 12.1326 11 12V6C11 5.86739 11.0527 5.74021 11.1464 5.64645C11.2402 5.55268 11.3674 5.5 11.5 5.5H14.5C14.6326 5.5 14.7598 5.55268 14.8536 5.64645C14.9473 5.74021 15 5.86739 15 6ZM14 6.5H12V11.5H14V6.5Z" fill="#4B5563"/>
</svg>