<svg xmlns="http://www.w3.org/2000/svg" width="17" height="17" viewBox="0 0 17 17" fill="none">
  <path opacity="0.2" d="M8.5 8.86742V15.2993C8.41602 15.299 8.33348 15.2775 8.26 15.2368L2.76 12.2255C2.68147 12.1826 2.61591 12.1193 2.57017 12.0424C2.52444 11.9654 2.5002 11.8776 2.5 11.788V5.81055C2.5002 5.74052 2.5151 5.67132 2.54375 5.60742L8.5 8.86742Z" fill="#6B7280"/>
  <path d="M14.48 4.93395L8.98 1.92457C8.83305 1.84337 8.66789 1.80078 8.5 1.80078C8.33211 1.80078 8.16695 1.84337 8.02 1.92457L2.52 4.9352C2.36293 5.02114 2.23181 5.14767 2.14034 5.30159C2.04888 5.4555 2.00041 5.63115 2 5.8102V11.7877C2.00041 11.9667 2.04888 12.1424 2.14034 12.2963C2.23181 12.4502 2.36293 12.5768 2.52 12.6627L8.02 15.6733C8.16695 15.7545 8.33211 15.7971 8.5 15.7971C8.66789 15.7971 8.83305 15.7545 8.98 15.6733L14.48 12.6627C14.6371 12.5768 14.7682 12.4502 14.8597 12.2963C14.9511 12.1424 14.9996 11.9667 15 11.7877V5.81082C14.9999 5.63146 14.9516 5.45542 14.8601 5.30114C14.7686 5.14687 14.6373 5.02004 14.48 4.93395ZM8.5 2.79957L13.5212 5.54957L11.6606 6.56832L6.63875 3.81832L8.5 2.79957ZM8.5 8.29957L3.47875 5.54957L5.5975 4.38957L10.6187 7.13957L8.5 8.29957ZM3 6.42457L8 9.16082V14.5227L3 11.7883V6.42457ZM14 11.7858L9 14.5227V9.16332L11 8.06895V10.2996C11 10.4322 11.0527 10.5594 11.1464 10.6531C11.2402 10.7469 11.3674 10.7996 11.5 10.7996C11.6326 10.7996 11.7598 10.7469 11.8536 10.6531C11.9473 10.5594 12 10.4322 12 10.2996V7.52145L14 6.42457V11.7852V11.7858Z" fill="#6B7280"/>
</svg>