<svg xmlns="http://www.w3.org/2000/svg" width="17" height="16" viewBox="0 0 17 16" fill="none">
  <path opacity="0.2" d="M14 3V5.5H3V3C3 2.86739 3.05268 2.74021 3.14645 2.64645C3.24021 2.55268 3.36739 2.5 3.5 2.5H13.5C13.6326 2.5 13.7598 2.55268 13.8536 2.64645C13.9473 2.74021 14 2.86739 14 3Z" fill="#6B7280"/>
  <path d="M13.5 2H12V1.5C12 1.36739 11.9473 1.24021 11.8536 1.14645C11.7598 1.05268 11.6326 1 11.5 1C11.3674 1 11.2402 1.05268 11.1464 1.14645C11.0527 1.24021 11 1.36739 11 1.5V2H6V1.5C6 1.36739 5.94732 1.24021 5.85355 1.14645C5.75979 1.05268 5.63261 1 5.5 1C5.36739 1 5.24021 1.05268 5.14645 1.14645C5.05268 1.24021 5 1.36739 5 1.5V2H3.5C3.23478 2 2.98043 2.10536 2.79289 2.29289C2.60536 2.48043 2.5 2.73478 2.5 3V13C2.5 13.2652 2.60536 13.5196 2.79289 13.7071C2.98043 13.8946 3.23478 14 3.5 14H13.5C13.7652 14 14.0196 13.8946 14.2071 13.7071C14.3946 13.5196 14.5 13.2652 14.5 13V3C14.5 2.73478 14.3946 2.48043 14.2071 2.29289C14.0196 2.10536 13.7652 2 13.5 2ZM5 3V3.5C5 3.63261 5.05268 3.75979 5.14645 3.85355C5.24021 3.94732 5.36739 4 5.5 4C5.63261 4 5.75979 3.94732 5.85355 3.85355C5.94732 3.75979 6 3.63261 6 3.5V3H11V3.5C11 3.63261 11.0527 3.75979 11.1464 3.85355C11.2402 3.94732 11.3674 4 11.5 4C11.6326 4 11.7598 3.94732 11.8536 3.85355C11.9473 3.75979 12 3.63261 12 3.5V3H13.5V5H3.5V3H5ZM13.5 13H3.5V6H13.5V13ZM7.5 7.5V11.5C7.5 11.6326 7.44732 11.7598 7.35355 11.8536C7.25979 11.9473 7.13261 12 7 12C6.86739 12 6.74021 11.9473 6.64645 11.8536C6.55268 11.7598 6.5 11.6326 6.5 11.5V8.30875L6.22375 8.4475C6.10507 8.50684 5.96767 8.51661 5.84178 8.47465C5.7159 8.43268 5.61184 8.34243 5.5525 8.22375C5.49316 8.10507 5.48339 7.96767 5.52535 7.84178C5.56732 7.7159 5.65757 7.61184 5.77625 7.5525L6.77625 7.0525C6.85251 7.01434 6.93726 6.99632 7.02244 7.00015C7.10763 7.00397 7.19042 7.02952 7.26295 7.07437C7.33548 7.11921 7.39533 7.18186 7.43682 7.25636C7.47831 7.33086 7.50006 7.41473 7.5 7.5ZM11.1975 9.40312L10 11H11C11.1326 11 11.2598 11.0527 11.3536 11.1464C11.4473 11.2402 11.5 11.3674 11.5 11.5C11.5 11.6326 11.4473 11.7598 11.3536 11.8536C11.2598 11.9473 11.1326 12 11 12H9C8.90714 12 8.81612 11.9741 8.73713 11.9253C8.65815 11.8765 8.59431 11.8067 8.55279 11.7236C8.51126 11.6406 8.49368 11.5476 8.50202 11.4551C8.51036 11.3626 8.54429 11.2743 8.6 11.2L10.3988 8.80188C10.4397 8.74741 10.469 8.68515 10.485 8.61893C10.501 8.55271 10.5033 8.48392 10.4917 8.41679C10.4802 8.34965 10.455 8.28558 10.4178 8.22852C10.3806 8.17145 10.3321 8.12259 10.2754 8.08493C10.2186 8.04727 10.1548 8.02161 10.0877 8.00952C10.0207 7.99743 9.95187 7.99916 9.88552 8.01462C9.81917 8.03008 9.75669 8.05893 9.70189 8.09941C9.6471 8.13988 9.60115 8.19113 9.56688 8.25C9.53501 8.30868 9.49172 8.36038 9.43955 8.40205C9.38739 8.44373 9.3274 8.47453 9.26314 8.49265C9.19887 8.51076 9.13163 8.51582 9.06538 8.50753C8.99913 8.49924 8.93521 8.47776 8.87739 8.44436C8.81957 8.41097 8.76903 8.36633 8.72874 8.31308C8.68846 8.25984 8.65925 8.19906 8.64283 8.13434C8.62641 8.06962 8.62312 8.00227 8.63316 7.93626C8.64319 7.87025 8.66634 7.80692 8.70125 7.75C8.86641 7.46418 9.12125 7.24083 9.42626 7.11456C9.73127 6.9883 10.0694 6.96617 10.3883 7.05162C10.7071 7.13707 10.9889 7.32531 11.1899 7.58717C11.3909 7.84904 11.4999 8.16989 11.5 8.5C11.5011 8.82609 11.3948 9.14346 11.1975 9.40312Z" fill="#6B7280"/>
</svg>