<svg width="172" height="191" viewBox="0 0 172 191" fill="none" xmlns="http://www.w3.org/2000/svg">
<path d="M57.1534 52.566L0.845703 72.0816V190.387H57.1534V52.566Z" fill="#909CD1"/>
<path d="M57.1534 52.566L48.8251 55.4076L48.8248 190.387H57.1534V52.566Z" fill="#7986BF"/>
<path d="M151.374 77.3656L142.635 80.4145V93.3138L151.374 90.4994V77.3656Z" fill="#F3F3FF"/>
<path d="M151.374 98.4227L142.635 100.664V114.775L151.374 112.719V98.4227Z" fill="#F3F3FF"/>
<path d="M151.882 120.833L142.635 121.862V135.973L151.882 135.129V120.833Z" fill="#F3F3FF"/>
<path d="M170.957 117.601L160.695 119.034V133.953L170.957 133.109V117.601Z" fill="#F3F3FF"/>
<path d="M170.957 141.83L160.187 142.052V157.374L170.957 157.338V141.83Z" fill="#F3F3FF"/>
<path d="M151.882 143.042L142.635 143.667V157.374L151.882 157.338V143.042Z" fill="#F3F3FF"/>
<path d="M170.957 93.5755L160.695 95.8166V111.139L170.957 109.083V93.5755Z" fill="#F3F3FF"/>
<path d="M171.294 71.0059L160.695 74.356V88.061L171.294 84.7299V71.0059Z" fill="#F3F3FF"/>
<path d="M18.9496 79.489L10.2098 82.5379V95.4372L18.9496 92.6228V79.489Z" fill="#F3F3FF"/>
<path d="M18.9496 100.546L10.2098 102.787V116.898L18.9496 114.842V100.546Z" fill="#F3F3FF"/>
<path d="M19.457 122.956L10.2098 123.985V138.096L19.457 137.252V122.956Z" fill="#F3F3FF"/>
<path d="M38.5321 119.725L28.2701 121.158V136.077L38.5321 135.232V119.725Z" fill="#F3F3FF"/>
<path d="M38.5321 143.954L27.7627 144.175V159.498L38.5321 159.461V143.954Z" fill="#F3F3FF"/>
<path d="M19.457 145.165L10.2098 145.791V159.498L19.457 159.461V145.165Z" fill="#F3F3FF"/>
<path d="M38.5321 95.6989L28.2701 97.94V113.263L38.5321 111.207V95.6989Z" fill="#F3F3FF"/>
<path d="M38.8696 73.1294L28.2701 76.4794V90.1844L38.8696 86.8534V73.1294Z" fill="#F3F3FF"/>
<path d="M171.224 20.1896L113.482 0.941406V190.387H171.224V20.1896Z" fill="#AEAED6"/>
<path d="M55.6381 20.1896L113.381 0.941406L113.888 190.387H55.6381V20.1896Z" fill="#D1D1F0"/>
<path d="M79.1728 32.2051L70.433 35.254V48.1533L79.1728 45.339V32.2051Z" fill="#F3F3FF"/>
<path d="M79.1728 53.2623L70.433 55.5033V69.6145L79.1728 67.5583V53.2623Z" fill="#F3F3FF"/>
<path d="M79.6802 75.6721L70.433 76.7014V90.8125L79.6802 89.9681V75.6721Z" fill="#F3F3FF"/>
<path d="M98.7553 72.4406L88.4933 73.8738V88.7928L98.7553 87.9484V72.4406Z" fill="#F3F3FF"/>
<path d="M98.7553 96.6697L87.9859 96.8911V112.214L98.7553 112.178V96.6697Z" fill="#F3F3FF"/>
<path d="M79.6802 97.8815L70.433 98.5068V112.214L79.6802 112.178V97.8815Z" fill="#F3F3FF"/>
<path d="M98.7553 48.415L88.4933 50.6561V65.979L98.7553 63.9228V48.415Z" fill="#F3F3FF"/>
<path d="M99.0927 25.8455L88.4933 29.1955V42.9005L99.0927 39.5695V25.8455Z" fill="#F3F3FF"/>
<path d="M150.553 32.2051L159.293 35.254V48.1533L150.553 45.339V32.2051Z" fill="#F3F3FF"/>
<path d="M150.553 53.2623L159.293 55.5033V69.6145L150.553 67.5583V53.2623Z" fill="#F3F3FF"/>
<path d="M150.045 75.6721L159.293 76.7014V90.8125L150.045 89.9681V75.6721Z" fill="#F3F3FF"/>
<path d="M130.97 72.4406L141.232 73.8738V88.7928L130.97 87.9484V72.4406Z" fill="#F3F3FF"/>
<path d="M130.97 96.6697L141.74 96.8911V112.214L130.97 112.178V96.6697Z" fill="#F3F3FF"/>
<path d="M150.045 97.8815L159.293 98.5068V112.214L150.045 112.178V97.8815Z" fill="#F3F3FF"/>
<path d="M130.97 48.415L141.232 50.6561V65.979L130.97 63.9228V48.415Z" fill="#F3F3FF"/>
<path d="M130.633 25.8455L141.232 29.1955V42.9005L130.633 39.5695V25.8455Z" fill="#F3F3FF"/>
</svg>
