<svg width="52" height="52" viewBox="0 0 52 52" fill="none" xmlns="http://www.w3.org/2000/svg">
<path opacity="0.2" d="M43.875 11.375V23.3127C43.875 40.4117 29.3902 46.0769 26.4997 47.0377C26.1759 47.1494 25.8241 47.1494 25.5003 47.0377C22.6098 46.0809 8.125 40.4219 8.125 23.3167V11.375C8.125 10.944 8.29621 10.5307 8.60095 10.226C8.9057 9.92121 9.31902 9.75 9.75 9.75H42.25C42.681 9.75 43.0943 9.92121 43.399 10.226C43.7038 10.5307 43.875 10.944 43.875 11.375Z" fill="url(#paint0_linear_652_2475)"/>
<path d="M42.25 8.125H9.75C8.88805 8.125 8.0614 8.46741 7.4519 9.0769C6.84241 9.6864 6.5 10.513 6.5 11.375V23.3147C6.5 41.5167 21.9009 47.5556 24.9844 48.5814C25.6429 48.8054 26.3571 48.8054 27.0156 48.5814C30.1031 47.5556 45.5 41.5167 45.5 23.3147V11.375C45.5 10.513 45.1576 9.6864 44.5481 9.0769C43.9386 8.46741 43.112 8.125 42.25 8.125ZM42.25 23.3167C42.25 39.2458 28.7727 44.5677 26 45.4939C23.2517 44.5778 9.75 39.26 9.75 23.3167V11.375H42.25V23.3167ZM16.7253 28.7747C16.4204 28.4698 16.2491 28.0562 16.2491 27.625C16.2491 27.1938 16.4204 26.7802 16.7253 26.4753C17.0302 26.1704 17.4438 25.9991 17.875 25.9991C18.3062 25.9991 18.7198 26.1704 19.0247 26.4753L22.75 30.2006L32.9753 19.9753C33.1263 19.8243 33.3055 19.7046 33.5028 19.6229C33.7001 19.5412 33.9115 19.4991 34.125 19.4991C34.3385 19.4991 34.5499 19.5412 34.7472 19.6229C34.9445 19.7046 35.1237 19.8243 35.2747 19.9753C35.4257 20.1263 35.5454 20.3055 35.6271 20.5028C35.7088 20.7001 35.7509 20.9115 35.7509 21.125C35.7509 21.3385 35.7088 21.5499 35.6271 21.7472C35.5454 21.9445 35.4257 22.1237 35.2747 22.2747L23.8997 33.6497C23.7488 33.8008 23.5695 33.9206 23.3723 34.0024C23.175 34.0842 22.9636 34.1263 22.75 34.1263C22.5364 34.1263 22.325 34.0842 22.1277 34.0024C21.9305 33.9206 21.7512 33.8008 21.6003 33.6497L16.7253 28.7747Z" fill="url(#paint1_linear_652_2475)"/>
<defs>
<linearGradient id="paint0_linear_652_2475" x1="18.8366" y1="32.6825" x2="41.9407" y2="33.5569" gradientUnits="userSpaceOnUse">
<stop stop-color="#00B3FF"/>
<stop offset="0.505" stop-color="#CE0CFF"/>
<stop offset="1" stop-color="#2C176E"/>
</linearGradient>
<linearGradient id="paint1_linear_652_2475" x1="18.1854" y1="33.0536" x2="43.3896" y2="34.0108" gradientUnits="userSpaceOnUse">
<stop stop-color="#00B3FF"/>
<stop offset="0.505" stop-color="#CE0CFF"/>
<stop offset="1" stop-color="#2C176E"/>
</linearGradient>
</defs>
</svg>
