<svg width="48" height="48" viewBox="0 0 48 48" fill="none" xmlns="http://www.w3.org/2000/svg">
<path d="M33.9321 24.0639L37.6081 35.7319L27.8441 32.8439L18.0761 47.012L21.7521 31.0959L18.7881 30.3759L13.3041 29.0399L12.0281 28.7279L13.5841 27.8319L24.0481 21.7879L26.3001 11.8639L27.8441 5.07593L29.3841 10.0839L30.4921 13.6839L31.6361 17.4039L43.656 10.4639L33.9321 24.0639Z" fill="#625CCB" stroke="white" strokeWidth="0.4" strokeLinecap="round" strokeLinejoin="round"/>
<path d="M43.656 10.464L31.636 17.404L30.492 13.684L29.384 10.084L35.656 6.46399L43.656 10.464Z" fill="#625CCB" stroke="white" strokeWidth="0.4" strokeLinecap="round" strokeLinejoin="round"/>
<path d="M21.7522 31.0959L18.0762 47.012L10.0762 43.012L13.3042 29.0399L18.7882 30.3759L21.7522 31.0959Z" fill="#625CCB" stroke="white" strokeWidth="0.4" strokeLinecap="round" strokeLinejoin="round"/>
<path d="M24.0481 21.788L13.5841 27.832L12.0281 28.728L4.02808 24.728L16.0481 17.788L24.0481 21.788Z" fill="#625CCB" stroke="white" strokeWidth="0.4" strokeLinecap="round" strokeLinejoin="round"/>
<path d="M27.8441 5.07591L26.3001 11.8639L24.0481 21.7879L16.0481 17.7879L19.8441 1.07593L27.8441 5.07591Z" fill="#625CCB" stroke="white" strokeWidth="0.4" strokeLinecap="round" strokeLinejoin="round"/>
</svg>
