<svg width="48" height="48" viewBox="0 0 48 48" fill="none" xmlns="http://www.w3.org/2000/svg">
<path d="M35.3093 10.1726C35.3093 12.4084 34.6145 14.7284 33.2251 17.1242C33.1577 17.2379 33.0903 17.3516 33.023 17.461C33.0019 17.4989 32.9809 17.5368 32.9556 17.5747C31.6209 19.7431 30.0419 21.3516 28.2146 22.4084C26.2651 23.5326 24.5977 23.701 23.2082 22.9095C22.063 22.2568 21.3893 21.1116 21.1872 19.4737C21.1451 19.1284 21.124 18.7537 21.124 18.3621C21.124 17.9916 21.1409 17.621 21.183 17.2505C21.3724 15.3558 22.0461 13.4105 23.2082 11.4105C24.2567 9.60419 25.4651 8.15577 26.8293 7.06945C27.2756 6.71998 27.7345 6.40419 28.2146 6.12629C30.0167 5.0905 31.5745 4.86734 32.8967 5.46103L33.2251 5.62524C34.6145 6.41682 35.3093 7.93261 35.3093 10.1726Z" fill="#625CCB" stroke="white" strokeWidth="0.421053" strokeLinecap="round" strokeLinejoin="round"/>
<path d="M40.7242 21.3095C40.3831 21.1411 39.9958 21.0484 39.5663 21.0442C37.7347 21.0484 35.8779 21.3347 33.9831 21.9032H33.9789C32.0884 22.4674 30.1684 23.3137 28.2147 24.4421C26.2652 25.5663 24.3452 26.939 22.4547 28.5558C20.56 30.1768 18.6989 32.0379 16.8673 34.1474C16.0673 35.0821 15.4189 36.1305 14.9179 37.2926C14.8758 37.3811 14.8421 37.4653 14.8042 37.5537C14.2863 38.8169 14.0294 40.0253 14.0294 41.179V46.8758L5.6084 42.6653V36.9684C5.6084 35.8147 5.86524 34.6063 6.38314 33.3432C6.90103 32.0758 7.58734 30.9432 8.44629 29.9368C10.2779 27.8274 12.1389 25.9663 14.0337 24.3453C15.6379 22.9726 17.2631 21.7768 18.9137 20.7621L23.2084 22.9095C24.5979 23.7011 26.2652 23.5326 28.2147 22.4084C30.0421 21.3516 31.621 19.7432 32.9558 17.5747C32.981 17.5368 33.0021 17.499 33.0231 17.4611L40.7242 21.3095Z" fill="#625CCB" stroke="white" strokeWidth="0.421053" strokeLinecap="round" strokeLinejoin="round"/>
<path d="M42.404 24.7958V30.4968L14.0293 46.8758V41.1789C14.0293 40.0252 14.2861 38.8168 14.804 37.5537C14.8419 37.4652 14.8756 37.381 14.9177 37.2926C15.4188 36.1305 16.0672 35.0821 16.8672 34.1473C18.6988 32.0379 20.5598 30.1768 22.4546 28.5558C24.3451 26.9389 26.2651 25.5663 28.2146 24.4421C30.1682 23.3137 32.0882 22.4673 33.9788 21.9031H33.983C35.8777 21.3347 37.7346 21.0484 39.5661 21.0442C39.9956 21.0484 40.383 21.141 40.724 21.3095H40.7367C41.0777 21.4863 41.3725 21.7347 41.6293 22.0673C42.1472 22.7326 42.404 23.6463 42.404 24.7958Z" fill="#625CCB" stroke="white" strokeWidth="0.421053" strokeLinecap="round" strokeLinejoin="round"/>
<path d="M32.8968 5.46107C31.5747 4.86739 30.0168 5.09055 28.2147 6.12633C27.7347 6.40423 27.2758 6.72002 26.8294 7.06949C25.4652 8.15581 24.2568 9.60423 23.2084 11.4105C22.0463 13.4105 21.3726 15.3558 21.1831 17.2505C21.141 17.6211 21.1242 17.9916 21.1242 18.3621C21.1242 18.7537 21.1452 19.1284 21.1873 19.4737C21.3894 21.1116 22.0631 22.2569 23.2084 22.9095L18.9137 20.7621L15.1158 18.8632L14.7873 18.699C13.3979 17.9074 12.7031 16.3916 12.7031 14.1516C12.7031 11.9116 13.3979 9.59581 14.7873 7.20002C16.1768 4.80423 17.8442 3.04423 19.7937 1.9158C21.7473 0.791593 23.4147 0.623172 24.8042 1.41475L32.8968 5.46107Z" fill="#625CCB" stroke="white" strokeWidth="0.421053" strokeLinecap="round" strokeLinejoin="round"/>
</svg>
