<svg width="52" height="52" viewBox="0 0 52 52" fill="none" xmlns="http://www.w3.org/2000/svg">
<path opacity="0.2" d="M45.5 17.875V40.625C45.5 41.056 45.3288 41.4693 45.024 41.774C44.7193 42.0788 44.306 42.25 43.875 42.25H11.375C10.513 42.25 9.6864 41.9076 9.0769 41.2981C8.46741 40.6886 8.125 39.862 8.125 39V13C8.125 13.862 8.46741 14.6886 9.0769 15.2981C9.6864 15.9076 10.513 16.25 11.375 16.25H43.875C44.306 16.25 44.7193 16.4212 45.024 16.726C45.3288 17.0307 45.5 17.444 45.5 17.875Z" fill="url(#paint0_linear_652_2481)"/>
<path d="M43.875 14.625H11.375C10.944 14.625 10.5307 14.4538 10.226 14.149C9.92121 13.8443 9.75 13.431 9.75 13C9.75 12.569 9.92121 12.1557 10.226 11.851C10.5307 11.5462 10.944 11.375 11.375 11.375H39C39.431 11.375 39.8443 11.2038 40.149 10.899C40.4538 10.5943 40.625 10.181 40.625 9.75C40.625 9.31902 40.4538 8.9057 40.149 8.60095C39.8443 8.29621 39.431 8.125 39 8.125H11.375C10.0821 8.125 8.84209 8.63861 7.92785 9.55285C7.01361 10.4671 6.5 11.7071 6.5 13V39C6.5 40.2929 7.01361 41.5329 7.92785 42.4471C8.84209 43.3614 10.0821 43.875 11.375 43.875H43.875C44.737 43.875 45.5636 43.5326 46.1731 42.9231C46.7826 42.3136 47.125 41.487 47.125 40.625V17.875C47.125 17.013 46.7826 16.1864 46.1731 15.5769C45.5636 14.9674 44.737 14.625 43.875 14.625ZM43.875 40.625H11.375C10.944 40.625 10.5307 40.4538 10.226 40.149C9.92121 39.8443 9.75 39.431 9.75 39V17.5967C10.2718 17.7817 10.8214 17.8758 11.375 17.875H43.875V40.625ZM34.125 28.4375C34.125 27.9554 34.268 27.4841 34.5358 27.0833C34.8036 26.6825 35.1843 26.37 35.6297 26.1855C36.0751 26.0011 36.5652 25.9528 37.038 26.0468C37.5109 26.1409 37.9452 26.373 38.2861 26.7139C38.627 27.0548 38.8591 27.4891 38.9532 27.962C39.0472 28.4348 38.9989 28.9249 38.8145 29.3703C38.63 29.8157 38.3175 30.1964 37.9167 30.4642C37.5159 30.732 37.0446 30.875 36.5625 30.875C35.916 30.875 35.296 30.6182 34.8389 30.1611C34.3818 29.704 34.125 29.084 34.125 28.4375Z" fill="url(#paint1_linear_652_2481)"/>
<defs>
<linearGradient id="paint0_linear_652_2481" x1="19.3235" y1="30.9489" x2="43.4507" y2="32.1685" gradientUnits="userSpaceOnUse">
<stop stop-color="#00B3FF"/>
<stop offset="0.505" stop-color="#CE0CFF"/>
<stop offset="1" stop-color="#2C176E"/>
</linearGradient>
<linearGradient id="paint1_linear_652_2481" x1="18.6723" y1="30.0625" x2="44.9115" y2="31.2421" gradientUnits="userSpaceOnUse">
<stop stop-color="#00B3FF"/>
<stop offset="0.505" stop-color="#CE0CFF"/>
<stop offset="1" stop-color="#2C176E"/>
</linearGradient>
</defs>
</svg>
