<svg width="41" height="40" viewBox="0 0 41 40" fill="none" xmlns="http://www.w3.org/2000/svg">
<rect x="0.5" width="40" height="40" rx="20" fill="#FCEEEE"/>
<path fillRule="evenodd" clipRule="evenodd" d="M18.9007 11.0039C20.0557 9.00391 22.9437 9.00391 24.0977 11.0039L31.4527 23.7519C32.6067 25.7519 31.1627 28.2519 28.8537 28.2519H14.1447C11.8357 28.2519 10.3927 25.7519 11.5467 23.7519L18.8997 11.0039H18.9007ZM21.4997 16.2509C21.6986 16.2509 21.8894 16.3299 22.03 16.4706C22.1707 16.6112 22.2497 16.802 22.2497 17.0009V20.7509C22.2497 20.9498 22.1707 21.1406 22.03 21.2812C21.8894 21.4219 21.6986 21.5009 21.4997 21.5009C21.3008 21.5009 21.11 21.4219 20.9694 21.2812C20.8287 21.1406 20.7497 20.9498 20.7497 20.7509V17.0009C20.7497 16.802 20.8287 16.6112 20.9694 16.4706C21.11 16.3299 21.3008 16.2509 21.4997 16.2509ZM21.4997 24.5009C21.6986 24.5009 21.8894 24.4219 22.03 24.2812C22.1707 24.1406 22.2497 23.9498 22.2497 23.7509C22.2497 23.552 22.1707 23.3612 22.03 23.2206C21.8894 23.0799 21.6986 23.0009 21.4997 23.0009C21.3008 23.0009 21.11 23.0799 20.9694 23.2206C20.8287 23.3612 20.7497 23.552 20.7497 23.7509C20.7497 23.9498 20.8287 24.1406 20.9694 24.2812C21.11 24.4219 21.3008 24.5009 21.4997 24.5009Z" fill="#CF4E4E"/>
</svg>
