<svg width="145" height="207" viewBox="0 0 145 207" fill="none" xmlns="http://www.w3.org/2000/svg">
<g clip-path="url(#clip0_3582_6403)">
<mask id="mask0_3582_6403" style="mask-type:alpha" maskUnits="userSpaceOnUse" x="-16" y="-10" width="215" height="216">
<path d="M-15.5 -9.07812H198.5V205.281H-15.5V-9.07812Z" fill="url(#paint0_radial_3582_6403)" stroke="#E5E7EB"/>
</mask>
<g mask="url(#mask0_3582_6403)">
<path d="M91.4998 128.546C108.286 128.546 121.894 114.916 121.894 98.1014C121.894 81.287 108.286 67.6562 91.4998 67.6562C74.7135 67.6562 61.1055 81.287 61.1055 98.1014C61.1055 114.916 74.7135 128.546 91.4998 128.546Z" stroke="#D1D5DB"/>
<path d="M91.4998 128.546C108.286 128.546 121.894 114.916 121.894 98.1014C121.894 81.287 108.286 67.6562 91.4998 67.6562C74.7135 67.6562 61.1055 81.287 61.1055 98.1014C61.1055 114.916 74.7135 128.546 91.4998 128.546Z" stroke="#D1D5DB"/>
<path d="M91.4995 143.929C116.767 143.929 137.251 123.411 137.251 98.1013C137.251 72.7913 116.767 52.2734 91.4995 52.2734C66.2317 52.2734 45.748 72.7913 45.748 98.1013C45.748 123.411 66.2317 143.929 91.4995 143.929Z" stroke="#D1D5DB"/>
<path d="M91.5012 159.312C125.251 159.312 152.61 131.907 152.61 98.1013C152.61 64.2956 125.251 36.8906 91.5012 36.8906C57.7518 36.8906 30.3926 64.2956 30.3926 98.1013C30.3926 131.907 57.7518 159.312 91.5012 159.312Z" stroke="#D1D5DB"/>
<path d="M91.5009 174.695C133.732 174.695 167.967 140.403 167.967 98.1013C167.967 55.7999 133.732 21.5078 91.5009 21.5078C49.2701 21.5078 15.0352 55.7999 15.0352 98.1013C15.0352 140.403 49.2701 174.695 91.5009 174.695Z" stroke="#D1D5DB"/>
<path d="M91.5006 190.078C142.213 190.078 183.324 148.898 183.324 98.1013C183.324 47.3042 142.213 6.125 91.5006 6.125C40.7883 6.125 -0.322266 47.3042 -0.322266 98.1013C-0.322266 148.898 40.7883 190.078 91.5006 190.078Z" stroke="#D1D5DB"/>
<path d="M91.5004 205.46C150.694 205.46 198.68 157.394 198.68 98.1012C198.68 38.8085 150.694 -9.25781 91.5004 -9.25781C32.3065 -9.25781 -15.6797 38.8085 -15.6797 98.1012C-15.6797 157.394 32.3065 205.46 91.5004 205.46Z" stroke="#D1D5DB"/>
</g>
<g filter="url(#filter0_d_3582_6403)">
<rect x="78" y="83.6914" width="28" height="28" rx="6" fill="white"/>
<path d="M97.3218 97.6913C99.2475 94.9874 100.23 92.1929 98.8639 90.8272C97.4983 89.4616 94.7038 90.4436 91.9999 92.3694C89.296 90.4436 86.5014 89.4616 85.1358 90.8272C83.7702 92.1929 84.7522 94.9874 86.678 97.6913C84.7522 100.395 83.7702 103.19 85.1358 104.555C85.5757 104.995 86.1632 105.191 86.8475 105.191C88.2913 105.191 90.1663 104.319 92.0038 103.013C93.8335 104.319 95.7085 105.191 97.1561 105.191C97.8405 105.191 98.4288 104.994 98.8679 104.555C100.23 103.19 99.2475 100.395 97.3218 97.6913ZM97.9804 91.7108C98.5772 92.3077 98.1741 94.2421 96.5335 96.6546C96.0145 96.0121 95.4619 95.3974 94.878 94.8132C94.2937 94.2301 93.6791 93.6783 93.0366 93.16C95.4491 91.5194 97.3835 91.1132 97.9804 91.7108ZM95.7725 97.6913C95.2197 98.3906 94.626 99.0566 93.9944 99.6858C93.3652 100.317 92.6992 100.911 91.9999 101.464C91.3005 100.911 90.6345 100.317 90.0054 99.6858C89.3738 99.0566 88.7801 98.3906 88.2272 97.6913C89.3364 96.2936 90.6022 95.0278 91.9999 93.9186C92.6992 94.4715 93.3652 95.0652 93.9944 95.6968C94.626 96.3259 95.2197 96.9919 95.7725 97.6913ZM86.0194 91.7108C86.1913 91.5382 86.4749 91.4491 86.8491 91.4491C87.7725 91.4491 89.2468 91.9882 90.9624 93.16C90.3205 93.6787 89.7062 94.2305 89.1218 94.8132C88.5387 95.3975 87.9869 96.0121 87.4686 96.6546C85.828 94.2421 85.4225 92.3077 86.0194 91.7108ZM86.0194 103.672C85.4225 103.075 85.828 101.141 87.4686 98.728C87.9877 99.3705 88.5403 99.9852 89.1241 100.569C89.708 101.152 90.3219 101.704 90.9632 102.223C88.5507 103.863 86.6163 104.269 86.0194 103.672ZM97.9804 103.672C97.3835 104.269 95.4491 103.866 93.0366 102.225C93.6788 101.705 94.2934 101.153 94.878 100.569C95.4611 99.9851 96.0129 99.3705 96.5311 98.728C98.1718 101.141 98.5772 103.075 97.9804 103.672ZM92.9374 97.6913C92.9374 97.8767 92.8824 98.058 92.7794 98.2121C92.6764 98.3663 92.53 98.4865 92.3586 98.5574C92.1873 98.6284 91.9988 98.647 91.817 98.6108C91.6351 98.5746 91.4681 98.4853 91.337 98.3542C91.2059 98.2231 91.1166 98.056 91.0804 97.8742C91.0442 97.6923 91.0628 97.5038 91.1337 97.3325C91.2047 97.1612 91.3249 97.0148 91.479 96.9118C91.6332 96.8088 91.8145 96.7538 91.9999 96.7538C92.2485 96.7538 92.487 96.8526 92.6628 97.0284C92.8386 97.2042 92.9374 97.4427 92.9374 97.6913Z" fill="#027139"/>
<g opacity="0.4">
<path d="M95.7621 93.9283C95.2119 90.6546 93.9303 87.9842 91.999 87.9842C90.0677 87.9842 88.7861 90.6546 88.2359 93.9283C84.9622 94.4785 82.2918 95.7601 82.2918 97.6914C82.2918 99.6227 84.9622 100.904 88.2359 101.455C88.7861 104.728 90.0677 107.399 91.999 107.399C92.621 107.399 93.1751 107.122 93.6591 106.638C94.6799 105.617 95.3887 103.674 95.7649 101.452C97.9818 101.081 99.9247 100.372 100.948 99.3487C101.432 98.8648 101.709 98.3096 101.709 97.6886C101.706 95.7601 99.0358 94.4785 95.7621 93.9283ZM91.999 89.2337C92.8431 89.2337 93.9259 90.8866 94.4717 93.7526C93.6503 93.6653 92.825 93.6214 91.999 93.6211C91.1736 93.622 90.3488 93.6664 89.528 93.7543C90.0738 90.8883 91.1544 89.2332 91.999 89.2337ZM94.6667 95.0237C94.7703 95.9092 94.8214 96.7999 94.8197 97.6914C94.8214 98.5829 94.7703 99.4737 94.6667 100.359C93.7813 100.463 92.8905 100.514 91.999 100.512C91.1076 100.514 90.2168 100.463 89.3313 100.359C89.1273 98.5865 89.1273 96.7963 89.3313 95.0237C90.2168 94.9201 91.1076 94.869 91.999 94.8707C92.8905 94.869 93.7813 94.9201 94.6667 95.0237ZM83.5414 97.6914C83.5408 97.4478 83.6784 97.1843 83.943 96.9197C84.5959 96.2667 86.0195 95.6054 88.0613 95.221C87.9742 96.0416 87.93 96.8662 87.9287 97.6914C87.9296 98.5168 87.9741 99.3417 88.0619 100.162C85.1959 99.6166 83.5414 98.5355 83.5414 97.6914ZM91.999 106.149C91.1549 106.149 90.0738 104.495 89.528 101.629C90.3493 101.716 91.1747 101.76 92.0007 101.76C92.8255 101.759 93.6497 101.715 94.47 101.629C93.9242 104.495 92.8437 106.15 91.999 106.149ZM100.457 97.6914C100.457 98.5361 98.8038 99.6183 95.9378 100.164C96.0246 99.3427 96.0685 98.5174 96.0693 97.6914C96.0684 96.866 96.024 96.0412 95.9362 95.2204C98.8022 95.7662 100.457 96.8473 100.457 97.6914ZM92.6619 97.0285C92.793 97.1596 92.8823 97.3267 92.9185 97.5085C92.9547 97.6904 92.9361 97.8789 92.8652 98.0502C92.7942 98.2215 92.674 98.3679 92.5199 98.4709C92.3657 98.5739 92.1844 98.6289 91.999 98.6289C91.8136 98.6289 91.6323 98.5739 91.4782 98.4709C91.324 98.3679 91.2038 98.2215 91.1329 98.0502C91.0619 97.8789 91.0434 97.6904 91.0795 97.5085C91.1157 97.3267 91.205 97.1596 91.3361 97.0285C91.5119 96.8527 91.7504 96.7539 91.999 96.7539C92.2477 96.7539 92.4861 96.8527 92.6619 97.0285Z" fill="#027139"/>
</g>
</g>
</g>
<defs>
<filter id="filter0_d_3582_6403" x="75.8574" y="82.5508" width="32.2852" height="32.2812" filterUnits="userSpaceOnUse" color-interpolation-filters="sRGB">
<feFlood flood-opacity="0" result="BackgroundImageFix"/>
<feColorMatrix in="SourceAlpha" type="matrix" values="0 0 0 0 0 0 0 0 0 0 0 0 0 0 0 0 0 0 127 0" result="hardAlpha"/>
<feOffset dy="1"/>
<feGaussianBlur stdDeviation="1"/>
<feColorMatrix type="matrix" values="0 0 0 0 0 0 0 0 0 0 0 0 0 0 0 0 0 0 0.05 0"/>
<feBlend mode="normal" in2="BackgroundImageFix" result="effect1_dropShadow_3582_6403"/>
<feBlend mode="normal" in="SourceGraphic" in2="effect1_dropShadow_3582_6403" result="shape"/>
</filter>
<radialGradient id="paint0_radial_3582_6403" cx="0" cy="0" r="1" gradientUnits="userSpaceOnUse" gradientTransform="translate(91.5 -9.57815) rotate(90) scale(215.359 112.217)">
<stop/>
<stop offset="0.953125" stop-opacity="0"/>
</radialGradient>
<clipPath id="clip0_3582_6403">
<rect width="199" height="216" fill="white" transform="translate(0 -9.89844)"/>
</clipPath>
</defs>
</svg>
