<svg width="10" height="12" viewBox="0 0 10 12" fill="none" xmlns="http://www.w3.org/2000/svg">
<path d="M9.24728 7.18453L5.30977 11.122C5.26914 11.1627 5.22089 11.195 5.16778 11.217C5.11467 11.239 5.05774 11.2503 5.00024 11.2503C4.94275 11.2503 4.88582 11.239 4.83271 11.217C4.7796 11.195 4.73134 11.1627 4.69071 11.122L0.753212 7.18453C0.671119 7.10244 0.625 6.9911 0.625 6.875C0.625 6.7589 0.671119 6.64756 0.753212 6.56547C0.835305 6.48338 0.946647 6.43726 1.06274 6.43726C1.17884 6.43726 1.29018 6.48338 1.37227 6.56547L4.56274 9.75648V1.1875C4.56274 1.07147 4.60884 0.960188 4.69088 0.878141C4.77293 0.796094 4.88421 0.75 5.00024 0.75C5.11628 0.75 5.22756 0.796094 5.3096 0.878141C5.39165 0.960188 5.43774 1.07147 5.43774 1.1875V9.75648L8.62821 6.56547C8.71031 6.48338 8.82165 6.43726 8.93774 6.43726C9.05384 6.43726 9.16518 6.48338 9.24728 6.56547C9.32937 6.64756 9.37549 6.7589 9.37549 6.875C9.37549 6.9911 9.32937 7.10244 9.24728 7.18453Z" fill="#9CA3AF"/>
</svg>
