<svg width="14" height="14" viewBox="0 0 14 14" fill="none" xmlns="http://www.w3.org/2000/svg">
<path opacity="0.2" d="M11.375 9.625L9.625 11.375V7.875L11.375 9.625ZM4.375 6.125V2.625L2.625 4.375L4.375 6.125Z" fill="#1F2937"/>
<path d="M11.6849 9.31581L9.93488 7.56581C9.87369 7.50456 9.7957 7.46283 9.71079 7.44593C9.62588 7.42902 9.53786 7.43768 9.45787 7.47082C9.37789 7.50396 9.30954 7.56009 9.26147 7.6321C9.2134 7.70411 9.18778 7.78876 9.18784 7.87534V9.18784H2.62534C2.50931 9.18784 2.39803 9.23394 2.31599 9.31598C2.23394 9.39803 2.18784 9.50931 2.18784 9.62534C2.18784 9.74138 2.23394 9.85266 2.31599 9.9347C2.39803 10.0168 2.50931 10.0628 2.62534 10.0628H9.18784V11.3753C9.18778 11.4619 9.2134 11.5466 9.26147 11.6186C9.30954 11.6906 9.37789 11.7467 9.45787 11.7799C9.53786 11.813 9.62588 11.8217 9.71079 11.8048C9.7957 11.7879 9.87369 11.7461 9.93488 11.6849L11.6849 9.93488C11.7256 9.89424 11.7578 9.84599 11.7798 9.79288C11.8019 9.73977 11.8132 9.68284 11.8132 9.62534C11.8132 9.56785 11.8019 9.51092 11.7798 9.45781C11.7578 9.4047 11.7256 9.35644 11.6849 9.31581ZM10.0628 10.3193V8.93136L10.7568 9.62534L10.0628 10.3193ZM4.06581 6.43652C4.1271 6.49787 4.20524 6.53963 4.2903 6.55649C4.37537 6.57335 4.46352 6.56454 4.54358 6.5312C4.62363 6.49785 4.69197 6.44147 4.73991 6.36921C4.78785 6.29694 4.81324 6.21206 4.81284 6.12534V4.81284H11.3753C11.4914 4.81284 11.6027 4.76675 11.6847 4.6847C11.7668 4.60266 11.8128 4.49138 11.8128 4.37534C11.8128 4.25931 11.7668 4.14803 11.6847 4.06599C11.6027 3.98394 11.4914 3.93784 11.3753 3.93784H4.81284V2.62534C4.81291 2.53877 4.78729 2.45411 4.73922 2.3821C4.69115 2.31009 4.6228 2.25396 4.54282 2.22082C4.46283 2.18768 4.37481 2.17902 4.2899 2.19593C4.20499 2.21284 4.127 2.25456 4.06581 2.31581L2.31581 4.06581C2.27514 4.10645 2.24287 4.1547 2.22085 4.20781C2.19883 4.26092 2.1875 4.31785 2.1875 4.37534C2.1875 4.43284 2.19883 4.48977 2.22085 4.54288C2.24287 4.59599 2.27514 4.64424 2.31581 4.68488L4.06581 6.43652ZM3.93784 3.68136V5.06933L3.24386 4.37534L3.93784 3.68136Z" fill="#1F2937"/>
</svg>
