<svg width="246" height="122" viewBox="0 0 246 122" fill="none" xmlns="http://www.w3.org/2000/svg">
<ellipse cx="123" cy="85.75" rx="123" ry="35.5" fill="#77FF9E" fill-opacity="0.5"/>
<path d="M62 7.6875C62 3.44181 65.4418 0 69.6875 0H177.312C181.558 0 185 3.44181 185 7.6875V24.9844H62V7.6875Z" fill="#73C4FF"/>
<path fillRule="evenodd" clipRule="evenodd" d="M185 22.1016H62V24.9844H185V22.1016Z" fill="#0C3932"/>
<path fillRule="evenodd" clipRule="evenodd" d="M96.9914 47.3188L83.7031 34.0304L86.4211 31.3125L99.7094 44.6008L96.9914 47.3188Z" fill="#0C3932"/>
<path fillRule="evenodd" clipRule="evenodd" d="M83.8678 44.7649L97.1561 31.4766L99.874 34.1945L86.5857 47.4828L83.8678 44.7649Z" fill="#0C3932"/>
<path fillRule="evenodd" clipRule="evenodd" d="M152.726 47.3188L139.438 34.0304L142.155 31.3125L155.444 44.6008L152.726 47.3188Z" fill="#0C3932"/>
<path fillRule="evenodd" clipRule="evenodd" d="M139.602 44.7649L152.89 31.4766L155.608 34.1945L142.32 47.4828L139.602 44.7649Z" fill="#0C3932"/>
<path fillRule="evenodd" clipRule="evenodd" d="M177.312 2.88281H69.6875C67.0339 2.88281 64.8828 5.03394 64.8828 7.6875V78.7969C64.8828 81.4504 67.0339 83.6016 69.6875 83.6016H177.312C179.966 83.6016 182.117 81.4504 182.117 78.7969V7.6875C182.117 5.03394 179.966 2.88281 177.312 2.88281ZM69.6875 0C65.4418 0 62 3.44181 62 7.6875V78.7969C62 83.0426 65.4418 86.4844 69.6875 86.4844H177.312C181.558 86.4844 185 83.0426 185 78.7969V7.6875C185 3.44181 181.558 0 177.312 0H69.6875Z" fill="#0C3932"/>
<path fillRule="evenodd" clipRule="evenodd" d="M170.586 14.4141C171.647 14.4141 172.508 13.5536 172.508 12.4922C172.508 11.4308 171.647 10.5703 170.586 10.5703C169.525 10.5703 168.664 11.4308 168.664 12.4922C168.664 13.5536 169.525 14.4141 170.586 14.4141ZM170.586 17.2969C173.239 17.2969 175.391 15.1457 175.391 12.4922C175.391 9.83863 173.239 7.6875 170.586 7.6875C167.932 7.6875 165.781 9.83863 165.781 12.4922C165.781 15.1457 167.932 17.2969 170.586 17.2969Z" fill="#0C3932"/>
<path fillRule="evenodd" clipRule="evenodd" d="M159.055 14.4141C160.116 14.4141 160.977 13.5536 160.977 12.4922C160.977 11.4308 160.116 10.5703 159.055 10.5703C157.993 10.5703 157.133 11.4308 157.133 12.4922C157.133 13.5536 157.993 14.4141 159.055 14.4141ZM159.055 17.2969C161.708 17.2969 163.859 15.1457 163.859 12.4922C163.859 9.83863 161.708 7.6875 159.055 7.6875C156.401 7.6875 154.25 9.83863 154.25 12.4922C154.25 15.1457 156.401 17.2969 159.055 17.2969Z" fill="#0C3932"/>
<path fillRule="evenodd" clipRule="evenodd" d="M147.523 14.4141C148.585 14.4141 149.445 13.5536 149.445 12.4922C149.445 11.4308 148.585 10.5703 147.523 10.5703C146.462 10.5703 145.602 11.4308 145.602 12.4922C145.602 13.5536 146.462 14.4141 147.523 14.4141ZM147.523 17.2969C150.177 17.2969 152.328 15.1457 152.328 12.4922C152.328 9.83863 150.177 7.6875 147.523 7.6875C144.87 7.6875 142.719 9.83863 142.719 12.4922C142.719 15.1457 144.87 17.2969 147.523 17.2969Z" fill="#0C3932"/>
<path fillRule="evenodd" clipRule="evenodd" d="M123.5 51.8906C109.702 51.8906 98.5156 63.0765 98.5156 76.875H94.6719C94.6719 60.9537 107.579 48.0469 123.5 48.0469C139.421 48.0469 152.328 60.9537 152.328 76.875H148.484C148.484 63.0765 137.298 51.8906 123.5 51.8906Z" fill="#0C3932"/>
</svg>
