<svg width="14" height="12" viewBox="0 0 14 12" fill="none" xmlns="http://www.w3.org/2000/svg">
<path d="M12.9496 9.28621L8.16719 0.980817C8.04768 0.777339 7.87707 0.608624 7.67227 0.491397C7.46747 0.37417 7.23559 0.3125 6.99961 0.3125C6.76363 0.3125 6.53175 0.37417 6.32695 0.491397C6.12215 0.608624 5.95154 0.777339 5.83203 0.980817L1.04961 9.28621C0.934622 9.48302 0.874023 9.70686 0.874023 9.9348C0.874023 10.1627 0.934622 10.3866 1.04961 10.5834C1.16759 10.7881 1.33791 10.9577 1.54309 11.0749C1.74827 11.192 1.98093 11.2525 2.21719 11.25H11.782C12.0181 11.2523 12.2505 11.1918 12.4555 11.0746C12.6605 10.9575 12.8306 10.7879 12.9485 10.5834C13.0637 10.3867 13.1245 10.1629 13.1247 9.93495C13.1248 9.70701 13.0644 9.48312 12.9496 9.28621ZM12.1911 10.1453C12.1494 10.2165 12.0895 10.2752 12.0177 10.3156C11.9458 10.3559 11.8645 10.3765 11.782 10.375H2.21719C2.13476 10.3765 2.05344 10.3559 1.98156 10.3156C1.90967 10.2752 1.84982 10.2165 1.80813 10.1453C1.77036 10.0814 1.75044 10.0085 1.75044 9.93425C1.75044 9.86 1.77036 9.7871 1.80813 9.72316L6.59055 1.41777C6.63308 1.34699 6.69321 1.28842 6.76508 1.24776C6.83695 1.2071 6.91813 1.18573 7.0007 1.18573C7.08328 1.18573 7.16445 1.2071 7.23633 1.24776C7.3082 1.28842 7.36833 1.34699 7.41086 1.41777L12.1933 9.72316C12.2307 9.78729 12.2503 9.8603 12.2499 9.93455C12.2495 10.0088 12.2292 10.0816 12.1911 10.1453ZM6.56211 6.87504V4.68754C6.56211 4.5715 6.6082 4.46022 6.69025 4.37818C6.7723 4.29613 6.88358 4.25004 6.99961 4.25004C7.11564 4.25004 7.22692 4.29613 7.30897 4.37818C7.39102 4.46022 7.43711 4.5715 7.43711 4.68754V6.87504C7.43711 6.99107 7.39102 7.10235 7.30897 7.1844C7.22692 7.26644 7.11564 7.31254 6.99961 7.31254C6.88358 7.31254 6.7723 7.26644 6.69025 7.1844C6.6082 7.10235 6.56211 6.99107 6.56211 6.87504ZM7.65586 8.84379C7.65586 8.97358 7.61737 9.10046 7.54526 9.20838C7.47315 9.3163 7.37066 9.40041 7.25075 9.45008C7.13083 9.49975 6.99888 9.51275 6.87158 9.48743C6.74428 9.4621 6.62735 9.3996 6.53557 9.30782C6.44379 9.21605 6.38129 9.09911 6.35597 8.97181C6.33065 8.84451 6.34364 8.71256 6.39331 8.59265C6.44298 8.47274 6.5271 8.37024 6.63502 8.29813C6.74294 8.22602 6.86982 8.18754 6.99961 8.18754C7.17366 8.18754 7.34058 8.25668 7.46365 8.37975C7.58672 8.50282 7.65586 8.66974 7.65586 8.84379Z" fill="#A63418"/>
</svg>
