<svg width="14" height="12" viewBox="0 0 14 12" fill="none" xmlns="http://www.w3.org/2000/svg">
<path d="M12.9501 9.28621L8.16768 0.980817C8.04817 0.777339 7.87756 0.608624 7.67276 0.491397C7.46796 0.37417 7.23608 0.3125 7.0001 0.3125C6.76412 0.3125 6.53224 0.37417 6.32744 0.491397C6.12264 0.608624 5.95203 0.777339 5.83252 0.980817L1.0501 9.28621C0.93511 9.48302 0.874512 9.70686 0.874512 9.9348C0.874512 10.1627 0.93511 10.3866 1.0501 10.5834C1.16808 10.7881 1.33839 10.9577 1.54358 11.0749C1.74876 11.192 1.98142 11.2525 2.21768 11.25H11.7825C12.0186 11.2523 12.251 11.1918 12.456 11.0746C12.661 10.9575 12.8311 10.7879 12.949 10.5834C13.0642 10.3867 13.1249 10.1629 13.1251 9.93495C13.1253 9.70701 13.0649 9.48312 12.9501 9.28621ZM6.5626 4.68754C6.5626 4.5715 6.60869 4.46022 6.69074 4.37818C6.77279 4.29613 6.88407 4.25004 7.0001 4.25004C7.11613 4.25004 7.22741 4.29613 7.30946 4.37818C7.39151 4.46022 7.4376 4.5715 7.4376 4.68754V6.87504C7.4376 6.99107 7.39151 7.10235 7.30946 7.1844C7.22741 7.26644 7.11613 7.31254 7.0001 7.31254C6.88407 7.31254 6.77279 7.26644 6.69074 7.1844C6.60869 7.10235 6.5626 6.99107 6.5626 6.87504V4.68754ZM7.0001 9.50004C6.8703 9.50004 6.74343 9.46155 6.63551 9.38944C6.52759 9.31733 6.44347 9.21484 6.3938 9.09492C6.34413 8.97501 6.33114 8.84306 6.35646 8.71576C6.38178 8.58846 6.44428 8.47153 6.53606 8.37975C6.62784 8.28797 6.74477 8.22547 6.87207 8.20015C6.99937 8.17482 7.13132 8.18782 7.25123 8.23749C7.37115 8.28716 7.47364 8.37127 7.54575 8.47919C7.61786 8.58711 7.65635 8.71399 7.65635 8.84379C7.65635 9.01783 7.58721 9.18475 7.46414 9.30782C7.34107 9.43089 7.17415 9.50004 7.0001 9.50004Z" fill="#A63418"/>
</svg>
