<svg width="10" height="12" viewBox="0 0 10 12" fill="none" xmlns="http://www.w3.org/2000/svg">
<path d="M1.69738 12V8.048H0.769375V6.864H1.69738V5.712H0.769375V4.528H1.69738V0.575999H4.20938L5.45738 4.528H6.91338V0.575999H8.68937V4.528H9.60138V5.712H8.68937V6.864H9.60138V8.048H8.68937V12H6.16138L4.88138 8.048H3.47338V12H1.69738ZM3.47338 6.864H4.52938L4.17738 5.712H3.44138L3.47338 6.864ZM6.96138 9.504H7.04138L6.97738 8.048H6.54538L6.96138 9.504ZM3.40938 4.528H3.85738L3.39338 2.992H3.32938L3.40938 4.528ZM6.20938 6.864H6.94538L6.91338 5.712H5.84138L6.20938 6.864Z" fill="black"/>
</svg>
